<svg xmlns="http://www.w3.org/2000/svg" width="113" height="113" viewBox="0 0 113 113">
  <g id="Grupo_17900" data-name="Grupo 17900" transform="translate(978 1405)">
    <rect id="Rectángulo_4442" data-name="Rectángulo 4442" width="113" height="113" transform="translate(-978 -1405)" fill="none"/>
    <g id="Grupo_17899" data-name="Grupo 17899" transform="translate(-1771.593 -2677.402)">
      <g id="Grupo_17897" data-name="Grupo 17897" transform="translate(816.954 1283.763)">
        <path id="Trazado_28539" data-name="Trazado 28539" d="M881.281,1367.738H826.709a3.2,3.2,0,0,1-3.2-3.2V1287.01a3.2,3.2,0,0,1,3.2-3.2h54.572a3.2,3.2,0,0,1,3.2,3.2v77.525A3.2,3.2,0,0,1,881.281,1367.738Z" transform="translate(-817.206 -1283.808)" fill="#3c87d0"/>
        <path id="Trazado_28540" data-name="Trazado 28540" d="M874.772,1374.246H820.2a3.2,3.2,0,0,1-3.2-3.2v-77.525a3.2,3.2,0,0,1,3.2-3.2h54.571a3.2,3.2,0,0,1,3.2,3.2v77.525A3.2,3.2,0,0,1,874.772,1374.246Z" transform="translate(-816.999 -1284.015)" fill="#c8effe"/>
        <path id="Trazado_28541" data-name="Trazado 28541" d="M876.448,1290.316h-6.692a3.2,3.2,0,0,1,3.2,3.2v77.525a3.2,3.2,0,0,1-3.2,3.2h6.692a3.2,3.2,0,0,0,3.2-3.2v-77.525a3.2,3.2,0,0,0-3.2-3.2Z" transform="translate(-818.675 -1284.015)" fill="#b3dafe"/>
        <g id="Grupo_17891" data-name="Grupo 17891" transform="translate(34.146 18.31)">
          <g id="Grupo_17888" data-name="Grupo 17888">
            <path id="Trazado_28542" data-name="Trazado 28542" d="M871.136,1305.252h-17.6a1.266,1.266,0,1,1,0-2.533h17.6a1.266,1.266,0,1,1,0,2.533Z" transform="translate(-852.265 -1302.719)" fill="#3e5959"/>
          </g>
          <g id="Grupo_17889" data-name="Grupo 17889" transform="translate(0 5.925)">
            <path id="Trazado_28543" data-name="Trazado 28543" d="M871.136,1311.371h-17.6a1.266,1.266,0,1,1,0-2.533h17.6a1.266,1.266,0,1,1,0,2.533Z" transform="translate(-852.265 -1308.838)" fill="#3e5959"/>
          </g>
          <g id="Grupo_17890" data-name="Grupo 17890" transform="translate(0 11.85)">
            <path id="Trazado_28544" data-name="Trazado 28544" d="M871.136,1317.491h-17.6a1.266,1.266,0,1,1,0-2.533h17.6a1.266,1.266,0,1,1,0,2.533Z" transform="translate(-852.265 -1314.958)" fill="#3e5959"/>
          </g>
        </g>
        <g id="Grupo_17892" data-name="Grupo 17892" transform="translate(35.385 63.226)">
          <path id="Trazado_28545" data-name="Trazado 28545" d="M871.176,1351.642H854.811a1.266,1.266,0,1,1,0-2.533h16.365a1.266,1.266,0,1,1,0,2.533Z" transform="translate(-853.545 -1349.109)" fill="#3e5959"/>
        </g>
        <g id="Grupo_17893" data-name="Grupo 17893" transform="translate(6.692 50.867)">
          <path id="Trazado_28546" data-name="Trazado 28546" d="M842.782,1338.877h-17.6a1.266,1.266,0,1,1,0-2.533h17.6a1.266,1.266,0,1,1,0,2.533Z" transform="translate(-823.911 -1336.344)" fill="#3e5959"/>
        </g>
        <g id="Grupo_17894" data-name="Grupo 17894" transform="translate(6.692 44.942)">
          <path id="Trazado_28547" data-name="Trazado 28547" d="M842.782,1332.758h-17.6a1.266,1.266,0,1,1,0-2.533h17.6a1.266,1.266,0,1,1,0,2.533Z" transform="translate(-823.911 -1330.225)" fill="#3e5959"/>
        </g>
        <path id="Trazado_28548" data-name="Trazado 28548" d="M836.062,1297.439V1309.2h11.765a11.765,11.765,0,0,0-11.765-11.765Z" transform="translate(-817.605 -1284.241)" fill="#ee6161"/>
        <path id="Trazado_28549" data-name="Trazado 28549" d="M835.676,1297.439a11.764,11.764,0,1,0,11.765,11.765H835.676Z" transform="translate(-817.219 -1284.241)" fill="#fea95c"/>
        <path id="Trazado_28550" data-name="Trazado 28550" d="M871.47,1341.29H850.32a.845.845,0,0,1-.844-.845v-12.158a.844.844,0,0,1,.844-.844h21.149a.845.845,0,0,1,.845.844v12.158A.845.845,0,0,1,871.47,1341.29Z" transform="translate(-818.031 -1285.194)" fill="#ee6161"/>
        <path id="Trazado_28551" data-name="Trazado 28551" d="M828.455,1366.985h-3.7a.845.845,0,0,1-.844-.845v-18.47a.844.844,0,0,1,.844-.844h3.7a.844.844,0,0,1,.844.844v18.47A.845.845,0,0,1,828.455,1366.985Z" transform="translate(-817.219 -1285.81)" fill="#fe7701"/>
        <path id="Trazado_28552" data-name="Trazado 28552" d="M838.838,1367.145h-3.7a.845.845,0,0,1-.844-.845v-13.623a.844.844,0,0,1,.844-.844h3.7a.844.844,0,0,1,.844.844V1366.3a.845.845,0,0,1-.844.845Z" transform="translate(-817.548 -1285.969)" fill="#fe9738"/>
        <path id="Trazado_28553" data-name="Trazado 28553" d="M849.22,1367.343h-3.7a.845.845,0,0,1-.844-.845v-7.586a.844.844,0,0,1,.844-.844h3.7a.844.844,0,0,1,.844.844v7.586A.845.845,0,0,1,849.22,1367.343Z" transform="translate(-817.878 -1286.167)" fill="#fea95c"/>
        <g id="Grupo_17895" data-name="Grupo 17895" transform="translate(35.385 69.449)">
          <path id="Trazado_28554" data-name="Trazado 28554" d="M871.176,1358.069H854.811a1.266,1.266,0,1,1,0-2.533h16.365a1.266,1.266,0,1,1,0,2.533Z" transform="translate(-853.545 -1355.536)" fill="#3e5959"/>
        </g>
        <g id="Grupo_17896" data-name="Grupo 17896" transform="translate(35.385 75.672)">
          <path id="Trazado_28555" data-name="Trazado 28555" d="M871.176,1364.5H854.811a1.266,1.266,0,1,1,0-2.533h16.365a1.266,1.266,0,1,1,0,2.533Z" transform="translate(-853.545 -1361.963)" fill="#3e5959"/>
        </g>
      </g>
      <g id="Grupo_17898" data-name="Grupo 17898" transform="translate(815.593 1282.402)">
        <path id="Trazado_28556" data-name="Trazado 28556" d="M853.532,1305.252h17.6a1.266,1.266,0,1,0,0-2.533h-17.6a1.266,1.266,0,1,0,0,2.533Z" transform="translate(-816.758 -1283.047)" fill="#00223d"/>
        <path id="Trazado_28557" data-name="Trazado 28557" d="M852.265,1310.1a1.266,1.266,0,0,0,1.267,1.266h17.6a1.266,1.266,0,1,0,0-2.533h-17.6A1.267,1.267,0,0,0,852.265,1310.1Z" transform="translate(-816.758 -1283.242)" fill="#00223d"/>
        <path id="Trazado_28558" data-name="Trazado 28558" d="M853.532,1317.491h17.6a1.266,1.266,0,1,0,0-2.533h-17.6a1.266,1.266,0,1,0,0,2.533Z" transform="translate(-816.758 -1283.436)" fill="#00223d"/>
        <path id="Trazado_28559" data-name="Trazado 28559" d="M872.444,1350.375a1.266,1.266,0,0,0-1.266-1.266H854.811a1.266,1.266,0,1,0,0,2.533h16.366A1.267,1.267,0,0,0,872.444,1350.375Z" transform="translate(-816.799 -1284.521)" fill="#00223d"/>
        <path id="Trazado_28560" data-name="Trazado 28560" d="M844.048,1337.61a1.267,1.267,0,0,0-1.266-1.266h-17.6a1.266,1.266,0,1,0,0,2.533h17.6A1.266,1.266,0,0,0,844.048,1337.61Z" transform="translate(-815.857 -1284.116)" fill="#00223d"/>
        <path id="Trazado_28561" data-name="Trazado 28561" d="M825.177,1332.758h17.6a1.266,1.266,0,1,0,0-2.533h-17.6a1.266,1.266,0,1,0,0,2.533Z" transform="translate(-815.857 -1283.921)" fill="#00223d"/>
        <path id="Trazado_28562" data-name="Trazado 28562" d="M835.631,1296.033a13.126,13.126,0,1,0,13.126,13.126,13.141,13.141,0,0,0-13.126-13.126Zm0,23.529a10.4,10.4,0,0,1-1.361-20.717v10.315a1.362,1.362,0,0,0,1.361,1.361h10.315A10.418,10.418,0,0,1,835.631,1319.562Zm1.362-11.764v-8.953a10.424,10.424,0,0,1,8.952,8.953Z" transform="translate(-815.813 -1282.835)" fill="#00223d"/>
        <path id="Trazado_28563" data-name="Trazado 28563" d="M848.069,1328.242V1340.4a2.209,2.209,0,0,0,2.207,2.206h21.15a2.208,2.208,0,0,0,2.206-2.206v-12.159a2.209,2.209,0,0,0-2.206-2.207h-21.15a2.209,2.209,0,0,0-2.207,2.207Zm2.724.517h20.115v11.124H850.793Z" transform="translate(-816.625 -1283.788)" fill="#00223d"/>
        <path id="Trazado_28564" data-name="Trazado 28564" d="M822.505,1366.1a2.208,2.208,0,0,0,2.206,2.207h3.7a2.209,2.209,0,0,0,2.207-2.207v-18.47a2.209,2.209,0,0,0-2.207-2.206h-3.7a2.208,2.208,0,0,0-2.206,2.206Zm2.723-17.952h2.666v17.435h-2.666Z" transform="translate(-815.813 -1284.404)" fill="#00223d"/>
        <path id="Trazado_28565" data-name="Trazado 28565" d="M835.093,1350.425a2.208,2.208,0,0,0-2.206,2.206v13.624a2.208,2.208,0,0,0,2.206,2.207h3.7a2.208,2.208,0,0,0,2.206-2.207v-13.624a2.208,2.208,0,0,0-2.206-2.206Zm3.183,15.313h-2.665v-12.589h2.665Z" transform="translate(-816.142 -1284.563)" fill="#00223d"/>
        <path id="Trazado_28566" data-name="Trazado 28566" d="M845.476,1368.659h3.7a2.208,2.208,0,0,0,2.206-2.207v-7.586a2.208,2.208,0,0,0-2.206-2.206h-3.7a2.208,2.208,0,0,0-2.207,2.206v7.586A2.209,2.209,0,0,0,845.476,1368.659Zm.517-9.275h2.666v6.551h-2.666Z" transform="translate(-816.472 -1284.761)" fill="#00223d"/>
        <path id="Trazado_28567" data-name="Trazado 28567" d="M871.176,1355.536H854.811a1.266,1.266,0,1,0,0,2.533h16.365a1.266,1.266,0,1,0,0-2.533Z" transform="translate(-816.799 -1284.726)" fill="#00223d"/>
        <path id="Trazado_28568" data-name="Trazado 28568" d="M871.176,1361.963H854.811a1.266,1.266,0,1,0,0,2.533h16.365a1.266,1.266,0,1,0,0-2.533Z" transform="translate(-816.799 -1284.93)" fill="#00223d"/>
        <path id="Trazado_28569" data-name="Trazado 28569" d="M884.232,1299.284a1.361,1.361,0,0,0,1.361-1.361v-10.958a4.568,4.568,0,0,0-4.563-4.563H826.458a4.568,4.568,0,0,0-4.563,4.563v1.738h-1.738a4.569,4.569,0,0,0-4.563,4.564V1351.6a1.361,1.361,0,1,0,2.723,0v-58.335a1.842,1.842,0,0,1,1.841-1.841h54.571a1.842,1.842,0,0,1,1.841,1.841v77.525a1.842,1.842,0,0,1-1.841,1.841H820.156a1.843,1.843,0,0,1-1.841-1.841v-12.836a1.361,1.361,0,0,0-2.723,0v12.836a4.568,4.568,0,0,0,4.563,4.563h54.571a4.569,4.569,0,0,0,4.564-4.563v-1.738h1.738a4.569,4.569,0,0,0,4.563-4.564v-60.213a1.361,1.361,0,1,0-2.723,0v60.213a1.842,1.842,0,0,1-1.841,1.841h-1.738v-73.063a4.57,4.57,0,0,0-4.564-4.564H824.617v-1.738a1.843,1.843,0,0,1,1.841-1.841H881.03a1.843,1.843,0,0,1,1.841,1.841v10.958a1.361,1.361,0,0,0,1.361,1.361Z" transform="translate(-815.593 -1282.402)" fill="#00223d"/>
      </g>
    </g>
  </g>
</svg>
