<svg xmlns="http://www.w3.org/2000/svg" width="685" height="270.029" viewBox="0 0 685 270.029">
  <g id="Grupo_18130" data-name="Grupo 18130" transform="translate(1636 2596.029)">
    <path id="Trazado_29168" data-name="Trazado 29168" d="M10,0H275a10,10,0,0,1,10,10V69a10,10,0,0,1-10,10H10A10,10,0,0,1,0,69V10A10,10,0,0,1,10,0Z" transform="translate(-1636 -2405)" fill="#f4ff8d"/>
    <path id="Trazado_29169" data-name="Trazado 29169" d="M10,0H395a10,10,0,0,1,10,10V69a10,10,0,0,1-10,10H10A10,10,0,0,1,0,69V10A10,10,0,0,1,10,0Z" transform="translate(-1446 -2496)" fill="#f4ff8d"/>
    <path id="Trazado_29170" data-name="Trazado 29170" d="M10,0H294a10,10,0,0,1,10,10V69a10,10,0,0,1-10,10H10A10,10,0,0,1,0,69V10A10,10,0,0,1,10,0Z" transform="translate(-1255 -2586)" fill="#f4ff8d"/>
    <path id="Trazado_29171" data-name="Trazado 29171" d="M8.381,27.273a6.162,6.162,0,0,1-5.312-2.557q-1.853-2.557-1.853-7.6t1.846-7.6A6.169,6.169,0,0,1,8.381,6.971a6.155,6.155,0,0,1,5.3,2.543q1.846,2.543,1.846,7.6t-1.853,7.6A6.148,6.148,0,0,1,8.381,27.273Zm0-3.555a2.6,2.6,0,0,0,2.372-1.62,11.28,11.28,0,0,0,.841-4.983,11.2,11.2,0,0,0-.848-4.983,2.6,2.6,0,0,0-2.365-1.62q-3.227,0-3.227,6.6T8.381,23.719ZM24.541,7.244h3.746V27H24.363V11.291l-4.539,4.225V11.469Z" transform="translate(-1616 -2422)" fill="#00223d"/>
    <path id="Trazado_29172" data-name="Trazado 29172" d="M8.381,27.273a6.162,6.162,0,0,1-5.312-2.557q-1.853-2.557-1.853-7.6t1.846-7.6A6.169,6.169,0,0,1,8.381,6.971a6.155,6.155,0,0,1,5.3,2.543q1.846,2.543,1.846,7.6t-1.853,7.6A6.148,6.148,0,0,1,8.381,27.273Zm0-3.555a2.6,2.6,0,0,0,2.372-1.62,11.28,11.28,0,0,0,.841-4.983,11.2,11.2,0,0,0-.848-4.983,2.6,2.6,0,0,0-2.365-1.62q-3.227,0-3.227,6.6T8.381,23.719ZM23.6,23.486H32.02V27H18.088V24.033l7.861-8.025a4.947,4.947,0,0,0,1.709-3.4,2.408,2.408,0,0,0-.7-1.832,2.772,2.772,0,0,0-1.989-.67q-2.8,0-2.8,3.186V14.75l-3.924-.4v-.984a6.161,6.161,0,0,1,1.8-4.751,6.912,6.912,0,0,1,4.895-1.675A7.24,7.24,0,0,1,29.7,8.461a5.115,5.115,0,0,1,1.839,4.17,5.913,5.913,0,0,1-.622,2.707,11.315,11.315,0,0,1-1.976,2.639Z" transform="translate(-1412 -2513)" fill="#00223d"/>
    <path id="Trazado_29173" data-name="Trazado 29173" d="M8.381,27.273a6.162,6.162,0,0,1-5.312-2.557q-1.853-2.557-1.853-7.6t1.846-7.6A6.169,6.169,0,0,1,8.381,6.971a6.155,6.155,0,0,1,5.3,2.543q1.846,2.543,1.846,7.6t-1.853,7.6A6.148,6.148,0,0,1,8.381,27.273Zm0-3.555a2.6,2.6,0,0,0,2.372-1.62,11.28,11.28,0,0,0,.841-4.983,11.2,11.2,0,0,0-.848-4.983,2.6,2.6,0,0,0-2.365-1.62q-3.227,0-3.227,6.6T8.381,23.719Zm16.666,3.555q-3.691,0-5.387-1.8t-1.7-5.523L22,19.768a14.282,14.282,0,0,0,.062,1.449,5.009,5.009,0,0,0,.246,1.121,2.006,2.006,0,0,0,.52.841,2.361,2.361,0,0,0,.889.485,4.391,4.391,0,0,0,1.333.178,3.2,3.2,0,0,0,2.331-.793,2.772,2.772,0,0,0,.813-2.078,2.794,2.794,0,0,0-.779-2.14A2.933,2.933,0,0,0,25.32,18.1h-.766V15.037h.711a2.138,2.138,0,0,0,1.634-.7,2.486,2.486,0,0,0,.649-1.764,1.987,1.987,0,0,0-.711-1.641,2.89,2.89,0,0,0-1.873-.574,2.807,2.807,0,0,0-1.066.185,1.989,1.989,0,0,0-.718.472,2.086,2.086,0,0,0-.424.725,3.808,3.808,0,0,0-.205.861,8.6,8.6,0,0,0-.048.957l-3.979-.191a6.324,6.324,0,0,1,1.7-4.751,6.464,6.464,0,0,1,4.7-1.647,6.723,6.723,0,0,1,4.512,1.511,4.731,4.731,0,0,1,1.777,3.753,4.271,4.271,0,0,1-.759,2.543,4.344,4.344,0,0,1-1.729,1.5,4.869,4.869,0,0,1,1.258.561,5.156,5.156,0,0,1,1.1.943,4.21,4.21,0,0,1,.813,1.436,5.776,5.776,0,0,1,.3,1.914A5.583,5.583,0,0,1,30.242,25.6,7.712,7.712,0,0,1,25.047,27.273Z" transform="translate(-1222 -2603)" fill="#00223d"/>
    <path id="Trazado_29174" data-name="Trazado 29174" d="M7.363,5.25a4.071,4.071,0,0,1,2.153.571A3.859,3.859,0,0,1,10.962,7.35a4.485,4.485,0,0,1,.5,2.119,4.172,4.172,0,0,1-1.138,2.993,3.9,3.9,0,0,1-2.964,1.2H3.906V19H2.158V5.25Zm-.254,6.885A2.5,2.5,0,0,0,9.023,11.4a2.728,2.728,0,0,0,.693-1.948,2.736,2.736,0,0,0-.693-1.938,2.483,2.483,0,0,0-1.914-.747h-3.2v5.371Zm8.633-1.045A2.9,2.9,0,0,1,16.934,9.8a3.588,3.588,0,0,1,1.846-.508v1.592a3.163,3.163,0,0,0-2.231.713,2.978,2.978,0,0,0-.767,2.275V19H14.092V9.4h1.65Zm13.3,2.92-.02.459h-7.5a3.392,3.392,0,0,0,.918,2.456,3.014,3.014,0,0,0,2.188.854,2.878,2.878,0,0,0,1.592-.459,2.978,2.978,0,0,0,1.094-1.27l1.523.322A4.33,4.33,0,0,1,27.2,18.434a4.476,4.476,0,0,1-2.549.752,4.638,4.638,0,0,1-3.457-1.338A4.977,4.977,0,0,1,19.873,14.2,4.953,4.953,0,0,1,21.2,10.553a4.58,4.58,0,0,1,3.4-1.338,4.334,4.334,0,0,1,3.228,1.23A4.862,4.862,0,0,1,29.043,14.01Zm-4.443-3.5a2.994,2.994,0,0,0-2,.679,3.11,3.11,0,0,0-1.011,1.978h5.752a2.852,2.852,0,0,0-.84-1.978A2.712,2.712,0,0,0,24.6,10.514Zm12.158-1.3a4.366,4.366,0,0,1,1.738.352,4.276,4.276,0,0,1,1.426.986,4.61,4.61,0,0,1,.962,1.582,5.834,5.834,0,0,1,.356,2.07,5.076,5.076,0,0,1-1.294,3.623,4.2,4.2,0,0,1-3.188,1.377,3.8,3.8,0,0,1-2.007-.547,3.584,3.584,0,0,1-1.372-1.475v6.65H31.689V9.4H33.32l.039,1.865a3.514,3.514,0,0,1,1.367-1.5A3.835,3.835,0,0,1,36.758,9.215Zm-.332,8.525a2.915,2.915,0,0,0,2.222-.972,3.614,3.614,0,0,0,.9-2.563,3.6,3.6,0,0,0-.9-2.559,3.029,3.029,0,0,0-4.478.044,3.6,3.6,0,0,0-.918,2.515,3.614,3.614,0,0,0,.918,2.524A2.929,2.929,0,0,0,36.426,17.74Zm9.7,1.445a3.267,3.267,0,0,1-2.1-.659,2.367,2.367,0,0,1-.825-1.968,2.8,2.8,0,0,1,.264-1.255,2.212,2.212,0,0,1,.781-.874,4.686,4.686,0,0,1,1.128-.542,10.427,10.427,0,0,1,1.46-.347l1.553-.254q.85-.156.85-.889a1.678,1.678,0,0,0-.6-1.431,2.447,2.447,0,0,0-1.519-.454,2.493,2.493,0,0,0-1.5.439,1.839,1.839,0,0,0-.713,1.348l-1.523-.322a2.932,2.932,0,0,1,1.2-2.056,4.488,4.488,0,0,1,2.617-.688,5.308,5.308,0,0,1,1.392.171,3.782,3.782,0,0,1,1.162.537,2.409,2.409,0,0,1,.83,1.035,3.852,3.852,0,0,1,.3,1.577V16.52a1.622,1.622,0,0,0,.22,1,.949.949,0,0,0,.757.259H52V19h-.84a1.6,1.6,0,0,1-1.816-1.3h-.078A3.668,3.668,0,0,1,46.123,19.186Zm.391-1.367a2.561,2.561,0,0,0,2.061-.928,3.819,3.819,0,0,0,.781-2.539l-2.539.488a3.418,3.418,0,0,0-1.489.532,1.238,1.238,0,0,0-.483,1.05,1.224,1.224,0,0,0,.464,1.055A1.983,1.983,0,0,0,46.514,17.818Zm9.521-6.729A2.9,2.9,0,0,1,57.227,9.8a3.588,3.588,0,0,1,1.846-.508v1.592a3.163,3.163,0,0,0-2.231.713,2.978,2.978,0,0,0-.767,2.275V19H54.385V9.4h1.65Zm7.119,8.1a3.267,3.267,0,0,1-2.1-.659,2.367,2.367,0,0,1-.825-1.968,2.8,2.8,0,0,1,.264-1.255,2.212,2.212,0,0,1,.781-.874,4.686,4.686,0,0,1,1.128-.542,10.427,10.427,0,0,1,1.46-.347l1.553-.254q.85-.156.85-.889a1.678,1.678,0,0,0-.6-1.431,2.447,2.447,0,0,0-1.519-.454,2.493,2.493,0,0,0-1.5.439,1.839,1.839,0,0,0-.713,1.348L60.4,11.979a2.932,2.932,0,0,1,1.2-2.056,4.488,4.488,0,0,1,2.617-.688,5.308,5.308,0,0,1,1.392.171,3.782,3.782,0,0,1,1.162.537,2.409,2.409,0,0,1,.83,1.035,3.852,3.852,0,0,1,.3,1.577V16.52a1.622,1.622,0,0,0,.22,1,.949.949,0,0,0,.757.259h.156V19h-.84a1.6,1.6,0,0,1-1.816-1.3H66.3A3.668,3.668,0,0,1,63.154,19.186Zm.391-1.367a2.561,2.561,0,0,0,2.061-.928,3.819,3.819,0,0,0,.781-2.539l-2.539.488a3.418,3.418,0,0,0-1.489.532,1.238,1.238,0,0,0-.483,1.05,1.224,1.224,0,0,0,.464,1.055A1.983,1.983,0,0,0,63.545,17.818Zm11.66,1.357A4.624,4.624,0,0,1,71.768,17.8a4.912,4.912,0,0,1-1.357-3.6,4.922,4.922,0,0,1,1.353-3.6,5,5,0,0,1,6.221-.537A4.238,4.238,0,0,1,79.6,12.389l-1.582.254a2.922,2.922,0,0,0-1.084-1.494,2.952,2.952,0,0,0-1.738-.527,2.838,2.838,0,0,0-2.222.986A3.757,3.757,0,0,0,72.1,14.2a3.739,3.739,0,0,0,.874,2.583,2.844,2.844,0,0,0,2.222.981,2.952,2.952,0,0,0,1.738-.527,2.922,2.922,0,0,0,1.084-1.494L79.6,16a4.243,4.243,0,0,1-1.626,2.329A4.65,4.65,0,0,1,75.205,19.176ZM82.949,7.145A1.15,1.15,0,0,1,81.807,6a1.083,1.083,0,0,1,.337-.8,1.107,1.107,0,0,1,.806-.332,1.1,1.1,0,0,1,.8.332,1.083,1.083,0,0,1,.337.8,1.1,1.1,0,0,1-.337.806A1.088,1.088,0,0,1,82.949,7.145ZM82.09,19V9.4h1.7V19ZM90.625,7.75l2.451-3.184.9.654L91.787,7.75Zm.645,11.436a5.06,5.06,0,0,1-2.461-.6,4.338,4.338,0,0,1-1.733-1.743,5.354,5.354,0,0,1-.64-2.651A4.89,4.89,0,0,1,87.8,10.577a5.111,5.111,0,0,1,6.948,0A4.9,4.9,0,0,1,96.1,14.2a4.9,4.9,0,0,1-1.362,3.628A4.7,4.7,0,0,1,91.27,19.186Zm-.01-1.406a2.948,2.948,0,0,0,2.271-.986,3.7,3.7,0,0,0,.9-2.6,3.682,3.682,0,0,0-.9-2.588,2.948,2.948,0,0,0-2.271-.986,2.908,2.908,0,0,0-2.251.986,3.706,3.706,0,0,0-.894,2.588,3.72,3.72,0,0,0,.894,2.6A2.908,2.908,0,0,0,91.26,17.779Zm12.021-8.564a3.339,3.339,0,0,1,2.417.869,3.242,3.242,0,0,1,.9,2.451V19h-1.689V12.916a2.27,2.27,0,0,0-.586-1.719,2.1,2.1,0,0,0-1.5-.557,2.322,2.322,0,0,0-1.709.659,2.675,2.675,0,0,0-.674,1.958V19H98.75V9.4h1.689v1.23A3.206,3.206,0,0,1,103.281,9.215ZM122.148,4h1.689V19h-1.631l-.039-1.865a3.532,3.532,0,0,1-1.367,1.514,3.81,3.81,0,0,1-2.031.557,4.363,4.363,0,0,1-3.169-1.353,4.623,4.623,0,0,1-.967-1.587,5.8,5.8,0,0,1-.356-2.061,5.048,5.048,0,0,1,1.3-3.6,4.209,4.209,0,0,1,3.188-1.387,3.826,3.826,0,0,1,2.007.542,3.552,3.552,0,0,1,1.372,1.47Zm-3.027,13.74a2.875,2.875,0,0,0,2.231-1.011,3.648,3.648,0,0,0,.9-2.524,3.641,3.641,0,0,0-.908-2.52,2.873,2.873,0,0,0-2.227-1.016,2.938,2.938,0,0,0-2.246.981,3.611,3.611,0,0,0-.908,2.554,3.611,3.611,0,0,0,.908,2.554A2.938,2.938,0,0,0,119.121,17.74Zm16.553-3.73-.02.459h-7.5a3.392,3.392,0,0,0,.918,2.456,3.014,3.014,0,0,0,2.188.854,2.878,2.878,0,0,0,1.592-.459,2.978,2.978,0,0,0,1.094-1.27l1.523.322a4.33,4.33,0,0,1-1.641,2.061,4.476,4.476,0,0,1-2.549.752,4.638,4.638,0,0,1-3.457-1.338A4.977,4.977,0,0,1,126.5,14.2a4.953,4.953,0,0,1,1.323-3.643,4.58,4.58,0,0,1,3.4-1.338,4.334,4.334,0,0,1,3.228,1.23A4.862,4.862,0,0,1,135.674,14.01Zm-4.443-3.5a2.994,2.994,0,0,0-2,.679,3.11,3.11,0,0,0-1.011,1.978h5.752a2.852,2.852,0,0,0-.84-1.978A2.712,2.712,0,0,0,131.23,10.514ZM138.32,19V4h1.709V19Zm15.41-9.785a4.366,4.366,0,0,1,1.738.352,4.276,4.276,0,0,1,1.426.986,4.61,4.61,0,0,1,.962,1.582,5.834,5.834,0,0,1,.356,2.07,5.076,5.076,0,0,1-1.294,3.623,4.2,4.2,0,0,1-3.188,1.377,3.8,3.8,0,0,1-2.007-.547,3.584,3.584,0,0,1-1.372-1.475v6.65h-1.689V9.4h1.631l.039,1.865a3.514,3.514,0,0,1,1.367-1.5A3.835,3.835,0,0,1,153.73,9.215ZM153.4,17.74a2.915,2.915,0,0,0,2.222-.972,3.614,3.614,0,0,0,.9-2.563,3.6,3.6,0,0,0-.9-2.559,3.029,3.029,0,0,0-4.478.044,3.6,3.6,0,0,0-.918,2.515,3.614,3.614,0,0,0,.918,2.524A2.929,2.929,0,0,0,153.4,17.74Zm9.131-6.65A2.9,2.9,0,0,1,163.721,9.8a3.588,3.588,0,0,1,1.846-.508v1.592a3.163,3.163,0,0,0-2.231.713,2.978,2.978,0,0,0-.767,2.275V19h-1.689V9.4h1.65Zm8.945,8.1a5.06,5.06,0,0,1-2.461-.6,4.338,4.338,0,0,1-1.733-1.743,5.354,5.354,0,0,1-.64-2.651A4.89,4.89,0,0,1,168,10.577a5.111,5.111,0,0,1,6.948,0,4.9,4.9,0,0,1,1.357,3.618,4.9,4.9,0,0,1-1.362,3.628A4.7,4.7,0,0,1,171.475,19.186Zm-.01-1.406a2.948,2.948,0,0,0,2.271-.986,3.7,3.7,0,0,0,.9-2.6,3.682,3.682,0,0,0-.9-2.588,2.948,2.948,0,0,0-2.271-.986,2.908,2.908,0,0,0-2.251.986,3.706,3.706,0,0,0-.894,2.588,3.72,3.72,0,0,0,.894,2.6A2.908,2.908,0,0,0,171.465,17.779ZM184.492,9.4h1.787l-5.557,14.121h-1.748l1.924-4.756L177.168,9.4h1.875l2.705,7.471Zm11.836,4.609-.02.459h-7.5a3.392,3.392,0,0,0,.918,2.456,3.014,3.014,0,0,0,2.188.854,2.878,2.878,0,0,0,1.592-.459,2.978,2.978,0,0,0,1.094-1.27l1.523.322a4.33,4.33,0,0,1-1.641,2.061,4.476,4.476,0,0,1-2.549.752,4.638,4.638,0,0,1-3.457-1.338,4.977,4.977,0,0,1-1.318-3.652,4.953,4.953,0,0,1,1.323-3.643,4.58,4.58,0,0,1,3.4-1.338,4.334,4.334,0,0,1,3.228,1.23A4.862,4.862,0,0,1,196.328,14.01Zm-4.443-3.5a2.994,2.994,0,0,0-2,.679,3.11,3.11,0,0,0-1.011,1.978h5.752a2.852,2.852,0,0,0-.84-1.978A2.712,2.712,0,0,0,191.885,10.514Zm11.074,8.662a4.624,4.624,0,0,1-3.437-1.377,4.912,4.912,0,0,1-1.357-3.6,4.922,4.922,0,0,1,1.353-3.6,5,5,0,0,1,6.221-.537,4.238,4.238,0,0,1,1.616,2.334l-1.582.254a2.922,2.922,0,0,0-1.084-1.494,2.952,2.952,0,0,0-1.738-.527,2.838,2.838,0,0,0-2.222.986,3.757,3.757,0,0,0-.874,2.588,3.739,3.739,0,0,0,.874,2.583,2.844,2.844,0,0,0,2.222.981,2.952,2.952,0,0,0,1.738-.527,2.922,2.922,0,0,0,1.084-1.494l1.582.264a4.243,4.243,0,0,1-1.626,2.329A4.65,4.65,0,0,1,202.959,19.176ZM212.91,19a2.523,2.523,0,0,1-1.875-.688,2.6,2.6,0,0,1-.684-1.919V10.748h-1.963V9.4h.723a1.387,1.387,0,0,0,1.06-.337,1.658,1.658,0,0,0,.308-1.128V6.2h1.572V9.4h2.207v1.348h-2.207v5.469a1.455,1.455,0,0,0,.366,1.06,1.282,1.282,0,0,0,.962.376h.879V19Zm7.715.186a5.06,5.06,0,0,1-2.461-.6,4.338,4.338,0,0,1-1.733-1.743,5.354,5.354,0,0,1-.64-2.651,4.89,4.89,0,0,1,1.362-3.618,5.111,5.111,0,0,1,6.948,0,4.9,4.9,0,0,1,1.357,3.618,4.9,4.9,0,0,1-1.362,3.628A4.7,4.7,0,0,1,220.625,19.186Zm-.01-1.406a2.948,2.948,0,0,0,2.271-.986,3.7,3.7,0,0,0,.9-2.6,3.682,3.682,0,0,0-.9-2.588,2.948,2.948,0,0,0-2.271-.986,2.908,2.908,0,0,0-2.251.986,3.706,3.706,0,0,0-.894,2.588,3.72,3.72,0,0,0,.894,2.6A2.908,2.908,0,0,0,220.615,17.779Z" transform="translate(-1616 -2378)" fill="#00223d"/>
    <path id="Trazado_29175" data-name="Trazado 29175" d="M9.531,6.842H3.945v4.5H8.867v1.572H3.945v4.492H9.531V19H2.158V5.25H9.531Zm3.779.3A1.15,1.15,0,0,1,12.168,6a1.083,1.083,0,0,1,.337-.8,1.107,1.107,0,0,1,.806-.332,1.1,1.1,0,0,1,.8.332,1.083,1.083,0,0,1,.337.8,1.1,1.1,0,0,1-.337.806A1.088,1.088,0,0,1,13.311,7.145ZM10.234,23.492V22.057a2.747,2.747,0,0,0,1.377-.273,1.5,1.5,0,0,0,.645-.937,7.9,7.9,0,0,0,.186-1.982V9.4H14.15v9.463a5.583,5.583,0,0,1-.889,3.584A3.792,3.792,0,0,1,10.234,23.492ZM26,14.01l-.02.459h-7.5a3.392,3.392,0,0,0,.918,2.456,3.014,3.014,0,0,0,2.188.854,2.878,2.878,0,0,0,1.592-.459,2.978,2.978,0,0,0,1.094-1.27l1.523.322a4.33,4.33,0,0,1-1.641,2.061,4.476,4.476,0,0,1-2.549.752,4.638,4.638,0,0,1-3.457-1.338A4.977,4.977,0,0,1,16.826,14.2a4.953,4.953,0,0,1,1.323-3.643,4.58,4.58,0,0,1,3.4-1.338,4.334,4.334,0,0,1,3.228,1.23A4.862,4.862,0,0,1,26,14.01Zm-4.443-3.5a2.994,2.994,0,0,0-2,.679,3.11,3.11,0,0,0-1.011,1.978H24.3a2.852,2.852,0,0,0-.84-1.978A2.712,2.712,0,0,0,21.553,10.514Zm11.074,8.662A4.624,4.624,0,0,1,29.189,17.8a4.912,4.912,0,0,1-1.357-3.6,4.922,4.922,0,0,1,1.353-3.6,5,5,0,0,1,6.221-.537,4.238,4.238,0,0,1,1.616,2.334l-1.582.254a2.922,2.922,0,0,0-1.084-1.494,2.952,2.952,0,0,0-1.738-.527,2.838,2.838,0,0,0-2.222.986,3.757,3.757,0,0,0-.874,2.588,3.739,3.739,0,0,0,.874,2.583,2.844,2.844,0,0,0,2.222.981,2.952,2.952,0,0,0,1.738-.527,2.922,2.922,0,0,0,1.084-1.494L37.021,16A4.243,4.243,0,0,1,35.4,18.331,4.65,4.65,0,0,1,32.627,19.176ZM45.488,9.4h1.689V19H45.557l-.039-1.27a3,3,0,0,1-1.191,1.079,3.665,3.665,0,0,1-1.68.376,3.339,3.339,0,0,1-2.417-.869,3.242,3.242,0,0,1-.9-2.451V9.4h1.689v6.084a2.278,2.278,0,0,0,.591,1.719,2.091,2.091,0,0,0,1.509.566,2.3,2.3,0,0,0,1.7-.664,2.7,2.7,0,0,0,.669-1.963ZM54.6,19.176A4.624,4.624,0,0,1,51.162,17.8,4.912,4.912,0,0,1,49.8,14.2a4.922,4.922,0,0,1,1.353-3.6,5,5,0,0,1,6.221-.537,4.238,4.238,0,0,1,1.616,2.334l-1.582.254a2.922,2.922,0,0,0-1.084-1.494,2.952,2.952,0,0,0-1.738-.527,2.838,2.838,0,0,0-2.222.986,3.757,3.757,0,0,0-.874,2.588,3.739,3.739,0,0,0,.874,2.583,2.844,2.844,0,0,0,2.222.981,2.952,2.952,0,0,0,1.738-.527,2.922,2.922,0,0,0,1.084-1.494L58.994,16a4.243,4.243,0,0,1-1.626,2.329A4.65,4.65,0,0,1,54.6,19.176ZM62.344,7.145A1.15,1.15,0,0,1,61.2,6a1.083,1.083,0,0,1,.337-.8,1.107,1.107,0,0,1,.806-.332,1.1,1.1,0,0,1,.8.332,1.083,1.083,0,0,1,.337.8,1.1,1.1,0,0,1-.337.806A1.088,1.088,0,0,1,62.344,7.145ZM61.484,19V9.4h1.7V19ZM70.02,7.75l2.451-3.184.9.654L71.182,7.75Zm.645,11.436a5.06,5.06,0,0,1-2.461-.6,4.338,4.338,0,0,1-1.733-1.743,5.354,5.354,0,0,1-.64-2.651,4.89,4.89,0,0,1,1.362-3.618,5.111,5.111,0,0,1,6.948,0A4.9,4.9,0,0,1,75.5,14.2a4.9,4.9,0,0,1-1.362,3.628A4.7,4.7,0,0,1,70.664,19.186Zm-.01-1.406a2.948,2.948,0,0,0,2.271-.986,3.7,3.7,0,0,0,.9-2.6,3.682,3.682,0,0,0-.9-2.588,2.948,2.948,0,0,0-2.271-.986,2.908,2.908,0,0,0-2.251.986A3.706,3.706,0,0,0,67.51,14.2a3.72,3.72,0,0,0,.894,2.6A2.908,2.908,0,0,0,70.654,17.779ZM82.676,9.215a3.339,3.339,0,0,1,2.417.869,3.242,3.242,0,0,1,.9,2.451V19H84.307V12.916a2.27,2.27,0,0,0-.586-1.719,2.1,2.1,0,0,0-1.5-.557,2.322,2.322,0,0,0-1.709.659,2.675,2.675,0,0,0-.674,1.958V19H78.145V9.4h1.689v1.23A3.206,3.206,0,0,1,82.676,9.215ZM87.5,22.633,97.188,4h1.631L89.131,22.633ZM103.564,19a2.523,2.523,0,0,1-1.875-.688,2.6,2.6,0,0,1-.684-1.919V10.748H99.043V9.4h.723a1.387,1.387,0,0,0,1.06-.337,1.658,1.658,0,0,0,.308-1.128V6.2h1.572V9.4h2.207v1.348h-2.207v5.469a1.455,1.455,0,0,0,.366,1.06,1.282,1.282,0,0,0,.962.376h.879V19Zm12.07-4.99-.02.459h-7.5a3.392,3.392,0,0,0,.918,2.456,3.014,3.014,0,0,0,2.188.854,2.878,2.878,0,0,0,1.592-.459,2.978,2.978,0,0,0,1.094-1.27l1.523.322a4.33,4.33,0,0,1-1.641,2.061,4.476,4.476,0,0,1-2.549.752,4.638,4.638,0,0,1-3.457-1.338,4.977,4.977,0,0,1-1.318-3.652,4.953,4.953,0,0,1,1.323-3.643,4.58,4.58,0,0,1,3.4-1.338,4.334,4.334,0,0,1,3.228,1.23A4.862,4.862,0,0,1,115.635,14.01Zm-4.443-3.5a2.994,2.994,0,0,0-2,.679,3.11,3.11,0,0,0-1.011,1.978h5.752a2.852,2.852,0,0,0-.84-1.978A2.712,2.712,0,0,0,111.191,10.514Zm8.74.576A2.9,2.9,0,0,1,121.123,9.8a3.588,3.588,0,0,1,1.846-.508v1.592a3.163,3.163,0,0,0-2.231.713,2.978,2.978,0,0,0-.767,2.275V19h-1.689V9.4h1.65Zm14.834-1.875A3.094,3.094,0,0,1,137,10.03a3.025,3.025,0,0,1,.85,2.29V19h-1.689V12.76a2.169,2.169,0,0,0-.527-1.582,1.8,1.8,0,0,0-1.338-.537,1.9,1.9,0,0,0-1.465.605,2.6,2.6,0,0,0-.557,1.816V19h-1.719V12.828a2.269,2.269,0,0,0-.532-1.636,1.81,1.81,0,0,0-1.362-.552,1.878,1.878,0,0,0-1.46.62,2.694,2.694,0,0,0-.562,1.86V19h-1.689V9.4h1.689v1.24a2.916,2.916,0,0,1,1.1-1.055,3.133,3.133,0,0,1,1.528-.371,3.261,3.261,0,0,1,1.641.405,2.523,2.523,0,0,1,1.064,1.167,2.987,2.987,0,0,1,1.152-1.167A3.3,3.3,0,0,1,134.766,9.215Zm7.217-2.07A1.15,1.15,0,0,1,140.84,6a1.083,1.083,0,0,1,.337-.8,1.107,1.107,0,0,1,.806-.332,1.1,1.1,0,0,1,.8.332,1.083,1.083,0,0,1,.337.8,1.1,1.1,0,0,1-.337.806A1.088,1.088,0,0,1,141.982,7.145ZM141.123,19V9.4h1.7V19Zm9.668-9.785a3.339,3.339,0,0,1,2.417.869,3.242,3.242,0,0,1,.9,2.451V19h-1.689V12.916a2.27,2.27,0,0,0-.586-1.719,2.1,2.1,0,0,0-1.5-.557,2.322,2.322,0,0,0-1.709.659,2.675,2.675,0,0,0-.674,1.958V19H146.26V9.4h1.689v1.23A3.206,3.206,0,0,1,150.791,9.215Zm8.8,9.971a3.267,3.267,0,0,1-2.1-.659,2.367,2.367,0,0,1-.825-1.968,2.8,2.8,0,0,1,.264-1.255,2.212,2.212,0,0,1,.781-.874,4.686,4.686,0,0,1,1.128-.542,10.427,10.427,0,0,1,1.46-.347l1.553-.254q.85-.156.85-.889a1.678,1.678,0,0,0-.6-1.431,2.447,2.447,0,0,0-1.519-.454,2.493,2.493,0,0,0-1.5.439,1.839,1.839,0,0,0-.713,1.348l-1.523-.322a2.932,2.932,0,0,1,1.2-2.056,4.488,4.488,0,0,1,2.617-.688,5.308,5.308,0,0,1,1.392.171,3.782,3.782,0,0,1,1.162.537,2.409,2.409,0,0,1,.83,1.035,3.852,3.852,0,0,1,.3,1.577V16.52a1.622,1.622,0,0,0,.22,1,.949.949,0,0,0,.757.259h.156V19h-.84a1.6,1.6,0,0,1-1.816-1.3h-.078A3.668,3.668,0,0,1,159.59,19.186Zm.391-1.367a2.561,2.561,0,0,0,2.061-.928,3.819,3.819,0,0,0,.781-2.539l-2.539.488a3.418,3.418,0,0,0-1.489.532,1.238,1.238,0,0,0-.483,1.05,1.224,1.224,0,0,0,.464,1.055A1.983,1.983,0,0,0,159.98,17.818Zm11.66,1.357A4.624,4.624,0,0,1,168.2,17.8a4.912,4.912,0,0,1-1.357-3.6,4.922,4.922,0,0,1,1.353-3.6,5,5,0,0,1,6.221-.537,4.238,4.238,0,0,1,1.616,2.334l-1.582.254a2.922,2.922,0,0,0-1.084-1.494,2.952,2.952,0,0,0-1.738-.527,2.838,2.838,0,0,0-2.222.986,3.757,3.757,0,0,0-.874,2.588,3.739,3.739,0,0,0,.874,2.583,2.844,2.844,0,0,0,2.222.981,2.952,2.952,0,0,0,1.738-.527,2.922,2.922,0,0,0,1.084-1.494l1.582.264a4.243,4.243,0,0,1-1.626,2.329A4.65,4.65,0,0,1,171.641,19.176Zm7.744-12.031A1.15,1.15,0,0,1,178.242,6a1.083,1.083,0,0,1,.337-.8,1.107,1.107,0,0,1,.806-.332,1.1,1.1,0,0,1,.8.332,1.083,1.083,0,0,1,.337.8,1.1,1.1,0,0,1-.337.806A1.088,1.088,0,0,1,179.385,7.145ZM178.525,19V9.4h1.7V19Zm8.535-11.25,2.451-3.184.9.654L188.223,7.75Zm.645,11.436a5.06,5.06,0,0,1-2.461-.6,4.338,4.338,0,0,1-1.733-1.743,5.354,5.354,0,0,1-.64-2.651,4.89,4.89,0,0,1,1.362-3.618,5.111,5.111,0,0,1,6.948,0,4.9,4.9,0,0,1,1.357,3.618,4.9,4.9,0,0,1-1.362,3.628A4.7,4.7,0,0,1,187.705,19.186Zm-.01-1.406a2.948,2.948,0,0,0,2.271-.986,3.7,3.7,0,0,0,.9-2.6,3.682,3.682,0,0,0-.9-2.588,2.948,2.948,0,0,0-2.271-.986,2.908,2.908,0,0,0-2.251.986,3.706,3.706,0,0,0-.894,2.588,3.72,3.72,0,0,0,.894,2.6A2.908,2.908,0,0,0,187.7,17.779Zm12.021-8.564a3.339,3.339,0,0,1,2.417.869,3.242,3.242,0,0,1,.9,2.451V19h-1.689V12.916a2.27,2.27,0,0,0-.586-1.719,2.1,2.1,0,0,0-1.5-.557,2.322,2.322,0,0,0-1.709.659,2.675,2.675,0,0,0-.674,1.958V19h-1.689V9.4h1.689v1.23A3.206,3.206,0,0,1,199.717,9.215ZM218.584,4h1.689V19h-1.631l-.039-1.865a3.532,3.532,0,0,1-1.367,1.514,3.81,3.81,0,0,1-2.031.557,4.363,4.363,0,0,1-3.169-1.353,4.622,4.622,0,0,1-.967-1.587,5.805,5.805,0,0,1-.356-2.061,5.048,5.048,0,0,1,1.3-3.6,4.209,4.209,0,0,1,3.188-1.387,3.826,3.826,0,0,1,2.007.542,3.552,3.552,0,0,1,1.372,1.47Zm-3.027,13.74a2.875,2.875,0,0,0,2.231-1.011,3.648,3.648,0,0,0,.9-2.524,3.641,3.641,0,0,0-.908-2.52,2.873,2.873,0,0,0-2.227-1.016,2.938,2.938,0,0,0-2.246.981,3.611,3.611,0,0,0-.908,2.554,3.611,3.611,0,0,0,.908,2.554A2.938,2.938,0,0,0,215.557,17.74Zm16.553-3.73-.02.459h-7.5a3.392,3.392,0,0,0,.918,2.456,3.014,3.014,0,0,0,2.188.854,2.878,2.878,0,0,0,1.592-.459,2.978,2.978,0,0,0,1.094-1.27l1.523.322a4.33,4.33,0,0,1-1.641,2.061,4.476,4.476,0,0,1-2.549.752,4.638,4.638,0,0,1-3.457-1.338,4.977,4.977,0,0,1-1.318-3.652,4.953,4.953,0,0,1,1.323-3.643,4.58,4.58,0,0,1,3.4-1.338,4.334,4.334,0,0,1,3.228,1.23A4.862,4.862,0,0,1,232.109,14.01Zm-4.443-3.5a2.994,2.994,0,0,0-2,.679,3.11,3.11,0,0,0-1.011,1.978h5.752a2.852,2.852,0,0,0-.84-1.978A2.712,2.712,0,0,0,227.666,10.514ZM234.756,19V4h1.709V19Zm15.41-9.785a4.366,4.366,0,0,1,1.738.352,4.276,4.276,0,0,1,1.426.986,4.61,4.61,0,0,1,.962,1.582,5.834,5.834,0,0,1,.356,2.07,5.076,5.076,0,0,1-1.294,3.623,4.2,4.2,0,0,1-3.188,1.377,3.8,3.8,0,0,1-2.007-.547,3.584,3.584,0,0,1-1.372-1.475v6.65H245.1V9.4h1.631l.039,1.865a3.514,3.514,0,0,1,1.367-1.5A3.835,3.835,0,0,1,250.166,9.215Zm-.332,8.525a2.915,2.915,0,0,0,2.222-.972,3.614,3.614,0,0,0,.9-2.563,3.6,3.6,0,0,0-.9-2.559,3.029,3.029,0,0,0-4.478.044,3.6,3.6,0,0,0-.918,2.515,3.614,3.614,0,0,0,.918,2.524A2.929,2.929,0,0,0,249.834,17.74Zm9.131-6.65A2.9,2.9,0,0,1,260.156,9.8,3.588,3.588,0,0,1,262,9.293v1.592a3.163,3.163,0,0,0-2.231.713A2.978,2.978,0,0,0,259,13.873V19h-1.689V9.4h1.65Zm8.945,8.1a5.06,5.06,0,0,1-2.461-.6,4.338,4.338,0,0,1-1.733-1.743,5.354,5.354,0,0,1-.64-2.651,4.89,4.89,0,0,1,1.362-3.618,5.111,5.111,0,0,1,6.948,0,4.9,4.9,0,0,1,1.357,3.618,4.9,4.9,0,0,1-1.362,3.628A4.7,4.7,0,0,1,267.91,19.186Zm-.01-1.406a2.948,2.948,0,0,0,2.271-.986,3.7,3.7,0,0,0,.9-2.6,3.682,3.682,0,0,0-.9-2.588,2.948,2.948,0,0,0-2.271-.986,2.908,2.908,0,0,0-2.251.986,3.706,3.706,0,0,0-.894,2.588,3.72,3.72,0,0,0,.894,2.6A2.908,2.908,0,0,0,267.9,17.779ZM280.928,9.4h1.787l-5.557,14.121H275.41l1.924-4.756L273.6,9.4h1.875l2.705,7.471Zm11.836,4.609-.02.459h-7.5a3.392,3.392,0,0,0,.918,2.456,3.014,3.014,0,0,0,2.188.854,2.878,2.878,0,0,0,1.592-.459,2.978,2.978,0,0,0,1.094-1.27l1.523.322a4.33,4.33,0,0,1-1.641,2.061,4.476,4.476,0,0,1-2.549.752,4.638,4.638,0,0,1-3.457-1.338,4.977,4.977,0,0,1-1.318-3.652,4.953,4.953,0,0,1,1.323-3.643,4.58,4.58,0,0,1,3.4-1.338,4.334,4.334,0,0,1,3.228,1.23A4.862,4.862,0,0,1,292.764,14.01Zm-4.443-3.5a2.994,2.994,0,0,0-2,.679,3.11,3.11,0,0,0-1.011,1.978h5.752a2.852,2.852,0,0,0-.84-1.978A2.712,2.712,0,0,0,288.32,10.514Zm11.074,8.662a4.624,4.624,0,0,1-3.437-1.377,4.912,4.912,0,0,1-1.357-3.6,4.922,4.922,0,0,1,1.353-3.6,5,5,0,0,1,6.221-.537,4.238,4.238,0,0,1,1.616,2.334l-1.582.254a2.922,2.922,0,0,0-1.084-1.494,2.952,2.952,0,0,0-1.738-.527,2.838,2.838,0,0,0-2.222.986,3.758,3.758,0,0,0-.874,2.588,3.739,3.739,0,0,0,.874,2.583,2.844,2.844,0,0,0,2.222.981,2.952,2.952,0,0,0,1.738-.527,2.922,2.922,0,0,0,1.084-1.494l1.582.264a4.243,4.243,0,0,1-1.626,2.329A4.65,4.65,0,0,1,299.395,19.176ZM309.346,19a2.523,2.523,0,0,1-1.875-.688,2.6,2.6,0,0,1-.684-1.919V10.748h-1.963V9.4h.723a1.387,1.387,0,0,0,1.06-.337,1.658,1.658,0,0,0,.308-1.128V6.2h1.572V9.4h2.207v1.348h-2.207v5.469a1.455,1.455,0,0,0,.366,1.06,1.282,1.282,0,0,0,.962.376h.879V19Zm7.715.186a5.06,5.06,0,0,1-2.461-.6,4.338,4.338,0,0,1-1.733-1.743,5.354,5.354,0,0,1-.64-2.651,4.89,4.89,0,0,1,1.362-3.618,5.111,5.111,0,0,1,6.948,0,4.9,4.9,0,0,1,1.357,3.618,4.9,4.9,0,0,1-1.362,3.628A4.7,4.7,0,0,1,317.061,19.186Zm-.01-1.406a2.948,2.948,0,0,0,2.271-.986,3.7,3.7,0,0,0,.9-2.6,3.682,3.682,0,0,0-.9-2.588,2.948,2.948,0,0,0-2.271-.986,2.908,2.908,0,0,0-2.251.986,3.706,3.706,0,0,0-.894,2.588,3.72,3.72,0,0,0,.894,2.6A2.908,2.908,0,0,0,317.051,17.779Z" transform="translate(-1410 -2469)" fill="#00223d"/>
    <path id="Trazado_29176" data-name="Trazado 29176" d="M8.047,19.186a7.3,7.3,0,0,1-2.705-.493,6.533,6.533,0,0,1-2.173-1.387,6.186,6.186,0,0,1-1.445-2.231A8.07,8.07,0,0,1,1.2,12.115a7.938,7.938,0,0,1,.527-2.944A6.174,6.174,0,0,1,5.342,5.553a7.37,7.37,0,0,1,2.705-.488,7.251,7.251,0,0,1,2.686.493A6.479,6.479,0,0,1,12.9,6.944a6.28,6.28,0,0,1,1.445,2.227,7.938,7.938,0,0,1,.527,2.944,8.015,8.015,0,0,1-.527,2.954A6.264,6.264,0,0,1,12.9,17.306a6.479,6.479,0,0,1-2.168,1.387A7.251,7.251,0,0,1,8.047,19.186Zm0-1.65a4.913,4.913,0,0,0,3.638-1.45,5.385,5.385,0,0,0,1.44-3.97,6.3,6.3,0,0,0-.4-2.285,4.707,4.707,0,0,0-1.084-1.7A4.756,4.756,0,0,0,10.034,7.1a5.4,5.4,0,0,0-1.987-.361,5.468,5.468,0,0,0-2,.361A4.8,4.8,0,0,0,4.424,8.131a4.674,4.674,0,0,0-1.089,1.7,6.3,6.3,0,0,0-.4,2.285,6.412,6.412,0,0,0,.4,2.3,4.66,4.66,0,0,0,1.089,1.709,4.86,4.86,0,0,0,1.621,1.04A5.4,5.4,0,0,0,8.047,17.535Zm14.814-8.32a4.366,4.366,0,0,1,1.738.352,4.276,4.276,0,0,1,1.426.986,4.61,4.61,0,0,1,.962,1.582,5.834,5.834,0,0,1,.356,2.07,5.076,5.076,0,0,1-1.294,3.623,4.2,4.2,0,0,1-3.188,1.377,3.8,3.8,0,0,1-2.007-.547,3.584,3.584,0,0,1-1.372-1.475v6.65H17.793V9.4h1.631l.039,1.865a3.514,3.514,0,0,1,1.367-1.5A3.835,3.835,0,0,1,22.861,9.215Zm-.332,8.525a2.915,2.915,0,0,0,2.222-.972,3.614,3.614,0,0,0,.9-2.563,3.6,3.6,0,0,0-.9-2.559,3.029,3.029,0,0,0-4.478.044,3.6,3.6,0,0,0-.918,2.515,3.614,3.614,0,0,0,.918,2.524A2.929,2.929,0,0,0,22.529,17.74Zm15.879-3.73-.02.459h-7.5a3.392,3.392,0,0,0,.918,2.456,3.014,3.014,0,0,0,2.188.854,2.878,2.878,0,0,0,1.592-.459,2.978,2.978,0,0,0,1.094-1.27l1.523.322a4.33,4.33,0,0,1-1.641,2.061,4.476,4.476,0,0,1-2.549.752,4.638,4.638,0,0,1-3.457-1.338A4.977,4.977,0,0,1,29.238,14.2a4.953,4.953,0,0,1,1.323-3.643,4.58,4.58,0,0,1,3.4-1.338,4.334,4.334,0,0,1,3.228,1.23A4.862,4.862,0,0,1,38.408,14.01Zm-4.443-3.5a2.994,2.994,0,0,0-2,.679,3.11,3.11,0,0,0-1.011,1.978h5.752a2.852,2.852,0,0,0-.84-1.978A2.712,2.712,0,0,0,33.965,10.514Zm8.74.576A2.9,2.9,0,0,1,43.9,9.8a3.588,3.588,0,0,1,1.846-.508v1.592a3.163,3.163,0,0,0-2.231.713,2.978,2.978,0,0,0-.767,2.275V19H41.055V9.4h1.65Zm7.119,8.1a3.267,3.267,0,0,1-2.1-.659,2.367,2.367,0,0,1-.825-1.968,2.8,2.8,0,0,1,.264-1.255,2.212,2.212,0,0,1,.781-.874,4.686,4.686,0,0,1,1.128-.542,10.427,10.427,0,0,1,1.46-.347l1.553-.254q.85-.156.85-.889a1.678,1.678,0,0,0-.6-1.431,2.447,2.447,0,0,0-1.519-.454,2.493,2.493,0,0,0-1.5.439,1.839,1.839,0,0,0-.713,1.348l-1.523-.322a2.932,2.932,0,0,1,1.2-2.056,4.488,4.488,0,0,1,2.617-.688,5.308,5.308,0,0,1,1.392.171,3.782,3.782,0,0,1,1.162.537,2.409,2.409,0,0,1,.83,1.035,3.852,3.852,0,0,1,.3,1.577V16.52a1.622,1.622,0,0,0,.22,1,.949.949,0,0,0,.757.259H55.7V19h-.84a1.6,1.6,0,0,1-1.816-1.3h-.078A3.668,3.668,0,0,1,49.824,19.186Zm.391-1.367a2.561,2.561,0,0,0,2.061-.928,3.819,3.819,0,0,0,.781-2.539l-2.539.488a3.418,3.418,0,0,0-1.489.532,1.238,1.238,0,0,0-.483,1.05,1.224,1.224,0,0,0,.464,1.055A1.983,1.983,0,0,0,50.215,17.818Zm11.66,1.357A4.624,4.624,0,0,1,58.438,17.8a4.912,4.912,0,0,1-1.357-3.6,4.922,4.922,0,0,1,1.353-3.6,5,5,0,0,1,6.221-.537,4.238,4.238,0,0,1,1.616,2.334l-1.582.254A2.922,2.922,0,0,0,63.6,11.148a2.952,2.952,0,0,0-1.738-.527,2.838,2.838,0,0,0-2.222.986A3.757,3.757,0,0,0,58.77,14.2a3.739,3.739,0,0,0,.874,2.583,2.844,2.844,0,0,0,2.222.981,2.952,2.952,0,0,0,1.738-.527,2.922,2.922,0,0,0,1.084-1.494L66.27,16a4.243,4.243,0,0,1-1.626,2.329A4.65,4.65,0,0,1,61.875,19.176ZM69.619,7.145A1.15,1.15,0,0,1,68.477,6a1.083,1.083,0,0,1,.337-.8,1.107,1.107,0,0,1,.806-.332,1.1,1.1,0,0,1,.8.332,1.083,1.083,0,0,1,.337.8,1.1,1.1,0,0,1-.337.806A1.088,1.088,0,0,1,69.619,7.145ZM68.76,19V9.4h1.7V19ZM77.295,7.75l2.451-3.184.9.654L78.457,7.75Zm.645,11.436a5.06,5.06,0,0,1-2.461-.6,4.338,4.338,0,0,1-1.733-1.743,5.354,5.354,0,0,1-.64-2.651,4.89,4.89,0,0,1,1.362-3.618,5.111,5.111,0,0,1,6.948,0A4.9,4.9,0,0,1,82.773,14.2a4.9,4.9,0,0,1-1.362,3.628A4.7,4.7,0,0,1,77.939,19.186Zm-.01-1.406a2.948,2.948,0,0,0,2.271-.986,3.7,3.7,0,0,0,.9-2.6,3.682,3.682,0,0,0-.9-2.588,2.948,2.948,0,0,0-2.271-.986,2.908,2.908,0,0,0-2.251.986,3.706,3.706,0,0,0-.894,2.588,3.72,3.72,0,0,0,.894,2.6A2.908,2.908,0,0,0,77.93,17.779ZM89.951,9.215a3.339,3.339,0,0,1,2.417.869,3.242,3.242,0,0,1,.9,2.451V19H91.582V12.916A2.27,2.27,0,0,0,91,11.2a2.1,2.1,0,0,0-1.5-.557,2.322,2.322,0,0,0-1.709.659,2.675,2.675,0,0,0-.674,1.958V19H85.42V9.4h1.689v1.23A3.206,3.206,0,0,1,89.951,9.215Zm4.824,13.418L104.463,4h1.631L96.406,22.633ZM113.418,5.25a4.071,4.071,0,0,1,2.153.571,3.859,3.859,0,0,1,1.445,1.528,4.485,4.485,0,0,1,.5,2.119,4.172,4.172,0,0,1-1.138,2.993,3.9,3.9,0,0,1-2.964,1.2h-3.457V19h-1.748V5.25Zm-.254,6.885a2.5,2.5,0,0,0,1.914-.737,2.728,2.728,0,0,0,.693-1.948,2.736,2.736,0,0,0-.693-1.938,2.483,2.483,0,0,0-1.914-.747h-3.2v5.371Zm10.166,7.051a5.06,5.06,0,0,1-2.461-.6,4.338,4.338,0,0,1-1.733-1.743,5.354,5.354,0,0,1-.64-2.651,4.89,4.89,0,0,1,1.362-3.618,5.111,5.111,0,0,1,6.948,0,4.9,4.9,0,0,1,1.357,3.618,4.9,4.9,0,0,1-1.362,3.628A4.7,4.7,0,0,1,123.33,19.186Zm-.01-1.406a2.948,2.948,0,0,0,2.271-.986,3.7,3.7,0,0,0,.9-2.6,3.682,3.682,0,0,0-.9-2.588,2.948,2.948,0,0,0-2.271-.986,2.908,2.908,0,0,0-2.251.986,3.706,3.706,0,0,0-.894,2.588,3.72,3.72,0,0,0,.894,2.6A2.908,2.908,0,0,0,123.32,17.779Zm10.527,1.406a4.551,4.551,0,0,1-2.588-.693A2.868,2.868,0,0,1,130,16.52l1.475-.42a2.057,2.057,0,0,0,.786,1.333,2.55,2.55,0,0,0,1.577.474,3.147,3.147,0,0,0,.923-.127,1.479,1.479,0,0,0,.708-.474,1.321,1.321,0,0,0,.205-1.27,1.7,1.7,0,0,0-.156-.317.967.967,0,0,0-.273-.264,3.606,3.606,0,0,0-.332-.205,3.408,3.408,0,0,0-.435-.181q-.288-.1-.464-.156t-.537-.156q-.361-.1-.557-.161a10.414,10.414,0,0,1-1-.352,4.369,4.369,0,0,1-.811-.464,1.866,1.866,0,0,1-.63-.757,2.561,2.561,0,0,1-.21-1.074,2.482,2.482,0,0,1,.469-1.533,2.637,2.637,0,0,1,1.216-.9,4.86,4.86,0,0,1,1.7-.278A4.171,4.171,0,0,1,136,9.859a2.668,2.668,0,0,1,1.167,1.875l-1.387.352a1.839,1.839,0,0,0-.732-1.216,2.332,2.332,0,0,0-1.377-.405,2.377,2.377,0,0,0-1.289.337,1.132,1.132,0,0,0-.537,1.03,1.025,1.025,0,0,0,.142.532,1.69,1.69,0,0,0,.288.376,1.771,1.771,0,0,0,.527.288q.381.151.566.205t.7.181q.1.029.146.039.566.146.923.259a5.672,5.672,0,0,1,.83.352,2.76,2.76,0,0,1,.747.522,2.42,2.42,0,0,1,.469.742,2.62,2.62,0,0,1,.2,1.035,2.8,2.8,0,0,1-.288,1.294,2.253,2.253,0,0,1-.786.884,3.8,3.8,0,0,1-1.118.483A5.327,5.327,0,0,1,133.848,19.186ZM143.105,19a2.523,2.523,0,0,1-1.875-.688,2.6,2.6,0,0,1-.684-1.919V10.748h-1.963V9.4h.723a1.387,1.387,0,0,0,1.06-.337,1.658,1.658,0,0,0,.308-1.128V6.2h1.572V9.4h2.207v1.348h-2.207v5.469a1.455,1.455,0,0,0,.366,1.06,1.282,1.282,0,0,0,.962.376h.879V19Zm3.74-4.5V13.1h7v1.4Zm15.469-5.283a4.366,4.366,0,0,1,1.738.352,4.276,4.276,0,0,1,1.426.986,4.61,4.61,0,0,1,.962,1.582,5.834,5.834,0,0,1,.356,2.07,5.076,5.076,0,0,1-1.294,3.623,4.2,4.2,0,0,1-3.188,1.377,3.8,3.8,0,0,1-2.007-.547,3.584,3.584,0,0,1-1.372-1.475v6.65h-1.689V9.4h1.631l.039,1.865a3.514,3.514,0,0,1,1.367-1.5A3.835,3.835,0,0,1,162.314,9.215Zm-.332,8.525a2.915,2.915,0,0,0,2.222-.972,3.614,3.614,0,0,0,.9-2.563,3.6,3.6,0,0,0-.9-2.559,3.029,3.029,0,0,0-4.478.044,3.6,3.6,0,0,0-.918,2.515,3.614,3.614,0,0,0,.918,2.524A2.929,2.929,0,0,0,161.982,17.74Zm9.131-6.65A2.9,2.9,0,0,1,172.3,9.8a3.588,3.588,0,0,1,1.846-.508v1.592a3.163,3.163,0,0,0-2.231.713,2.978,2.978,0,0,0-.767,2.275V19h-1.689V9.4h1.65Zm8.945,8.1a5.06,5.06,0,0,1-2.461-.6,4.338,4.338,0,0,1-1.733-1.743,5.354,5.354,0,0,1-.64-2.651,4.89,4.89,0,0,1,1.362-3.618,5.111,5.111,0,0,1,6.948,0,4.9,4.9,0,0,1,1.357,3.618,4.9,4.9,0,0,1-1.362,3.628A4.7,4.7,0,0,1,180.059,19.186Zm-.01-1.406a2.948,2.948,0,0,0,2.271-.986,3.7,3.7,0,0,0,.9-2.6,3.682,3.682,0,0,0-.9-2.588,2.948,2.948,0,0,0-2.271-.986,2.908,2.908,0,0,0-2.251.986A3.706,3.706,0,0,0,176.9,14.2a3.72,3.72,0,0,0,.894,2.6A2.908,2.908,0,0,0,180.049,17.779ZM193.076,9.4h1.787l-5.557,14.121h-1.748l1.924-4.756L185.752,9.4h1.875l2.705,7.471Zm11.836,4.609-.02.459h-7.5a3.392,3.392,0,0,0,.918,2.456,3.014,3.014,0,0,0,2.188.854,2.878,2.878,0,0,0,1.592-.459,2.978,2.978,0,0,0,1.094-1.27l1.523.322a4.33,4.33,0,0,1-1.641,2.061,4.476,4.476,0,0,1-2.549.752,4.638,4.638,0,0,1-3.457-1.338,4.977,4.977,0,0,1-1.318-3.652,4.953,4.953,0,0,1,1.323-3.643,4.58,4.58,0,0,1,3.4-1.338,4.334,4.334,0,0,1,3.228,1.23A4.862,4.862,0,0,1,204.912,14.01Zm-4.443-3.5a2.994,2.994,0,0,0-2,.679,3.11,3.11,0,0,0-1.011,1.978h5.752a2.852,2.852,0,0,0-.84-1.978A2.712,2.712,0,0,0,200.469,10.514Zm11.074,8.662a4.624,4.624,0,0,1-3.437-1.377,4.912,4.912,0,0,1-1.357-3.6,4.922,4.922,0,0,1,1.353-3.6,5,5,0,0,1,6.221-.537,4.238,4.238,0,0,1,1.616,2.334l-1.582.254a2.922,2.922,0,0,0-1.084-1.494,2.952,2.952,0,0,0-1.738-.527,2.838,2.838,0,0,0-2.222.986,3.757,3.757,0,0,0-.874,2.588,3.739,3.739,0,0,0,.874,2.583,2.844,2.844,0,0,0,2.222.981,2.952,2.952,0,0,0,1.738-.527,2.922,2.922,0,0,0,1.084-1.494l1.582.264a4.243,4.243,0,0,1-1.626,2.329A4.65,4.65,0,0,1,211.543,19.176ZM221.494,19a2.523,2.523,0,0,1-1.875-.688,2.6,2.6,0,0,1-.684-1.919V10.748h-1.963V9.4h.723a1.387,1.387,0,0,0,1.06-.337,1.658,1.658,0,0,0,.308-1.128V6.2h1.572V9.4h2.207v1.348h-2.207v5.469a1.455,1.455,0,0,0,.366,1.06,1.282,1.282,0,0,0,.962.376h.879V19Zm7.715.186a5.06,5.06,0,0,1-2.461-.6,4.338,4.338,0,0,1-1.733-1.743,5.354,5.354,0,0,1-.64-2.651,4.89,4.89,0,0,1,1.362-3.618,5.111,5.111,0,0,1,6.948,0,4.9,4.9,0,0,1,1.357,3.618,4.9,4.9,0,0,1-1.362,3.628A4.7,4.7,0,0,1,229.209,19.186Zm-.01-1.406a2.948,2.948,0,0,0,2.271-.986,3.7,3.7,0,0,0,.9-2.6,3.682,3.682,0,0,0-.9-2.588,2.948,2.948,0,0,0-2.271-.986,2.908,2.908,0,0,0-2.251.986,3.706,3.706,0,0,0-.894,2.588,3.72,3.72,0,0,0,.894,2.6A2.908,2.908,0,0,0,229.2,17.779Z" transform="translate(-1223 -2559)" fill="#00223d"/>
  </g>
</svg>
