<svg xmlns="http://www.w3.org/2000/svg" width="113" height="113" viewBox="0 0 113 113">
  <g id="Grupo_17887" data-name="Grupo 17887" transform="translate(978 1401)">
    <rect id="Rectángulo_4441" data-name="Rectángulo 4441" width="113" height="113" transform="translate(-978 -1401)" fill="none"/>
    <g id="Grupo_17886" data-name="Grupo 17886" transform="translate(-2025.982 -2673.33)">
      <path id="Trazado_28531" data-name="Trazado 28531" d="M1112.367,1300.267a36.323,36.323,0,0,0-14.338,2.928h0l-19.2,19.177-.011.087a36.455,36.455,0,1,0,33.555-22.192Z" transform="translate(-1.704 -1.704)" fill="#7ed8f6"/>
      <path id="Trazado_28532" data-name="Trazado 28532" d="M1142.7,1337.547a29.506,29.506,0,1,1-29.506-29.506A29.507,29.507,0,0,1,1142.7,1337.547Z" transform="translate(-2.535 -2.535)" fill="#e0f4ff"/>
      <path id="Trazado_28533" data-name="Trazado 28533" d="M1096.639,1303.631a17.357,17.357,0,1,1-17.357-17.357A17.365,17.365,0,0,1,1096.639,1303.631Z" transform="translate(-0.208 -0.208)" fill="#fdbf00"/>
      <path id="Trazado_28534" data-name="Trazado 28534" d="M1147.217,1311.914a1.736,1.736,0,1,1-1.736-1.735A1.736,1.736,0,0,1,1147.217,1311.914Z" transform="translate(-8.957 -2.764)" fill="#00223d"/>
      <path id="Trazado_28535" data-name="Trazado 28535" d="M1139.876,1313.141a1.735,1.735,0,0,0-.463,2.41,34.708,34.708,0,1,1-61.138,6.945c.265.011.531.019.8.019a19.331,19.331,0,0,0,3.059-.244,31.237,31.237,0,1,0,15.79-15.789,19.251,19.251,0,0,0,.244-3.06c0-.266-.007-.532-.018-.8a34.768,34.768,0,0,1,31.975,3.637,1.736,1.736,0,1,0,1.949-2.872,38.249,38.249,0,0,0-34.4-4.294,19.094,19.094,0,1,0-22.927,22.927,38.188,38.188,0,1,0,67.54-8.419A1.735,1.735,0,0,0,1139.876,1313.141Zm-43.314-2.055a27.7,27.7,0,0,1,12.365-3.789v5.151a1.736,1.736,0,0,0,3.472,0V1307.3a27.539,27.539,0,0,1,16.635,6.89l-3.645,3.644a1.736,1.736,0,0,0,2.455,2.455l3.644-3.644a27.546,27.546,0,0,1,6.891,16.635h-5.152a1.735,1.735,0,1,0,0,3.47h5.152a27.551,27.551,0,0,1-6.891,16.637l-3.644-3.644a1.736,1.736,0,0,0-2.455,2.454l3.644,3.644a27.531,27.531,0,0,1-16.634,6.89v-5.152a1.736,1.736,0,0,0-3.472,0v5.152a27.54,27.54,0,0,1-16.635-6.89l3.644-3.644a1.736,1.736,0,1,0-2.455-2.455l-3.643,3.644a27.536,27.536,0,0,1-6.891-16.635h5.152a1.735,1.735,0,1,0,0-3.47h-5.15a27.669,27.669,0,0,1,3.789-12.365A19.193,19.193,0,0,0,1096.562,1311.086Zm-33.109-7.663a15.621,15.621,0,1,1,15.621,15.621A15.639,15.639,0,0,1,1063.453,1303.423Z" transform="translate(0 0)" fill="#00223d"/>
      <path id="Trazado_28536" data-name="Trazado 28536" d="M1116.523,1340.945h13.886a1.735,1.735,0,1,0,0-3.47h-12.149v-12.15a1.736,1.736,0,0,0-3.471,0v13.885A1.735,1.735,0,0,0,1116.523,1340.945Z" transform="translate(-5.86 -4.198)" fill="#00223d"/>
      <path id="Trazado_28537" data-name="Trazado 28537" d="M1073.378,1295.991a1.736,1.736,0,0,0-1.735,1.736v13.885a1.736,1.736,0,0,0,3.471,0v-13.885A1.736,1.736,0,0,0,1073.378,1295.991Z" transform="translate(-1.247 -1.247)" fill="#00223d"/>
      <path id="Trazado_28538" data-name="Trazado 28538" d="M1084.624,1313.348a5.212,5.212,0,0,0,5.207-5.207V1301.2a5.207,5.207,0,1,0-10.413,0v6.943A5.212,5.212,0,0,0,1084.624,1313.348Zm-1.736-12.149a1.736,1.736,0,1,1,3.471,0v6.943a1.736,1.736,0,0,1-3.471,0Z" transform="translate(-2.078 -1.247)" fill="#00223d"/>
    </g>
  </g>
</svg>
