<svg xmlns="http://www.w3.org/2000/svg" width="113" height="113" viewBox="0 0 113 113">
  <g id="Grupo_18008" data-name="Grupo 18008" transform="translate(-630 -5238)">
    <rect id="Rectángulo_4423" data-name="Rectángulo 4423" width="113" height="113" transform="translate(630 5238)" fill="none"/>
    <g id="Grupo_18007" data-name="Grupo 18007" transform="translate(397.008 3960.424)">
      <g id="Grupo_18005" data-name="Grupo 18005" transform="translate(246.731 1291.315)">
        <g id="Grupo_18003" data-name="Grupo 18003">
          <path id="Trazado_28730" data-name="Trazado 28730" d="M256.607,1334.218a33.027,33.027,0,1,1,33.027,33.027,33.027,33.027,0,0,1-33.027-33.027Zm41.132-39.54-4.722-2.368a7.134,7.134,0,0,0-6.743-.012l-4.238,2.272-5.225-.378a7.159,7.159,0,0,0-6.352,2.581l-3.083,3.766-4.549,1.511a7.162,7.162,0,0,0-5.24,4.909l-1.4,4.65-4.081,3.53a7.142,7.142,0,0,0-2.488,6.148l.481,4.826-2.368,4.722a7.134,7.134,0,0,0-.012,6.743l2.272,4.238-.378,5.226a7.156,7.156,0,0,0,2.582,6.351l3.765,3.083,1.511,4.55a7.162,7.162,0,0,0,4.91,5.239l4.649,1.4,3.53,4.081a7.14,7.14,0,0,0,6.149,2.488l4.825-.482,4.722,2.369a7.131,7.131,0,0,0,6.743.012l4.238-2.272,5.226.378a7.157,7.157,0,0,0,6.351-2.581l3.083-3.766,4.55-1.511a7.164,7.164,0,0,0,5.24-4.909l1.4-4.65,4.081-3.53a7.138,7.138,0,0,0,2.487-6.149l-.481-4.826,2.369-4.722a7.133,7.133,0,0,0,.012-6.743l-2.272-4.238.378-5.226a7.156,7.156,0,0,0-2.582-6.351l-3.766-3.083-1.51-4.55a7.163,7.163,0,0,0-4.91-5.239l-4.649-1.4-3.531-4.081a7.138,7.138,0,0,0-6.148-2.488Z" transform="translate(-246.873 -1291.457)" fill="#ffc144" fill-rule="evenodd"/>
          <circle id="Elipse_1109" data-name="Elipse 1109" cx="33.027" cy="33.027" r="33.027" transform="translate(9.734 9.734)" fill="#fff2a0"/>
        </g>
        <g id="Grupo_18004" data-name="Grupo 18004" transform="translate(24.463 17.416)">
          <path id="Trazado_28731" data-name="Trazado 28731" d="M298.638,1326.954A6.544,6.544,0,0,1,297,1319.9a7.281,7.281,0,0,0-.185-6.817c-1.216-2.31-5.314-4.176-5.879-1.4-.254,1.248.162,3.963-1.658,7.45-2.072,3.969-.019,8.962-6.014,8.962v23.944c4.118,0,8.236,2.281,12.354,2.281h10.035c5.12,0,6.5-5.509,4.787-7.152,2.579-1.092,3.371-4.787,1.978-6.576,2.709-1.337,3.024-5.553,1.219-6.552a3.544,3.544,0,1,0-.09-7.087Z" transform="translate(-274.081 -1310.294)" fill="#ffdcd5" fill-rule="evenodd"/>
          <path id="Trazado_28732" data-name="Trazado 28732" d="M282.517,1353.395v-25.128h-9.185v26.311h9.185Z" transform="translate(-273.332 -1311.649)" fill="#8481e2" fill-rule="evenodd"/>
        </g>
      </g>
      <g id="Grupo_18006" data-name="Grupo 18006" transform="translate(244.992 1289.576)">
        <path id="Trazado_28733" data-name="Trazado 28733" d="M298.462,1301.149a1.739,1.739,0,1,0-.815,3.38,31.289,31.289,0,1,1-14.721,0,1.738,1.738,0,1,0-.815-3.379,34.932,34.932,0,0,0-19.014,12.131,34.391,34.391,0,0,0-7.575,21.664,34.765,34.765,0,0,0,69.531,0,34.394,34.394,0,0,0-7.574-21.664A34.937,34.937,0,0,0,298.462,1301.149Z" transform="translate(-245.786 -1290.445)" fill="#00223d"/>
        <path id="Trazado_28734" data-name="Trazado 28734" d="M332.945,1329.9l-2.034-3.795.339-4.69a8.872,8.872,0,0,0-3.212-7.854l-3.376-2.764-1.328-4a8.935,8.935,0,0,0-6.08-6.427l-4.167-1.259-3.192-3.688a8.892,8.892,0,0,0-7.645-3.091l-4.325.431-4.251-2.133a8.867,8.867,0,0,0-8.364,0l-3.794,2.033-4.69-.339a8.872,8.872,0,0,0-7.854,3.212l-2.764,3.376-4,1.328a8.937,8.937,0,0,0-6.428,6.081l-1.258,4.166-3.689,3.192a8.893,8.893,0,0,0-3.091,7.646l.431,4.324-2.133,4.251a8.866,8.866,0,0,0,0,8.364l2.033,3.795-.339,4.69a8.877,8.877,0,0,0,3.212,7.854l3.377,2.764,1.328,4a8.932,8.932,0,0,0,6.08,6.427l4.166,1.259,3.192,3.688a8.9,8.9,0,0,0,7.645,3.092l4.324-.431,4.251,2.132a8.867,8.867,0,0,0,8.364,0l3.794-2.034,4.69.339a8.875,8.875,0,0,0,7.854-3.212l2.764-3.376,4-1.328a8.933,8.933,0,0,0,6.427-6.08l1.259-4.167,3.688-3.191a8.9,8.9,0,0,0,3.092-7.646l-.431-4.324,2.132-4.251a8.871,8.871,0,0,0,0-8.365Zm-3.076,6.742-.022.042-2.369,4.722a1.746,1.746,0,0,0-.176.952l.481,4.823a5.42,5.42,0,0,1-1.9,4.664l-4.081,3.531a1.739,1.739,0,0,0-.526.812l-1.4,4.649a5.449,5.449,0,0,1-3.97,3.719c-.052.012-.1.026-.153.043l-4.55,1.511a1.735,1.735,0,0,0-.8.548l-3.084,3.766a5.408,5.408,0,0,1-4.812,1.955l-.068-.006-5.226-.377a1.737,1.737,0,0,0-.947.2l-4.235,2.27a5.4,5.4,0,0,1-5.1-.01l-.043-.022-4.722-2.369a1.743,1.743,0,0,0-.779-.184q-.086,0-.172.008l-4.824.481a5.422,5.422,0,0,1-4.664-1.9l-3.531-4.081a1.732,1.732,0,0,0-.812-.526l-4.649-1.4a5.451,5.451,0,0,1-3.72-3.97c-.012-.052-.026-.1-.043-.153l-1.51-4.55a1.738,1.738,0,0,0-.549-.8l-3.766-3.083a5.411,5.411,0,0,1-1.955-4.812c0-.023,0-.046.006-.069l.378-5.226a1.736,1.736,0,0,0-.2-.946l-2.27-4.235a5.4,5.4,0,0,1,.009-5.1l.022-.042,2.369-4.722a1.744,1.744,0,0,0,.176-.951l-.481-4.824a5.425,5.425,0,0,1,1.9-4.664l4.081-3.531a1.74,1.74,0,0,0,.527-.812l1.4-4.649a5.448,5.448,0,0,1,3.969-3.719c.052-.012.1-.026.154-.043l4.549-1.511a1.743,1.743,0,0,0,.8-.548l3.084-3.766a5.41,5.41,0,0,1,4.811-1.955l.069.006,5.225.377a1.74,1.74,0,0,0,.947-.2l4.235-2.27a5.4,5.4,0,0,1,5.1.01l.043.022,4.722,2.369a1.744,1.744,0,0,0,.951.176l4.824-.481a5.422,5.422,0,0,1,4.664,1.9l3.531,4.081a1.736,1.736,0,0,0,.812.526l4.649,1.4a5.451,5.451,0,0,1,3.72,3.97c.012.052.026.1.043.153l1.511,4.55a1.729,1.729,0,0,0,.548.8l3.766,3.084a5.409,5.409,0,0,1,1.956,4.812c0,.023,0,.045-.007.068l-.377,5.226a1.745,1.745,0,0,0,.2.947l2.271,4.235a5.4,5.4,0,0,1-.01,5.1Z" transform="translate(-244.992 -1289.576)" fill="#00223d"/>
        <path id="Trazado_28735" data-name="Trazado 28735" d="M283.944,1326.026a1.736,1.736,0,0,0-1.569-.995H273.19a1.738,1.738,0,0,0-1.738,1.738v26.311a1.738,1.738,0,0,0,1.738,1.738h9.185a1.738,1.738,0,0,0,1.6-1.062,33.036,33.036,0,0,1,4.112.956,24.98,24.98,0,0,0,6.641,1.2h10.035a6.973,6.973,0,0,0,6.725-4.4,5.719,5.719,0,0,1,1.753-5.82,6.621,6.621,0,0,0,.472-4.694,6.509,6.509,0,0,0,1.714-6.115,5.236,5.236,0,0,0,1-8.329,5.437,5.437,0,0,0-3.77-1.484H298.513a4.723,4.723,0,0,1-.8-4.65,9.025,9.025,0,0,0-.251-8.295c-1.061-2.015-3.916-4.02-6.314-3.678a3.291,3.291,0,0,0-2.807,2.741,10.151,10.151,0,0,0-.143,1.479,12.282,12.282,0,0,1-1.352,5.514,14.65,14.65,0,0,0-1.306,4.511c-.338,2-.5,2.96-1.6,3.328Zm-9.016,2.482h5.707v22.834h-5.707Zm14.043-5.229a11.751,11.751,0,0,1,.96-3.483,15.763,15.763,0,0,0,1.741-6.943,8.589,8.589,0,0,1,.079-.965v0a4.073,4.073,0,0,1,2.637,1.867,5.55,5.55,0,0,1,.117,5.34,8.021,8.021,0,0,0,.051,6,1.737,1.737,0,0,0,.24,3.458h17.861a1.972,1.972,0,0,1,1.373.526,1.768,1.768,0,0,1,.545,1.324,1.871,1.871,0,0,1-1.867,1.76l-4.474.1a1.738,1.738,0,0,0,.037,3.476h.039l3.726-.081a2.822,2.822,0,0,1-.071,1.754,2.327,2.327,0,0,1-2.273,1.713,1.738,1.738,0,1,0,0,3.476,6.1,6.1,0,0,0,.775-.048,3.4,3.4,0,0,1-.349,1.62,2.325,2.325,0,0,1-2.142,1.429,1.738,1.738,0,0,0,0,3.476c.179,0,.358-.007.534-.023a3.285,3.285,0,0,1-.262,1.207,3.549,3.549,0,0,1-3.483,2.181H294.729a22.067,22.067,0,0,1-5.713-1.077,33.492,33.492,0,0,0-4.9-1.094v-20.724C288.027,1328.835,288.566,1325.667,288.971,1323.278Z" transform="translate(-246.988 -1290.997)" fill="#00223d"/>
        <path id="Trazado_28736" data-name="Trazado 28736" d="M292.98,1303.581a1.738,1.738,0,1,0,0-3.476h0a1.738,1.738,0,0,0,0,3.476Z" transform="translate(-248.48 -1290.37)" fill="#00223d"/>
      </g>
    </g>
  </g>
</svg>
