<svg xmlns="http://www.w3.org/2000/svg" width="113" height="113" viewBox="0 0 113 113">
  <g id="Grupo_18000" data-name="Grupo 18000" transform="translate(-235 -6994)">
    <g id="Grupo_17999" data-name="Grupo 17999" transform="translate(-1969.619 6442.39)">
      <g id="Grupo_17963" data-name="Grupo 17963" transform="translate(2218.903 567.893)">
        <g id="Grupo_17962" data-name="Grupo 17962" transform="translate(0)">
          <path id="Trazado_28661" data-name="Trazado 28661" d="M2245.364,618.623l-5.453,5.161a9.455,9.455,0,0,1-3.954-4.724l6.068-5.747Z" transform="translate(-2225.457 -584.585)" fill="#17998c"/>
          <g id="Grupo_17959" data-name="Grupo 17959">
            <g id="Grupo_17957" data-name="Grupo 17957" transform="translate(0 2.649)">
              <path id="Trazado_28662" data-name="Trazado 28662" d="M2222.693,618.9a3.075,3.075,0,0,1-2.115-5.309l15.607-14.777a3.078,3.078,0,0,1,2.115-.842h34.135l24.337-24.338a3.076,3.076,0,0,1,4.349,4.35l-25.238,25.238a3.075,3.075,0,0,1-2.175.9h-34.184l-14.718,13.934a3.065,3.065,0,0,1-2.114.842Z" transform="translate(-2219.617 -572.729)" fill="#20b69f"/>
            </g>
            <path id="Trazado_28663" data-name="Trazado 28663" d="M2340.846,577.979l-5.719,5.719a6.58,6.58,0,0,1-.373-2.186v-1.765h-1.764a6.518,6.518,0,0,1-2.224-.387l5.729-5.729a3.075,3.075,0,1,1,4.349,4.348Z" transform="translate(-2259.341 -570.08)" fill="#17998c"/>
            <g id="Grupo_17958" data-name="Grupo 17958" transform="translate(70.574)">
              <path id="Trazado_28664" data-name="Trazado 28664" d="M2340.871,583.113a3.076,3.076,0,0,1-3.076-3.076v-5.28h-5.279a3.076,3.076,0,1,1,0-6.151h8.354a3.075,3.075,0,0,1,3.076,3.076v8.355A3.075,3.075,0,0,1,2340.871,583.113Z" transform="translate(-2329.441 -568.607)" fill="#23f1a8"/>
            </g>
          </g>
          <g id="Grupo_17960" data-name="Grupo 17960" transform="translate(13.4 25.235)">
            <circle id="Elipse_1107" data-name="Elipse 1107" cx="5.898" cy="5.898" r="5.898" fill="#23f1a8"/>
            <path id="Trazado_28665" data-name="Trazado 28665" d="M2253.75,613.774a5.9,5.9,0,0,1-9.125,4.937,4.946,4.946,0,0,0,0-9.872,5.9,5.9,0,0,1,9.126,4.935Z" transform="translate(-2241.954 -607.877)" fill="#26d192"/>
          </g>
          <g id="Grupo_17961" data-name="Grupo 17961" transform="translate(48.375 24.379)">
            <circle id="Elipse_1108" data-name="Elipse 1108" cx="5.898" cy="5.898" r="5.898" fill="#23f1a8"/>
            <path id="Trazado_28666" data-name="Trazado 28666" d="M2308.176,612.442a5.9,5.9,0,0,1-9.125,4.937,4.946,4.946,0,0,0,0-9.872,5.9,5.9,0,0,1,9.126,4.935Z" transform="translate(-2296.379 -606.545)" fill="#26d192"/>
          </g>
        </g>
      </g>
      <g id="Grupo_17968" data-name="Grupo 17968" transform="translate(2218.903 623.271)">
        <g id="Grupo_17964" data-name="Grupo 17964" transform="translate(0 18.908)">
          <path id="Trazado_28667" data-name="Trazado 28667" d="M2235.213,690.509h-14.024a1.572,1.572,0,0,1-1.572-1.572v-3.158a1.572,1.572,0,0,1,1.572-1.572h14.024a1.572,1.572,0,0,1,1.573,1.572v3.158A1.573,1.573,0,0,1,2235.213,690.509Z" transform="translate(-2219.617 -684.207)" fill="#ffd496"/>
          <path id="Trazado_28668" data-name="Trazado 28668" d="M2242.727,685.779v3.158a1.572,1.572,0,0,1-1.572,1.572h-4.913a1.573,1.573,0,0,0,1.572-1.572v-3.158a1.573,1.573,0,0,0-1.572-1.572h4.913A1.572,1.572,0,0,1,2242.727,685.779Z" transform="translate(-2225.559 -684.207)" fill="#fcc16d"/>
        </g>
        <g id="Grupo_17965" data-name="Grupo 17965" transform="translate(0 12.605)">
          <path id="Trazado_28669" data-name="Trazado 28669" d="M2235.213,680.7h-14.024a1.572,1.572,0,0,1-1.572-1.573v-3.158a1.572,1.572,0,0,1,1.572-1.572h14.024a1.572,1.572,0,0,1,1.573,1.572v3.158A1.572,1.572,0,0,1,2235.213,680.7Z" transform="translate(-2219.617 -674.399)" fill="#fca62f"/>
          <path id="Trazado_28670" data-name="Trazado 28670" d="M2242.727,675.971v3.158a1.573,1.573,0,0,1-1.572,1.572h-4.913a1.573,1.573,0,0,0,1.572-1.572v-3.158a1.573,1.573,0,0,0-1.572-1.573h4.913A1.573,1.573,0,0,1,2242.727,675.971Z" transform="translate(-2225.559 -674.399)" fill="#f98824"/>
        </g>
        <g id="Grupo_17966" data-name="Grupo 17966" transform="translate(0 6.303)">
          <path id="Trazado_28671" data-name="Trazado 28671" d="M2235.213,670.893h-14.024a1.572,1.572,0,0,1-1.572-1.572v-3.158a1.572,1.572,0,0,1,1.572-1.572h14.024a1.572,1.572,0,0,1,1.573,1.572v3.158A1.572,1.572,0,0,1,2235.213,670.893Z" transform="translate(-2219.617 -664.591)" fill="#ffd496"/>
          <path id="Trazado_28672" data-name="Trazado 28672" d="M2242.727,666.164v3.158a1.573,1.573,0,0,1-1.572,1.573h-4.913a1.573,1.573,0,0,0,1.572-1.573v-3.158a1.573,1.573,0,0,0-1.572-1.572h4.913A1.573,1.573,0,0,1,2242.727,666.164Z" transform="translate(-2225.559 -664.591)" fill="#fcc16d"/>
        </g>
        <g id="Grupo_17967" data-name="Grupo 17967" transform="translate(0 0)">
          <path id="Trazado_28673" data-name="Trazado 28673" d="M2235.213,661.085h-14.024a1.572,1.572,0,0,1-1.572-1.572v-3.158a1.572,1.572,0,0,1,1.572-1.572h14.024a1.573,1.573,0,0,1,1.573,1.572v3.158A1.572,1.572,0,0,1,2235.213,661.085Z" transform="translate(-2219.617 -654.783)" fill="#fca62f"/>
          <path id="Trazado_28674" data-name="Trazado 28674" d="M2242.727,656.356v3.158a1.572,1.572,0,0,1-1.572,1.572h-4.913a1.573,1.573,0,0,0,1.572-1.572v-3.158a1.573,1.573,0,0,0-1.572-1.572h4.913A1.572,1.572,0,0,1,2242.727,656.356Z" transform="translate(-2225.559 -654.783)" fill="#f98824"/>
        </g>
      </g>
      <g id="Grupo_17972" data-name="Grupo 17972" transform="translate(2241.54 629.574)">
        <g id="Grupo_17969" data-name="Grupo 17969" transform="translate(0 12.605)">
          <path id="Trazado_28675" data-name="Trazado 28675" d="M2270.44,690.509h-14.024a1.572,1.572,0,0,1-1.572-1.572v-3.158a1.572,1.572,0,0,1,1.572-1.572h14.024a1.572,1.572,0,0,1,1.573,1.572v3.158A1.572,1.572,0,0,1,2270.44,690.509Z" transform="translate(-2254.844 -684.207)" fill="#fca62f"/>
          <path id="Trazado_28676" data-name="Trazado 28676" d="M2277.954,685.779v3.158a1.572,1.572,0,0,1-1.572,1.572h-4.913a1.572,1.572,0,0,0,1.572-1.572v-3.158a1.572,1.572,0,0,0-1.572-1.572h4.913A1.572,1.572,0,0,1,2277.954,685.779Z" transform="translate(-2260.786 -684.207)" fill="#f98824"/>
        </g>
        <g id="Grupo_17970" data-name="Grupo 17970" transform="translate(0 6.303)">
          <path id="Trazado_28677" data-name="Trazado 28677" d="M2270.44,680.7h-14.024a1.572,1.572,0,0,1-1.572-1.573v-3.158a1.572,1.572,0,0,1,1.572-1.572h14.024a1.572,1.572,0,0,1,1.573,1.572v3.158A1.572,1.572,0,0,1,2270.44,680.7Z" transform="translate(-2254.844 -674.399)" fill="#ffd496"/>
          <path id="Trazado_28678" data-name="Trazado 28678" d="M2277.954,675.971v3.158a1.573,1.573,0,0,1-1.572,1.572h-4.913a1.572,1.572,0,0,0,1.572-1.572v-3.158a1.572,1.572,0,0,0-1.572-1.573h4.913A1.573,1.573,0,0,1,2277.954,675.971Z" transform="translate(-2260.786 -674.399)" fill="#fcc16d"/>
        </g>
        <g id="Grupo_17971" data-name="Grupo 17971" transform="translate(0 0)">
          <path id="Trazado_28679" data-name="Trazado 28679" d="M2270.44,670.893h-14.024a1.572,1.572,0,0,1-1.572-1.572v-3.158a1.572,1.572,0,0,1,1.572-1.572h14.024a1.572,1.572,0,0,1,1.573,1.572v3.158A1.572,1.572,0,0,1,2270.44,670.893Z" transform="translate(-2254.844 -664.591)" fill="#fca62f"/>
          <path id="Trazado_28680" data-name="Trazado 28680" d="M2277.954,666.164v3.158a1.573,1.573,0,0,1-1.572,1.573h-4.913a1.572,1.572,0,0,0,1.572-1.573v-3.158a1.572,1.572,0,0,0-1.572-1.572h4.913A1.573,1.573,0,0,1,2277.954,666.164Z" transform="translate(-2260.786 -664.591)" fill="#f98824"/>
        </g>
      </g>
      <g id="Grupo_17976" data-name="Grupo 17976" transform="translate(2264.178 629.574)">
        <g id="Grupo_17973" data-name="Grupo 17973" transform="translate(0 12.605)">
          <path id="Trazado_28681" data-name="Trazado 28681" d="M2305.667,690.509h-14.024a1.572,1.572,0,0,1-1.572-1.572v-3.158a1.572,1.572,0,0,1,1.572-1.572h14.024a1.572,1.572,0,0,1,1.573,1.572v3.158A1.573,1.573,0,0,1,2305.667,690.509Z" transform="translate(-2290.071 -684.207)" fill="#ffd496"/>
          <path id="Trazado_28682" data-name="Trazado 28682" d="M2313.181,685.779v3.158a1.573,1.573,0,0,1-1.572,1.572H2306.7a1.573,1.573,0,0,0,1.573-1.572v-3.158a1.573,1.573,0,0,0-1.573-1.572h4.913A1.573,1.573,0,0,1,2313.181,685.779Z" transform="translate(-2296.013 -684.207)" fill="#fcc16d"/>
        </g>
        <g id="Grupo_17974" data-name="Grupo 17974" transform="translate(0 6.303)">
          <path id="Trazado_28683" data-name="Trazado 28683" d="M2305.667,680.7h-14.024a1.572,1.572,0,0,1-1.572-1.573v-3.158a1.572,1.572,0,0,1,1.572-1.572h14.024a1.572,1.572,0,0,1,1.573,1.572v3.158A1.572,1.572,0,0,1,2305.667,680.7Z" transform="translate(-2290.071 -674.399)" fill="#fca62f"/>
          <path id="Trazado_28684" data-name="Trazado 28684" d="M2313.181,675.971v3.158a1.573,1.573,0,0,1-1.572,1.572H2306.7a1.573,1.573,0,0,0,1.573-1.572v-3.158a1.573,1.573,0,0,0-1.573-1.573h4.913A1.573,1.573,0,0,1,2313.181,675.971Z" transform="translate(-2296.013 -674.399)" fill="#f98824"/>
        </g>
        <g id="Grupo_17975" data-name="Grupo 17975" transform="translate(0 0)">
          <path id="Trazado_28685" data-name="Trazado 28685" d="M2305.667,670.893h-14.024a1.572,1.572,0,0,1-1.572-1.572v-3.158a1.572,1.572,0,0,1,1.572-1.572h14.024a1.572,1.572,0,0,1,1.573,1.572v3.158A1.572,1.572,0,0,1,2305.667,670.893Z" transform="translate(-2290.071 -664.591)" fill="#ffd496"/>
          <path id="Trazado_28686" data-name="Trazado 28686" d="M2313.181,666.164v3.158a1.573,1.573,0,0,1-1.572,1.573H2306.7a1.573,1.573,0,0,0,1.573-1.573v-3.158a1.573,1.573,0,0,0-1.573-1.572h4.913A1.573,1.573,0,0,1,2313.181,666.164Z" transform="translate(-2296.013 -664.591)" fill="#fcc16d"/>
        </g>
      </g>
      <g id="Grupo_17980" data-name="Grupo 17980" transform="translate(2286.815 629.574)">
        <g id="Grupo_17977" data-name="Grupo 17977" transform="translate(0 12.605)">
          <path id="Trazado_28687" data-name="Trazado 28687" d="M2340.895,690.509H2326.87a1.572,1.572,0,0,1-1.572-1.572v-3.158a1.572,1.572,0,0,1,1.572-1.572h14.025a1.572,1.572,0,0,1,1.572,1.572v3.158A1.572,1.572,0,0,1,2340.895,690.509Z" transform="translate(-2325.298 -684.207)" fill="#fca62f"/>
          <path id="Trazado_28688" data-name="Trazado 28688" d="M2348.408,685.779v3.158a1.573,1.573,0,0,1-1.572,1.572h-4.913a1.573,1.573,0,0,0,1.573-1.572v-3.158a1.573,1.573,0,0,0-1.573-1.572h4.913A1.573,1.573,0,0,1,2348.408,685.779Z" transform="translate(-2331.24 -684.207)" fill="#f98824"/>
        </g>
        <g id="Grupo_17978" data-name="Grupo 17978" transform="translate(0 6.303)">
          <path id="Trazado_28689" data-name="Trazado 28689" d="M2340.895,680.7H2326.87a1.572,1.572,0,0,1-1.572-1.573v-3.158a1.572,1.572,0,0,1,1.572-1.572h14.025a1.572,1.572,0,0,1,1.572,1.572v3.158A1.572,1.572,0,0,1,2340.895,680.7Z" transform="translate(-2325.298 -674.399)" fill="#ffd496"/>
          <path id="Trazado_28690" data-name="Trazado 28690" d="M2348.408,675.971v3.158a1.573,1.573,0,0,1-1.572,1.572h-4.913a1.573,1.573,0,0,0,1.573-1.572v-3.158a1.573,1.573,0,0,0-1.573-1.573h4.913A1.573,1.573,0,0,1,2348.408,675.971Z" transform="translate(-2331.24 -674.399)" fill="#fcc16d"/>
        </g>
        <g id="Grupo_17979" data-name="Grupo 17979" transform="translate(0 0)">
          <path id="Trazado_28691" data-name="Trazado 28691" d="M2340.895,670.893H2326.87a1.572,1.572,0,0,1-1.572-1.572v-3.158a1.572,1.572,0,0,1,1.572-1.572h14.025a1.572,1.572,0,0,1,1.572,1.572v3.158A1.572,1.572,0,0,1,2340.895,670.893Z" transform="translate(-2325.298 -664.591)" fill="#fca62f"/>
          <path id="Trazado_28692" data-name="Trazado 28692" d="M2348.408,666.164v3.158a1.573,1.573,0,0,1-1.572,1.573h-4.913a1.573,1.573,0,0,0,1.573-1.573v-3.158a1.573,1.573,0,0,0-1.573-1.572h4.913A1.573,1.573,0,0,1,2348.408,666.164Z" transform="translate(-2331.24 -664.591)" fill="#f98824"/>
        </g>
      </g>
      <g id="Grupo_17982" data-name="Grupo 17982" transform="translate(2241.54 623.271)">
        <g id="Grupo_17981" data-name="Grupo 17981" transform="translate(0 0)">
          <path id="Trazado_28693" data-name="Trazado 28693" d="M2270.44,661.085h-14.024a1.572,1.572,0,0,1-1.572-1.572v-3.158a1.572,1.572,0,0,1,1.572-1.572h14.024a1.572,1.572,0,0,1,1.573,1.572v3.158A1.572,1.572,0,0,1,2270.44,661.085Z" transform="translate(-2254.844 -654.783)" fill="#ffd496"/>
          <path id="Trazado_28694" data-name="Trazado 28694" d="M2277.954,656.356v3.158a1.572,1.572,0,0,1-1.572,1.572h-4.913a1.572,1.572,0,0,0,1.572-1.572v-3.158a1.572,1.572,0,0,0-1.572-1.572h4.913A1.572,1.572,0,0,1,2277.954,656.356Z" transform="translate(-2260.786 -654.783)" fill="#fcc16d"/>
        </g>
      </g>
      <g id="Grupo_17984" data-name="Grupo 17984" transform="translate(2241.54 616.968)">
        <g id="Grupo_17983" data-name="Grupo 17983" transform="translate(0 0)">
          <path id="Trazado_28695" data-name="Trazado 28695" d="M2270.44,651.277h-14.024a1.572,1.572,0,0,1-1.572-1.572v-3.158a1.572,1.572,0,0,1,1.572-1.572h14.024a1.572,1.572,0,0,1,1.573,1.572V649.7A1.572,1.572,0,0,1,2270.44,651.277Z" transform="translate(-2254.844 -644.975)" fill="#fca62f"/>
          <path id="Trazado_28696" data-name="Trazado 28696" d="M2277.954,646.548v3.158a1.572,1.572,0,0,1-1.572,1.572h-4.913a1.572,1.572,0,0,0,1.572-1.572v-3.158a1.572,1.572,0,0,0-1.572-1.572h4.913A1.571,1.571,0,0,1,2277.954,646.548Z" transform="translate(-2260.786 -644.975)" fill="#f98824"/>
        </g>
      </g>
      <g id="Grupo_17987" data-name="Grupo 17987" transform="translate(2264.178 616.968)">
        <g id="Grupo_17985" data-name="Grupo 17985" transform="translate(0 6.303)">
          <path id="Trazado_28697" data-name="Trazado 28697" d="M2305.667,661.085h-14.024a1.572,1.572,0,0,1-1.572-1.572v-3.158a1.572,1.572,0,0,1,1.572-1.572h14.024a1.572,1.572,0,0,1,1.573,1.572v3.158A1.572,1.572,0,0,1,2305.667,661.085Z" transform="translate(-2290.071 -654.783)" fill="#fca62f"/>
          <path id="Trazado_28698" data-name="Trazado 28698" d="M2313.181,656.356v3.158a1.573,1.573,0,0,1-1.572,1.572H2306.7a1.573,1.573,0,0,0,1.573-1.572v-3.158a1.573,1.573,0,0,0-1.573-1.572h4.913A1.573,1.573,0,0,1,2313.181,656.356Z" transform="translate(-2296.013 -654.783)" fill="#f98824"/>
        </g>
        <g id="Grupo_17986" data-name="Grupo 17986" transform="translate(0 0)">
          <path id="Trazado_28699" data-name="Trazado 28699" d="M2305.667,651.277h-14.024a1.572,1.572,0,0,1-1.572-1.572v-3.158a1.572,1.572,0,0,1,1.572-1.573h14.024a1.572,1.572,0,0,1,1.573,1.573v3.158A1.572,1.572,0,0,1,2305.667,651.277Z" transform="translate(-2290.071 -644.975)" fill="#ffd496"/>
          <path id="Trazado_28700" data-name="Trazado 28700" d="M2313.181,646.548v3.158a1.573,1.573,0,0,1-1.572,1.572H2306.7a1.573,1.573,0,0,0,1.573-1.572v-3.158a1.573,1.573,0,0,0-1.573-1.572h4.913A1.573,1.573,0,0,1,2313.181,646.548Z" transform="translate(-2296.013 -644.975)" fill="#fcc16d"/>
        </g>
      </g>
      <g id="Grupo_17989" data-name="Grupo 17989" transform="translate(2241.54 610.666)">
        <g id="Grupo_17988" data-name="Grupo 17988" transform="translate(0 0)">
          <path id="Trazado_28701" data-name="Trazado 28701" d="M2270.44,641.469h-14.024a1.572,1.572,0,0,1-1.572-1.572v-3.159a1.572,1.572,0,0,1,1.572-1.572h14.024a1.572,1.572,0,0,1,1.573,1.572V639.9A1.572,1.572,0,0,1,2270.44,641.469Z" transform="translate(-2254.844 -635.167)" fill="#ffd496"/>
          <path id="Trazado_28702" data-name="Trazado 28702" d="M2277.954,636.74V639.9a1.572,1.572,0,0,1-1.572,1.572h-4.913a1.572,1.572,0,0,0,1.572-1.572V636.74a1.572,1.572,0,0,0-1.572-1.573h4.913A1.573,1.573,0,0,1,2277.954,636.74Z" transform="translate(-2260.786 -635.167)" fill="#fcc16d"/>
        </g>
      </g>
      <g id="Grupo_17991" data-name="Grupo 17991" transform="translate(2264.178 610.666)">
        <g id="Grupo_17990" data-name="Grupo 17990" transform="translate(0 0)">
          <path id="Trazado_28703" data-name="Trazado 28703" d="M2305.667,641.469h-14.024a1.572,1.572,0,0,1-1.572-1.572V636.74a1.572,1.572,0,0,1,1.572-1.573h14.024a1.572,1.572,0,0,1,1.573,1.573V639.9A1.572,1.572,0,0,1,2305.667,641.469Z" transform="translate(-2290.071 -635.167)" fill="#fca62f"/>
          <path id="Trazado_28704" data-name="Trazado 28704" d="M2313.181,636.74V639.9a1.573,1.573,0,0,1-1.572,1.572H2306.7a1.573,1.573,0,0,0,1.573-1.572V636.74a1.573,1.573,0,0,0-1.573-1.572h4.913A1.573,1.573,0,0,1,2313.181,636.74Z" transform="translate(-2296.013 -635.167)" fill="#f98824"/>
        </g>
      </g>
      <g id="Grupo_17995" data-name="Grupo 17995" transform="translate(2286.815 610.666)">
        <g id="Grupo_17992" data-name="Grupo 17992" transform="translate(0 12.606)">
          <path id="Trazado_28705" data-name="Trazado 28705" d="M2340.895,661.085H2326.87a1.572,1.572,0,0,1-1.572-1.572v-3.158a1.572,1.572,0,0,1,1.572-1.572h14.025a1.572,1.572,0,0,1,1.572,1.572v3.158A1.572,1.572,0,0,1,2340.895,661.085Z" transform="translate(-2325.298 -654.783)" fill="#ffd496"/>
          <path id="Trazado_28706" data-name="Trazado 28706" d="M2348.408,656.356v3.158a1.573,1.573,0,0,1-1.572,1.572h-4.913a1.573,1.573,0,0,0,1.573-1.572v-3.158a1.573,1.573,0,0,0-1.573-1.572h4.913A1.573,1.573,0,0,1,2348.408,656.356Z" transform="translate(-2331.24 -654.783)" fill="#fcc16d"/>
        </g>
        <g id="Grupo_17993" data-name="Grupo 17993" transform="translate(0 6.303)">
          <path id="Trazado_28707" data-name="Trazado 28707" d="M2340.895,651.277H2326.87a1.572,1.572,0,0,1-1.572-1.572v-3.158a1.572,1.572,0,0,1,1.572-1.573h14.025a1.572,1.572,0,0,1,1.572,1.573v3.158A1.572,1.572,0,0,1,2340.895,651.277Z" transform="translate(-2325.298 -644.975)" fill="#fca62f"/>
          <path id="Trazado_28708" data-name="Trazado 28708" d="M2348.408,646.548v3.158a1.573,1.573,0,0,1-1.572,1.572h-4.913a1.573,1.573,0,0,0,1.573-1.572v-3.158a1.573,1.573,0,0,0-1.573-1.572h4.913A1.573,1.573,0,0,1,2348.408,646.548Z" transform="translate(-2331.24 -644.975)" fill="#f98824"/>
        </g>
        <g id="Grupo_17994" data-name="Grupo 17994" transform="translate(0 0)">
          <path id="Trazado_28709" data-name="Trazado 28709" d="M2340.895,641.47H2326.87a1.572,1.572,0,0,1-1.572-1.572V636.74a1.572,1.572,0,0,1,1.572-1.573h14.025a1.572,1.572,0,0,1,1.572,1.573V639.9A1.572,1.572,0,0,1,2340.895,641.47Z" transform="translate(-2325.298 -635.167)" fill="#ffd496"/>
          <path id="Trazado_28710" data-name="Trazado 28710" d="M2348.408,636.74V639.9a1.573,1.573,0,0,1-1.572,1.572h-4.913a1.573,1.573,0,0,0,1.573-1.572V636.74a1.573,1.573,0,0,0-1.573-1.572h4.913A1.573,1.573,0,0,1,2348.408,636.74Z" transform="translate(-2331.24 -635.167)" fill="#fcc16d"/>
        </g>
      </g>
      <g id="Grupo_17998" data-name="Grupo 17998" transform="translate(2217.619 566.61)">
        <g id="Grupo_17996" data-name="Grupo 17996" transform="translate(69.196 37.754)">
          <path id="Trazado_28711" data-name="Trazado 28711" d="M2340.895,631.662H2326.87a1.572,1.572,0,0,1-1.572-1.572v-3.158a1.572,1.572,0,0,1,1.572-1.572h14.025a1.572,1.572,0,0,1,1.572,1.572v3.158A1.572,1.572,0,0,1,2340.895,631.662Z" transform="translate(-2325.298 -625.36)" fill="#fca62f"/>
          <path id="Trazado_28712" data-name="Trazado 28712" d="M2348.408,626.933v3.158a1.573,1.573,0,0,1-1.572,1.572h-4.913a1.573,1.573,0,0,0,1.573-1.572v-3.158a1.573,1.573,0,0,0-1.573-1.572h4.913a1.573,1.573,0,0,1,1.572,1.572Z" transform="translate(-2331.24 -625.36)" fill="#f98824"/>
        </g>
        <path id="Trazado_28713" data-name="Trazado 28713" d="M2340.895,621.854H2326.87a1.572,1.572,0,0,1-1.572-1.572v-3.158a1.572,1.572,0,0,1,1.572-1.573h14.025a1.572,1.572,0,0,1,1.572,1.573v3.158A1.572,1.572,0,0,1,2340.895,621.854Z" transform="translate(-2256.102 -584.101)" fill="#ffd496"/>
        <path id="Trazado_28714" data-name="Trazado 28714" d="M2348.408,617.125v3.158a1.573,1.573,0,0,1-1.572,1.572h-4.913a1.573,1.573,0,0,0,1.573-1.572v-3.158a1.573,1.573,0,0,0-1.573-1.572h4.913A1.573,1.573,0,0,1,2348.408,617.125Z" transform="translate(-2262.043 -584.102)" fill="#fcc16d"/>
        <g id="Grupo_17997" data-name="Grupo 17997">
          <path id="Trazado_28715" data-name="Trazado 28715" d="M2231.02,599.026l-12.039,11.441a4.36,4.36,0,0,0,6,6.331L2236.4,605.98a7.177,7.177,0,0,0,7.626-2.765h24.042a7.177,7.177,0,0,0,12.287-5.044c0-.166-.008-.33-.019-.493l7.469-7.469a1.284,1.284,0,0,0-1.816-1.816l-6.452,6.453a7.238,7.238,0,0,0-2.4-2.663l16.853-16.854h2.56v2.506l-6.315,6.318a1.284,1.284,0,1,0,1.816,1.815l4.875-4.876a4.359,4.359,0,0,0,8.343-1.768v-8.355a4.364,4.364,0,0,0-4.359-4.359h-8.355a4.358,4.358,0,0,0-1.8,8.326l-16.187,16.187a7.174,7.174,0,0,0-7.554,3.372H2243.77a7.178,7.178,0,0,0-12.75,4.53Zm-7.808,15.907a1.792,1.792,0,0,1-2.466-2.6L2231.665,602a7.23,7.23,0,0,0,2.259,2.8Zm14.99-11.293a4.614,4.614,0,1,1,4.614-4.614A4.619,4.619,0,0,1,2238.2,603.64Zm6.995-2.993a7.131,7.131,0,0,0-.088-3.583h20.972a7.185,7.185,0,0,0,.355,3.583Zm27.98,2.137a4.614,4.614,0,1,1,4.613-4.614A4.619,4.619,0,0,1,2273.177,602.784Zm29.524-23.46a1.792,1.792,0,0,1-3.583,0v-5.28a1.283,1.283,0,0,0-1.284-1.283h-5.279a1.792,1.792,0,0,1,0-3.584h8.355a1.793,1.793,0,0,1,1.792,1.792Z" transform="translate(-2217.62 -566.61)" fill="#00223d"/>
          <path id="Trazado_28716" data-name="Trazado 28716" d="M2234.5,652.785h-14.024a2.859,2.859,0,0,0-2.856,2.856V658.8a2.844,2.844,0,0,1,0,3.145V665.1a2.842,2.842,0,0,1,0,3.144V671.4a2.844,2.844,0,0,1,0,3.145v3.158a2.859,2.859,0,0,0,2.856,2.856H2234.5a2.86,2.86,0,0,0,2.856-2.856v-3.158a2.844,2.844,0,0,1,0-3.145v-3.158a2.843,2.843,0,0,1,0-3.145v-3.158a2.842,2.842,0,0,1,0-3.144v-3.158A2.86,2.86,0,0,0,2234.5,652.785Zm-14.312,2.856a.288.288,0,0,1,.288-.289H2234.5a.289.289,0,0,1,.289.289V658.8a.289.289,0,0,1-.289.288h-14.024a.288.288,0,0,1-.288-.288Zm14.6,15.763a.289.289,0,0,1-.289.289h-14.024a.288.288,0,0,1-.288-.289v-3.158a.288.288,0,0,1,.288-.288H2234.5a.289.289,0,0,1,.289.288Zm0-6.3a.289.289,0,0,1-.289.288h-14.024a.288.288,0,0,1-.288-.288v-3.158a.288.288,0,0,1,.288-.289H2234.5a.288.288,0,0,1,.288.289V665.1Zm0,12.6a.289.289,0,0,1-.289.289h-14.024a.288.288,0,0,1-.288-.289v-3.158a.288.288,0,0,1,.288-.288H2234.5a.289.289,0,0,1,.289.288Z" transform="translate(-2217.619 -597.408)" fill="#00223d"/>
          <path id="Trazado_28717" data-name="Trazado 28717" d="M2269.726,633.169H2255.7a2.859,2.859,0,0,0-2.856,2.856v3.158a2.842,2.842,0,0,1,0,3.144v3.158a2.842,2.842,0,0,1,0,3.144v3.158a2.844,2.844,0,0,1,0,3.145v3.158a2.842,2.842,0,0,1,0,3.144v3.159a2.842,2.842,0,0,1,0,3.144V670.7a2.859,2.859,0,0,0,2.856,2.856h14.024a2.86,2.86,0,0,0,2.856-2.856v-3.158a2.845,2.845,0,0,1,0-3.145v-3.158a2.845,2.845,0,0,1,0-3.145v-3.158a2.844,2.844,0,0,1,0-3.144V648.63a2.845,2.845,0,0,1,0-3.145v-3.158a2.845,2.845,0,0,1,0-3.145v-3.158A2.86,2.86,0,0,0,2269.726,633.169Zm-14.312,2.856a.288.288,0,0,1,.288-.288h14.024a.288.288,0,0,1,.289.288v3.158a.288.288,0,0,1-.289.288H2255.7a.288.288,0,0,1-.288-.288Zm14.6,22.067a.288.288,0,0,1-.289.288h-5.669a1.284,1.284,0,0,0,0,2.568h5.669a.289.289,0,0,1,.289.288v3.158a.289.289,0,0,1-.289.289H2255.7a.288.288,0,0,1-.288-.289v-3.158a.288.288,0,0,1,.288-.288h2.356a1.284,1.284,0,1,0,0-2.568H2255.7a.288.288,0,0,1-.288-.288v-3.158a.288.288,0,0,1,.288-.289h14.024a.289.289,0,0,1,.289.289v3.158Zm0-6.3a.288.288,0,0,1-.289.288H2255.7a.288.288,0,0,1-.288-.288V648.63a.288.288,0,0,1,.288-.288h14.024a.289.289,0,0,1,.289.288Zm0-6.3a.288.288,0,0,1-.289.288H2255.7a.288.288,0,0,1-.288-.288v-3.158a.288.288,0,0,1,.288-.288h14.024a.289.289,0,0,1,.289.288Zm0,25.21a.288.288,0,0,1-.289.288H2255.7a.288.288,0,0,1-.288-.288v-3.158a.288.288,0,0,1,.288-.288h14.024a.289.289,0,0,1,.289.288Z" transform="translate(-2230.208 -590.397)" fill="#00223d"/>
          <path id="Trazado_28718" data-name="Trazado 28718" d="M2304.953,633.169h-14.024a2.859,2.859,0,0,0-2.856,2.856v3.158a2.845,2.845,0,0,1,0,3.145v3.158a2.845,2.845,0,0,1,0,3.145v3.158a2.845,2.845,0,0,1,0,3.145v3.158a2.845,2.845,0,0,1,0,3.145v3.158a2.845,2.845,0,0,1,0,3.145V670.7a2.858,2.858,0,0,0,2.856,2.856h14.024a2.859,2.859,0,0,0,2.856-2.856v-3.158a2.845,2.845,0,0,1,0-3.145v-3.158a2.845,2.845,0,0,1,0-3.145v-3.158a2.845,2.845,0,0,1,0-3.145v-3.158a2.845,2.845,0,0,1,0-3.145v-3.158a2.845,2.845,0,0,1,0-3.145v-3.158A2.86,2.86,0,0,0,2304.953,633.169Zm-14.312,2.856a.288.288,0,0,1,.288-.289h14.024a.289.289,0,0,1,.288.289v3.158a.288.288,0,0,1-.288.288h-14.024a.288.288,0,0,1-.288-.288Zm14.6,28.368a.289.289,0,0,1-.289.289h-14.024a.288.288,0,0,1-.288-.289v-3.158a.288.288,0,0,1,.288-.288h14.024a.289.289,0,0,1,.289.288Zm0-6.3a.289.289,0,0,1-.289.288h-14.024a.288.288,0,0,1-.288-.288v-3.158a.288.288,0,0,1,.288-.289h14.024a.289.289,0,0,1,.289.289Zm0-6.3a.289.289,0,0,1-.289.288h-14.024a.288.288,0,0,1-.288-.288V648.63a.288.288,0,0,1,.288-.288h14.024a.289.289,0,0,1,.289.288Zm0-6.3a.289.289,0,0,1-.289.288h-14.024a.288.288,0,0,1-.288-.288v-3.158a.288.288,0,0,1,.288-.289h14.024a.289.289,0,0,1,.289.289v3.158Zm0,25.21a.289.289,0,0,1-.289.288h-14.024a.288.288,0,0,1-.288-.288v-3.158a.288.288,0,0,1,.288-.288h14.024a.289.289,0,0,1,.289.288Z" transform="translate(-2242.799 -590.397)" fill="#00223d"/>
          <path id="Trazado_28719" data-name="Trazado 28719" d="M2340.18,613.554h-3.421a1.284,1.284,0,0,0,0,2.568h3.421a.289.289,0,0,1,.288.289v3.158a.288.288,0,0,1-.288.288h-14.025a.288.288,0,0,1-.288-.288V616.41a.288.288,0,0,1,.288-.289h4.6a1.284,1.284,0,0,0,0-2.568h-4.6a2.859,2.859,0,0,0-2.856,2.856v3.158a2.842,2.842,0,0,1,0,3.144v3.158a2.842,2.842,0,0,1,0,3.144v3.158a2.843,2.843,0,0,1,0,3.145v3.158a2.843,2.843,0,0,1,0,3.145v3.158a2.844,2.844,0,0,1,0,3.145v3.158a2.843,2.843,0,0,1,0,3.145v3.158a2.843,2.843,0,0,1,0,3.145v3.158a2.859,2.859,0,0,0,2.856,2.856h14.025a2.859,2.859,0,0,0,2.855-2.856v-3.158a2.845,2.845,0,0,1,0-3.145v-3.158a2.845,2.845,0,0,1,0-3.145v-3.158a2.845,2.845,0,0,1,0-3.145v-3.158a2.845,2.845,0,0,1,0-3.145v-3.158a2.845,2.845,0,0,1,0-3.145v-3.158a2.844,2.844,0,0,1,0-3.144v-3.158a2.844,2.844,0,0,1,0-3.144V616.41a2.859,2.859,0,0,0-2.855-2.856Zm.288,43.829a.289.289,0,0,1-.288.289h-14.025a.288.288,0,0,1-.288-.289v-3.158a.288.288,0,0,1,.288-.288h14.025a.288.288,0,0,1,.288.288Zm0-6.3a.288.288,0,0,1-.288.288h-14.025a.288.288,0,0,1-.288-.288v-3.158a.288.288,0,0,1,.288-.289h14.025a.289.289,0,0,1,.288.289Zm0-6.3a.288.288,0,0,1-.288.288h-14.025a.288.288,0,0,1-.288-.288V641.62a.288.288,0,0,1,.288-.288h14.025a.288.288,0,0,1,.288.288Zm0-6.3a.288.288,0,0,1-.288.288h-14.025a.288.288,0,0,1-.288-.288v-3.158a.288.288,0,0,1,.288-.289h14.025a.289.289,0,0,1,.288.289Zm0-6.3a.289.289,0,0,1-.288.289h-14.025a.288.288,0,0,1-.288-.289v-3.158a.288.288,0,0,1,.288-.288h14.025a.288.288,0,0,1,.288.288Zm0-6.3a.288.288,0,0,1-.288.288h-14.025a.288.288,0,0,1-.288-.288v-3.158a.288.288,0,0,1,.288-.288h14.025a.288.288,0,0,1,.288.288Zm0,37.815a.289.289,0,0,1-.288.289h-14.025a.288.288,0,0,1-.288-.289v-3.158a.288.288,0,0,1,.288-.288h14.025a.288.288,0,0,1,.288.288Z" transform="translate(-2255.388 -583.387)" fill="#00223d"/>
        </g>
      </g>
    </g>
    <rect id="Rectángulo_4423" data-name="Rectángulo 4423" width="113" height="113" transform="translate(235 6994)" fill="none"/>
  </g>
</svg>
