<?xml version="1.0" encoding="utf-8"?>
<!-- Generator: Adobe Illustrator 25.2.1, SVG Export Plug-In . SVG Version: 6.00 Build 0)  -->
<svg version="1.1" id="Capa_1" xmlns="http://www.w3.org/2000/svg" xmlns:xlink="http://www.w3.org/1999/xlink" x="0px" y="0px"
	 viewBox="0 0 512 512" style="enable-background:new 0 0 512 512;" xml:space="preserve">
<style type="text/css">
	.st0{fill:none;}
	.st1{fill:#FAF8F8;}
	.st2{fill:#5D748A;}
	.st3{fill:#3F597D;}
	.st4{fill:#FFBF54;}
	.st5{fill:#FFA442;}
	.st6{fill:#AAD8DE;}
	.st7{fill:#94CCD4;}
</style>
<g>
	<rect class="st0" width="512" height="512"/>
	<g>
		<g>
			<path class="st1" d="M76.8,61.1h259.6c8.7,0,15.7,7,15.7,15.7v358.4c0,8.7-11.3,9.8-19.9,9.8l-249.9,2.4c-8.7,0-15.7-7-15.7-15.7
				l1.3-348.6C67.9,74.4,68.2,61.1,76.8,61.1L76.8,61.1z"/>
			<g>
				<path class="st2" d="M120,268.5v15.7c0,2.2-0.9,4.1-2.3,5.5l-17.8-8.3l-9-18.4c1.4-1.4,3.4-2.3,5.5-2.3h15.7
					C116.4,260.7,120,264.2,120,268.5z"/>
				<path class="st3" d="M117.7,289.8c-1.4,1.4-3.4,2.3-5.5,2.3H96.4c-4.3,0-7.8-3.5-7.8-7.8v-15.7c0-2.2,0.9-4.1,2.3-5.5
					L117.7,289.8z"/>
			</g>
			<g>
				<path class="st2" d="M120,368.5v15.7c0,2.2-0.9,4.1-2.3,5.5l-17.8-8.3l-9-18.4c1.4-1.4,3.4-2.3,5.5-2.3h15.7
					C116.4,360.7,120,364.2,120,368.5z"/>
				<path class="st3" d="M117.7,389.8c-1.4,1.4-3.4,2.3-5.5,2.3H96.4c-4.3,0-7.8-3.5-7.8-7.8v-15.7c0-2.2,0.9-4.1,2.3-5.5
					L117.7,389.8z"/>
			</g>
			<g>
				<path class="st2" d="M416.7,105.1l-21.8-0.9l0.3-34.4c0-4.3,0.4-8.6,4.7-8.6h11.5c4.3,0,7.8,3.5,7.8,7.8v23.6L416.7,105.1z"/>
				<path class="st3" d="M419.3,92.6v12.5l-15.1,7l-12.1-7V69c0-4.3,3.5-7.8,7.8-7.8h3.9v28.3c0,1.7,1.4,3.1,3.1,3.1H419.3z"/>
				<g>
					<path class="st2" d="M405.7,456.7c-3.2,0-5.9-2.6-5.9-5.9V440c0-3.2,2.6-5.9,5.9-5.9c3.2,0,5.9,2.6,5.9,5.9v10.9
						C411.6,454.1,408.9,456.7,405.7,456.7z"/>
				</g>
				<path class="st4" d="M422.3,389.7l-37.1,5.9l1.9-269.4c0-4.3-1.4-21.1,2.9-21.1h31.4c4.3,0,7.8,3.5,7.8,7.8v173.1L422.3,389.7z"
					/>
				<path class="st4" d="M381,376.2v19.6c0,3.1,4.2,5.7,4.2,5.7l-1.6,5.2l12.3,31c0.6,1.5,2,2.4,3.6,2.4h12.4c1.6,0,3-0.9,3.6-2.4
					l13-32.7c1.2-2.9,1.8-6,1.8-9.1v-19.6l-24.7-2.4L381,376.2z"/>
				<path class="st5" d="M411.2,440h-11.8c-1.6,0-3-0.9-3.6-2.4l-12.3-31l1.6-5.2c-1.2-2.9-4.2-2.5-4.2-5.7v-19.6l6.1-2.4l5.7,2.4
					v19.6c0,3.1,0.6,6.2,1.8,9.1l0.7,1.7l12.3,31C408.2,439,409.7,440,411.2,440L411.2,440z"/>
				<path class="st5" d="M401,105.2c-4.3,0-7.8,3.5-7.8,7.8v172.4l-5.3,4.2c-0.7,0-5.1-3.9-5.7-3.5V113c0-4.3,3.5-7.8,7.8-7.8
					L401,105.2z"/>
				<path class="st2" d="M437.4,369.9v-12.7l-0.8-5.9l0.8-5.9v-11.4l-0.8-5.9l0.8-5.9v-11.8l-0.8-5.9l0.8-5.9v-11.7l-0.8-5.9
					l0.8-5.9v-12.7c0-3.5-2.8-6.3-6.3-6.3h-51c-3.5,0-6.3,2.8-6.3,6.3v12.7l0.8,5.9l-0.8,5.9v11.7l0.8,5.9l-0.8,5.9v11.8l0.8,6.8
					l-0.8,4.9v11.4l0.8,5.9l-0.8,5.9v12.7c0,3.5,2.8,6.3,6.3,6.3h51C434.6,376.2,437.4,373.3,437.4,369.9z"/>
				<path class="st3" d="M392,376.2h-11.8c-3.5,0-6.3-2.8-6.3-6.3v-12.7l0.8-5.9l-0.8-5.9v-11.4l0.8-4.9l-0.8-6.8v-11.8l0.8-5.9
					l-0.8-5.9v-11.7l0.8-5.9l-0.8-5.9v-12.7c0-3.5,2.8-6.3,6.3-6.3H392c-3.5,0-6.3,2.8-6.3,6.3v107.2
					C385.7,373.3,388.5,376.2,392,376.2L392,376.2z"/>
			</g>
			<path class="st6" d="M118.3,116.3L119,106c0-4.3,0.4-7.3,4.7-7.3l4.1-2.4h161.5c4.3,0,7.8,3.5,7.8,7.8v9.9l-3.4,1.4
				c0,4.3-3.5,7.8-7.8,7.8l-159.8,0.8C121.8,124.1,118.3,120.6,118.3,116.3L118.3,116.3z"/>
			<path class="st7" d="M297.2,114.1v3.9c0,4.3-3.5,7.8-7.8,7.8H123.9c-4.3,0-7.8-3.5-7.8-7.8v-13.8c0-4.3,3.5-7.8,7.8-7.8h3.9v12.3
				c0,3,2.5,5.5,5.5,5.5H297.2z"/>
			<g>
				<path class="st2" d="M120,168.6v15.7c0,2.2-0.9,4.1-2.3,5.5l-17.8-8.3l-9-18.4c1.4-1.4,3.4-2.3,5.5-2.3h15.7
					C116.4,160.7,120,164.2,120,168.6z"/>
				<path class="st3" d="M117.7,189.8c-1.4,1.4-3.4,2.3-5.5,2.3H96.4c-4.3,0-7.8-3.5-7.8-7.8v-15.7c0-2.2,0.9-4.1,2.3-5.5
					L117.7,189.8z"/>
			</g>
		</g>
		<g>
			<path d="M437.3,99.3h-12.1V69c0-7.6-6.2-13.7-13.7-13.7h-11.5c-7.6,0-13.7,6.2-13.7,13.7v30.8c-5.7,1.7-9.9,6.9-9.9,13.2v138.2
				c-4.8,1.6-8.2,6.2-8.2,11.5v107.2c0,4.9,2.9,9.1,7.1,11v14.8c0,3.9,0.8,7.7,2.3,11.4l13,31.2c1.2,3,5.1,6.2,9.4,6v6.6
				c0,3.2,2.6,5.9,5.9,5.9c3.2,0,5.9-2.6,5.9-5.9v-6.6c3.2,0.1,7.6-1.9,9.4-6l13-31.2c1.5-3.6,2.3-7.4,2.3-11.4v-14.8
				c4.2-1.9,7.1-6.1,7.1-11V262.7c0-5.3-3.5-9.9-8.2-11.5v-29.7c0-3.2-2.6-5.9-5.9-5.9c-3.2,0-5.9,2.6-5.9,5.9v29H388V113
				c0-1.1,0.9-2,2-2h31.4c1.1,0,2,0.9,2,2v81.1c0,3.2,2.6,5.9,5.9,5.9c3.2,0,5.9-2.6,5.9-5.9c-0.2-4.2,0.3-78.5-0.2-83h2.3
				c4.3,0,7.7,3.5,7.7,7.7v97.8c0,3.2,2.6,5.9,5.9,5.9c3.2,0,5.9-2.6,5.9-5.9v-97.8C456.7,108,448,99.3,437.3,99.3z M399.9,67h11.5
				c1.1,0,2,0.9,2,2v30.3H398V69C398,67.9,398.8,67,399.9,67z M431.2,262.3c0.2,0,0.4,0.2,0.4,0.4v12.7h-10.7
				c-3.2,0-5.9,2.6-5.9,5.9c0,3.2,2.6,5.9,5.9,5.9h10.7v11.7h-10.7c-3.2,0-5.9,2.6-5.9,5.9c0,3.2,2.6,5.9,5.9,5.9h10.7v11.8h-10.7
				c-3.2,0-5.9,2.6-5.9,5.9c0,3.2,2.6,5.9,5.9,5.9h10.7v11.4h-10.7c-3.2,0-5.9,2.6-5.9,5.9c0,3.2,2.6,5.9,5.9,5.9h10.7v12.7
				c0,0.2-0.2,0.4-0.4,0.4h-51c-0.2,0-0.4-0.2-0.4-0.4v-12.7h10.7c3.2,0,5.9-2.6,5.9-5.9c0-3.2-2.6-5.9-5.9-5.9h-10.7v-11.4h10.7
				c3.2,0,5.9-2.6,5.9-5.9c0-3.2-2.6-5.9-5.9-5.9h-10.7v-11.8h10.7c3.2,0,5.9-2.6,5.9-5.9c0-3.2-2.6-5.9-5.9-5.9h-10.7v-11.7h10.7
				c3.2,0,5.9-2.6,5.9-5.9c0-3.2-2.6-5.9-5.9-5.9h-10.7v-12.7c0-0.2,0.2-0.4,0.4-0.4H431.2z M424.5,394.8h-37.6V382h37.6V394.8z
				 M410.6,432.5h-9.8l-10.9-26h31.6L410.6,432.5z"/>
			<path d="M399.8,141.9v74.5c0,3.2,2.6,5.9,5.9,5.9c3.2,0,5.9-2.6,5.9-5.9v-74.5c0-3.2-2.6-5.9-5.9-5.9
				C402.4,136,399.8,138.7,399.8,141.9z"/>
			<path d="M336.4,55.3H125.8c-3.2,0-5.9,2.6-5.9,5.9s2.6,5.9,5.9,5.9h210.5c5.4,0,9.8,4.4,9.8,9.8v358.4c0,5.4-4.4,9.8-9.8,9.8
				H76.8c-5.4,0-9.8-4.4-9.8-9.8V76.8c0-5.4,4.4-9.8,9.8-9.8h20.6c3.2,0,5.9-2.6,5.9-5.9s-2.6-5.9-5.9-5.9H76.8
				c-11.9,0-21.6,9.7-21.6,21.6v358.4c0,11.9,9.7,21.6,21.6,21.6h259.6c11.9,0,21.6-9.7,21.6-21.6V76.8
				C357.9,64.9,348.3,55.3,336.4,55.3z"/>
			<path d="M123.9,131.7h106.2c3.2,0,5.9-2.6,5.9-5.9s-2.6-5.9-5.9-5.9H123.9c-1.1,0-2-0.9-2-2v-13.8c0-1.1,0.9-2,2-2h165.4
				c1.1,0,2,0.9,2,2V118c0,1.1-0.9,2-2,2h-31.8c-3.2,0-5.9,2.6-5.9,5.9s2.6,5.9,5.9,5.9h31.8c7.6,0,13.7-6.2,13.7-13.7v-13.8
				c0-7.6-6.2-13.7-13.7-13.7H123.9c-7.6,0-13.7,6.2-13.7,13.7V118C110.2,125.6,116.3,131.7,123.9,131.7z"/>
			<path d="M125.8,168.6c0-7.6-6.2-13.7-13.7-13.7H96.4c-7.6,0-13.7,6.2-13.7,13.7v15.7c0,7.6,6.2,13.7,13.7,13.7h15.7
				c7.6,0,13.7-6.2,13.7-13.7V168.6z M114.1,184.3c0,1.1-0.9,2-2,2H96.4c-1.1,0-2-0.9-2-2v-15.7c0-1.1,0.9-2,2-2h15.7
				c1.1,0,2,0.9,2,2V184.3z"/>
			<path d="M324.6,154.8H170.9c-3.2,0-5.9,2.6-5.9,5.9c0,3.2,2.6,5.9,5.9,5.9h153.7c3.2,0,5.9-2.6,5.9-5.9
				C330.5,157.5,327.9,154.8,324.6,154.8z"/>
			<path d="M324.6,182.3h-83.5c-3.2,0-5.9,2.6-5.9,5.9s2.6,5.9,5.9,5.9h83.5c3.2,0,5.9-2.6,5.9-5.9S327.9,182.3,324.6,182.3z"/>
			<path d="M147.4,194.1h66.3c3.2,0,5.9-2.6,5.9-5.9s-2.6-5.9-5.9-5.9h-66.3c-3.2,0-5.9,2.6-5.9,5.9S144.1,194.1,147.4,194.1z"/>
			<path d="M147.4,221.5h138c3.2,0,5.9-2.6,5.9-5.9s-2.6-5.9-5.9-5.9h-138c-3.2,0-5.9,2.6-5.9,5.9S144.1,221.5,147.4,221.5z"/>
			<path d="M125.8,268.5c0-7.6-6.2-13.7-13.7-13.7H96.4c-7.6,0-13.7,6.2-13.7,13.7v15.7c0,7.6,6.2,13.7,13.7,13.7h15.7
				c7.6,0,13.7-6.2,13.7-13.7V268.5z M114.1,284.2c0,1.1-0.9,2-2,2H96.4c-1.1,0-2-0.9-2-2v-15.7c0-1.1,0.9-2,2-2h15.7
				c1.1,0,2,0.9,2,2V284.2z"/>
			<path d="M324.6,254.8H170.9c-3.2,0-5.9,2.6-5.9,5.9c0,3.2,2.6,5.9,5.9,5.9h153.7c3.2,0,5.9-2.6,5.9-5.9
				C330.5,257.5,327.9,254.8,324.6,254.8z"/>
			<path d="M324.6,282.3H147.4c-3.2,0-5.9,2.6-5.9,5.9c0,3.2,2.6,5.9,5.9,5.9h177.2c3.2,0,5.9-2.6,5.9-5.9
				C330.5,284.9,327.9,282.3,324.6,282.3z"/>
			<path d="M147.4,321.5h65.9c3.2,0,5.9-2.6,5.9-5.9c0-3.2-2.6-5.9-5.9-5.9h-65.9c-3.2,0-5.9,2.6-5.9,5.9
				C141.5,318.8,144.1,321.5,147.4,321.5z"/>
			<path d="M112.1,354.8H96.4c-7.6,0-13.7,6.2-13.7,13.7v15.7c0,7.6,6.2,13.7,13.7,13.7h15.7c7.6,0,13.7-6.2,13.7-13.7v-15.7
				C125.8,361,119.7,354.8,112.1,354.8z M114.1,384.2c0,1.1-0.9,2-2,2H96.4c-1.1,0-2-0.9-2-2v-15.7c0-1.1,0.9-2,2-2h15.7
				c1.1,0,2,0.9,2,2V384.2z"/>
			<path d="M324.6,354.8H170.9c-3.2,0-5.9,2.6-5.9,5.9c0,3.2,2.6,5.9,5.9,5.9h153.7c3.2,0,5.9-2.6,5.9-5.9
				C330.5,357.4,327.9,354.8,324.6,354.8z"/>
			<path d="M324.6,382.2h-34.9c-3.2,0-5.9,2.6-5.9,5.9s2.6,5.9,5.9,5.9h34.9c3.2,0,5.9-2.6,5.9-5.9S327.9,382.2,324.6,382.2z"/>
			<path d="M147.4,394h114.9c3.2,0,5.9-2.6,5.9-5.9s-2.6-5.9-5.9-5.9H147.4c-3.2,0-5.9,2.6-5.9,5.9S144.1,394,147.4,394z"/>
			<path d="M147.4,421.5H265c3.2,0,5.9-2.6,5.9-5.9c0-3.2-2.6-5.9-5.9-5.9H147.4c-3.2,0-5.9,2.6-5.9,5.9
				C141.5,418.8,144.1,421.5,147.4,421.5z"/>
		</g>
	</g>
</g>
</svg>
