<svg xmlns="http://www.w3.org/2000/svg" xmlns:xlink="http://www.w3.org/1999/xlink" width="73" height="73" viewBox="0 0 73 73">
  <defs>
    <filter id="Trazado_29179" x="0" y="0" width="73" height="73" filterUnits="userSpaceOnUse">
      <feOffset dy="3" input="SourceAlpha"/>
      <feGaussianBlur stdDeviation="3" result="blur"/>
      <feFlood flood-opacity="0.161"/>
      <feComposite operator="in" in2="blur"/>
      <feComposite in="SourceGraphic"/>
    </filter>
  </defs>
  <g id="Grupo_18133" data-name="Grupo 18133" transform="translate(1445 433)">
    <g transform="matrix(1, 0, 0, 1, -1445, -433)" filter="url(#Trazado_29179)">
      <g id="Trazado_29179-2" data-name="Trazado 29179" transform="translate(9 6)" fill="#fff">
        <path d="M 27.5 53.5 C 23.98936080932617 53.5 20.58452987670898 52.81277084350586 17.38009071350098 51.4574089050293 C 14.28419971466064 50.1479606628418 11.50349998474121 48.2730598449707 9.115220069885254 45.88478088378906 C 6.726940155029297 43.49649810791016 4.852039813995361 40.71580123901367 3.542589902877808 37.61991119384766 C 2.187230110168457 34.41547012329102 1.5 31.01063919067383 1.5 27.5 C 1.5 23.98936080932617 2.187230110168457 20.58452987670898 3.542589902877808 17.38009071350098 C 4.852039813995361 14.28419971466064 6.726940155029297 11.50349998474121 9.115220069885254 9.115220069885254 C 11.50349998474121 6.726940155029297 14.28419971466064 4.852039813995361 17.38009071350098 3.542589902877808 C 20.58452987670898 2.187230110168457 23.98936080932617 1.5 27.5 1.5 C 31.01063919067383 1.5 34.41547012329102 2.187230110168457 37.61991119384766 3.542589902877808 C 40.71580123901367 4.852039813995361 43.49649810791016 6.726940155029297 45.88478088378906 9.115220069885254 C 48.2730598449707 11.50349998474121 50.1479606628418 14.28419971466064 51.4574089050293 17.38009071350098 C 52.81277084350586 20.58452987670898 53.5 23.98936080932617 53.5 27.5 C 53.5 31.01063919067383 52.81277084350586 34.41547012329102 51.4574089050293 37.61991119384766 C 50.1479606628418 40.71580123901367 48.2730598449707 43.49649810791016 45.88478088378906 45.88478088378906 C 43.49649810791016 48.2730598449707 40.71580123901367 50.1479606628418 37.61991119384766 51.4574089050293 C 34.41547012329102 52.81277084350586 31.01063919067383 53.5 27.5 53.5 Z" stroke="none"/>
        <path d="M 27.5 3 C 24.19120025634766 3 20.98297119140625 3.647361755371094 17.96442031860352 4.924098968505859 C 15.04732894897461 6.157920837402344 12.4268913269043 7.924880981445313 10.17588043212891 10.17588043212891 C 7.924880981445313 12.4268913269043 6.157920837402344 15.04732894897461 4.924098968505859 17.96442031860352 C 3.647361755371094 20.98297119140625 3 24.19120025634766 3 27.5 C 3 30.80879974365234 3.647361755371094 34.01702880859375 4.924098968505859 37.03557968139648 C 6.157920837402344 39.95267105102539 7.924880981445313 42.5731086730957 10.17588043212891 44.82411956787109 C 12.4268913269043 47.07511901855469 15.04732894897461 48.84207916259766 17.96442031860352 50.07590103149414 C 20.98297119140625 51.35263824462891 24.19120025634766 52 27.5 52 C 30.80879974365234 52 34.01702880859375 51.35263824462891 37.03557968139648 50.07590103149414 C 39.95267105102539 48.84207916259766 42.5731086730957 47.07511901855469 44.82411956787109 44.82411956787109 C 47.07511901855469 42.5731086730957 48.84207916259766 39.95267105102539 50.07590103149414 37.03557968139648 C 51.35263824462891 34.01702880859375 52 30.80879974365234 52 27.5 C 52 24.19120025634766 51.35263824462891 20.98297119140625 50.07590103149414 17.96442031860352 C 48.84207916259766 15.04732894897461 47.07511901855469 12.4268913269043 44.82411956787109 10.17588043212891 C 42.5731086730957 7.924880981445313 39.95267105102539 6.157920837402344 37.03557968139648 4.924098968505859 C 34.01702880859375 3.647361755371094 30.80879974365234 3 27.5 3 M 27.5 0 C 42.68782806396484 0 55 12.31216812133789 55 27.5 C 55 42.68782806396484 42.68782806396484 55 27.5 55 C 12.31216812133789 55 0 42.68782806396484 0 27.5 C 0 12.31216812133789 12.31216812133789 0 27.5 0 Z" stroke="none" fill="#00838f"/>
      </g>
    </g>
    <path id="Trazado_29180" data-name="Trazado 29180" d="M7.184,23.234a5.281,5.281,0,0,1-4.553-2.191q-1.588-2.191-1.588-6.516T2.625,8.012a5.288,5.288,0,0,1,4.559-2.18,5.276,5.276,0,0,1,4.547,2.18q1.582,2.18,1.582,6.516t-1.588,6.516A5.27,5.27,0,0,1,7.184,23.234Zm0-3.047A2.226,2.226,0,0,0,9.217,18.8a9.668,9.668,0,0,0,.721-4.271,9.6,9.6,0,0,0-.727-4.271A2.231,2.231,0,0,0,7.184,8.867q-2.766,0-2.766,5.66T7.184,20.188Zm13.043-.2h7.219V23H15.5V20.457l6.738-6.879a4.24,4.24,0,0,0,1.465-2.918,2.064,2.064,0,0,0-.6-1.57A2.376,2.376,0,0,0,21.4,8.516q-2.4,0-2.4,2.73V12.5l-3.363-.34v-.844A5.281,5.281,0,0,1,17.18,7.244a5.924,5.924,0,0,1,4.2-1.436,6.206,6.206,0,0,1,4.084,1.3,4.384,4.384,0,0,1,1.576,3.574A5.069,5.069,0,0,1,26.5,13a9.7,9.7,0,0,1-1.693,2.262Z" transform="translate(-1424 -413)" fill="#00223d"/>
  </g>
</svg>
