<svg xmlns="http://www.w3.org/2000/svg" width="921" height="417" viewBox="0 0 921 417">
  <g id="Grupo_18140" data-name="Grupo 18140" transform="translate(-2382 2909)">
    <path id="Trazado_29222" data-name="Trazado 29222" d="M0,0H546V417H0Z" transform="translate(2382 -2909)" fill="#fbfbfb"/>
    <g id="Trazado_29223" data-name="Trazado 29223" transform="translate(2406.5 -2893)" fill="none">
      <path d="M0,0H502V378H0Z" stroke="none"/>
      <path d="M 1 1 L 1 377 L 501 377 L 501 1 L 1 1 M 0 0 L 502 0 L 502 378 L 0 378 L 0 0 Z" stroke="none" fill="#707070"/>
    </g>
    <path id="Trazado_29224" data-name="Trazado 29224" d="M54,17.167a3.447,3.447,0,0,1-3.05-1.617A8.623,8.623,0,0,1,49.882,10.8a8.662,8.662,0,0,1,1.059-4.737,3.705,3.705,0,0,1,6.113,0A8.637,8.637,0,0,1,58.118,10.8a8.6,8.6,0,0,1-1.077,4.742A3.44,3.44,0,0,1,54,17.167Zm0-1.406a2.093,2.093,0,0,0,1.925-1.239A8.08,8.08,0,0,0,56.6,10.8a7.851,7.851,0,0,0-.681-3.713,2.115,2.115,0,0,0-3.828,0,7.891,7.891,0,0,0-.677,3.718,8.122,8.122,0,0,0,.664,3.722A2.091,2.091,0,0,0,54,15.761Zm.088,36.864h1.424V65h-1.5V54.286l-2.971,2.575V55.235ZM52,111.6h6.161V113h-8.35v-1.151l4.957-5.124a5.872,5.872,0,0,0,1.116-1.468,2.928,2.928,0,0,0,.308-1.274,2.136,2.136,0,0,0-.624-1.639,2.548,2.548,0,0,0-3.309.053,2.741,2.741,0,0,0-.628,1.991v.914l-1.521-.141V104.4a3.912,3.912,0,0,1,1.046-2.94,4.33,4.33,0,0,1,5.48-.075,3.27,3.27,0,0,1,1.05,2.566,3.892,3.892,0,0,1-.417,1.789,7.689,7.689,0,0,1-1.34,1.78Zm1.916,49.564q-4.122,0-4.122-4.4l1.547-.079a3.864,3.864,0,0,0,.58,2.329,2.339,2.339,0,0,0,2,.773,2.742,2.742,0,0,0,1.92-.668,2.472,2.472,0,0,0,.026-3.489,2.537,2.537,0,0,0-1.771-.642h-.615V153.7h.6a1.831,1.831,0,0,0,1.354-.571,1.927,1.927,0,0,0,.563-1.406,1.733,1.733,0,0,0-.6-1.362,2.188,2.188,0,0,0-1.5-.527,2.392,2.392,0,0,0-.989.185,1.388,1.388,0,0,0-.628.541,2.548,2.548,0,0,0-.316.787,4.611,4.611,0,0,0-.1,1l-1.547-.053a4.007,4.007,0,0,1,.927-2.839,3.436,3.436,0,0,1,2.641-.993,3.669,3.669,0,0,1,2.536.905,2.893,2.893,0,0,1,1.015,2.25,2.71,2.71,0,0,1-.492,1.608,2.812,2.812,0,0,1-1.239,1,3.421,3.421,0,0,1,1.74,1.134,3.179,3.179,0,0,1,.677,2.083,3.4,3.4,0,0,1-1.182,2.7A4.434,4.434,0,0,1,53.917,161.167Zm4.772,43.948v1.4H56.782V209H55.261v-2.487H49.337v-1.406l5.15-8.481h2.294v8.49Zm-7.778,0h4.351v-7.374Zm2.8,43.922a4.8,4.8,0,0,1,3.375,1.042,3.778,3.778,0,0,1,1.116,2.9,4.107,4.107,0,0,1-1.147,3.01,4.026,4.026,0,0,1-3,1.165,4.769,4.769,0,0,1-1.551-.25,4.19,4.19,0,0,1-1.31-.721,3.3,3.3,0,0,1-.914-1.217,4,4,0,0,1-.338-1.67,5.645,5.645,0,0,1,.044-.633l1.556-.132a6.186,6.186,0,0,0-.07.694,2.794,2.794,0,0,0,.224,1.151,1.968,1.968,0,0,0,.6.787,2.738,2.738,0,0,0,.813.426,2.968,2.968,0,0,0,.918.141,2.538,2.538,0,0,0,1.92-.756,2.69,2.69,0,0,0,.725-1.942,2.559,2.559,0,0,0-.751-1.951,3.368,3.368,0,0,0-2.377-.712H50.418l.765-5.73h6.486v1.415h-5.2l-.4,2.979Z" transform="translate(2410.5 -2789)" fill="#00223d"/>
    <path id="Trazado_29225" data-name="Trazado 29225" d="M11.158,13.643a3.482,3.482,0,0,1-.316,1.516,2.866,2.866,0,0,1-.883,1.085,4.319,4.319,0,0,1-1.292.65,6.34,6.34,0,0,1-1.586.272v1.125H6.253V17.167A5.154,5.154,0,0,1,3.393,16.2a3.7,3.7,0,0,1-1.455-2.3l1.6-.387a2.6,2.6,0,0,0,.932,1.564,3.345,3.345,0,0,0,1.784.712V11.3l-.088-.026q-.51-.141-.831-.237t-.773-.268a4.781,4.781,0,0,1-.734-.338,5.472,5.472,0,0,1-.6-.422,2.129,2.129,0,0,1-.5-.549,2.915,2.915,0,0,1-.3-.694,3.064,3.064,0,0,1-.119-.875,3.34,3.34,0,0,1,.316-1.472,2.9,2.9,0,0,1,.861-1.068,4.181,4.181,0,0,1,1.252-.642,5.282,5.282,0,0,1,1.516-.246V3.3H7.08v1.2a5.107,5.107,0,0,1,2.54.888,3.363,3.363,0,0,1,1.345,2.083l-1.521.4a2.389,2.389,0,0,0-.826-1.371A3.053,3.053,0,0,0,7.08,5.864v4.219q.4.105.659.18t.637.2a5.953,5.953,0,0,1,.633.237q.25.114.571.286a2.835,2.835,0,0,1,.523.347,4.765,4.765,0,0,1,.422.422,2.109,2.109,0,0,1,.347.523,3.181,3.181,0,0,1,.207.624A3.337,3.337,0,0,1,11.158,13.643ZM3.889,7.877a1.546,1.546,0,0,0,.176.747,1.53,1.53,0,0,0,.527.554,4.108,4.108,0,0,0,.729.378q.378.149.932.308V5.829a3,3,0,0,0-1.683.563A1.741,1.741,0,0,0,3.889,7.877ZM7.08,15.8a3.263,3.263,0,0,0,1.8-.589,1.756,1.756,0,0,0,.668-1.529,1.79,1.79,0,0,0-.193-.809,1.662,1.662,0,0,0-.554-.6,4.427,4.427,0,0,0-.765-.417,9.313,9.313,0,0,0-.958-.334ZM22.417,4.625H23.84V17h-1.5V6.286L19.367,8.861V7.235ZM32.462,17.167a3.447,3.447,0,0,1-3.05-1.617A8.623,8.623,0,0,1,28.34,10.8,8.662,8.662,0,0,1,29.4,6.066a3.705,3.705,0,0,1,6.113,0A8.637,8.637,0,0,1,36.576,10.8,8.6,8.6,0,0,1,35.5,15.545,3.44,3.44,0,0,1,32.462,17.167Zm0-1.406a2.093,2.093,0,0,0,1.925-1.239,8.08,8.08,0,0,0,.668-3.718,7.851,7.851,0,0,0-.681-3.713,2.115,2.115,0,0,0-3.828,0A7.891,7.891,0,0,0,29.87,10.8a8.122,8.122,0,0,0,.664,3.722A2.091,2.091,0,0,0,32.462,15.761Zm6.688,1.415a.987.987,0,0,1-.716-.3,1.022,1.022,0,0,1,.716-1.74.994.994,0,0,1,.721.3,1,1,0,0,1,0,1.437A1,1,0,0,1,39.151,17.176Zm7.98-.009a3.447,3.447,0,0,1-3.05-1.617A8.623,8.623,0,0,1,43.009,10.8a8.662,8.662,0,0,1,1.059-4.737,3.705,3.705,0,0,1,6.113,0A8.637,8.637,0,0,1,51.245,10.8a8.6,8.6,0,0,1-1.077,4.742A3.44,3.44,0,0,1,47.131,17.167Zm0-1.406a2.093,2.093,0,0,0,1.925-1.239,8.08,8.08,0,0,0,.668-3.718,7.851,7.851,0,0,0-.681-3.713,2.115,2.115,0,0,0-3.828,0,7.891,7.891,0,0,0-.677,3.718,8.122,8.122,0,0,0,.664,3.722A2.091,2.091,0,0,0,47.131,15.761Zm10.134,1.406a3.447,3.447,0,0,1-3.05-1.617A8.623,8.623,0,0,1,53.143,10.8,8.662,8.662,0,0,1,54.2,6.066a3.705,3.705,0,0,1,6.113,0A8.637,8.637,0,0,1,61.378,10.8,8.6,8.6,0,0,1,60.3,15.545,3.44,3.44,0,0,1,57.265,17.167Zm0-1.406a2.093,2.093,0,0,0,1.925-1.239,8.08,8.08,0,0,0,.668-3.718,7.851,7.851,0,0,0-.681-3.713,2.115,2.115,0,0,0-3.828,0,7.891,7.891,0,0,0-.677,3.718,8.122,8.122,0,0,0,.664,3.722A2.091,2.091,0,0,0,57.265,15.761ZM67.4,17.167a3.447,3.447,0,0,1-3.05-1.617A8.623,8.623,0,0,1,63.277,10.8a8.662,8.662,0,0,1,1.059-4.737,3.705,3.705,0,0,1,6.113,0A8.637,8.637,0,0,1,71.512,10.8a8.6,8.6,0,0,1-1.077,4.742A3.44,3.44,0,0,1,67.4,17.167Zm0-1.406a2.093,2.093,0,0,0,1.925-1.239,8.08,8.08,0,0,0,.668-3.718,7.851,7.851,0,0,0-.681-3.713,2.115,2.115,0,0,0-3.828,0,7.891,7.891,0,0,0-.677,3.718,8.122,8.122,0,0,0,.664,3.722A2.091,2.091,0,0,0,67.4,15.761Zm6.688,1.415a.987.987,0,0,1-.716-.3,1.022,1.022,0,0,1,.716-1.74.994.994,0,0,1,.721.3,1,1,0,0,1,0,1.437A1,1,0,0,1,74.087,17.176Zm7.98-.009a3.447,3.447,0,0,1-3.05-1.617A8.623,8.623,0,0,1,77.946,10.8,8.662,8.662,0,0,1,79,6.066a3.705,3.705,0,0,1,6.113,0A8.637,8.637,0,0,1,86.181,10.8,8.6,8.6,0,0,1,85.1,15.545,3.44,3.44,0,0,1,82.068,17.167Zm0-1.406a2.093,2.093,0,0,0,1.925-1.239,8.08,8.08,0,0,0,.668-3.718,7.851,7.851,0,0,0-.681-3.713,2.115,2.115,0,0,0-3.828,0,7.891,7.891,0,0,0-.677,3.718,8.122,8.122,0,0,0,.664,3.722A2.091,2.091,0,0,0,82.068,15.761ZM92.2,17.167a3.447,3.447,0,0,1-3.05-1.617A8.623,8.623,0,0,1,88.08,10.8a8.662,8.662,0,0,1,1.059-4.737,3.705,3.705,0,0,1,6.113,0A8.637,8.637,0,0,1,96.315,10.8a8.6,8.6,0,0,1-1.077,4.742A3.44,3.44,0,0,1,92.2,17.167Zm0-1.406a2.093,2.093,0,0,0,1.925-1.239,8.08,8.08,0,0,0,.668-3.718,7.851,7.851,0,0,0-.681-3.713,2.115,2.115,0,0,0-3.828,0,7.891,7.891,0,0,0-.677,3.718,8.122,8.122,0,0,0,.664,3.722A2.091,2.091,0,0,0,92.2,15.761Zm10.134,1.406a3.447,3.447,0,0,1-3.05-1.617A8.623,8.623,0,0,1,98.213,10.8a8.662,8.662,0,0,1,1.059-4.737,3.705,3.705,0,0,1,6.113,0,8.637,8.637,0,0,1,1.063,4.733,8.6,8.6,0,0,1-1.077,4.742A3.44,3.44,0,0,1,102.335,17.167Zm0-1.406a2.093,2.093,0,0,0,1.925-1.239,8.08,8.08,0,0,0,.668-3.718,7.851,7.851,0,0,0-.681-3.713,2.115,2.115,0,0,0-3.828,0,7.891,7.891,0,0,0-.677,3.718,8.122,8.122,0,0,0,.664,3.722A2.091,2.091,0,0,0,102.335,15.761Z" transform="translate(2543.5 -2789)" fill="#00223d"/>
    <path id="Trazado_29226" data-name="Trazado 29226" d="M54,17.167a3.447,3.447,0,0,1-3.05-1.617A8.623,8.623,0,0,1,49.882,10.8a8.662,8.662,0,0,1,1.059-4.737,3.705,3.705,0,0,1,6.113,0A8.637,8.637,0,0,1,58.118,10.8a8.6,8.6,0,0,1-1.077,4.742A3.44,3.44,0,0,1,54,17.167Zm0-1.406a2.093,2.093,0,0,0,1.925-1.239A8.08,8.08,0,0,0,56.6,10.8a7.851,7.851,0,0,0-.681-3.713,2.115,2.115,0,0,0-3.828,0,7.891,7.891,0,0,0-.677,3.718,8.122,8.122,0,0,0,.664,3.722A2.091,2.091,0,0,0,54,15.761ZM21.445,64.147a4.457,4.457,0,0,1-3,1.02,4.462,4.462,0,0,1-3-1.024,3.369,3.369,0,0,1-1.2-2.694,3.329,3.329,0,0,1,.624-2.021,3.577,3.577,0,0,1,1.7-1.248,3.056,3.056,0,0,1-1.217-1.059A2.694,2.694,0,0,1,14.9,55.6a2.861,2.861,0,0,1,1.011-2.254,3.72,3.72,0,0,1,2.54-.883,3.655,3.655,0,0,1,2.509.888,2.87,2.87,0,0,1,1.006,2.25,2.753,2.753,0,0,1-.439,1.525,2.974,2.974,0,0,1-1.2,1.059,3.647,3.647,0,0,1,1.688,1.252,3.31,3.31,0,0,1,.624,2.017A3.371,3.371,0,0,1,21.445,64.147Zm-3-6.469a2.094,2.094,0,0,0,1.5-.58,1.887,1.887,0,0,0,.611-1.424,1.826,1.826,0,0,0-.611-1.393,2.288,2.288,0,0,0-3.01,0,1.829,1.829,0,0,0-.606,1.4,1.887,1.887,0,0,0,.611,1.424A2.105,2.105,0,0,0,18.448,57.679Zm0,6.082a2.756,2.756,0,0,0,1.9-.677,2.283,2.283,0,0,0,.76-1.793,2.237,2.237,0,0,0-.76-1.767,2.778,2.778,0,0,0-1.9-.668,2.807,2.807,0,0,0-1.916.668,2.231,2.231,0,0,0-.765,1.767,2.277,2.277,0,0,0,.765,1.793A2.785,2.785,0,0,0,18.448,63.761Zm7.937,1.415a.987.987,0,0,1-.716-.3,1.022,1.022,0,0,1,.716-1.74.994.994,0,0,1,.721.3,1,1,0,0,1,0,1.437A1,1,0,0,1,26.385,65.176Zm7.69-8.139a4.8,4.8,0,0,1,3.375,1.042,3.778,3.778,0,0,1,1.116,2.9,4.107,4.107,0,0,1-1.147,3.01,4.026,4.026,0,0,1-3,1.165,4.769,4.769,0,0,1-1.551-.25,4.19,4.19,0,0,1-1.31-.721,3.3,3.3,0,0,1-.914-1.217A4,4,0,0,1,30.3,61.3a5.645,5.645,0,0,1,.044-.633l1.556-.132a6.186,6.186,0,0,0-.07.694,2.794,2.794,0,0,0,.224,1.151,1.968,1.968,0,0,0,.6.787,2.738,2.738,0,0,0,.813.426,2.968,2.968,0,0,0,.918.141,2.538,2.538,0,0,0,1.92-.756,2.69,2.69,0,0,0,.725-1.942,2.559,2.559,0,0,0-.751-1.951,3.368,3.368,0,0,0-2.377-.712H30.779l.765-5.73H38.03v1.415h-5.2l-.4,2.979ZM44.5,65.167a3.447,3.447,0,0,1-3.05-1.617A8.623,8.623,0,0,1,40.377,58.8a8.662,8.662,0,0,1,1.059-4.737,3.705,3.705,0,0,1,6.113,0A8.637,8.637,0,0,1,48.612,58.8a8.6,8.6,0,0,1-1.077,4.742A3.44,3.44,0,0,1,44.5,65.167Zm0-1.406a2.093,2.093,0,0,0,1.925-1.239,8.08,8.08,0,0,0,.668-3.718,7.851,7.851,0,0,0-.681-3.713,2.115,2.115,0,0,0-3.828,0,7.891,7.891,0,0,0-.677,3.718,8.122,8.122,0,0,0,.664,3.722A2.091,2.091,0,0,0,44.5,63.761Zm10.134,1.406a3.447,3.447,0,0,1-3.05-1.617A8.623,8.623,0,0,1,50.511,58.8a8.662,8.662,0,0,1,1.059-4.737,3.705,3.705,0,0,1,6.113,0A8.637,8.637,0,0,1,58.746,58.8a8.6,8.6,0,0,1-1.077,4.742A3.44,3.44,0,0,1,54.633,65.167Zm0-1.406a2.093,2.093,0,0,0,1.925-1.239,8.08,8.08,0,0,0,.668-3.718,7.851,7.851,0,0,0-.681-3.713,2.115,2.115,0,0,0-3.828,0A7.891,7.891,0,0,0,52.04,58.8a8.122,8.122,0,0,0,.664,3.722A2.091,2.091,0,0,0,54.633,63.761Zm6.688,1.415a.987.987,0,0,1-.716-.3,1.022,1.022,0,0,1,.716-1.74.994.994,0,0,1,.721.3,1,1,0,0,1,0,1.437A1,1,0,0,1,61.321,65.176Zm7.98-.009a3.447,3.447,0,0,1-3.05-1.617A8.623,8.623,0,0,1,65.18,58.8a8.662,8.662,0,0,1,1.059-4.737,3.705,3.705,0,0,1,6.113,0A8.637,8.637,0,0,1,73.415,58.8a8.6,8.6,0,0,1-1.077,4.742A3.44,3.44,0,0,1,69.3,65.167Zm0-1.406a2.093,2.093,0,0,0,1.925-1.239,8.08,8.08,0,0,0,.668-3.718,7.851,7.851,0,0,0-.681-3.713,2.115,2.115,0,0,0-3.828,0,7.891,7.891,0,0,0-.677,3.718,8.122,8.122,0,0,0,.664,3.722A2.091,2.091,0,0,0,69.3,63.761Zm10.134,1.406a3.447,3.447,0,0,1-3.05-1.617A8.623,8.623,0,0,1,75.313,58.8a8.662,8.662,0,0,1,1.059-4.737,3.705,3.705,0,0,1,6.113,0A8.637,8.637,0,0,1,83.549,58.8a8.6,8.6,0,0,1-1.077,4.742A3.44,3.44,0,0,1,79.436,65.167Zm0-1.406a2.093,2.093,0,0,0,1.925-1.239,8.08,8.08,0,0,0,.668-3.718,7.851,7.851,0,0,0-.681-3.713,2.115,2.115,0,0,0-3.828,0,7.891,7.891,0,0,0-.677,3.718,8.122,8.122,0,0,0,.664,3.722A2.091,2.091,0,0,0,79.436,63.761Zm10.134,1.406a3.447,3.447,0,0,1-3.05-1.617A8.623,8.623,0,0,1,85.447,58.8a8.662,8.662,0,0,1,1.059-4.737,3.705,3.705,0,0,1,6.113,0A8.637,8.637,0,0,1,93.683,58.8a8.6,8.6,0,0,1-1.077,4.742A3.44,3.44,0,0,1,89.569,65.167Zm0-1.406a2.093,2.093,0,0,0,1.925-1.239,8.08,8.08,0,0,0,.668-3.718,7.851,7.851,0,0,0-.681-3.713,2.115,2.115,0,0,0-3.828,0,7.891,7.891,0,0,0-.677,3.718,8.122,8.122,0,0,0,.664,3.722A2.091,2.091,0,0,0,89.569,63.761Zm-71.42,41.276a4.8,4.8,0,0,1,3.375,1.042,3.778,3.778,0,0,1,1.116,2.9,4.107,4.107,0,0,1-1.147,3.01,4.026,4.026,0,0,1-3,1.165,4.769,4.769,0,0,1-1.551-.25,4.19,4.19,0,0,1-1.31-.721,3.3,3.3,0,0,1-.914-1.217,4,4,0,0,1-.338-1.67,5.645,5.645,0,0,1,.044-.633l1.556-.132a6.186,6.186,0,0,0-.07.694,2.794,2.794,0,0,0,.224,1.151,1.968,1.968,0,0,0,.6.787,2.738,2.738,0,0,0,.813.426,2.968,2.968,0,0,0,.918.141,2.538,2.538,0,0,0,1.92-.756,2.69,2.69,0,0,0,.725-1.942,2.559,2.559,0,0,0-.751-1.951,3.368,3.368,0,0,0-2.377-.712H14.854l.765-5.73H22.1v1.415H16.9l-.4,2.979Zm8.235,8.139a.987.987,0,0,1-.716-.3,1.022,1.022,0,0,1,.716-1.74.994.994,0,0,1,.721.3,1,1,0,0,1,0,1.437A1,1,0,0,1,26.385,113.176Zm7.98-.009a3.447,3.447,0,0,1-3.05-1.617,8.623,8.623,0,0,1-1.072-4.746,8.662,8.662,0,0,1,1.059-4.737,3.705,3.705,0,0,1,6.113,0,8.637,8.637,0,0,1,1.063,4.733,8.6,8.6,0,0,1-1.077,4.742A3.44,3.44,0,0,1,34.365,113.167Zm0-1.406a2.093,2.093,0,0,0,1.925-1.239,8.08,8.08,0,0,0,.668-3.718,7.851,7.851,0,0,0-.681-3.713,2.115,2.115,0,0,0-3.828,0,7.891,7.891,0,0,0-.677,3.718,8.122,8.122,0,0,0,.664,3.722A2.091,2.091,0,0,0,34.365,111.761ZM44.5,113.167a3.447,3.447,0,0,1-3.05-1.617,8.623,8.623,0,0,1-1.072-4.746,8.662,8.662,0,0,1,1.059-4.737,3.705,3.705,0,0,1,6.113,0,8.637,8.637,0,0,1,1.063,4.733,8.6,8.6,0,0,1-1.077,4.742A3.44,3.44,0,0,1,44.5,113.167Zm0-1.406a2.093,2.093,0,0,0,1.925-1.239,8.08,8.08,0,0,0,.668-3.718,7.851,7.851,0,0,0-.681-3.713,2.115,2.115,0,0,0-3.828,0,7.891,7.891,0,0,0-.677,3.718,8.122,8.122,0,0,0,.664,3.722A2.091,2.091,0,0,0,44.5,111.761Zm10.134,1.406a3.447,3.447,0,0,1-3.05-1.617,8.623,8.623,0,0,1-1.072-4.746,8.662,8.662,0,0,1,1.059-4.737,3.705,3.705,0,0,1,6.113,0,8.637,8.637,0,0,1,1.063,4.733,8.6,8.6,0,0,1-1.077,4.742A3.44,3.44,0,0,1,54.633,113.167Zm0-1.406a2.093,2.093,0,0,0,1.925-1.239,8.08,8.08,0,0,0,.668-3.718,7.851,7.851,0,0,0-.681-3.713,2.115,2.115,0,0,0-3.828,0,7.891,7.891,0,0,0-.677,3.718,8.122,8.122,0,0,0,.664,3.722A2.091,2.091,0,0,0,54.633,111.761Zm6.688,1.415a.987.987,0,0,1-.716-.3,1.022,1.022,0,0,1,.716-1.74.994.994,0,0,1,.721.3,1,1,0,0,1,0,1.437A1,1,0,0,1,61.321,113.176Zm7.98-.009a3.447,3.447,0,0,1-3.05-1.617A8.623,8.623,0,0,1,65.18,106.8a8.662,8.662,0,0,1,1.059-4.737,3.705,3.705,0,0,1,6.113,0,8.637,8.637,0,0,1,1.063,4.733,8.6,8.6,0,0,1-1.077,4.742A3.44,3.44,0,0,1,69.3,113.167Zm0-1.406a2.093,2.093,0,0,0,1.925-1.239,8.08,8.08,0,0,0,.668-3.718,7.851,7.851,0,0,0-.681-3.713,2.115,2.115,0,0,0-3.828,0,7.891,7.891,0,0,0-.677,3.718,8.122,8.122,0,0,0,.664,3.722A2.091,2.091,0,0,0,69.3,111.761Zm10.134,1.406a3.447,3.447,0,0,1-3.05-1.617,8.623,8.623,0,0,1-1.072-4.746,8.662,8.662,0,0,1,1.059-4.737,3.705,3.705,0,0,1,6.113,0,8.637,8.637,0,0,1,1.063,4.733,8.6,8.6,0,0,1-1.077,4.742A3.44,3.44,0,0,1,79.436,113.167Zm0-1.406a2.093,2.093,0,0,0,1.925-1.239,8.08,8.08,0,0,0,.668-3.718,7.851,7.851,0,0,0-.681-3.713,2.115,2.115,0,0,0-3.828,0,7.891,7.891,0,0,0-.677,3.718,8.122,8.122,0,0,0,.664,3.722A2.091,2.091,0,0,0,79.436,111.761Zm10.134,1.406a3.447,3.447,0,0,1-3.05-1.617,8.623,8.623,0,0,1-1.072-4.746,8.662,8.662,0,0,1,1.059-4.737,3.705,3.705,0,0,1,6.113,0,8.637,8.637,0,0,1,1.063,4.733,8.6,8.6,0,0,1-1.077,4.742A3.44,3.44,0,0,1,89.569,113.167Zm0-1.406a2.093,2.093,0,0,0,1.925-1.239,8.08,8.08,0,0,0,.668-3.718,7.851,7.851,0,0,0-.681-3.713,2.115,2.115,0,0,0-3.828,0,7.891,7.891,0,0,0-.677,3.718,8.122,8.122,0,0,0,.664,3.722A2.091,2.091,0,0,0,89.569,111.761ZM13.46,148.625h1.424V161h-1.5V150.286l-2.971,2.575v-1.626ZM21.5,159.6h6.161V161h-8.35v-1.151l4.957-5.124a5.872,5.872,0,0,0,1.116-1.468,2.928,2.928,0,0,0,.308-1.274,2.136,2.136,0,0,0-.624-1.639,2.548,2.548,0,0,0-3.309.053,2.741,2.741,0,0,0-.628,1.991v.914l-1.521-.141V152.4a3.912,3.912,0,0,1,1.046-2.94,3.842,3.842,0,0,1,2.795-1.015,3.873,3.873,0,0,1,2.685.94,3.27,3.27,0,0,1,1.05,2.566,3.892,3.892,0,0,1-.417,1.789,7.689,7.689,0,0,1-1.34,1.78Zm9.949,1.573a.987.987,0,0,1-.716-.3,1.022,1.022,0,0,1,.716-1.74.994.994,0,0,1,.721.3,1,1,0,0,1,0,1.437A1,1,0,0,1,31.452,161.176Zm7.69-8.139a4.8,4.8,0,0,1,3.375,1.042,3.778,3.778,0,0,1,1.116,2.9,4.107,4.107,0,0,1-1.147,3.01,4.026,4.026,0,0,1-3,1.165,4.769,4.769,0,0,1-1.551-.25,4.19,4.19,0,0,1-1.31-.721,3.3,3.3,0,0,1-.914-1.217,4,4,0,0,1-.338-1.67,5.645,5.645,0,0,1,.044-.633l1.556-.132a6.186,6.186,0,0,0-.07.694,2.794,2.794,0,0,0,.224,1.151,1.968,1.968,0,0,0,.6.787,2.738,2.738,0,0,0,.813.426,2.968,2.968,0,0,0,.918.141,2.538,2.538,0,0,0,1.92-.756,2.69,2.69,0,0,0,.725-1.942,2.559,2.559,0,0,0-.751-1.951,3.368,3.368,0,0,0-2.377-.712H35.846l.765-5.73H43.1v1.415h-5.2l-.4,2.979Zm10.424,8.13a3.447,3.447,0,0,1-3.05-1.617,11.082,11.082,0,0,1-.013-9.483,3.705,3.705,0,0,1,6.113,0,11.021,11.021,0,0,1-.013,9.475A3.44,3.44,0,0,1,49.566,161.167Zm0-1.406a2.093,2.093,0,0,0,1.925-1.239,8.08,8.08,0,0,0,.668-3.718,7.851,7.851,0,0,0-.681-3.713,2.115,2.115,0,0,0-3.828,0,7.891,7.891,0,0,0-.677,3.718,8.122,8.122,0,0,0,.664,3.722A2.091,2.091,0,0,0,49.566,159.761ZM59.7,161.167a3.447,3.447,0,0,1-3.05-1.617,11.082,11.082,0,0,1-.013-9.483,3.705,3.705,0,0,1,6.113,0,11.021,11.021,0,0,1-.013,9.475A3.44,3.44,0,0,1,59.7,161.167Zm0-1.406a2.093,2.093,0,0,0,1.925-1.239,8.08,8.08,0,0,0,.668-3.718,7.851,7.851,0,0,0-.681-3.713,2.115,2.115,0,0,0-3.828,0,7.891,7.891,0,0,0-.677,3.718,8.122,8.122,0,0,0,.664,3.722A2.091,2.091,0,0,0,59.7,159.761Zm6.688,1.415a.987.987,0,0,1-.716-.3,1.022,1.022,0,0,1,.716-1.74.994.994,0,0,1,.721.3,1,1,0,0,1,0,1.437A1,1,0,0,1,66.388,161.176Zm7.98-.009a3.447,3.447,0,0,1-3.05-1.617,11.082,11.082,0,0,1-.013-9.483,3.705,3.705,0,0,1,6.113,0,11.021,11.021,0,0,1-.013,9.475A3.44,3.44,0,0,1,74.369,161.167Zm0-1.406a2.093,2.093,0,0,0,1.925-1.239,8.08,8.08,0,0,0,.668-3.718,7.851,7.851,0,0,0-.681-3.713,2.115,2.115,0,0,0-3.828,0,7.891,7.891,0,0,0-.677,3.718,8.122,8.122,0,0,0,.664,3.722A2.091,2.091,0,0,0,74.369,159.761ZM84.5,161.167a3.447,3.447,0,0,1-3.05-1.617,11.082,11.082,0,0,1-.013-9.483,3.705,3.705,0,0,1,6.113,0,11.021,11.021,0,0,1-.013,9.475A3.44,3.44,0,0,1,84.5,161.167Zm0-1.406a2.093,2.093,0,0,0,1.925-1.239A8.08,8.08,0,0,0,87.1,154.8a7.851,7.851,0,0,0-.681-3.713,2.115,2.115,0,0,0-3.828,0,7.891,7.891,0,0,0-.677,3.718,8.122,8.122,0,0,0,.664,3.722A2.091,2.091,0,0,0,84.5,159.761Zm10.134,1.406a3.447,3.447,0,0,1-3.05-1.617,11.082,11.082,0,0,1-.013-9.483,3.705,3.705,0,0,1,6.113,0,11.021,11.021,0,0,1-.013,9.475A3.44,3.44,0,0,1,94.636,161.167Zm0-1.406a2.093,2.093,0,0,0,1.925-1.239,8.08,8.08,0,0,0,.668-3.718,7.851,7.851,0,0,0-.681-3.713,2.115,2.115,0,0,0-3.828,0,7.891,7.891,0,0,0-.677,3.718,8.122,8.122,0,0,0,.664,3.722A2.091,2.091,0,0,0,94.636,159.761ZM14.089,196.625h1.424V209h-1.5V198.286l-2.971,2.575v-1.626Zm10.046,12.542a3.447,3.447,0,0,1-3.05-1.617,11.082,11.082,0,0,1-.013-9.483,3.444,3.444,0,0,1,3.063-1.608,3.436,3.436,0,0,1,3.05,1.613,11.021,11.021,0,0,1-.013,9.475A3.44,3.44,0,0,1,24.135,209.167Zm0-1.406a2.093,2.093,0,0,0,1.925-1.239,8.08,8.08,0,0,0,.668-3.718,7.851,7.851,0,0,0-.681-3.713,2.115,2.115,0,0,0-3.828,0,7.891,7.891,0,0,0-.677,3.718,8.122,8.122,0,0,0,.664,3.722A2.091,2.091,0,0,0,24.135,207.761Zm6.688,1.415a.987.987,0,0,1-.716-.3,1.022,1.022,0,0,1,.716-1.74.994.994,0,0,1,.721.3,1,1,0,0,1,0,1.437A1,1,0,0,1,30.823,209.176ZM36.8,207.6h6.161V209h-8.35v-1.151l4.957-5.124a5.872,5.872,0,0,0,1.116-1.468,2.928,2.928,0,0,0,.308-1.274,2.136,2.136,0,0,0-.624-1.639,2.548,2.548,0,0,0-3.309.053,2.741,2.741,0,0,0-.628,1.991v.914l-1.521-.141V200.4a3.912,3.912,0,0,1,1.046-2.94,4.33,4.33,0,0,1,5.48-.075,3.27,3.27,0,0,1,1.05,2.566,3.892,3.892,0,0,1-.417,1.789,7.689,7.689,0,0,1-1.34,1.78Zm12.138,1.564a3.447,3.447,0,0,1-3.05-1.617,11.082,11.082,0,0,1-.013-9.483,3.705,3.705,0,0,1,6.113,0,11.021,11.021,0,0,1-.013,9.475A3.44,3.44,0,0,1,48.938,209.167Zm0-1.406a2.093,2.093,0,0,0,1.925-1.239,8.08,8.08,0,0,0,.668-3.718,7.851,7.851,0,0,0-.681-3.713,2.115,2.115,0,0,0-3.828,0,7.891,7.891,0,0,0-.677,3.718,8.122,8.122,0,0,0,.664,3.722A2.091,2.091,0,0,0,48.938,207.761Zm10.134,1.406a3.447,3.447,0,0,1-3.05-1.617,11.082,11.082,0,0,1-.013-9.483,3.705,3.705,0,0,1,6.113,0,11.021,11.021,0,0,1-.013,9.475A3.44,3.44,0,0,1,59.071,209.167Zm0-1.406A2.093,2.093,0,0,0,61,206.521a8.08,8.08,0,0,0,.668-3.718,7.851,7.851,0,0,0-.681-3.713,2.115,2.115,0,0,0-3.828,0,7.891,7.891,0,0,0-.677,3.718,8.122,8.122,0,0,0,.664,3.722A2.091,2.091,0,0,0,59.071,207.761Zm6.688,1.415a.987.987,0,0,1-.716-.3,1.022,1.022,0,0,1,.716-1.74.994.994,0,0,1,.721.3,1,1,0,0,1,0,1.437A1,1,0,0,1,65.76,209.176Zm7.98-.009a3.447,3.447,0,0,1-3.05-1.617,11.082,11.082,0,0,1-.013-9.483,3.705,3.705,0,0,1,6.113,0,11.021,11.021,0,0,1-.013,9.475A3.44,3.44,0,0,1,73.74,209.167Zm0-1.406a2.093,2.093,0,0,0,1.925-1.239,8.08,8.08,0,0,0,.668-3.718,7.851,7.851,0,0,0-.681-3.713,2.115,2.115,0,0,0-3.828,0,7.891,7.891,0,0,0-.677,3.718,8.122,8.122,0,0,0,.664,3.722A2.091,2.091,0,0,0,73.74,207.761Zm10.134,1.406a3.447,3.447,0,0,1-3.05-1.617,11.082,11.082,0,0,1-.013-9.483,3.705,3.705,0,0,1,6.113,0,11.021,11.021,0,0,1-.013,9.475A3.44,3.44,0,0,1,83.874,209.167Zm0-1.406a2.093,2.093,0,0,0,1.925-1.239,8.08,8.08,0,0,0,.668-3.718,7.851,7.851,0,0,0-.681-3.713,2.115,2.115,0,0,0-3.828,0,7.891,7.891,0,0,0-.677,3.718,8.122,8.122,0,0,0,.664,3.722A2.091,2.091,0,0,0,83.874,207.761Zm10.134,1.406a3.447,3.447,0,0,1-3.05-1.617,11.082,11.082,0,0,1-.013-9.483,3.705,3.705,0,0,1,6.113,0,11.021,11.021,0,0,1-.013,9.475A3.44,3.44,0,0,1,94.008,209.167Zm0-1.406a2.093,2.093,0,0,0,1.925-1.239A8.08,8.08,0,0,0,96.6,202.8a7.851,7.851,0,0,0-.681-3.713,2.115,2.115,0,0,0-3.828,0,7.891,7.891,0,0,0-.677,3.718,8.122,8.122,0,0,0,.664,3.722A2.091,2.091,0,0,0,94.008,207.761ZM21.445,256.147a4.457,4.457,0,0,1-3,1.02,4.462,4.462,0,0,1-3-1.024,3.369,3.369,0,0,1-1.2-2.694,3.329,3.329,0,0,1,.624-2.021,3.577,3.577,0,0,1,1.7-1.248,3.056,3.056,0,0,1-1.217-1.059A2.694,2.694,0,0,1,14.9,247.6a2.861,2.861,0,0,1,1.011-2.254,3.72,3.72,0,0,1,2.54-.883,3.655,3.655,0,0,1,2.509.888,2.87,2.87,0,0,1,1.006,2.25,2.753,2.753,0,0,1-.439,1.525,2.974,2.974,0,0,1-1.2,1.059,3.647,3.647,0,0,1,1.688,1.252,3.31,3.31,0,0,1,.624,2.017A3.371,3.371,0,0,1,21.445,256.147Zm-3-6.469a2.094,2.094,0,0,0,1.5-.58,1.887,1.887,0,0,0,.611-1.424,1.826,1.826,0,0,0-.611-1.393,2.288,2.288,0,0,0-3.01,0,1.829,1.829,0,0,0-.606,1.4,1.887,1.887,0,0,0,.611,1.424A2.105,2.105,0,0,0,18.448,249.679Zm0,6.082a2.756,2.756,0,0,0,1.9-.677,2.283,2.283,0,0,0,.76-1.793,2.237,2.237,0,0,0-.76-1.767,2.778,2.778,0,0,0-1.9-.668,2.807,2.807,0,0,0-1.916.668,2.231,2.231,0,0,0-.765,1.767,2.277,2.277,0,0,0,.765,1.793A2.785,2.785,0,0,0,18.448,255.761Zm7.937,1.415a.987.987,0,0,1-.716-.3,1.022,1.022,0,0,1,.716-1.74.994.994,0,0,1,.721.3,1,1,0,0,1,0,1.437A1,1,0,0,1,26.385,257.176Zm3.771-12.551h8.464V245.9L32.572,257h-1.74l6.1-10.969H30.155ZM44.5,257.167a3.447,3.447,0,0,1-3.05-1.617,11.082,11.082,0,0,1-.013-9.483,3.705,3.705,0,0,1,6.113,0,11.021,11.021,0,0,1-.013,9.475A3.44,3.44,0,0,1,44.5,257.167Zm0-1.406a2.093,2.093,0,0,0,1.925-1.239,8.08,8.08,0,0,0,.668-3.718,7.851,7.851,0,0,0-.681-3.713,2.115,2.115,0,0,0-3.828,0,7.891,7.891,0,0,0-.677,3.718,8.122,8.122,0,0,0,.664,3.722A2.091,2.091,0,0,0,44.5,255.761Zm10.134,1.406a3.447,3.447,0,0,1-3.05-1.617,11.082,11.082,0,0,1-.013-9.483,3.705,3.705,0,0,1,6.113,0,11.021,11.021,0,0,1-.013,9.475A3.44,3.44,0,0,1,54.633,257.167Zm0-1.406a2.093,2.093,0,0,0,1.925-1.239,8.08,8.08,0,0,0,.668-3.718,7.851,7.851,0,0,0-.681-3.713,2.115,2.115,0,0,0-3.828,0,7.891,7.891,0,0,0-.677,3.718,8.122,8.122,0,0,0,.664,3.722A2.091,2.091,0,0,0,54.633,255.761Zm6.688,1.415a.987.987,0,0,1-.716-.3,1.022,1.022,0,0,1,.716-1.74.994.994,0,0,1,.721.3,1,1,0,0,1,0,1.437A1,1,0,0,1,61.321,257.176Zm7.98-.009a3.447,3.447,0,0,1-3.05-1.617,11.082,11.082,0,0,1-.013-9.483,3.705,3.705,0,0,1,6.113,0,11.021,11.021,0,0,1-.013,9.475A3.44,3.44,0,0,1,69.3,257.167Zm0-1.406a2.093,2.093,0,0,0,1.925-1.239,8.08,8.08,0,0,0,.668-3.718,7.851,7.851,0,0,0-.681-3.713,2.115,2.115,0,0,0-3.828,0,7.891,7.891,0,0,0-.677,3.718,8.122,8.122,0,0,0,.664,3.722A2.091,2.091,0,0,0,69.3,255.761Zm10.134,1.406a3.447,3.447,0,0,1-3.05-1.617,11.082,11.082,0,0,1-.013-9.483,3.705,3.705,0,0,1,6.113,0,11.021,11.021,0,0,1-.013,9.475A3.44,3.44,0,0,1,79.436,257.167Zm0-1.406a2.093,2.093,0,0,0,1.925-1.239,8.08,8.08,0,0,0,.668-3.718,7.851,7.851,0,0,0-.681-3.713,2.115,2.115,0,0,0-3.828,0,7.891,7.891,0,0,0-.677,3.718,8.122,8.122,0,0,0,.664,3.722A2.091,2.091,0,0,0,79.436,255.761Zm10.134,1.406a3.447,3.447,0,0,1-3.05-1.617,11.082,11.082,0,0,1-.013-9.483,3.705,3.705,0,0,1,6.113,0,11.021,11.021,0,0,1-.013,9.475A3.44,3.44,0,0,1,89.569,257.167Zm0-1.406a2.093,2.093,0,0,0,1.925-1.239,8.08,8.08,0,0,0,.668-3.718,7.851,7.851,0,0,0-.681-3.713,2.115,2.115,0,0,0-3.828,0,7.891,7.891,0,0,0-.677,3.718,8.122,8.122,0,0,0,.664,3.722A2.091,2.091,0,0,0,89.569,255.761Z" transform="translate(2671.5 -2789)" fill="#00223d"/>
    <path id="Trazado_29227" data-name="Trazado 29227" d="M54,17.167a3.447,3.447,0,0,1-3.05-1.617A8.623,8.623,0,0,1,49.882,10.8a8.662,8.662,0,0,1,1.059-4.737,3.705,3.705,0,0,1,6.113,0A8.637,8.637,0,0,1,58.118,10.8a8.6,8.6,0,0,1-1.077,4.742A3.44,3.44,0,0,1,54,17.167Zm0-1.406a2.093,2.093,0,0,0,1.925-1.239A8.08,8.08,0,0,0,56.6,10.8a7.851,7.851,0,0,0-.681-3.713,2.115,2.115,0,0,0-3.828,0,7.891,7.891,0,0,0-.677,3.718,8.122,8.122,0,0,0,.664,3.722A2.091,2.091,0,0,0,54,15.761ZM16.436,63.6H22.6V65h-8.35V63.849L19.2,58.725a5.872,5.872,0,0,0,1.116-1.468,2.928,2.928,0,0,0,.308-1.274A2.136,2.136,0,0,0,20,54.343a2.27,2.27,0,0,0-1.617-.584,2.269,2.269,0,0,0-1.692.637,2.741,2.741,0,0,0-.628,1.991V57.3l-1.521-.141V56.4a3.912,3.912,0,0,1,1.046-2.94,3.842,3.842,0,0,1,2.795-1.015,3.873,3.873,0,0,1,2.685.94,3.27,3.27,0,0,1,1.05,2.566,3.892,3.892,0,0,1-.417,1.789,7.689,7.689,0,0,1-1.34,1.78Zm9.949,1.573a.987.987,0,0,1-.716-.3,1.022,1.022,0,0,1,.716-1.74.994.994,0,0,1,.721.3,1,1,0,0,1,0,1.437A1,1,0,0,1,26.385,65.176Zm7.69-8.139a4.8,4.8,0,0,1,3.375,1.042,3.778,3.778,0,0,1,1.116,2.9,4.107,4.107,0,0,1-1.147,3.01,4.026,4.026,0,0,1-3,1.165,4.769,4.769,0,0,1-1.551-.25,4.19,4.19,0,0,1-1.31-.721,3.3,3.3,0,0,1-.914-1.217A4,4,0,0,1,30.3,61.3a5.645,5.645,0,0,1,.044-.633l1.556-.132a6.186,6.186,0,0,0-.07.694,2.794,2.794,0,0,0,.224,1.151,1.968,1.968,0,0,0,.6.787,2.738,2.738,0,0,0,.813.426,2.968,2.968,0,0,0,.918.141,2.538,2.538,0,0,0,1.92-.756,2.69,2.69,0,0,0,.725-1.942,2.559,2.559,0,0,0-.751-1.951,3.368,3.368,0,0,0-2.377-.712H30.779l.765-5.73H38.03v1.415h-5.2l-.4,2.979ZM44.5,65.167a3.447,3.447,0,0,1-3.05-1.617A8.623,8.623,0,0,1,40.377,58.8a8.662,8.662,0,0,1,1.059-4.737,3.705,3.705,0,0,1,6.113,0A8.637,8.637,0,0,1,48.612,58.8a8.6,8.6,0,0,1-1.077,4.742A3.44,3.44,0,0,1,44.5,65.167Zm0-1.406a2.093,2.093,0,0,0,1.925-1.239,8.08,8.08,0,0,0,.668-3.718,7.851,7.851,0,0,0-.681-3.713,2.115,2.115,0,0,0-3.828,0,7.891,7.891,0,0,0-.677,3.718,8.122,8.122,0,0,0,.664,3.722A2.091,2.091,0,0,0,44.5,63.761Zm10.134,1.406a3.447,3.447,0,0,1-3.05-1.617A8.623,8.623,0,0,1,50.511,58.8a8.662,8.662,0,0,1,1.059-4.737,3.705,3.705,0,0,1,6.113,0A8.637,8.637,0,0,1,58.746,58.8a8.6,8.6,0,0,1-1.077,4.742A3.44,3.44,0,0,1,54.633,65.167Zm0-1.406a2.093,2.093,0,0,0,1.925-1.239,8.08,8.08,0,0,0,.668-3.718,7.851,7.851,0,0,0-.681-3.713,2.115,2.115,0,0,0-3.828,0A7.891,7.891,0,0,0,52.04,58.8a8.122,8.122,0,0,0,.664,3.722A2.091,2.091,0,0,0,54.633,63.761Zm6.688,1.415a.987.987,0,0,1-.716-.3,1.022,1.022,0,0,1,.716-1.74.994.994,0,0,1,.721.3,1,1,0,0,1,0,1.437A1,1,0,0,1,61.321,65.176Zm7.98-.009a3.447,3.447,0,0,1-3.05-1.617A8.623,8.623,0,0,1,65.18,58.8a8.662,8.662,0,0,1,1.059-4.737,3.705,3.705,0,0,1,6.113,0A8.637,8.637,0,0,1,73.415,58.8a8.6,8.6,0,0,1-1.077,4.742A3.44,3.44,0,0,1,69.3,65.167Zm0-1.406a2.093,2.093,0,0,0,1.925-1.239,8.08,8.08,0,0,0,.668-3.718,7.851,7.851,0,0,0-.681-3.713,2.115,2.115,0,0,0-3.828,0,7.891,7.891,0,0,0-.677,3.718,8.122,8.122,0,0,0,.664,3.722A2.091,2.091,0,0,0,69.3,63.761Zm10.134,1.406a3.447,3.447,0,0,1-3.05-1.617A8.623,8.623,0,0,1,75.313,58.8a8.662,8.662,0,0,1,1.059-4.737,3.705,3.705,0,0,1,6.113,0A8.637,8.637,0,0,1,83.549,58.8a8.6,8.6,0,0,1-1.077,4.742A3.44,3.44,0,0,1,79.436,65.167Zm0-1.406a2.093,2.093,0,0,0,1.925-1.239,8.08,8.08,0,0,0,.668-3.718,7.851,7.851,0,0,0-.681-3.713,2.115,2.115,0,0,0-3.828,0,7.891,7.891,0,0,0-.677,3.718,8.122,8.122,0,0,0,.664,3.722A2.091,2.091,0,0,0,79.436,63.761Zm10.134,1.406a3.447,3.447,0,0,1-3.05-1.617A8.623,8.623,0,0,1,85.447,58.8a8.662,8.662,0,0,1,1.059-4.737,3.705,3.705,0,0,1,6.113,0A8.637,8.637,0,0,1,93.683,58.8a8.6,8.6,0,0,1-1.077,4.742A3.44,3.44,0,0,1,89.569,65.167Zm0-1.406a2.093,2.093,0,0,0,1.925-1.239,8.08,8.08,0,0,0,.668-3.718,7.851,7.851,0,0,0-.681-3.713,2.115,2.115,0,0,0-3.828,0,7.891,7.891,0,0,0-.677,3.718,8.122,8.122,0,0,0,.664,3.722A2.091,2.091,0,0,0,89.569,63.761ZM18.352,113.167q-4.122,0-4.122-4.4l1.547-.079a3.864,3.864,0,0,0,.58,2.329,2.339,2.339,0,0,0,2,.773,2.742,2.742,0,0,0,1.92-.668,2.472,2.472,0,0,0,.026-3.489,2.537,2.537,0,0,0-1.771-.642h-.615V105.7h.6a1.831,1.831,0,0,0,1.354-.571,1.927,1.927,0,0,0,.563-1.406,1.733,1.733,0,0,0-.6-1.362,2.188,2.188,0,0,0-1.5-.527,2.392,2.392,0,0,0-.989.185,1.388,1.388,0,0,0-.628.541,2.548,2.548,0,0,0-.316.787,4.611,4.611,0,0,0-.1,1l-1.547-.053a4.007,4.007,0,0,1,.927-2.839,3.436,3.436,0,0,1,2.641-.993,3.669,3.669,0,0,1,2.536.905,2.893,2.893,0,0,1,1.015,2.25,2.71,2.71,0,0,1-.492,1.608,2.812,2.812,0,0,1-1.239,1,3.421,3.421,0,0,1,1.74,1.134,3.179,3.179,0,0,1,.677,2.083,3.4,3.4,0,0,1-1.182,2.7A4.434,4.434,0,0,1,18.352,113.167Zm8.033.009a.987.987,0,0,1-.716-.3,1.022,1.022,0,0,1,.716-1.74.994.994,0,0,1,.721.3,1,1,0,0,1,0,1.437A1,1,0,0,1,26.385,113.176Zm5.977-1.573h6.161V113h-8.35v-1.151l4.957-5.124a5.872,5.872,0,0,0,1.116-1.468,2.928,2.928,0,0,0,.308-1.274,2.136,2.136,0,0,0-.624-1.639,2.548,2.548,0,0,0-3.309.053,2.741,2.741,0,0,0-.628,1.991v.914l-1.521-.141V104.4a3.912,3.912,0,0,1,1.046-2.94,4.33,4.33,0,0,1,5.48-.075,3.27,3.27,0,0,1,1.05,2.566,3.892,3.892,0,0,1-.417,1.789,7.689,7.689,0,0,1-1.34,1.78ZM44.5,113.167a3.447,3.447,0,0,1-3.05-1.617,8.623,8.623,0,0,1-1.072-4.746,8.662,8.662,0,0,1,1.059-4.737,3.705,3.705,0,0,1,6.113,0,8.637,8.637,0,0,1,1.063,4.733,8.6,8.6,0,0,1-1.077,4.742A3.44,3.44,0,0,1,44.5,113.167Zm0-1.406a2.093,2.093,0,0,0,1.925-1.239,8.08,8.08,0,0,0,.668-3.718,7.851,7.851,0,0,0-.681-3.713,2.115,2.115,0,0,0-3.828,0,7.891,7.891,0,0,0-.677,3.718,8.122,8.122,0,0,0,.664,3.722A2.091,2.091,0,0,0,44.5,111.761Zm10.134,1.406a3.447,3.447,0,0,1-3.05-1.617,8.623,8.623,0,0,1-1.072-4.746,8.662,8.662,0,0,1,1.059-4.737,3.705,3.705,0,0,1,6.113,0,8.637,8.637,0,0,1,1.063,4.733,8.6,8.6,0,0,1-1.077,4.742A3.44,3.44,0,0,1,54.633,113.167Zm0-1.406a2.093,2.093,0,0,0,1.925-1.239,8.08,8.08,0,0,0,.668-3.718,7.851,7.851,0,0,0-.681-3.713,2.115,2.115,0,0,0-3.828,0,7.891,7.891,0,0,0-.677,3.718,8.122,8.122,0,0,0,.664,3.722A2.091,2.091,0,0,0,54.633,111.761Zm6.688,1.415a.987.987,0,0,1-.716-.3,1.022,1.022,0,0,1,.716-1.74.994.994,0,0,1,.721.3,1,1,0,0,1,0,1.437A1,1,0,0,1,61.321,113.176Zm7.98-.009a3.447,3.447,0,0,1-3.05-1.617A8.623,8.623,0,0,1,65.18,106.8a8.662,8.662,0,0,1,1.059-4.737,3.705,3.705,0,0,1,6.113,0,8.637,8.637,0,0,1,1.063,4.733,8.6,8.6,0,0,1-1.077,4.742A3.44,3.44,0,0,1,69.3,113.167Zm0-1.406a2.093,2.093,0,0,0,1.925-1.239,8.08,8.08,0,0,0,.668-3.718,7.851,7.851,0,0,0-.681-3.713,2.115,2.115,0,0,0-3.828,0,7.891,7.891,0,0,0-.677,3.718,8.122,8.122,0,0,0,.664,3.722A2.091,2.091,0,0,0,69.3,111.761Zm10.134,1.406a3.447,3.447,0,0,1-3.05-1.617,8.623,8.623,0,0,1-1.072-4.746,8.662,8.662,0,0,1,1.059-4.737,3.705,3.705,0,0,1,6.113,0,8.637,8.637,0,0,1,1.063,4.733,8.6,8.6,0,0,1-1.077,4.742A3.44,3.44,0,0,1,79.436,113.167Zm0-1.406a2.093,2.093,0,0,0,1.925-1.239,8.08,8.08,0,0,0,.668-3.718,7.851,7.851,0,0,0-.681-3.713,2.115,2.115,0,0,0-3.828,0,7.891,7.891,0,0,0-.677,3.718,8.122,8.122,0,0,0,.664,3.722A2.091,2.091,0,0,0,79.436,111.761Zm10.134,1.406a3.447,3.447,0,0,1-3.05-1.617,8.623,8.623,0,0,1-1.072-4.746,8.662,8.662,0,0,1,1.059-4.737,3.705,3.705,0,0,1,6.113,0,8.637,8.637,0,0,1,1.063,4.733,8.6,8.6,0,0,1-1.077,4.742A3.44,3.44,0,0,1,89.569,113.167Zm0-1.406a2.093,2.093,0,0,0,1.925-1.239,8.08,8.08,0,0,0,.668-3.718,7.851,7.851,0,0,0-.681-3.713,2.115,2.115,0,0,0-3.828,0,7.891,7.891,0,0,0-.677,3.718,8.122,8.122,0,0,0,.664,3.722A2.091,2.091,0,0,0,89.569,111.761Zm-71.42,41.276a4.8,4.8,0,0,1,3.375,1.042,3.778,3.778,0,0,1,1.116,2.9,4.107,4.107,0,0,1-1.147,3.01,4.026,4.026,0,0,1-3,1.165,4.769,4.769,0,0,1-1.551-.25,4.19,4.19,0,0,1-1.31-.721,3.3,3.3,0,0,1-.914-1.217,4,4,0,0,1-.338-1.67,5.645,5.645,0,0,1,.044-.633l1.556-.132a6.186,6.186,0,0,0-.07.694,2.794,2.794,0,0,0,.224,1.151,1.968,1.968,0,0,0,.6.787,2.738,2.738,0,0,0,.813.426,2.968,2.968,0,0,0,.918.141,2.538,2.538,0,0,0,1.92-.756,2.69,2.69,0,0,0,.725-1.942,2.559,2.559,0,0,0-.751-1.951,3.368,3.368,0,0,0-2.377-.712H14.854l.765-5.73H22.1v1.415H16.9l-.4,2.979Zm8.235,8.139a.987.987,0,0,1-.716-.3,1.022,1.022,0,0,1,.716-1.74.994.994,0,0,1,.721.3,1,1,0,0,1,0,1.437A1,1,0,0,1,26.385,161.176Zm10.986-1.028a4.913,4.913,0,0,1-6,0,3.369,3.369,0,0,1-1.2-2.694,3.329,3.329,0,0,1,.624-2.021,3.577,3.577,0,0,1,1.7-1.248,3.056,3.056,0,0,1-1.217-1.059,2.694,2.694,0,0,1-.453-1.525,2.861,2.861,0,0,1,1.011-2.254,3.72,3.72,0,0,1,2.54-.883,3.655,3.655,0,0,1,2.509.888,2.87,2.87,0,0,1,1.006,2.25,2.753,2.753,0,0,1-.439,1.525,2.974,2.974,0,0,1-1.2,1.059,3.647,3.647,0,0,1,1.688,1.252,3.31,3.31,0,0,1,.624,2.017A3.371,3.371,0,0,1,37.371,160.147Zm-3-6.469a2.094,2.094,0,0,0,1.5-.58,1.887,1.887,0,0,0,.611-1.424,1.826,1.826,0,0,0-.611-1.393,2.288,2.288,0,0,0-3.01,0,1.829,1.829,0,0,0-.606,1.4,1.887,1.887,0,0,0,.611,1.424A2.105,2.105,0,0,0,34.374,153.679Zm0,6.082a2.756,2.756,0,0,0,1.9-.677,2.283,2.283,0,0,0,.76-1.793,2.237,2.237,0,0,0-.76-1.767,2.778,2.778,0,0,0-1.9-.668,2.807,2.807,0,0,0-1.916.668,2.231,2.231,0,0,0-.765,1.767,2.277,2.277,0,0,0,.765,1.793A2.785,2.785,0,0,0,34.374,159.761ZM44.5,161.167a3.447,3.447,0,0,1-3.05-1.617,11.082,11.082,0,0,1-.013-9.483,3.705,3.705,0,0,1,6.113,0,11.021,11.021,0,0,1-.013,9.475A3.44,3.44,0,0,1,44.5,161.167Zm0-1.406a2.093,2.093,0,0,0,1.925-1.239,8.08,8.08,0,0,0,.668-3.718,7.851,7.851,0,0,0-.681-3.713,2.115,2.115,0,0,0-3.828,0,7.891,7.891,0,0,0-.677,3.718,8.122,8.122,0,0,0,.664,3.722A2.091,2.091,0,0,0,44.5,159.761Zm10.134,1.406a3.447,3.447,0,0,1-3.05-1.617,11.082,11.082,0,0,1-.013-9.483,3.705,3.705,0,0,1,6.113,0,11.021,11.021,0,0,1-.013,9.475A3.44,3.44,0,0,1,54.633,161.167Zm0-1.406a2.093,2.093,0,0,0,1.925-1.239,8.08,8.08,0,0,0,.668-3.718,7.851,7.851,0,0,0-.681-3.713,2.115,2.115,0,0,0-3.828,0,7.891,7.891,0,0,0-.677,3.718,8.122,8.122,0,0,0,.664,3.722A2.091,2.091,0,0,0,54.633,159.761Zm6.688,1.415a.987.987,0,0,1-.716-.3,1.022,1.022,0,0,1,.716-1.74.994.994,0,0,1,.721.3,1,1,0,0,1,0,1.437A1,1,0,0,1,61.321,161.176Zm7.98-.009a3.447,3.447,0,0,1-3.05-1.617,11.082,11.082,0,0,1-.013-9.483,3.705,3.705,0,0,1,6.113,0,11.021,11.021,0,0,1-.013,9.475A3.44,3.44,0,0,1,69.3,161.167Zm0-1.406a2.093,2.093,0,0,0,1.925-1.239,8.08,8.08,0,0,0,.668-3.718,7.851,7.851,0,0,0-.681-3.713,2.115,2.115,0,0,0-3.828,0,7.891,7.891,0,0,0-.677,3.718,8.122,8.122,0,0,0,.664,3.722A2.091,2.091,0,0,0,69.3,159.761Zm10.134,1.406a3.447,3.447,0,0,1-3.05-1.617,11.082,11.082,0,0,1-.013-9.483,3.705,3.705,0,0,1,6.113,0,11.021,11.021,0,0,1-.013,9.475A3.44,3.44,0,0,1,79.436,161.167Zm0-1.406a2.093,2.093,0,0,0,1.925-1.239,8.08,8.08,0,0,0,.668-3.718,7.851,7.851,0,0,0-.681-3.713,2.115,2.115,0,0,0-3.828,0,7.891,7.891,0,0,0-.677,3.718,8.122,8.122,0,0,0,.664,3.722A2.091,2.091,0,0,0,79.436,159.761Zm10.134,1.406a3.447,3.447,0,0,1-3.05-1.617,11.082,11.082,0,0,1-.013-9.483,3.705,3.705,0,0,1,6.113,0,11.021,11.021,0,0,1-.013,9.475A3.44,3.44,0,0,1,89.569,161.167Zm0-1.406a2.093,2.093,0,0,0,1.925-1.239,8.08,8.08,0,0,0,.668-3.718,7.851,7.851,0,0,0-.681-3.713,2.115,2.115,0,0,0-3.828,0,7.891,7.891,0,0,0-.677,3.718,8.122,8.122,0,0,0,.664,3.722A2.091,2.091,0,0,0,89.569,159.761Zm-75.34,36.864h8.464V197.9L16.646,209h-1.74l6.1-10.969H14.229Zm12.155,12.551a.987.987,0,0,1-.716-.3,1.022,1.022,0,0,1,.716-1.74.994.994,0,0,1,.721.3,1,1,0,0,1,0,1.437A1,1,0,0,1,26.385,209.176Zm12.665-4.061v1.4H37.143V209H35.622v-2.487H29.7v-1.406l5.15-8.481h2.294v8.49Zm-7.778,0h4.351v-7.374ZM44.5,209.167a3.447,3.447,0,0,1-3.05-1.617,11.082,11.082,0,0,1-.013-9.483,3.705,3.705,0,0,1,6.113,0,11.021,11.021,0,0,1-.013,9.475A3.44,3.44,0,0,1,44.5,209.167Zm0-1.406a2.093,2.093,0,0,0,1.925-1.239,8.08,8.08,0,0,0,.668-3.718,7.851,7.851,0,0,0-.681-3.713,2.115,2.115,0,0,0-3.828,0,7.891,7.891,0,0,0-.677,3.718,8.122,8.122,0,0,0,.664,3.722A2.091,2.091,0,0,0,44.5,207.761Zm10.134,1.406a3.447,3.447,0,0,1-3.05-1.617,11.082,11.082,0,0,1-.013-9.483,3.705,3.705,0,0,1,6.113,0,11.021,11.021,0,0,1-.013,9.475A3.44,3.44,0,0,1,54.633,209.167Zm0-1.406a2.093,2.093,0,0,0,1.925-1.239,8.08,8.08,0,0,0,.668-3.718,7.851,7.851,0,0,0-.681-3.713,2.115,2.115,0,0,0-3.828,0,7.891,7.891,0,0,0-.677,3.718,8.122,8.122,0,0,0,.664,3.722A2.091,2.091,0,0,0,54.633,207.761Zm6.688,1.415a.987.987,0,0,1-.716-.3,1.022,1.022,0,0,1,.716-1.74.994.994,0,0,1,.721.3,1,1,0,0,1,0,1.437A1,1,0,0,1,61.321,209.176Zm7.98-.009a3.447,3.447,0,0,1-3.05-1.617,11.082,11.082,0,0,1-.013-9.483,3.705,3.705,0,0,1,6.113,0,11.021,11.021,0,0,1-.013,9.475A3.44,3.44,0,0,1,69.3,209.167Zm0-1.406a2.093,2.093,0,0,0,1.925-1.239,8.08,8.08,0,0,0,.668-3.718,7.851,7.851,0,0,0-.681-3.713,2.115,2.115,0,0,0-3.828,0,7.891,7.891,0,0,0-.677,3.718,8.122,8.122,0,0,0,.664,3.722A2.091,2.091,0,0,0,69.3,207.761Zm10.134,1.406a3.447,3.447,0,0,1-3.05-1.617,11.082,11.082,0,0,1-.013-9.483,3.705,3.705,0,0,1,6.113,0,11.021,11.021,0,0,1-.013,9.475A3.44,3.44,0,0,1,79.436,209.167Zm0-1.406a2.093,2.093,0,0,0,1.925-1.239,8.08,8.08,0,0,0,.668-3.718,7.851,7.851,0,0,0-.681-3.713,2.115,2.115,0,0,0-3.828,0,7.891,7.891,0,0,0-.677,3.718,8.122,8.122,0,0,0,.664,3.722A2.091,2.091,0,0,0,79.436,207.761Zm10.134,1.406a3.447,3.447,0,0,1-3.05-1.617,11.082,11.082,0,0,1-.013-9.483,3.705,3.705,0,0,1,6.113,0,11.021,11.021,0,0,1-.013,9.475A3.44,3.44,0,0,1,89.569,209.167Zm0-1.406a2.093,2.093,0,0,0,1.925-1.239,8.08,8.08,0,0,0,.668-3.718,7.851,7.851,0,0,0-.681-3.713,2.115,2.115,0,0,0-3.828,0,7.891,7.891,0,0,0-.677,3.718,8.122,8.122,0,0,0,.664,3.722A2.091,2.091,0,0,0,89.569,207.761ZM23.124,253.115v1.4H21.217V257H19.7v-2.487H13.772v-1.406l5.15-8.481h2.294v8.49Zm-7.778,0H19.7v-7.374Zm11.039,4.061a.987.987,0,0,1-.716-.3,1.022,1.022,0,0,1,.716-1.74.994.994,0,0,1,.721.3,1,1,0,0,1,0,1.437A1,1,0,0,1,26.385,257.176Zm5.977-1.573h6.161V257h-8.35v-1.151l4.957-5.124a5.872,5.872,0,0,0,1.116-1.468,2.928,2.928,0,0,0,.308-1.274,2.136,2.136,0,0,0-.624-1.639,2.548,2.548,0,0,0-3.309.053,2.741,2.741,0,0,0-.628,1.991v.914l-1.521-.141V248.4a3.912,3.912,0,0,1,1.046-2.94,4.33,4.33,0,0,1,5.48-.075,3.27,3.27,0,0,1,1.05,2.566,3.892,3.892,0,0,1-.417,1.789,7.689,7.689,0,0,1-1.34,1.78Zm11.848-6.565a4.8,4.8,0,0,1,3.375,1.042,3.778,3.778,0,0,1,1.116,2.9,4.107,4.107,0,0,1-1.147,3.01,4.026,4.026,0,0,1-3,1.165,4.769,4.769,0,0,1-1.551-.25,4.19,4.19,0,0,1-1.31-.721,3.3,3.3,0,0,1-.914-1.217,4,4,0,0,1-.338-1.67,5.645,5.645,0,0,1,.044-.633l1.556-.132a6.186,6.186,0,0,0-.07.694,2.794,2.794,0,0,0,.224,1.151,1.968,1.968,0,0,0,.6.787,2.738,2.738,0,0,0,.813.426,2.968,2.968,0,0,0,.918.141,2.538,2.538,0,0,0,1.92-.756,2.69,2.69,0,0,0,.725-1.942,2.559,2.559,0,0,0-.751-1.951,3.368,3.368,0,0,0-2.377-.712H40.913l.765-5.73h6.486v1.415h-5.2l-.4,2.979Zm10.424,8.13a3.447,3.447,0,0,1-3.05-1.617,11.082,11.082,0,0,1-.013-9.483,3.705,3.705,0,0,1,6.113,0,11.021,11.021,0,0,1-.013,9.475A3.44,3.44,0,0,1,54.633,257.167Zm0-1.406a2.093,2.093,0,0,0,1.925-1.239,8.08,8.08,0,0,0,.668-3.718,7.851,7.851,0,0,0-.681-3.713,2.115,2.115,0,0,0-3.828,0,7.891,7.891,0,0,0-.677,3.718,8.122,8.122,0,0,0,.664,3.722A2.091,2.091,0,0,0,54.633,255.761Zm6.688,1.415a.987.987,0,0,1-.716-.3,1.022,1.022,0,0,1,.716-1.74.994.994,0,0,1,.721.3,1,1,0,0,1,0,1.437A1,1,0,0,1,61.321,257.176Zm7.98-.009a3.447,3.447,0,0,1-3.05-1.617,11.082,11.082,0,0,1-.013-9.483,3.705,3.705,0,0,1,6.113,0,11.021,11.021,0,0,1-.013,9.475A3.44,3.44,0,0,1,69.3,257.167Zm0-1.406a2.093,2.093,0,0,0,1.925-1.239,8.08,8.08,0,0,0,.668-3.718,7.851,7.851,0,0,0-.681-3.713,2.115,2.115,0,0,0-3.828,0,7.891,7.891,0,0,0-.677,3.718,8.122,8.122,0,0,0,.664,3.722A2.091,2.091,0,0,0,69.3,255.761Zm10.134,1.406a3.447,3.447,0,0,1-3.05-1.617,11.082,11.082,0,0,1-.013-9.483,3.705,3.705,0,0,1,6.113,0,11.021,11.021,0,0,1-.013,9.475A3.44,3.44,0,0,1,79.436,257.167Zm0-1.406a2.093,2.093,0,0,0,1.925-1.239,8.08,8.08,0,0,0,.668-3.718,7.851,7.851,0,0,0-.681-3.713,2.115,2.115,0,0,0-3.828,0,7.891,7.891,0,0,0-.677,3.718,8.122,8.122,0,0,0,.664,3.722A2.091,2.091,0,0,0,79.436,255.761Zm10.134,1.406a3.447,3.447,0,0,1-3.05-1.617,11.082,11.082,0,0,1-.013-9.483,3.705,3.705,0,0,1,6.113,0,11.021,11.021,0,0,1-.013,9.475A3.44,3.44,0,0,1,89.569,257.167Zm0-1.406a2.093,2.093,0,0,0,1.925-1.239,8.08,8.08,0,0,0,.668-3.718,7.851,7.851,0,0,0-.681-3.713,2.115,2.115,0,0,0-3.828,0,7.891,7.891,0,0,0-.677,3.718,8.122,8.122,0,0,0,.664,3.722A2.091,2.091,0,0,0,89.569,255.761Z" transform="translate(2796.5 -2789)" fill="#00223d"/>
    <path id="Trazado_29228" data-name="Trazado 29228" d="M29.509,4.3a3.822,3.822,0,0,1,2.927,1.182A4.112,4.112,0,0,1,33.543,8.4a4.011,4.011,0,0,1-1.1,2.9,3.891,3.891,0,0,1-2.936,1.138H26.864V17H24.227V4.3Zm-.439,5.941a1.938,1.938,0,0,0,1.45-.5A1.888,1.888,0,0,0,31,8.369a1.873,1.873,0,0,0-.488-1.358,1.92,1.92,0,0,0-1.446-.505H26.864v3.735Zm14.546,2.109-.026.606h-6.7a2.339,2.339,0,0,0,.721,1.652,2.3,2.3,0,0,0,1.591.571,2.221,2.221,0,0,0,1.191-.312,1.918,1.918,0,0,0,.76-.91l2.32.343a3.945,3.945,0,0,1-1.582,2.118,4.7,4.7,0,0,1-2.672.756,4.891,4.891,0,0,1-3.52-1.244,4.538,4.538,0,0,1-1.305-3.45,4.565,4.565,0,0,1,1.31-3.45,4.746,4.746,0,0,1,3.437-1.261,4.536,4.536,0,0,1,3.243,1.151A4.517,4.517,0,0,1,43.616,12.351ZM39.16,9.564a2,2,0,0,0-2.2,1.74h4.148a1.9,1.9,0,0,0-.624-1.292A1.978,1.978,0,0,0,39.16,9.564ZM47.966,9.4a2.933,2.933,0,0,1,1.187-1.085,3.62,3.62,0,0,1,1.767-.453v2.259a3.423,3.423,0,0,0-2.162.545,2.379,2.379,0,0,0-.668,1.934V17H45.541V7.965h2.426ZM53.7,6.611a1.421,1.421,0,0,1-1.037-.426,1.4,1.4,0,0,1-.431-1.033,1.382,1.382,0,0,1,.435-1.024A1.425,1.425,0,0,1,53.7,3.7a1.463,1.463,0,0,1,1.45,1.45A1.463,1.463,0,0,1,53.7,6.611ZM52.4,17V7.965h2.549V17Zm9.378.176a5.681,5.681,0,0,1-2.558-.554A4.138,4.138,0,0,1,57.472,15a4.846,4.846,0,0,1-.637-2.522,4.42,4.42,0,0,1,1.371-3.428,5.731,5.731,0,0,1,7.163,0,4.42,4.42,0,0,1,1.371,3.428,4.444,4.444,0,0,1-1.371,3.441A5.088,5.088,0,0,1,61.783,17.176Zm-.026-2.013a2.319,2.319,0,0,0,1.789-.738,2.764,2.764,0,0,0,.681-1.951,2.764,2.764,0,0,0-.681-1.951,2.319,2.319,0,0,0-1.789-.738,2.234,2.234,0,0,0-1.736.743,2.789,2.789,0,0,0-.672,1.947,2.789,2.789,0,0,0,.672,1.947A2.234,2.234,0,0,0,61.756,15.163ZM75.028,3.5h2.531V17h-2.4L75.1,15.822a2.58,2.58,0,0,1-1.147,1.024,3.861,3.861,0,0,1-1.692.365,4.394,4.394,0,0,1-1.687-.325,4.064,4.064,0,0,1-2.32-2.408,5.5,5.5,0,0,1-.343-1.978,5.137,5.137,0,0,1,.6-2.518,4.1,4.1,0,0,1,1.578-1.639,4.345,4.345,0,0,1,2.175-.554,3.957,3.957,0,0,1,1.639.33,2.559,2.559,0,0,1,1.129.936ZM72.839,15.11a2.253,2.253,0,0,0,1.709-.721,2.638,2.638,0,0,0,.681-1.89,2.644,2.644,0,0,0-.686-1.894,2.251,2.251,0,0,0-1.705-.725,2.277,2.277,0,0,0-1.718.712A2.644,2.644,0,0,0,70.44,12.5a2.631,2.631,0,0,0,.681,1.9A2.277,2.277,0,0,0,72.839,15.11Zm11.549,2.065a5.681,5.681,0,0,1-2.558-.554A4.138,4.138,0,0,1,80.077,15a4.846,4.846,0,0,1-.637-2.522,4.42,4.42,0,0,1,1.371-3.428,5.731,5.731,0,0,1,7.163,0,4.42,4.42,0,0,1,1.371,3.428,4.444,4.444,0,0,1-1.371,3.441A5.088,5.088,0,0,1,84.388,17.176Zm-.026-2.013a2.319,2.319,0,0,0,1.789-.738,2.764,2.764,0,0,0,.681-1.951,2.764,2.764,0,0,0-.681-1.951,2.319,2.319,0,0,0-1.789-.738,2.234,2.234,0,0,0-1.736.743,2.789,2.789,0,0,0-.672,1.947,2.789,2.789,0,0,0,.672,1.947A2.234,2.234,0,0,0,84.362,15.163Z" transform="translate(2406.5 -2831)" fill="#00223d"/>
    <path id="Trazado_29229" data-name="Trazado 29229" d="M18.018,17V4.3h2.637V17ZM28.934,7.789a3.522,3.522,0,0,1,2.5.813,3.014,3.014,0,0,1,.87,2.316V17H29.76V11.463a1.574,1.574,0,0,0-.453-1.248,1.705,1.705,0,0,0-1.165-.4,2.379,2.379,0,0,0-.756.114,1.942,1.942,0,0,0-.633.356,1.573,1.573,0,0,0-.453.681,3.15,3.15,0,0,0-.171,1.046V17H23.6V7.965H26.13v1A3.481,3.481,0,0,1,28.934,7.789Zm11.479.176h2.681L39.243,17h-2.2L33.24,7.965H35.9l2.25,6.179Zm12.146,4.386-.026.606h-6.7a2.339,2.339,0,0,0,.721,1.652,2.3,2.3,0,0,0,1.591.571,2.221,2.221,0,0,0,1.191-.312,1.918,1.918,0,0,0,.76-.91l2.32.343a3.945,3.945,0,0,1-1.582,2.118,4.7,4.7,0,0,1-2.672.756,4.891,4.891,0,0,1-3.52-1.244,4.538,4.538,0,0,1-1.305-3.45,4.565,4.565,0,0,1,1.31-3.45,4.746,4.746,0,0,1,3.437-1.261,4.536,4.536,0,0,1,3.243,1.151A4.517,4.517,0,0,1,52.559,12.351ZM48.1,9.564a2,2,0,0,0-2.2,1.74h4.148a1.9,1.9,0,0,0-.624-1.292A1.978,1.978,0,0,0,48.1,9.564ZM56.909,9.4A2.933,2.933,0,0,1,58.1,8.312a3.62,3.62,0,0,1,1.767-.453v2.259a3.423,3.423,0,0,0-2.162.545,2.379,2.379,0,0,0-.668,1.934V17H54.483V7.965h2.426Zm7.62,7.778a5.049,5.049,0,0,1-2.637-.633A2.675,2.675,0,0,1,60.6,14.662l2.118-.6a1.7,1.7,0,0,0,1.811,1.345,1.87,1.87,0,0,0,.923-.207.719.719,0,0,0,.36-.7.739.739,0,0,0-.149-.466A1.183,1.183,0,0,0,65.2,13.7a5.749,5.749,0,0,0-.615-.237q-.3-.1-.8-.233t-.835-.259a5.593,5.593,0,0,1-.8-.338,3.393,3.393,0,0,1-.659-.466A1.878,1.878,0,0,1,61,11.463a2.552,2.552,0,0,1-.171-.967,2.308,2.308,0,0,1,.98-2.021,4.379,4.379,0,0,1,2.562-.686,4.489,4.489,0,0,1,2.364.58,2.625,2.625,0,0,1,1.213,1.811l-1.96.439A1.535,1.535,0,0,0,64.38,9.477a1.761,1.761,0,0,0-.888.2.649.649,0,0,0-.352.6.685.685,0,0,0,.053.272.539.539,0,0,0,.185.22,2.692,2.692,0,0,0,.255.167,1.923,1.923,0,0,0,.36.145q.237.075.4.114l.461.119.47.123q.483.132.848.264a4.967,4.967,0,0,1,.778.369,2.792,2.792,0,0,1,.681.532,2.372,2.372,0,0,1,.444.747,2.759,2.759,0,0,1,.176,1.006,2.718,2.718,0,0,1-.3,1.31,2.276,2.276,0,0,1-.831.883,4.043,4.043,0,0,1-1.173.475A6.087,6.087,0,0,1,64.529,17.176ZM71.358,6.611a1.421,1.421,0,0,1-1.037-.426,1.4,1.4,0,0,1-.431-1.033,1.382,1.382,0,0,1,.435-1.024A1.425,1.425,0,0,1,71.358,3.7a1.463,1.463,0,0,1,1.45,1.45,1.463,1.463,0,0,1-1.45,1.459ZM70.066,17V7.965h2.549V17Zm8.6-10.266,2.3-3.234,1.248.879-2,2.355Zm.782,10.441a5.681,5.681,0,0,1-2.558-.554A4.138,4.138,0,0,1,75.133,15a4.846,4.846,0,0,1-.637-2.522,4.42,4.42,0,0,1,1.371-3.428,5.731,5.731,0,0,1,7.163,0A4.42,4.42,0,0,1,84.4,12.474a4.444,4.444,0,0,1-1.371,3.441A5.088,5.088,0,0,1,79.444,17.176Zm-.026-2.013a2.319,2.319,0,0,0,1.789-.738,2.764,2.764,0,0,0,.681-1.951,2.764,2.764,0,0,0-.681-1.951,2.319,2.319,0,0,0-1.789-.738,2.234,2.234,0,0,0-1.736.743,2.789,2.789,0,0,0-.672,1.947,2.789,2.789,0,0,0,.672,1.947A2.234,2.234,0,0,0,79.418,15.163Zm12.2-7.374a3.522,3.522,0,0,1,2.5.813,3.014,3.014,0,0,1,.87,2.316V17h-2.54V11.463a1.574,1.574,0,0,0-.453-1.248,1.705,1.705,0,0,0-1.165-.4,2.379,2.379,0,0,0-.756.114,1.942,1.942,0,0,0-.633.356,1.573,1.573,0,0,0-.453.681,3.15,3.15,0,0,0-.171,1.046V17H86.282V7.965h2.531v1A3.481,3.481,0,0,1,91.617,7.789Z" transform="translate(2542.5 -2831)" fill="#00223d"/>
    <path id="Trazado_29230" data-name="Trazado 29230" d="M20.87,17V4.3h2.637V17ZM31.786,7.789a3.522,3.522,0,0,1,2.5.813,3.014,3.014,0,0,1,.87,2.316V17h-2.54V11.463a1.574,1.574,0,0,0-.453-1.248,1.705,1.705,0,0,0-1.165-.4,2.379,2.379,0,0,0-.756.114,1.942,1.942,0,0,0-.633.356,1.573,1.573,0,0,0-.453.681,3.15,3.15,0,0,0-.171,1.046V17H26.451V7.965h2.531v1A3.481,3.481,0,0,1,31.786,7.789Zm12.041.176h2.408v8.358a6.759,6.759,0,0,1-.338,2.25,3.711,3.711,0,0,1-.98,1.542,4.085,4.085,0,0,1-1.5.866,6.336,6.336,0,0,1-1.969.281q-3.577,0-4.658-2.8l2.1-.9a3.065,3.065,0,0,0,.976,1.31,2.487,2.487,0,0,0,1.485.422q2.347,0,2.347-2.786V15.453a2.846,2.846,0,0,1-1.138.892,3.784,3.784,0,0,1-1.6.338,4.046,4.046,0,0,1-2.9-1.217,4.174,4.174,0,0,1-.892-1.419,5.247,5.247,0,0,1,0-3.661,4.006,4.006,0,0,1,.9-1.4,4.125,4.125,0,0,1,1.318-.879,4.069,4.069,0,0,1,1.6-.316,3.674,3.674,0,0,1,1.674.374,2.67,2.67,0,0,1,1.121,1Zm-3.88,5.977a2.319,2.319,0,0,0,3.318-.009,2.526,2.526,0,0,0,0-3.437,2.34,2.34,0,0,0-3.331-.013,2.4,2.4,0,0,0-.664,1.736A2.379,2.379,0,0,0,39.946,13.941ZM51.289,9.4a2.933,2.933,0,0,1,1.187-1.085,3.62,3.62,0,0,1,1.767-.453v2.259a3.423,3.423,0,0,0-2.162.545,2.379,2.379,0,0,0-.668,1.934V17H48.863V7.965h2.426Zm12.885,2.953-.026.606h-6.7a2.339,2.339,0,0,0,.721,1.652,2.3,2.3,0,0,0,1.591.571,2.221,2.221,0,0,0,1.191-.312,1.918,1.918,0,0,0,.76-.91l2.32.343a3.945,3.945,0,0,1-1.582,2.118,4.7,4.7,0,0,1-2.672.756,4.891,4.891,0,0,1-3.52-1.244,4.538,4.538,0,0,1-1.305-3.45,4.565,4.565,0,0,1,1.31-3.45A4.746,4.746,0,0,1,59.7,7.771a4.536,4.536,0,0,1,3.243,1.151A4.517,4.517,0,0,1,64.173,12.351ZM59.717,9.564a2,2,0,0,0-2.2,1.74h4.148a1.9,1.9,0,0,0-.624-1.292A1.978,1.978,0,0,0,59.717,9.564Zm9.563,7.611a5.049,5.049,0,0,1-2.637-.633,2.675,2.675,0,0,1-1.292-1.881l2.118-.6a1.7,1.7,0,0,0,1.811,1.345A1.87,1.87,0,0,0,70.2,15.2a.719.719,0,0,0,.36-.7.739.739,0,0,0-.149-.466,1.183,1.183,0,0,0-.461-.334,5.749,5.749,0,0,0-.615-.237q-.3-.1-.8-.233t-.835-.259a5.593,5.593,0,0,1-.8-.338,3.393,3.393,0,0,1-.659-.466,1.878,1.878,0,0,1-.492-.708,2.552,2.552,0,0,1-.171-.967,2.308,2.308,0,0,1,.98-2.021,4.379,4.379,0,0,1,2.562-.686,4.489,4.489,0,0,1,2.364.58A2.625,2.625,0,0,1,72.7,10.18l-1.96.439A1.535,1.535,0,0,0,69.13,9.477a1.761,1.761,0,0,0-.888.2.649.649,0,0,0-.352.6.685.685,0,0,0,.053.272.539.539,0,0,0,.185.22,2.692,2.692,0,0,0,.255.167,1.923,1.923,0,0,0,.36.145q.237.075.4.114l.461.119.47.123q.483.132.848.264a4.967,4.967,0,0,1,.778.369,2.792,2.792,0,0,1,.681.532,2.372,2.372,0,0,1,.444.747A2.759,2.759,0,0,1,73,14.354a2.718,2.718,0,0,1-.3,1.31,2.276,2.276,0,0,1-.831.883,4.043,4.043,0,0,1-1.173.475A6.087,6.087,0,0,1,69.28,17.176Zm9.747,0a5.681,5.681,0,0,1-2.558-.554A4.138,4.138,0,0,1,74.716,15a4.846,4.846,0,0,1-.637-2.522A4.42,4.42,0,0,1,75.45,9.046a5.731,5.731,0,0,1,7.163,0,4.42,4.42,0,0,1,1.371,3.428,4.444,4.444,0,0,1-1.371,3.441A5.088,5.088,0,0,1,79.027,17.176ZM79,15.163a2.319,2.319,0,0,0,1.789-.738,2.764,2.764,0,0,0,.681-1.951,2.764,2.764,0,0,0-.681-1.951A2.319,2.319,0,0,0,79,9.784a2.234,2.234,0,0,0-1.736.743,2.789,2.789,0,0,0-.672,1.947,2.789,2.789,0,0,0,.672,1.947A2.234,2.234,0,0,0,79,15.163Zm10.046,2.013a5.049,5.049,0,0,1-2.637-.633,2.675,2.675,0,0,1-1.292-1.881l2.118-.6a1.7,1.7,0,0,0,1.811,1.345,1.87,1.87,0,0,0,.923-.207.719.719,0,0,0,.36-.7.739.739,0,0,0-.149-.466,1.183,1.183,0,0,0-.461-.334,5.749,5.749,0,0,0-.615-.237q-.3-.1-.8-.233t-.835-.259a5.593,5.593,0,0,1-.8-.338,3.393,3.393,0,0,1-.659-.466,1.878,1.878,0,0,1-.492-.708,2.552,2.552,0,0,1-.171-.967,2.308,2.308,0,0,1,.98-2.021,4.379,4.379,0,0,1,2.562-.686,4.489,4.489,0,0,1,2.364.58,2.625,2.625,0,0,1,1.213,1.811l-1.96.439A1.535,1.535,0,0,0,88.9,9.477a1.761,1.761,0,0,0-.888.2.649.649,0,0,0-.352.6.685.685,0,0,0,.053.272.539.539,0,0,0,.185.22,2.692,2.692,0,0,0,.255.167,1.923,1.923,0,0,0,.36.145q.237.075.4.114l.461.119.47.123q.483.132.848.264a4.967,4.967,0,0,1,.778.369,2.792,2.792,0,0,1,.681.532,2.372,2.372,0,0,1,.444.747,2.759,2.759,0,0,1,.176,1.006,2.718,2.718,0,0,1-.3,1.31,2.276,2.276,0,0,1-.831.883,4.043,4.043,0,0,1-1.173.475A6.087,6.087,0,0,1,89.046,17.176Z" transform="translate(2671.5 -2831)" fill="#00223d"/>
    <path id="Trazado_29231" data-name="Trazado 29231" d="M23.994,6.62H19.16V9.5h4.175V11.8H19.16V17H16.506V4.3h7.488Zm5.787,8.051h3.981V17H27.144V4.3h2.637Zm11.6,2.5a6.572,6.572,0,0,1-1.956-.277,4.6,4.6,0,0,1-1.569-.831,3.717,3.717,0,0,1-1.059-1.45,5.226,5.226,0,0,1-.382-2.065V4.3h2.637v7.893a2.761,2.761,0,0,0,.637,2.013,2.557,2.557,0,0,0,3.393,0,2.739,2.739,0,0,0,.646-2.008V4.3H46.36v8.253a5.226,5.226,0,0,1-.382,2.065,3.7,3.7,0,0,1-1.063,1.45,4.651,4.651,0,0,1-1.573.831A6.6,6.6,0,0,1,41.377,17.176Zm10.84,0A7.182,7.182,0,0,1,48.86,16.3l1.116-2.171A3.317,3.317,0,0,0,51.9,14.8a1.389,1.389,0,0,0,1.178-.505,2.653,2.653,0,0,0,.387-1.6V4.3H56.1v8.886a3.949,3.949,0,0,1-1.059,2.949A3.855,3.855,0,0,1,52.217,17.176Zm13.495,0a6.9,6.9,0,0,1-3.335-.8,5.766,5.766,0,0,1-2.316-2.29,6.886,6.886,0,0,1-.844-3.445,6.879,6.879,0,0,1,.844-3.45,5.744,5.744,0,0,1,2.316-2.281,7.418,7.418,0,0,1,6.667,0A5.752,5.752,0,0,1,71.355,7.2a6.879,6.879,0,0,1,.844,3.45,6.886,6.886,0,0,1-.844,3.445,5.766,5.766,0,0,1-2.316,2.29A6.885,6.885,0,0,1,65.712,17.176Zm-2.777-3.529a4.025,4.025,0,0,0,5.555,0,4.1,4.1,0,0,0,1.09-3,4.075,4.075,0,0,0-1.09-2.988,4.036,4.036,0,0,0-5.555,0,4.075,4.075,0,0,0-1.09,2.988A4.1,4.1,0,0,0,62.935,13.647ZM81.1,17V4.3h4.6a7.166,7.166,0,0,1,2.65.457,4.881,4.881,0,0,1,1.9,1.3,5.64,5.64,0,0,1,1.125,2,8.255,8.255,0,0,1,.382,2.593,8.286,8.286,0,0,1-.382,2.6,5.64,5.64,0,0,1-1.125,2,4.881,4.881,0,0,1-1.9,1.3A7.166,7.166,0,0,1,85.7,17Zm2.637-2.329h1.828a3.12,3.12,0,0,0,2.566-1.033,4.629,4.629,0,0,0,.844-2.993,4.629,4.629,0,0,0-.844-2.993A3.12,3.12,0,0,0,85.565,6.62H83.737ZM102.487,6.62H97.776V9.5h4.175V11.8H97.776v2.874h4.711V17H95.122V4.3h7.365ZM117.3,17.176a7.089,7.089,0,0,1-2.588-.466,6.087,6.087,0,0,1-2.061-1.3,5.864,5.864,0,0,1-1.354-2.065,7.2,7.2,0,0,1-.492-2.7,6.879,6.879,0,0,1,.844-3.45,5.744,5.744,0,0,1,2.316-2.281,6.935,6.935,0,0,1,3.335-.791,6.739,6.739,0,0,1,3.727,1.028,5.629,5.629,0,0,1,2.276,2.83l-2.461.9a3.479,3.479,0,0,0-1.362-1.714,3.891,3.891,0,0,0-2.18-.615,3.73,3.73,0,0,0-2.777,1.107,4.075,4.075,0,0,0-1.09,2.988,4.081,4.081,0,0,0,1.094,2.993A3.726,3.726,0,0,0,117.3,14.75a3.876,3.876,0,0,0,2.175-.62,3.5,3.5,0,0,0,1.367-1.718l2.461.9a5.652,5.652,0,0,1-2.276,2.834A6.718,6.718,0,0,1,117.3,17.176ZM134.868,17l-.923-2.619H128.61L127.687,17h-2.7l4.676-12.7h3.226L137.566,17Zm-5.484-4.825h3.788l-1.89-5.388Zm12.923,5a7.182,7.182,0,0,1-3.357-.879l1.116-2.171a3.317,3.317,0,0,0,1.925.677,1.389,1.389,0,0,0,1.178-.505,2.653,2.653,0,0,0,.387-1.6V4.3h2.637v8.886a3.949,3.949,0,0,1-1.059,2.949A3.855,3.855,0,0,1,142.307,17.176ZM158.676,17l-.923-2.619h-5.335L151.5,17h-2.7l4.676-12.7H156.7L161.374,17Zm-5.484-4.825h3.788l-1.89-5.388Z" transform="translate(2571 -2883.5)" fill="#00223d"/>
    <path id="Trazado_29232" data-name="Trazado 29232" d="M31.729,6.62H27.018V9.5h4.175V11.8H27.018v2.874h4.711V17H24.363V4.3h7.365Zm8.6,1.345h2.408v8.358a6.759,6.759,0,0,1-.338,2.25,3.711,3.711,0,0,1-.98,1.542,4.085,4.085,0,0,1-1.5.866,6.336,6.336,0,0,1-1.969.281q-3.577,0-4.658-2.8l2.1-.9a3.065,3.065,0,0,0,.976,1.31,2.487,2.487,0,0,0,1.485.422q2.347,0,2.347-2.786V15.453a2.846,2.846,0,0,1-1.138.892,3.784,3.784,0,0,1-1.6.338,4.046,4.046,0,0,1-2.9-1.217,4.174,4.174,0,0,1-.892-1.419,5.247,5.247,0,0,1,0-3.661,4.006,4.006,0,0,1,.9-1.4,4.125,4.125,0,0,1,1.318-.879,4.069,4.069,0,0,1,1.6-.316,3.674,3.674,0,0,1,1.674.374,2.67,2.67,0,0,1,1.121,1Zm-3.88,5.977a2.319,2.319,0,0,0,3.318-.009,2.526,2.526,0,0,0,0-3.437,2.34,2.34,0,0,0-3.331-.013,2.4,2.4,0,0,0-.664,1.736A2.379,2.379,0,0,0,36.453,13.941ZM47.795,9.4a2.933,2.933,0,0,1,1.187-1.085,3.62,3.62,0,0,1,1.767-.453v2.259a3.423,3.423,0,0,0-2.162.545,2.379,2.379,0,0,0-.668,1.934V17H45.369V7.965h2.426ZM60.68,12.351l-.026.606h-6.7a2.339,2.339,0,0,0,.721,1.652,2.3,2.3,0,0,0,1.591.571,2.221,2.221,0,0,0,1.191-.312,1.918,1.918,0,0,0,.76-.91l2.32.343a3.945,3.945,0,0,1-1.582,2.118,4.7,4.7,0,0,1-2.672.756,4.891,4.891,0,0,1-3.52-1.244,4.538,4.538,0,0,1-1.305-3.45,4.565,4.565,0,0,1,1.31-3.45,4.746,4.746,0,0,1,3.437-1.261,4.536,4.536,0,0,1,3.243,1.151A4.517,4.517,0,0,1,60.68,12.351ZM56.224,9.564a2,2,0,0,0-2.2,1.74h4.148a1.9,1.9,0,0,0-.624-1.292A1.978,1.978,0,0,0,56.224,9.564Zm9.563,7.611a5.049,5.049,0,0,1-2.637-.633,2.675,2.675,0,0,1-1.292-1.881l2.118-.6a1.7,1.7,0,0,0,1.811,1.345,1.87,1.87,0,0,0,.923-.207.719.719,0,0,0,.36-.7.739.739,0,0,0-.149-.466,1.183,1.183,0,0,0-.461-.334,5.749,5.749,0,0,0-.615-.237q-.3-.1-.8-.233t-.835-.259a5.593,5.593,0,0,1-.8-.338,3.393,3.393,0,0,1-.659-.466,1.878,1.878,0,0,1-.492-.708,2.552,2.552,0,0,1-.171-.967,2.308,2.308,0,0,1,.98-2.021,4.379,4.379,0,0,1,2.562-.686,4.489,4.489,0,0,1,2.364.58,2.625,2.625,0,0,1,1.213,1.811l-1.96.439a1.535,1.535,0,0,0-1.608-1.143,1.761,1.761,0,0,0-.888.2.649.649,0,0,0-.352.6.685.685,0,0,0,.053.272.539.539,0,0,0,.185.22,2.692,2.692,0,0,0,.255.167,1.923,1.923,0,0,0,.36.145q.237.075.4.114l.461.119.47.123q.483.132.848.264a4.967,4.967,0,0,1,.778.369,2.792,2.792,0,0,1,.681.532,2.372,2.372,0,0,1,.444.747,2.759,2.759,0,0,1,.176,1.006,2.718,2.718,0,0,1-.3,1.31,2.276,2.276,0,0,1-.831.883,4.043,4.043,0,0,1-1.173.475A6.087,6.087,0,0,1,65.786,17.176Zm9.747,0a5.681,5.681,0,0,1-2.558-.554A4.138,4.138,0,0,1,71.222,15a4.846,4.846,0,0,1-.637-2.522,4.42,4.42,0,0,1,1.371-3.428,5.731,5.731,0,0,1,7.163,0,4.42,4.42,0,0,1,1.371,3.428,4.444,4.444,0,0,1-1.371,3.441A5.088,5.088,0,0,1,75.533,17.176Zm-.026-2.013a2.319,2.319,0,0,0,1.789-.738,2.764,2.764,0,0,0,.681-1.951,2.764,2.764,0,0,0-.681-1.951,2.319,2.319,0,0,0-1.789-.738,2.234,2.234,0,0,0-1.736.743,2.789,2.789,0,0,0-.672,1.947,2.789,2.789,0,0,0,.672,1.947A2.234,2.234,0,0,0,75.507,15.163Zm10.046,2.013a5.049,5.049,0,0,1-2.637-.633,2.675,2.675,0,0,1-1.292-1.881l2.118-.6a1.7,1.7,0,0,0,1.811,1.345,1.87,1.87,0,0,0,.923-.207.719.719,0,0,0,.36-.7.739.739,0,0,0-.149-.466,1.183,1.183,0,0,0-.461-.334,5.749,5.749,0,0,0-.615-.237q-.3-.1-.8-.233t-.835-.259a5.593,5.593,0,0,1-.8-.338,3.393,3.393,0,0,1-.659-.466,1.878,1.878,0,0,1-.492-.708,2.552,2.552,0,0,1-.171-.967,2.308,2.308,0,0,1,.98-2.021,4.379,4.379,0,0,1,2.562-.686,4.489,4.489,0,0,1,2.364.58,2.625,2.625,0,0,1,1.213,1.811l-1.96.439A1.535,1.535,0,0,0,85.4,9.477a1.761,1.761,0,0,0-.888.2.649.649,0,0,0-.352.6.685.685,0,0,0,.053.272.539.539,0,0,0,.185.22,2.692,2.692,0,0,0,.255.167,1.923,1.923,0,0,0,.36.145q.237.075.4.114l.461.119.47.123q.483.132.848.264a4.967,4.967,0,0,1,.778.369,2.792,2.792,0,0,1,.681.532,2.372,2.372,0,0,1,.444.747,2.759,2.759,0,0,1,.176,1.006,2.718,2.718,0,0,1-.3,1.31,2.276,2.276,0,0,1-.831.883,4.043,4.043,0,0,1-1.173.475A6.087,6.087,0,0,1,85.553,17.176Z" transform="translate(2791.5 -2831)" fill="#00223d"/>
    <path id="Trazado_29233" data-name="Trazado 29233" d="M0,0H502.5" transform="translate(2406.5 -2753.5)" fill="none" stroke="#707070" stroke-width="1"/>
    <path id="Trazado_29234" data-name="Trazado 29234" d="M0,0H502.5" transform="translate(2406.5 -2657.5)" fill="none" stroke="#707070" stroke-width="1"/>
    <path id="Trazado_29235" data-name="Trazado 29235" d="M0,0H502.5" transform="translate(2406.5 -2561.5)" fill="none" stroke="#707070" stroke-width="1"/>
    <path id="Trazado_29236" data-name="Trazado 29236" d="M0,0H502.5" transform="translate(2406.5 -2801.5)" fill="none" stroke="#707070" stroke-width="1"/>
    <path id="Trazado_29237" data-name="Trazado 29237" d="M0,0H502.5" transform="translate(2406.5 -2849)" fill="none" stroke="#707070" stroke-width="1"/>
    <path id="Trazado_29238" data-name="Trazado 29238" d="M0,0H502.5" transform="translate(2406.5 -2705.5)" fill="none" stroke="#707070" stroke-width="1"/>
    <path id="Trazado_29239" data-name="Trazado 29239" d="M0,0H502.5" transform="translate(2406.5 -2609.5)" fill="none" stroke="#707070" stroke-width="1"/>
    <path id="Trazado_28614" data-name="Trazado 28614" d="M-212,1833v334" transform="translate(2743.5 -4682)" fill="none" stroke="#707070" stroke-width="1"/>
    <path id="Trazado_28615" data-name="Trazado 28615" d="M-212,1833v334" transform="translate(2871.5 -4682)" fill="none" stroke="#707070" stroke-width="1"/>
    <path id="Trazado_28616" data-name="Trazado 28616" d="M-212,1833v334" transform="translate(3000.5 -4682)" fill="none" stroke="#707070" stroke-width="1"/>
    <path id="Trazado_29243" data-name="Trazado 29243" d="M0,0H349V135H0Z" transform="translate(2954 -2909)" fill="#fbfbfb"/>
    <path id="Trazado_29244" data-name="Trazado 29244" d="M17.756,4.625V6.058H14.583V17H13.019V6.058H9.837V4.625Zm2.593,12.542a2.94,2.94,0,0,1-1.894-.593,2.13,2.13,0,0,1-.743-1.771,2.517,2.517,0,0,1,.237-1.129,1.991,1.991,0,0,1,.7-.787,4.218,4.218,0,0,1,1.015-.488,9.384,9.384,0,0,1,1.314-.312l1.4-.229q.765-.141.765-.8A1.51,1.51,0,0,0,22.6,9.771a2.2,2.2,0,0,0-1.367-.409,2.243,2.243,0,0,0-1.354.4,1.655,1.655,0,0,0-.642,1.213l-1.371-.29a2.639,2.639,0,0,1,1.081-1.85,4.039,4.039,0,0,1,2.355-.62,4.777,4.777,0,0,1,1.252.154,3.4,3.4,0,0,1,1.046.483,2.168,2.168,0,0,1,.747.932A3.466,3.466,0,0,1,24.62,11.2v3.568a1.46,1.46,0,0,0,.2.9.854.854,0,0,0,.681.233h.141V17h-.756a1.442,1.442,0,0,1-1.635-1.169h-.07A3.3,3.3,0,0,1,20.349,17.167Zm.352-1.23a2.305,2.305,0,0,0,1.854-.835,3.438,3.438,0,0,0,.7-2.285l-2.285.439a3.076,3.076,0,0,0-1.34.479,1.114,1.114,0,0,0-.435.945,1.1,1.1,0,0,0,.417.949A1.785,1.785,0,0,0,20.7,15.937Zm9.817,1.23a4.1,4.1,0,0,1-2.329-.624,2.581,2.581,0,0,1-1.134-1.775l1.327-.378a1.851,1.851,0,0,0,.708,1.2,2.3,2.3,0,0,0,1.419.426,2.832,2.832,0,0,0,.831-.114,1.331,1.331,0,0,0,.637-.426,1.189,1.189,0,0,0,.185-1.143,1.526,1.526,0,0,0-.141-.286.87.87,0,0,0-.246-.237,3.245,3.245,0,0,0-.3-.185,3.067,3.067,0,0,0-.391-.163q-.259-.092-.417-.141t-.483-.141q-.325-.092-.5-.145a9.372,9.372,0,0,1-.9-.316,3.932,3.932,0,0,1-.729-.417,1.679,1.679,0,0,1-.567-.681,2.3,2.3,0,0,1-.189-.967,2.234,2.234,0,0,1,.422-1.38,2.374,2.374,0,0,1,1.094-.813,4.374,4.374,0,0,1,1.534-.25,3.754,3.754,0,0,1,2.1.563,2.4,2.4,0,0,1,1.05,1.688l-1.248.316A1.655,1.655,0,0,0,31.6,9.683a2.1,2.1,0,0,0-1.239-.365,2.139,2.139,0,0,0-1.16.3,1.019,1.019,0,0,0-.483.927.923.923,0,0,0,.127.479,1.521,1.521,0,0,0,.259.338,1.594,1.594,0,0,0,.475.259q.343.136.51.185t.633.163q.088.026.132.035.51.132.831.233a5.105,5.105,0,0,1,.747.316,2.484,2.484,0,0,1,.672.47,2.178,2.178,0,0,1,.422.668,2.358,2.358,0,0,1,.176.932,2.516,2.516,0,0,1-.259,1.165,2.028,2.028,0,0,1-.708.8,3.422,3.422,0,0,1-1.006.435A4.8,4.8,0,0,1,30.518,17.167Zm7.567,0a2.94,2.94,0,0,1-1.894-.593,2.13,2.13,0,0,1-.743-1.771,2.517,2.517,0,0,1,.237-1.129,1.991,1.991,0,0,1,.7-.787A4.218,4.218,0,0,1,37.4,12.4a9.384,9.384,0,0,1,1.314-.312l1.4-.229q.765-.141.765-.8a1.51,1.51,0,0,0-.541-1.288,2.2,2.2,0,0,0-1.367-.409,2.243,2.243,0,0,0-1.354.4,1.655,1.655,0,0,0-.642,1.213l-1.371-.29a2.639,2.639,0,0,1,1.081-1.85,4.039,4.039,0,0,1,2.355-.62,4.777,4.777,0,0,1,1.252.154,3.4,3.4,0,0,1,1.046.483,2.168,2.168,0,0,1,.747.932,3.466,3.466,0,0,1,.268,1.419v3.568a1.46,1.46,0,0,0,.2.9.854.854,0,0,0,.681.233h.141V17H42.62a1.442,1.442,0,0,1-1.635-1.169h-.07A3.3,3.3,0,0,1,38.085,17.167Zm.352-1.23a2.305,2.305,0,0,0,1.854-.835,3.438,3.438,0,0,0,.7-2.285l-2.285.439a3.076,3.076,0,0,0-1.34.479,1.114,1.114,0,0,0-.435.945,1.1,1.1,0,0,0,.417.949A1.785,1.785,0,0,0,38.437,15.937ZM56.577,3.5H58.1V17H56.63l-.035-1.679a3.179,3.179,0,0,1-1.23,1.362,3.429,3.429,0,0,1-1.828.5,3.926,3.926,0,0,1-2.852-1.217,4.16,4.16,0,0,1-.87-1.428,5.225,5.225,0,0,1-.321-1.854,4.543,4.543,0,0,1,1.173-3.243,3.788,3.788,0,0,1,2.87-1.248,3.443,3.443,0,0,1,1.806.488A3.2,3.2,0,0,1,56.577,10ZM53.853,15.866a2.587,2.587,0,0,0,2.008-.91,3.283,3.283,0,0,0,.813-2.272,3.277,3.277,0,0,0-.817-2.268,2.586,2.586,0,0,0-2-.914,2.644,2.644,0,0,0-2.021.883,3.25,3.25,0,0,0-.817,2.3,3.25,3.25,0,0,0,.817,2.3A2.644,2.644,0,0,0,53.853,15.866Zm14.9-3.357-.018.413h-6.75a3.053,3.053,0,0,0,.826,2.21,2.713,2.713,0,0,0,1.969.769,2.59,2.59,0,0,0,1.433-.413,2.68,2.68,0,0,0,.984-1.143l1.371.29a3.9,3.9,0,0,1-1.477,1.854,4.028,4.028,0,0,1-2.294.677,4.174,4.174,0,0,1-3.111-1.2A4.479,4.479,0,0,1,60.5,12.676,4.458,4.458,0,0,1,61.688,9.4a4.122,4.122,0,0,1,3.063-1.2,3.9,3.9,0,0,1,2.9,1.107A4.376,4.376,0,0,1,68.75,12.509Zm-4-3.146a2.694,2.694,0,0,0-1.8.611,2.8,2.8,0,0,0-.91,1.78h5.177a2.567,2.567,0,0,0-.756-1.78A2.441,2.441,0,0,0,64.751,9.362ZM82.188,3.5h1.521V17H82.241l-.035-1.679a3.179,3.179,0,0,1-1.23,1.362,3.429,3.429,0,0,1-1.828.5A3.926,3.926,0,0,1,76.3,15.967a4.16,4.16,0,0,1-.87-1.428,5.225,5.225,0,0,1-.321-1.854,4.543,4.543,0,0,1,1.173-3.243,3.788,3.788,0,0,1,2.87-1.248,3.443,3.443,0,0,1,1.806.488A3.2,3.2,0,0,1,82.188,10ZM79.464,15.866a2.587,2.587,0,0,0,2.008-.91,3.283,3.283,0,0,0,.813-2.272,3.277,3.277,0,0,0-.817-2.268,2.586,2.586,0,0,0-2-.914,2.644,2.644,0,0,0-2.021.883,3.25,3.25,0,0,0-.817,2.3,3.25,3.25,0,0,0,.817,2.3A2.644,2.644,0,0,0,79.464,15.866Zm14.9-3.357-.018.413h-6.75a3.053,3.053,0,0,0,.826,2.21,2.713,2.713,0,0,0,1.969.769,2.59,2.59,0,0,0,1.433-.413,2.68,2.68,0,0,0,.984-1.143l1.371.29A3.9,3.9,0,0,1,92.7,16.49a4.028,4.028,0,0,1-2.294.677,4.174,4.174,0,0,1-3.111-1.2,4.479,4.479,0,0,1-1.187-3.287A4.458,4.458,0,0,1,87.3,9.4a4.122,4.122,0,0,1,3.063-1.2,3.9,3.9,0,0,1,2.9,1.107A4.376,4.376,0,0,1,94.361,12.509Zm-4-3.146a2.694,2.694,0,0,0-1.8.611,2.8,2.8,0,0,0-.91,1.78h5.177a2.567,2.567,0,0,0-.756-1.78A2.441,2.441,0,0,0,90.362,9.362Zm9.114,7.8a4.1,4.1,0,0,1-2.329-.624,2.581,2.581,0,0,1-1.134-1.775l1.327-.378a1.851,1.851,0,0,0,.708,1.2,2.3,2.3,0,0,0,1.419.426,2.832,2.832,0,0,0,.831-.114,1.331,1.331,0,0,0,.637-.426,1.189,1.189,0,0,0,.185-1.143,1.526,1.526,0,0,0-.141-.286.87.87,0,0,0-.246-.237,3.245,3.245,0,0,0-.3-.185,3.067,3.067,0,0,0-.391-.163q-.259-.092-.417-.141t-.483-.141q-.325-.092-.5-.145a9.372,9.372,0,0,1-.9-.316,3.932,3.932,0,0,1-.729-.417,1.679,1.679,0,0,1-.567-.681,2.3,2.3,0,0,1-.189-.967,2.234,2.234,0,0,1,.422-1.38,2.374,2.374,0,0,1,1.094-.813,4.374,4.374,0,0,1,1.534-.25,3.754,3.754,0,0,1,2.1.563,2.4,2.4,0,0,1,1.05,1.688l-1.248.316a1.655,1.655,0,0,0-.659-1.094,2.1,2.1,0,0,0-1.239-.365,2.139,2.139,0,0,0-1.16.3,1.019,1.019,0,0,0-.483.927.923.923,0,0,0,.127.479,1.521,1.521,0,0,0,.259.338,1.594,1.594,0,0,0,.475.259q.343.136.51.185t.633.163q.088.026.132.035.51.132.831.233a5.105,5.105,0,0,1,.747.316,2.484,2.484,0,0,1,.672.47,2.178,2.178,0,0,1,.422.668,2.358,2.358,0,0,1,.176.932,2.516,2.516,0,0,1-.259,1.165,2.028,2.028,0,0,1-.708.8,3.422,3.422,0,0,1-1.006.435A4.8,4.8,0,0,1,99.477,17.167Zm9.158-.009a4.161,4.161,0,0,1-3.094-1.239,4.421,4.421,0,0,1-1.222-3.243,4.43,4.43,0,0,1,1.217-3.243,4.5,4.5,0,0,1,5.6-.483,3.815,3.815,0,0,1,1.455,2.1l-1.424.229a2.63,2.63,0,0,0-.976-1.345,2.656,2.656,0,0,0-1.564-.475,2.554,2.554,0,0,0-2,.888,3.382,3.382,0,0,0-.787,2.329A3.365,3.365,0,0,0,106.626,15a2.56,2.56,0,0,0,2,.883,2.656,2.656,0,0,0,1.564-.475,2.63,2.63,0,0,0,.976-1.345l1.424.237a3.819,3.819,0,0,1-1.463,2.1A4.185,4.185,0,0,1,108.635,17.158Zm11.575-8.8h1.521V17h-1.459l-.035-1.143a2.7,2.7,0,0,1-1.072.971,3.3,3.3,0,0,1-1.512.338,3.005,3.005,0,0,1-2.175-.782,2.918,2.918,0,0,1-.813-2.206V8.36h1.521v5.476a2.05,2.05,0,0,0,.532,1.547,1.882,1.882,0,0,0,1.358.51,2.067,2.067,0,0,0,1.534-.6,2.434,2.434,0,0,0,.6-1.767Zm12.173,4.148-.018.413h-6.75a3.053,3.053,0,0,0,.826,2.21,2.713,2.713,0,0,0,1.969.769,2.59,2.59,0,0,0,1.433-.413,2.68,2.68,0,0,0,.984-1.143l1.371.29a3.9,3.9,0,0,1-1.477,1.854,4.028,4.028,0,0,1-2.294.677,4.174,4.174,0,0,1-3.111-1.2,4.479,4.479,0,0,1-1.187-3.287A4.458,4.458,0,0,1,125.321,9.4a4.122,4.122,0,0,1,3.063-1.2,3.9,3.9,0,0,1,2.9,1.107A4.376,4.376,0,0,1,132.383,12.509Zm-4-3.146a2.694,2.694,0,0,0-1.8.611,2.8,2.8,0,0,0-.91,1.78h5.177a2.567,2.567,0,0,0-.756-1.78A2.441,2.441,0,0,0,128.384,9.362Zm10.459-1.169a3.005,3.005,0,0,1,2.175.782,2.918,2.918,0,0,1,.813,2.206V17h-1.521V11.524a2.043,2.043,0,0,0-.527-1.547,1.885,1.885,0,0,0-1.354-.5,2.09,2.09,0,0,0-1.538.593,2.407,2.407,0,0,0-.606,1.762V17h-1.521V8.36h1.521V9.468A2.885,2.885,0,0,1,138.843,8.193ZM147.526,17a2.271,2.271,0,0,1-1.687-.62,2.344,2.344,0,0,1-.615-1.727V9.573h-1.767V8.36h.65a1.249,1.249,0,0,0,.954-.3,1.492,1.492,0,0,0,.277-1.015V5.478h1.415V8.36h1.986V9.573h-1.986V14.5a1.31,1.31,0,0,0,.33.954,1.154,1.154,0,0,0,.866.338h.791V17Zm6.943.167a4.554,4.554,0,0,1-2.215-.536,3.9,3.9,0,0,1-1.56-1.569,4.819,4.819,0,0,1-.576-2.386,4.4,4.4,0,0,1,1.226-3.256,4.6,4.6,0,0,1,6.253,0,4.41,4.41,0,0,1,1.222,3.256,4.413,4.413,0,0,1-1.226,3.265A4.232,4.232,0,0,1,154.47,17.167Zm-.009-1.266a2.654,2.654,0,0,0,2.043-.888,3.326,3.326,0,0,0,.813-2.338,3.314,3.314,0,0,0-.813-2.329,2.654,2.654,0,0,0-2.043-.888,2.617,2.617,0,0,0-2.026.888,3.336,3.336,0,0,0-.8,2.329,3.348,3.348,0,0,0,.8,2.338A2.617,2.617,0,0,0,154.461,15.9Z" transform="translate(2977 -2825.667)" fill="#00223d"/>
    <path id="Trazado_29245" data-name="Trazado 29245" d="M50,17V4.625h1.573V17Zm9.141-8.807a3.005,3.005,0,0,1,2.175.782,2.918,2.918,0,0,1,.813,2.206V17H60.607V11.524a2.043,2.043,0,0,0-.527-1.547,1.885,1.885,0,0,0-1.354-.5,2.09,2.09,0,0,0-1.538.593,2.407,2.407,0,0,0-.606,1.762V17H55.061V8.36h1.521V9.468A2.885,2.885,0,0,1,59.139,8.193Zm11.021.167h1.626L68.271,17H66.979l-3.5-8.64H65.1l2.531,6.873ZM80.8,12.509l-.018.413h-6.75a3.053,3.053,0,0,0,.826,2.21,2.713,2.713,0,0,0,1.969.769,2.59,2.59,0,0,0,1.433-.413,2.68,2.68,0,0,0,.984-1.143l1.371.29a3.9,3.9,0,0,1-1.477,1.854,4.028,4.028,0,0,1-2.294.677,4.174,4.174,0,0,1-3.111-1.2,4.479,4.479,0,0,1-1.187-3.287A4.458,4.458,0,0,1,73.742,9.4a4.122,4.122,0,0,1,3.063-1.2A3.9,3.9,0,0,1,79.71,9.3,4.376,4.376,0,0,1,80.8,12.509Zm-4-3.146a2.694,2.694,0,0,0-1.8.611,2.8,2.8,0,0,0-.91,1.78h5.177a2.567,2.567,0,0,0-.756-1.78A2.441,2.441,0,0,0,76.805,9.362Zm7.866.519a2.612,2.612,0,0,1,1.072-1.16A3.229,3.229,0,0,1,87.4,8.264V9.7a2.846,2.846,0,0,0-2.008.642,2.68,2.68,0,0,0-.69,2.048V17H83.186V8.36h1.485Zm7.251,7.286a4.1,4.1,0,0,1-2.329-.624,2.581,2.581,0,0,1-1.134-1.775l1.327-.378a1.851,1.851,0,0,0,.708,1.2,2.3,2.3,0,0,0,1.419.426,2.832,2.832,0,0,0,.831-.114,1.331,1.331,0,0,0,.637-.426,1.189,1.189,0,0,0,.185-1.143,1.526,1.526,0,0,0-.141-.286.87.87,0,0,0-.246-.237,3.245,3.245,0,0,0-.3-.185,3.067,3.067,0,0,0-.391-.163q-.259-.092-.417-.141t-.483-.141q-.325-.092-.5-.145a9.372,9.372,0,0,1-.9-.316,3.932,3.932,0,0,1-.729-.417,1.679,1.679,0,0,1-.567-.681,2.3,2.3,0,0,1-.189-.967,2.234,2.234,0,0,1,.422-1.38,2.374,2.374,0,0,1,1.094-.813,4.374,4.374,0,0,1,1.534-.25,3.754,3.754,0,0,1,2.1.563,2.4,2.4,0,0,1,1.05,1.688l-1.248.316A1.655,1.655,0,0,0,93,9.683a2.1,2.1,0,0,0-1.239-.365,2.139,2.139,0,0,0-1.16.3,1.019,1.019,0,0,0-.483.927.923.923,0,0,0,.127.479,1.521,1.521,0,0,0,.259.338,1.594,1.594,0,0,0,.475.259q.343.136.51.185t.633.163q.088.026.132.035.51.132.831.233a5.105,5.105,0,0,1,.747.316,2.484,2.484,0,0,1,.672.47,2.178,2.178,0,0,1,.422.668,2.358,2.358,0,0,1,.176.932,2.516,2.516,0,0,1-.259,1.165,2.028,2.028,0,0,1-.708.8,3.422,3.422,0,0,1-1.006.435A4.8,4.8,0,0,1,91.922,17.167ZM98.268,6.33A1.035,1.035,0,0,1,97.24,5.3a.975.975,0,0,1,.3-.721,1,1,0,0,1,.725-.3.987.987,0,0,1,.716.3.975.975,0,0,1,.3.721.989.989,0,0,1-.3.725A.979.979,0,0,1,98.268,6.33ZM97.495,17V8.36h1.529V17Zm7.682-10.125,2.206-2.865.809.589-1.969,2.276Zm.58,10.292a4.554,4.554,0,0,1-2.215-.536,3.9,3.9,0,0,1-1.56-1.569,4.819,4.819,0,0,1-.576-2.386,4.4,4.4,0,0,1,1.226-3.256,4.6,4.6,0,0,1,6.253,0,4.41,4.41,0,0,1,1.222,3.256,4.413,4.413,0,0,1-1.226,3.265A4.232,4.232,0,0,1,105.756,17.167Zm-.009-1.266a2.654,2.654,0,0,0,2.043-.888,3.326,3.326,0,0,0,.813-2.338,3.314,3.314,0,0,0-.813-2.329,2.654,2.654,0,0,0-2.043-.888,2.617,2.617,0,0,0-2.026.888,3.336,3.336,0,0,0-.8,2.329,3.348,3.348,0,0,0,.8,2.338A2.617,2.617,0,0,0,105.748,15.9Zm10.819-7.708a3.005,3.005,0,0,1,2.175.782,2.918,2.918,0,0,1,.813,2.206V17h-1.521V11.524a2.043,2.043,0,0,0-.527-1.547,1.885,1.885,0,0,0-1.354-.5,2.09,2.09,0,0,0-1.538.593,2.407,2.407,0,0,0-.606,1.762V17h-1.521V8.36h1.521V9.468A2.885,2.885,0,0,1,116.567,8.193Z" transform="translate(2977 -2882.333)" fill="#00223d"/>
    <path id="Trazado_29246" data-name="Trazado 29246" d="M15.536,4.3h2.408V17H15.421V6.9L12.5,9.617v-2.6ZM26.654,17.176a5.082,5.082,0,0,1-3.318-1.063,3.494,3.494,0,0,1-1.305-2.856,3.559,3.559,0,0,1,.532-1.947A3.644,3.644,0,0,1,24.035,10a3.217,3.217,0,0,1-1.05-1.081A2.792,2.792,0,0,1,22.6,7.473a2.979,2.979,0,0,1,1.134-2.421,4.46,4.46,0,0,1,2.918-.927,4.387,4.387,0,0,1,2.878.927,2.983,2.983,0,0,1,1.129,2.421,2.845,2.845,0,0,1-.369,1.437A3.244,3.244,0,0,1,29.273,10a3.626,3.626,0,0,1,1.459,1.314,3.582,3.582,0,0,1,.527,1.947,3.649,3.649,0,0,1-.606,2.087A3.817,3.817,0,0,1,29,16.71,5.7,5.7,0,0,1,26.654,17.176Zm0-7.919a1.689,1.689,0,0,0,1.2-.475,1.537,1.537,0,0,0,.5-1.16,1.5,1.5,0,0,0-.5-1.143,1.806,1.806,0,0,0-2.421,0,1.506,1.506,0,0,0-.5,1.143,1.539,1.539,0,0,0,.5,1.165A1.7,1.7,0,0,0,26.654,9.257Zm0,5.651a2.122,2.122,0,0,0,1.485-.536,1.854,1.854,0,0,0,.589-1.441,1.8,1.8,0,0,0-.593-1.411,2.137,2.137,0,0,0-1.481-.532,2.161,2.161,0,0,0-1.5.532,1.8,1.8,0,0,0-.593,1.411,1.847,1.847,0,0,0,.593,1.441A2.15,2.15,0,0,0,26.654,14.908Zm9.07-4.86a2.841,2.841,0,0,1-2.092-.866,2.873,2.873,0,0,1-.861-2.1,2.859,2.859,0,0,1,.866-2.092,2.949,2.949,0,0,1,4.184,0,2.859,2.859,0,0,1,.866,2.092,2.877,2.877,0,0,1-.861,2.1A2.844,2.844,0,0,1,35.724,10.048Zm-.642,6.961L41.727,4.291h2.118L37.192,17.009Zm.642-8.648a1.254,1.254,0,0,0,1.283-1.283,1.221,1.221,0,0,0-.378-.9,1.289,1.289,0,0,0-1.811,0,1.216,1.216,0,0,0-.378.905A1.268,1.268,0,0,0,35.724,8.36Zm7.567,8.789a2.948,2.948,0,0,1-2.971-2.962,2.958,2.958,0,1,1,5.054,2.092A2.823,2.823,0,0,1,43.292,17.149Zm0-1.7a1.25,1.25,0,0,0,.905-.369,1.206,1.206,0,0,0,.378-.9A1.3,1.3,0,0,0,43.292,12.9a1.256,1.256,0,0,0-.918.369,1.234,1.234,0,0,0-.374.914,1.213,1.213,0,0,0,.374.9A1.256,1.256,0,0,0,43.292,15.453Z" transform="translate(3192.5 -2825.667)" fill="#00223d"/>
    <path id="Trazado_29247" data-name="Trazado 29247" d="M14.048,13.353A3.782,3.782,0,0,1,13.706,15a3.1,3.1,0,0,1-.949,1.173,4.659,4.659,0,0,1-1.371.7,6.688,6.688,0,0,1-1.661.3v1.239H8.749V17.167A5.667,5.667,0,0,1,5.6,16.09,3.9,3.9,0,0,1,4.064,13.5l2.725-.633a2.372,2.372,0,0,0,.628,1.424,2.421,2.421,0,0,0,1.332.686V11.56q-.07-.026-.2-.066l-.193-.057q-.483-.149-.8-.259t-.765-.294a4.857,4.857,0,0,1-.734-.369,5.594,5.594,0,0,1-.611-.457,2.328,2.328,0,0,1-.505-.584,3.214,3.214,0,0,1-.308-.729,3.174,3.174,0,0,1-.123-.9A3.272,3.272,0,0,1,5.686,5.183a4.944,4.944,0,0,1,3.063-1.05V3h.976V4.168a6.324,6.324,0,0,1,1.881.453A4.152,4.152,0,0,1,13.1,5.706a3.776,3.776,0,0,1,.87,1.767l-2.54.633A1.989,1.989,0,0,0,9.724,6.339v3.12a.414.414,0,0,0,.066.022l.075.022q.51.149.839.259t.813.312a6.4,6.4,0,0,1,.8.391,5.474,5.474,0,0,1,.677.488,2.627,2.627,0,0,1,.567.633,3.422,3.422,0,0,1,.347.787A3.288,3.288,0,0,1,14.048,13.353ZM7.167,7.78a.971.971,0,0,0,.4.8,4.148,4.148,0,0,0,1.178.576V6.3A2.153,2.153,0,0,0,7.6,6.756,1.263,1.263,0,0,0,7.167,7.78Zm2.558,7.233a2.08,2.08,0,0,0,1.173-.457,1.309,1.309,0,0,0,.426-1.063,1.248,1.248,0,0,0-.417-.949,3.7,3.7,0,0,0-1.182-.659ZM24.85,4.3h2.408V17H24.736V6.9L21.818,9.617v-2.6ZM35.959,17.176a3.961,3.961,0,0,1-3.415-1.644,8.3,8.3,0,0,1-1.191-4.887,8.3,8.3,0,0,1,1.187-4.887,3.966,3.966,0,0,1,3.419-1.635,3.957,3.957,0,0,1,3.41,1.635,8.3,8.3,0,0,1,1.187,4.887,8.3,8.3,0,0,1-1.191,4.887A3.952,3.952,0,0,1,35.959,17.176Zm0-2.285a1.67,1.67,0,0,0,1.525-1.042,7.251,7.251,0,0,0,.541-3.2,7.2,7.2,0,0,0-.545-3.2A1.673,1.673,0,0,0,35.959,6.4q-2.074,0-2.074,4.245T35.959,14.891Zm7,2.285a1.456,1.456,0,0,1-1.441-1.441,1.411,1.411,0,0,1,.426-1.028,1.379,1.379,0,0,1,1.015-.431,1.471,1.471,0,0,1,1.459,1.459,1.379,1.379,0,0,1-.431,1.015A1.411,1.411,0,0,1,42.956,17.176Zm8.3,0a3.961,3.961,0,0,1-3.415-1.644,8.3,8.3,0,0,1-1.191-4.887,8.3,8.3,0,0,1,1.187-4.887,4.383,4.383,0,0,1,6.829,0,8.3,8.3,0,0,1,1.187,4.887,8.3,8.3,0,0,1-1.191,4.887A3.952,3.952,0,0,1,51.252,17.176Zm0-2.285a1.67,1.67,0,0,0,1.525-1.042,7.251,7.251,0,0,0,.541-3.2,7.2,7.2,0,0,0-.545-3.2A1.673,1.673,0,0,0,51.252,6.4q-2.074,0-2.074,4.245T51.252,14.891ZM62,17.176a3.961,3.961,0,0,1-3.415-1.644A8.3,8.3,0,0,1,57.4,10.646a8.3,8.3,0,0,1,1.187-4.887,4.383,4.383,0,0,1,6.829,0A8.3,8.3,0,0,1,66.6,10.646a8.3,8.3,0,0,1-1.191,4.887A3.952,3.952,0,0,1,62,17.176Zm0-2.285a1.67,1.67,0,0,0,1.525-1.042,7.251,7.251,0,0,0,.541-3.2,7.2,7.2,0,0,0-.545-3.2A1.673,1.673,0,0,0,62,6.4q-2.074,0-2.074,4.245T62,14.891ZM72.75,17.176a3.961,3.961,0,0,1-3.415-1.644,8.3,8.3,0,0,1-1.191-4.887,8.3,8.3,0,0,1,1.187-4.887,4.383,4.383,0,0,1,6.829,0,8.3,8.3,0,0,1,1.187,4.887,8.3,8.3,0,0,1-1.191,4.887A3.952,3.952,0,0,1,72.75,17.176Zm0-2.285a1.67,1.67,0,0,0,1.525-1.042,7.251,7.251,0,0,0,.541-3.2,7.2,7.2,0,0,0-.545-3.2A1.673,1.673,0,0,0,72.75,6.4q-2.074,0-2.074,4.245T72.75,14.891Zm7,2.285a1.456,1.456,0,0,1-1.441-1.441,1.411,1.411,0,0,1,.426-1.028,1.379,1.379,0,0,1,1.015-.431,1.471,1.471,0,0,1,1.459,1.459,1.379,1.379,0,0,1-.431,1.015A1.411,1.411,0,0,1,79.747,17.176Zm8.3,0a3.961,3.961,0,0,1-3.415-1.644,8.3,8.3,0,0,1-1.191-4.887,8.3,8.3,0,0,1,1.187-4.887,4.383,4.383,0,0,1,6.829,0,8.3,8.3,0,0,1,1.187,4.887,8.3,8.3,0,0,1-1.191,4.887A3.952,3.952,0,0,1,88.043,17.176Zm0-2.285a1.67,1.67,0,0,0,1.525-1.042,7.251,7.251,0,0,0,.541-3.2,7.2,7.2,0,0,0-.545-3.2A1.673,1.673,0,0,0,88.043,6.4q-2.074,0-2.074,4.245T88.043,14.891Zm10.749,2.285a3.961,3.961,0,0,1-3.415-1.644,8.3,8.3,0,0,1-1.191-4.887,8.3,8.3,0,0,1,1.187-4.887,4.383,4.383,0,0,1,6.829,0,8.3,8.3,0,0,1,1.187,4.887,8.3,8.3,0,0,1-1.191,4.887A3.952,3.952,0,0,1,98.792,17.176Zm0-2.285a1.67,1.67,0,0,0,1.525-1.042,7.251,7.251,0,0,0,.541-3.2,7.2,7.2,0,0,0-.545-3.2A1.673,1.673,0,0,0,98.792,6.4q-2.074,0-2.074,4.245T98.792,14.891Zm10.749,2.285a3.961,3.961,0,0,1-3.415-1.644,8.3,8.3,0,0,1-1.191-4.887,8.3,8.3,0,0,1,1.187-4.887,4.383,4.383,0,0,1,6.829,0,8.3,8.3,0,0,1,1.187,4.887,8.3,8.3,0,0,1-1.191,4.887A3.952,3.952,0,0,1,109.542,17.176Zm0-2.285a1.67,1.67,0,0,0,1.525-1.042,7.251,7.251,0,0,0,.541-3.2,7.2,7.2,0,0,0-.545-3.2A1.673,1.673,0,0,0,109.542,6.4q-2.074,0-2.074,4.245T109.542,14.891Z" transform="translate(3162.5 -2882.333)" fill="#00223d"/>
    <g id="Trazado_29248" data-name="Trazado 29248" transform="translate(2967.5 -2896)" fill="none">
      <path d="M0,0H324V109.667H0Z" stroke="none"/>
      <path d="M 1 1 L 1 108.666748046875 L 323 108.666748046875 L 323 1 L 1 1 M 0 0 L 324 0 L 324 109.666748046875 L 0 109.666748046875 L 0 0 Z" stroke="none" fill="#707070"/>
    </g>
    <path id="Trazado_28618" data-name="Trazado 28618" d="M-212,1833v109.667" transform="translate(3362 -4729)" fill="none" stroke="#707070" stroke-width="1"/>
    <path id="Trazado_28622" data-name="Trazado 28622" d="M1723.5-2852H1400" transform="translate(1568 10.833)" fill="none" stroke="#707070" stroke-width="1"/>
    <path id="Trazado_29240" data-name="Trazado 29240" d="M0,0H349V227H0Z" transform="translate(2954 -2719)" fill="#fbfbfb"/>
    <path id="Trazado_29241" data-name="Trazado 29241" d="M38.379,4.625h1.661L35.505,17H33.888L29.353,4.625h1.652L34.7,15.031Zm12.445,0h1.564V17H50.728L44.057,6.989V17H42.51V4.625h1.644l6.671,9.967ZM64.219,17l-1.063-2.962h-5.6L56.5,17H54.859L59.42,4.625H61.3L65.863,17Zm-6.161-4.351h4.605l-2.3-6.442ZM73.008,17V4.625h1.573V17Zm9.141-8.807a3.005,3.005,0,0,1,2.175.782,2.918,2.918,0,0,1,.813,2.206V17H83.617V11.524a2.043,2.043,0,0,0-.527-1.547,1.885,1.885,0,0,0-1.354-.5,2.09,2.09,0,0,0-1.538.593,2.407,2.407,0,0,0-.606,1.762V17H78.071V8.36h1.521V9.468A2.885,2.885,0,0,1,82.149,8.193Zm12.182.167h1.477v8.2a4.706,4.706,0,0,1-1.116,3.366A4.648,4.648,0,0,1,87.4,18.459l1.257-.615a2.856,2.856,0,0,0,2.892,2A2.48,2.48,0,0,0,93.579,19a3.591,3.591,0,0,0,.7-2.355v-1.6a3.045,3.045,0,0,1-1.23,1.244,3.58,3.58,0,0,1-1.8.47,3.7,3.7,0,0,1-2.795-1.217A4.293,4.293,0,0,1,87.3,12.465,4.253,4.253,0,0,1,88.455,9.4a3.74,3.74,0,0,1,2.808-1.208,3.49,3.49,0,0,1,1.811.483A3.112,3.112,0,0,1,94.3,9.951Zm-2.742,7.1a2.614,2.614,0,0,0,1.991-.888,3.136,3.136,0,0,0,0-4.228A2.708,2.708,0,0,0,89.6,10.32a3,3,0,0,0-.813,2.145,2.978,2.978,0,0,0,.822,2.131A2.634,2.634,0,0,0,91.588,15.462Zm8.8-5.581a2.612,2.612,0,0,1,1.072-1.16,3.229,3.229,0,0,1,1.661-.457V9.7a2.846,2.846,0,0,0-2.008.642,2.68,2.68,0,0,0-.69,2.048V17H98.9V8.36h1.485Zm11.971,2.628-.018.413h-6.75a3.053,3.053,0,0,0,.826,2.21,2.713,2.713,0,0,0,1.969.769,2.59,2.59,0,0,0,1.433-.413,2.68,2.68,0,0,0,.984-1.143l1.371.29A3.9,3.9,0,0,1,110.7,16.49a4.028,4.028,0,0,1-2.294.677,4.174,4.174,0,0,1-3.111-1.2,4.479,4.479,0,0,1-1.187-3.287A4.458,4.458,0,0,1,105.295,9.4a4.122,4.122,0,0,1,3.063-1.2,3.9,3.9,0,0,1,2.9,1.107A4.376,4.376,0,0,1,112.357,12.509Zm-4-3.146a2.694,2.694,0,0,0-1.8.611,2.8,2.8,0,0,0-.91,1.78h5.177a2.567,2.567,0,0,0-.756-1.78A2.441,2.441,0,0,0,108.358,9.362Zm9.114,7.8a4.1,4.1,0,0,1-2.329-.624,2.581,2.581,0,0,1-1.134-1.775l1.327-.378a1.851,1.851,0,0,0,.708,1.2,2.3,2.3,0,0,0,1.419.426,2.832,2.832,0,0,0,.831-.114,1.331,1.331,0,0,0,.637-.426,1.189,1.189,0,0,0,.185-1.143,1.526,1.526,0,0,0-.141-.286.87.87,0,0,0-.246-.237,3.245,3.245,0,0,0-.3-.185,3.067,3.067,0,0,0-.391-.163q-.259-.092-.417-.141t-.483-.141q-.325-.092-.5-.145a9.372,9.372,0,0,1-.9-.316,3.932,3.932,0,0,1-.729-.417,1.679,1.679,0,0,1-.567-.681,2.3,2.3,0,0,1-.189-.967,2.234,2.234,0,0,1,.422-1.38,2.374,2.374,0,0,1,1.094-.813,4.374,4.374,0,0,1,1.534-.25,3.754,3.754,0,0,1,2.1.563,2.4,2.4,0,0,1,1.05,1.688l-1.248.316a1.655,1.655,0,0,0-.659-1.094,2.1,2.1,0,0,0-1.239-.365,2.139,2.139,0,0,0-1.16.3,1.019,1.019,0,0,0-.483.927.923.923,0,0,0,.127.479,1.521,1.521,0,0,0,.259.338,1.594,1.594,0,0,0,.475.259q.343.136.51.185t.633.163q.088.026.132.035.51.132.831.233a5.105,5.105,0,0,1,.747.316,2.484,2.484,0,0,1,.672.47,2.178,2.178,0,0,1,.422.668,2.358,2.358,0,0,1,.176.932,2.516,2.516,0,0,1-.259,1.165,2.028,2.028,0,0,1-.708.8,3.422,3.422,0,0,1-1.006.435A4.8,4.8,0,0,1,117.472,17.167Zm9.211,0a4.554,4.554,0,0,1-2.215-.536,3.9,3.9,0,0,1-1.56-1.569,4.819,4.819,0,0,1-.576-2.386,4.4,4.4,0,0,1,1.226-3.256,4.6,4.6,0,0,1,6.253,0,4.41,4.41,0,0,1,1.222,3.256,4.413,4.413,0,0,1-1.226,3.265A4.232,4.232,0,0,1,126.683,17.167Zm-.009-1.266a2.654,2.654,0,0,0,2.043-.888,3.326,3.326,0,0,0,.813-2.338,3.314,3.314,0,0,0-.813-2.329,2.654,2.654,0,0,0-2.043-.888,2.617,2.617,0,0,0-2.026.888,3.336,3.336,0,0,0-.8,2.329,3.348,3.348,0,0,0,.8,2.338A2.617,2.617,0,0,0,126.674,15.9Zm9.475,1.266a4.1,4.1,0,0,1-2.329-.624,2.581,2.581,0,0,1-1.134-1.775l1.327-.378a1.851,1.851,0,0,0,.708,1.2,2.3,2.3,0,0,0,1.419.426,2.832,2.832,0,0,0,.831-.114,1.331,1.331,0,0,0,.637-.426,1.189,1.189,0,0,0,.185-1.143,1.526,1.526,0,0,0-.141-.286.87.87,0,0,0-.246-.237,3.245,3.245,0,0,0-.3-.185,3.067,3.067,0,0,0-.391-.163q-.259-.092-.417-.141t-.483-.141q-.325-.092-.5-.145a9.372,9.372,0,0,1-.9-.316,3.932,3.932,0,0,1-.729-.417,1.679,1.679,0,0,1-.567-.681,2.3,2.3,0,0,1-.189-.967,2.234,2.234,0,0,1,.422-1.38,2.374,2.374,0,0,1,1.094-.813,4.374,4.374,0,0,1,1.534-.25,3.754,3.754,0,0,1,2.1.563,2.4,2.4,0,0,1,1.05,1.688l-1.248.316a1.655,1.655,0,0,0-.659-1.094,2.1,2.1,0,0,0-1.239-.365,2.139,2.139,0,0,0-1.16.3,1.019,1.019,0,0,0-.483.927.923.923,0,0,0,.127.479,1.521,1.521,0,0,0,.259.338,1.594,1.594,0,0,0,.475.259q.343.136.51.185t.633.163q.088.026.132.035.51.132.831.233a5.105,5.105,0,0,1,.747.316,2.484,2.484,0,0,1,.672.47,2.178,2.178,0,0,1,.422.668,2.358,2.358,0,0,1,.176.932,2.516,2.516,0,0,1-.259,1.165,2.028,2.028,0,0,1-.708.8,3.422,3.422,0,0,1-1.006.435A4.8,4.8,0,0,1,136.149,17.167ZM41.284,52.625h1.661L38.41,65H36.793L32.258,52.625H33.91L37.6,63.031Zm12.445,0h1.564V65H53.633L46.962,54.989V65H45.415V52.625h1.644l6.671,9.967ZM67.124,65l-1.063-2.962h-5.6L59.407,65H57.764l4.562-12.375h1.881L68.768,65Zm-6.161-4.351h4.605l-2.3-6.442Zm21.586-6.592H77.521v4.052h4.43v1.415h-4.43v4.043h5.027V65H75.913V52.625h6.636Zm8.877,2.3H92.9v8.2a4.706,4.706,0,0,1-1.116,3.366A4.648,4.648,0,0,1,84.5,66.459l1.257-.615a2.856,2.856,0,0,0,2.892,2A2.48,2.48,0,0,0,90.674,67a3.591,3.591,0,0,0,.7-2.355v-1.6a3.045,3.045,0,0,1-1.23,1.244,3.58,3.58,0,0,1-1.8.47,3.7,3.7,0,0,1-2.795-1.217,4.655,4.655,0,0,1,0-6.135,3.74,3.74,0,0,1,2.808-1.208,3.49,3.49,0,0,1,1.811.483,3.112,3.112,0,0,1,1.222,1.274Zm-2.742,7.1a2.614,2.614,0,0,0,1.991-.888,3.136,3.136,0,0,0,0-4.228,2.708,2.708,0,0,0-3.986-.026A3.2,3.2,0,0,0,86.7,62.6,2.634,2.634,0,0,0,88.684,63.462Zm8.8-5.581a2.612,2.612,0,0,1,1.072-1.16,3.229,3.229,0,0,1,1.661-.457V57.7a2.846,2.846,0,0,0-2.008.642,2.68,2.68,0,0,0-.69,2.048V65H96V56.36h1.485Zm11.971,2.628-.018.413h-6.75a3.053,3.053,0,0,0,.826,2.21,2.713,2.713,0,0,0,1.969.769,2.59,2.59,0,0,0,1.433-.413,2.68,2.68,0,0,0,.984-1.143l1.371.29a3.9,3.9,0,0,1-1.477,1.854,4.028,4.028,0,0,1-2.294.677,4.174,4.174,0,0,1-3.111-1.2,5.127,5.127,0,0,1,0-6.565,4.122,4.122,0,0,1,3.063-1.2,3.9,3.9,0,0,1,2.9,1.107A4.376,4.376,0,0,1,109.452,60.509Zm-4-3.146a2.694,2.694,0,0,0-1.8.611,2.8,2.8,0,0,0-.91,1.78h5.177a2.567,2.567,0,0,0-.756-1.78A2.441,2.441,0,0,0,105.453,57.362Zm9.114,7.8a4.1,4.1,0,0,1-2.329-.624,2.581,2.581,0,0,1-1.134-1.775l1.327-.378a1.851,1.851,0,0,0,.708,1.2,2.3,2.3,0,0,0,1.419.426,2.832,2.832,0,0,0,.831-.114,1.331,1.331,0,0,0,.637-.426,1.189,1.189,0,0,0,.185-1.143,1.526,1.526,0,0,0-.141-.286.87.87,0,0,0-.246-.237,3.245,3.245,0,0,0-.3-.185,3.067,3.067,0,0,0-.391-.163q-.259-.092-.417-.141t-.483-.141q-.325-.092-.5-.145a9.372,9.372,0,0,1-.9-.316,3.932,3.932,0,0,1-.729-.417,1.679,1.679,0,0,1-.567-.681,2.3,2.3,0,0,1-.189-.967,2.234,2.234,0,0,1,.422-1.38,2.374,2.374,0,0,1,1.094-.813,4.374,4.374,0,0,1,1.534-.25,3.754,3.754,0,0,1,2.1.563,2.4,2.4,0,0,1,1.05,1.688l-1.248.316a1.655,1.655,0,0,0-.659-1.094,2.1,2.1,0,0,0-1.239-.365,2.139,2.139,0,0,0-1.16.3,1.019,1.019,0,0,0-.483.927.923.923,0,0,0,.127.479,1.521,1.521,0,0,0,.259.338,1.594,1.594,0,0,0,.475.259q.343.136.51.185t.633.163q.088.026.132.035.51.132.831.233a5.105,5.105,0,0,1,.747.316,2.484,2.484,0,0,1,.672.47,2.178,2.178,0,0,1,.422.668,2.358,2.358,0,0,1,.176.932,2.516,2.516,0,0,1-.259,1.165,2.028,2.028,0,0,1-.708.8,3.422,3.422,0,0,1-1.006.435A4.8,4.8,0,0,1,114.567,65.167Zm9.211,0a4.554,4.554,0,0,1-2.215-.536A3.9,3.9,0,0,1,120,63.062a4.819,4.819,0,0,1-.576-2.386,4.4,4.4,0,0,1,1.226-3.256,4.6,4.6,0,0,1,6.253,0,4.956,4.956,0,0,1,0,6.521A4.232,4.232,0,0,1,123.778,65.167ZM123.77,63.9a2.654,2.654,0,0,0,2.043-.888,3.755,3.755,0,0,0,0-4.667,2.654,2.654,0,0,0-2.043-.888,2.617,2.617,0,0,0-2.026.888,3.788,3.788,0,0,0,0,4.667A2.617,2.617,0,0,0,123.77,63.9Zm9.475,1.266a4.1,4.1,0,0,1-2.329-.624,2.581,2.581,0,0,1-1.134-1.775l1.327-.378a1.851,1.851,0,0,0,.708,1.2,2.3,2.3,0,0,0,1.419.426,2.832,2.832,0,0,0,.831-.114,1.331,1.331,0,0,0,.637-.426,1.189,1.189,0,0,0,.185-1.143,1.526,1.526,0,0,0-.141-.286.87.87,0,0,0-.246-.237,3.245,3.245,0,0,0-.3-.185,3.067,3.067,0,0,0-.391-.163q-.259-.092-.417-.141t-.483-.141q-.325-.092-.5-.145a9.372,9.372,0,0,1-.9-.316,3.932,3.932,0,0,1-.729-.417,1.679,1.679,0,0,1-.567-.681,2.3,2.3,0,0,1-.189-.967,2.234,2.234,0,0,1,.422-1.38,2.374,2.374,0,0,1,1.094-.813,4.374,4.374,0,0,1,1.534-.25,3.754,3.754,0,0,1,2.1.563,2.4,2.4,0,0,1,1.05,1.688l-1.248.316a1.655,1.655,0,0,0-.659-1.094,2.1,2.1,0,0,0-1.239-.365,2.139,2.139,0,0,0-1.16.3,1.019,1.019,0,0,0-.483.927.923.923,0,0,0,.127.479,1.521,1.521,0,0,0,.259.338,1.594,1.594,0,0,0,.475.259q.343.136.51.185t.633.163q.088.026.132.035.51.132.831.233a5.105,5.105,0,0,1,.747.316,2.484,2.484,0,0,1,.672.47,2.178,2.178,0,0,1,.422.668,2.358,2.358,0,0,1,.176.932,2.516,2.516,0,0,1-.259,1.165,2.028,2.028,0,0,1-.708.8,3.422,3.422,0,0,1-1.006.435A4.8,4.8,0,0,1,133.244,65.167Zm-104.4,35.458h1.661L25.974,113H24.356l-4.535-12.375h1.652l3.691,10.406Zm12.445,0h1.564V113H41.2l-6.671-10.011V113H32.979V100.625h1.644l6.671,9.967ZM54.688,113l-1.063-2.962h-5.6L46.971,113H45.327l4.562-12.375H51.77L56.331,113Zm-6.161-4.351h4.605l-2.3-6.442Zm17.692,2.54v-3.56h-3.56v-1.248h3.56V102.84h1.248v3.542h3.542v1.248H67.467v3.56ZM78.761,113V100.625h1.573V113Zm9.141-8.807a3.005,3.005,0,0,1,2.175.782,2.918,2.918,0,0,1,.813,2.206V113H89.369v-5.476a2.043,2.043,0,0,0-.527-1.547,1.885,1.885,0,0,0-1.354-.5,2.09,2.09,0,0,0-1.538.593,2.407,2.407,0,0,0-.606,1.762V113H83.823v-8.64h1.521v1.107A2.885,2.885,0,0,1,87.9,104.193Zm11.021.167h1.626L97.033,113H95.741l-3.5-8.64H93.86l2.531,6.873Zm10.644,4.148-.018.413H102.8a3.053,3.053,0,0,0,.826,2.21,2.713,2.713,0,0,0,1.969.769,2.59,2.59,0,0,0,1.433-.413,2.68,2.68,0,0,0,.984-1.143l1.371.29a3.9,3.9,0,0,1-1.477,1.854,4.028,4.028,0,0,1-2.294.677,4.174,4.174,0,0,1-3.111-1.2,5.127,5.127,0,0,1,0-6.565,4.122,4.122,0,0,1,3.063-1.2,3.9,3.9,0,0,1,2.9,1.107A4.376,4.376,0,0,1,109.566,108.509Zm-4-3.146a2.694,2.694,0,0,0-1.8.611,2.8,2.8,0,0,0-.91,1.78h5.177a2.567,2.567,0,0,0-.756-1.78A2.441,2.441,0,0,0,105.567,105.362Zm7.866.519a2.612,2.612,0,0,1,1.072-1.16,3.229,3.229,0,0,1,1.661-.457V105.7a2.846,2.846,0,0,0-2.008.642,2.68,2.68,0,0,0-.69,2.048V113h-1.521v-8.64h1.485Zm7.251,7.286a4.1,4.1,0,0,1-2.329-.624,2.581,2.581,0,0,1-1.134-1.775l1.327-.378a1.851,1.851,0,0,0,.708,1.2,2.3,2.3,0,0,0,1.419.426,2.832,2.832,0,0,0,.831-.114,1.331,1.331,0,0,0,.637-.426,1.189,1.189,0,0,0,.185-1.143,1.526,1.526,0,0,0-.141-.286.87.87,0,0,0-.246-.237,3.245,3.245,0,0,0-.3-.185,3.067,3.067,0,0,0-.391-.163q-.259-.092-.417-.141t-.483-.141q-.325-.092-.5-.145a9.372,9.372,0,0,1-.9-.316,3.932,3.932,0,0,1-.729-.417,1.679,1.679,0,0,1-.567-.681,2.3,2.3,0,0,1-.189-.967,2.234,2.234,0,0,1,.422-1.38,2.374,2.374,0,0,1,1.094-.813,4.374,4.374,0,0,1,1.534-.25,3.754,3.754,0,0,1,2.1.563,2.4,2.4,0,0,1,1.05,1.688l-1.248.316a1.655,1.655,0,0,0-.659-1.094,2.1,2.1,0,0,0-1.239-.365,2.139,2.139,0,0,0-1.16.3,1.019,1.019,0,0,0-.483.927.923.923,0,0,0,.127.479,1.521,1.521,0,0,0,.259.338,1.594,1.594,0,0,0,.475.259q.343.136.51.185t.633.163q.088.026.132.035.51.132.831.233a5.105,5.105,0,0,1,.747.316,2.484,2.484,0,0,1,.672.47,2.178,2.178,0,0,1,.422.668,2.358,2.358,0,0,1,.176.932,2.516,2.516,0,0,1-.259,1.165,2.028,2.028,0,0,1-.708.8,3.422,3.422,0,0,1-1.006.435A4.8,4.8,0,0,1,120.685,113.167Zm6.346-10.837A1.035,1.035,0,0,1,126,101.3a.975.975,0,0,1,.3-.721,1,1,0,0,1,.725-.3.987.987,0,0,1,.716.3.975.975,0,0,1,.3.721.989.989,0,0,1-.3.725A.979.979,0,0,1,127.03,102.33ZM126.257,113v-8.64h1.529V113Zm7.682-10.125,2.206-2.865.809.589-1.969,2.276Zm.58,10.292a4.554,4.554,0,0,1-2.215-.536,3.9,3.9,0,0,1-1.56-1.569,4.819,4.819,0,0,1-.576-2.386,4.4,4.4,0,0,1,1.226-3.256,4.6,4.6,0,0,1,6.253,0,4.956,4.956,0,0,1,0,6.521A4.232,4.232,0,0,1,134.519,113.167Zm-.009-1.266a2.654,2.654,0,0,0,2.043-.888,3.755,3.755,0,0,0,0-4.667,2.654,2.654,0,0,0-2.043-.888,2.617,2.617,0,0,0-2.026.888,3.788,3.788,0,0,0,0,4.667A2.617,2.617,0,0,0,134.51,111.9Zm10.819-7.708a3.005,3.005,0,0,1,2.175.782,2.918,2.918,0,0,1,.813,2.206V113H146.8v-5.476a2.043,2.043,0,0,0-.527-1.547,1.885,1.885,0,0,0-1.354-.5,2.09,2.09,0,0,0-1.538.593,2.407,2.407,0,0,0-.606,1.762V113h-1.521v-8.64h1.521v1.107A2.885,2.885,0,0,1,145.329,104.193ZM20.568,154.54a3.32,3.32,0,0,1,1.789,1.077,3.061,3.061,0,0,1,.655,2.026,3.24,3.24,0,0,1-.954,2.426,3.484,3.484,0,0,1-2.544.932H14.7V148.625H18.45a3.8,3.8,0,0,1,2.65.91,3.044,3.044,0,0,1,1.006,2.369,3.13,3.13,0,0,1-.4,1.591A2.542,2.542,0,0,1,20.568,154.54ZM20.63,152a1.888,1.888,0,0,0-.593-1.433,2.223,2.223,0,0,0-1.6-.562H16.218v4.043h2.514a1.752,1.752,0,0,0,1.367-.593A2.1,2.1,0,0,0,20.63,152Zm-1.38,7.6a2.185,2.185,0,0,0,1.63-.611,2.063,2.063,0,0,0,.6-1.507,2.032,2.032,0,0,0-.628-1.534,2.381,2.381,0,0,0-1.718-.6H16.218V159.6ZM33.1,156.509l-.018.413h-6.75a3.053,3.053,0,0,0,.826,2.21,2.713,2.713,0,0,0,1.969.769,2.59,2.59,0,0,0,1.433-.413,2.68,2.68,0,0,0,.984-1.143l1.371.29a3.9,3.9,0,0,1-1.477,1.854,4.028,4.028,0,0,1-2.294.677,4.174,4.174,0,0,1-3.111-1.2,5.127,5.127,0,0,1,0-6.565,4.122,4.122,0,0,1,3.063-1.2,3.9,3.9,0,0,1,2.9,1.107A4.376,4.376,0,0,1,33.1,156.509Zm-4-3.146a2.694,2.694,0,0,0-1.8.611,2.8,2.8,0,0,0-.91,1.78h5.177a2.567,2.567,0,0,0-.756-1.78A2.441,2.441,0,0,0,29.1,153.362Zm10.459-1.169a3.005,3.005,0,0,1,2.175.782,2.918,2.918,0,0,1,.813,2.206V161H41.029v-5.476a2.043,2.043,0,0,0-.527-1.547,1.885,1.885,0,0,0-1.354-.5,2.09,2.09,0,0,0-1.538.593A2.407,2.407,0,0,0,37,155.832V161H35.483v-8.64H37v1.107A2.885,2.885,0,0,1,39.562,152.193Zm13.482,4.315-.018.413h-6.75a3.053,3.053,0,0,0,.826,2.21,2.713,2.713,0,0,0,1.969.769,2.59,2.59,0,0,0,1.433-.413,2.68,2.68,0,0,0,.984-1.143l1.371.29a3.9,3.9,0,0,1-1.477,1.854,4.028,4.028,0,0,1-2.294.677,4.174,4.174,0,0,1-3.111-1.2,5.127,5.127,0,0,1,0-6.565,4.122,4.122,0,0,1,3.063-1.2,3.9,3.9,0,0,1,2.9,1.107A4.376,4.376,0,0,1,53.044,156.509Zm-4-3.146a2.694,2.694,0,0,0-1.8.611,2.8,2.8,0,0,0-.91,1.78h5.177a2.567,2.567,0,0,0-.756-1.78A2.441,2.441,0,0,0,49.045,153.362Zm6.829-2.812a4.969,4.969,0,0,1,.092-1.006,3.264,3.264,0,0,1,.246-.76,1.806,1.806,0,0,1,.409-.549,2.4,2.4,0,0,1,.532-.374,2.639,2.639,0,0,1,.655-.22,6.146,6.146,0,0,1,.743-.11q.365-.031.839-.031v1.274h-.33q-.1,0-.316.018a2.028,2.028,0,0,0-.316.044q-.1.026-.272.088a.7.7,0,0,0-.259.149q-.088.088-.2.224a.918.918,0,0,0-.171.316,3.025,3.025,0,0,0-.1.422,3.364,3.364,0,0,0-.04.541v1.784h2v1.213h-2V161H55.874v-7.427H54.2V152.36h1.67Zm6.047-.22a1.035,1.035,0,0,1-1.028-1.028.975.975,0,0,1,.3-.721,1,1,0,0,1,.725-.3.987.987,0,0,1,.716.3.975.975,0,0,1,.3.721.989.989,0,0,1-.3.725A.979.979,0,0,1,61.921,150.33ZM61.147,161v-8.64h1.529V161Zm8.209.158a4.161,4.161,0,0,1-3.094-1.239,4.922,4.922,0,0,1,0-6.486,4.5,4.5,0,0,1,5.6-.483,3.815,3.815,0,0,1,1.455,2.1l-1.424.229a2.63,2.63,0,0,0-.976-1.345,2.656,2.656,0,0,0-1.564-.475,2.554,2.554,0,0,0-2,.888,3.835,3.835,0,0,0,0,4.654,2.56,2.56,0,0,0,2,.883,2.656,2.656,0,0,0,1.564-.475,2.63,2.63,0,0,0,.976-1.345l1.424.237a3.819,3.819,0,0,1-1.463,2.1A4.185,4.185,0,0,1,69.356,161.158Zm6.97-10.828A1.035,1.035,0,0,1,75.3,149.3a.975.975,0,0,1,.3-.721,1,1,0,0,1,.725-.3.987.987,0,0,1,.716.3.975.975,0,0,1,.3.721.989.989,0,0,1-.3.725A.979.979,0,0,1,76.326,150.33ZM75.553,161v-8.64h1.529V161Zm8.262.167a4.554,4.554,0,0,1-2.215-.536,3.9,3.9,0,0,1-1.56-1.569,4.819,4.819,0,0,1-.576-2.386,4.4,4.4,0,0,1,1.226-3.256,4.6,4.6,0,0,1,6.253,0,4.956,4.956,0,0,1,0,6.521A4.232,4.232,0,0,1,83.814,161.167Zm-.009-1.266a2.654,2.654,0,0,0,2.043-.888,3.755,3.755,0,0,0,0-4.667,2.654,2.654,0,0,0-2.043-.888,2.617,2.617,0,0,0-2.026.888,3.788,3.788,0,0,0,0,4.667A2.617,2.617,0,0,0,83.806,159.9Zm11.373-2.953v-1.257h6.3v1.257Zm19.731,4.219a6.574,6.574,0,0,1-2.435-.444,5.879,5.879,0,0,1-1.956-1.248,5.567,5.567,0,0,1-1.3-2.008,7.263,7.263,0,0,1-.47-2.663,7.144,7.144,0,0,1,.475-2.65,5.556,5.556,0,0,1,3.252-3.256,6.633,6.633,0,0,1,2.435-.439,6.287,6.287,0,0,1,3.292.87,5.421,5.421,0,0,1,2.175,2.417l-1.45.6a4.075,4.075,0,0,0-1.622-1.762,4.654,4.654,0,0,0-2.4-.62,4.921,4.921,0,0,0-1.8.325,4.317,4.317,0,0,0-1.459.932,4.206,4.206,0,0,0-.98,1.529,6.132,6.132,0,0,0,0,4.118,4.2,4.2,0,0,0,.98,1.534,4.374,4.374,0,0,0,1.459.936,4.863,4.863,0,0,0,1.8.33,4.654,4.654,0,0,0,2.4-.62,4.085,4.085,0,0,0,1.622-1.753l1.45.589a5.394,5.394,0,0,1-2.171,2.421A6.305,6.305,0,0,1,114.91,161.167Zm11.408,0a4.554,4.554,0,0,1-2.215-.536,3.9,3.9,0,0,1-1.56-1.569,4.819,4.819,0,0,1-.576-2.386,4.4,4.4,0,0,1,1.226-3.256,4.6,4.6,0,0,1,6.253,0,4.956,4.956,0,0,1,0,6.521A4.232,4.232,0,0,1,126.318,161.167Zm-.009-1.266a2.654,2.654,0,0,0,2.043-.888,3.755,3.755,0,0,0,0-4.667,2.654,2.654,0,0,0-2.043-.888,2.617,2.617,0,0,0-2.026.888,3.788,3.788,0,0,0,0,4.667A2.617,2.617,0,0,0,126.31,159.9Zm9.475,1.266a4.1,4.1,0,0,1-2.329-.624,2.581,2.581,0,0,1-1.134-1.775l1.327-.378a1.851,1.851,0,0,0,.708,1.2,2.3,2.3,0,0,0,1.419.426,2.832,2.832,0,0,0,.831-.114,1.331,1.331,0,0,0,.637-.426,1.189,1.189,0,0,0,.185-1.143,1.526,1.526,0,0,0-.141-.286.87.87,0,0,0-.246-.237,3.245,3.245,0,0,0-.3-.185,3.067,3.067,0,0,0-.391-.163q-.259-.092-.417-.141t-.483-.141q-.325-.092-.5-.145a9.372,9.372,0,0,1-.9-.316,3.932,3.932,0,0,1-.729-.417,1.679,1.679,0,0,1-.567-.681,2.3,2.3,0,0,1-.189-.967,2.234,2.234,0,0,1,.422-1.38,2.374,2.374,0,0,1,1.094-.813,4.374,4.374,0,0,1,1.534-.25,3.754,3.754,0,0,1,2.1.563,2.4,2.4,0,0,1,1.05,1.688l-1.248.316a1.655,1.655,0,0,0-.659-1.094,2.1,2.1,0,0,0-1.239-.365,2.139,2.139,0,0,0-1.16.3,1.019,1.019,0,0,0-.483.927.923.923,0,0,0,.127.479,1.521,1.521,0,0,0,.259.338,1.594,1.594,0,0,0,.475.259q.343.136.51.185t.633.163q.088.026.132.035.51.132.831.233a5.105,5.105,0,0,1,.747.316,2.484,2.484,0,0,1,.672.47,2.178,2.178,0,0,1,.422.668,2.358,2.358,0,0,1,.176.932,2.516,2.516,0,0,1-.259,1.165,2.028,2.028,0,0,1-.708.8,3.422,3.422,0,0,1-1.006.435A4.8,4.8,0,0,1,135.784,161.167Zm8.332-.167a2.271,2.271,0,0,1-1.687-.62,2.344,2.344,0,0,1-.615-1.727v-5.08h-1.767V152.36h.65a1.249,1.249,0,0,0,.954-.3,1.492,1.492,0,0,0,.277-1.015v-1.564h1.415v2.883h1.986v1.213h-1.986V158.5a1.31,1.31,0,0,0,.33.954,1.154,1.154,0,0,0,.866.338h.791V161Zm6.943.167a4.554,4.554,0,0,1-2.215-.536,3.9,3.9,0,0,1-1.56-1.569,4.819,4.819,0,0,1-.576-2.386,4.4,4.4,0,0,1,1.226-3.256,4.6,4.6,0,0,1,6.253,0,4.956,4.956,0,0,1,0,6.521A4.232,4.232,0,0,1,151.06,161.167Zm-.009-1.266a2.654,2.654,0,0,0,2.043-.888,3.755,3.755,0,0,0,0-4.667,2.654,2.654,0,0,0-2.043-.888,2.617,2.617,0,0,0-2.026.888,3.788,3.788,0,0,0,0,4.667A2.617,2.617,0,0,0,151.051,159.9Z" transform="translate(2974 -2692.333)" fill="#00223d"/>
    <g id="Trazado_29242" data-name="Trazado 29242" transform="translate(2967.5 -2706)" fill="none">
      <path d="M0,0H324V195.5H0Z" stroke="none"/>
      <path d="M 1 1 L 1 194.5 L 323 194.5 L 323 1 L 1 1 M 0 0 L 324 0 L 324 195.5 L 0 195.5 L 0 0 Z" stroke="none" fill="#707070"/>
    </g>
    <path id="Trazado_28618-2" data-name="Trazado 28618" d="M-212,1833v195.5" transform="translate(3362 -4539)" fill="none" stroke="#707070" stroke-width="1"/>
    <path id="Trazado_28625" data-name="Trazado 28625" d="M1723.5-2852H1400" transform="translate(1568 292.833)" fill="none" stroke="#707070" stroke-width="1"/>
    <path id="Trazado_28626" data-name="Trazado 28626" d="M1723.5-2852H1400" transform="translate(1568 243.75)" fill="none" stroke="#707070" stroke-width="1"/>
    <path id="Trazado_28627" data-name="Trazado 28627" d="M1723.5-2852H1400" transform="translate(1568 194.667)" fill="none" stroke="#707070" stroke-width="1"/>
  </g>
</svg>
