<svg xmlns="http://www.w3.org/2000/svg" width="734" height="289" viewBox="0 0 734 289">
  <g id="Grupo_18138" data-name="Grupo 18138" transform="translate(1654 -1478)">
    <path id="Trazado_29188" data-name="Trazado 29188" d="M0,0H734V184H0Z" transform="translate(-1654 1478)" fill="#fbfbfb"/>
    <g id="Trazado_29189" data-name="Trazado 29189" transform="translate(-1640.5 1494)" fill="none">
      <path d="M0,0H701V152H0Z" stroke="none"/>
      <path d="M 1 1 L 1 151 L 700 151 L 700 1 L 1 1 M 0 0 L 701 0 L 701 152 L 0 152 L 0 0 Z" stroke="none" fill="#707070"/>
    </g>
    <path id="Trazado_29190" data-name="Trazado 29190" d="M4.885,17V4.625H6.458V17Zm9.141-8.807a3.005,3.005,0,0,1,2.175.782,2.918,2.918,0,0,1,.813,2.206V17H15.494V11.524a2.043,2.043,0,0,0-.527-1.547,1.885,1.885,0,0,0-1.354-.5,2.09,2.09,0,0,0-1.538.593,2.407,2.407,0,0,0-.606,1.762V17H9.948V8.36h1.521V9.468A2.885,2.885,0,0,1,14.026,8.193Zm11.021.167h1.626L23.158,17H21.866l-3.5-8.64h1.617l2.531,6.873Zm10.644,4.148-.018.413h-6.75a3.053,3.053,0,0,0,.826,2.21,2.713,2.713,0,0,0,1.969.769,2.59,2.59,0,0,0,1.433-.413,2.68,2.68,0,0,0,.984-1.143l1.371.29A3.9,3.9,0,0,1,34.03,16.49a4.028,4.028,0,0,1-2.294.677,4.174,4.174,0,0,1-3.111-1.2,4.479,4.479,0,0,1-1.187-3.287A4.458,4.458,0,0,1,28.629,9.4a4.122,4.122,0,0,1,3.063-1.2A3.9,3.9,0,0,1,34.6,9.3,4.376,4.376,0,0,1,35.691,12.509Zm-4-3.146a2.694,2.694,0,0,0-1.8.611,2.8,2.8,0,0,0-.91,1.78h5.177a2.567,2.567,0,0,0-.756-1.78A2.441,2.441,0,0,0,31.692,9.362Zm7.866.519a2.612,2.612,0,0,1,1.072-1.16,3.229,3.229,0,0,1,1.661-.457V9.7a2.846,2.846,0,0,0-2.008.642,2.68,2.68,0,0,0-.69,2.048V17H38.073V8.36h1.485Zm7.251,7.286a4.1,4.1,0,0,1-2.329-.624,2.581,2.581,0,0,1-1.134-1.775l1.327-.378a1.851,1.851,0,0,0,.708,1.2,2.3,2.3,0,0,0,1.419.426,2.832,2.832,0,0,0,.831-.114,1.331,1.331,0,0,0,.637-.426,1.189,1.189,0,0,0,.185-1.143,1.526,1.526,0,0,0-.141-.286.87.87,0,0,0-.246-.237,3.245,3.245,0,0,0-.3-.185,3.067,3.067,0,0,0-.391-.163q-.259-.092-.417-.141t-.483-.141q-.325-.092-.5-.145a9.372,9.372,0,0,1-.9-.316,3.932,3.932,0,0,1-.729-.417,1.679,1.679,0,0,1-.567-.681,2.3,2.3,0,0,1-.189-.967,2.234,2.234,0,0,1,.422-1.38,2.374,2.374,0,0,1,1.094-.813,4.374,4.374,0,0,1,1.534-.25,3.754,3.754,0,0,1,2.1.563,2.4,2.4,0,0,1,1.05,1.688l-1.248.316a1.655,1.655,0,0,0-.659-1.094,2.1,2.1,0,0,0-1.239-.365,2.139,2.139,0,0,0-1.16.3,1.019,1.019,0,0,0-.483.927.923.923,0,0,0,.127.479,1.521,1.521,0,0,0,.259.338,1.594,1.594,0,0,0,.475.259q.343.136.51.185t.633.163q.088.026.132.035.51.132.831.233a5.105,5.105,0,0,1,.747.316,2.484,2.484,0,0,1,.672.47,2.178,2.178,0,0,1,.422.668,2.358,2.358,0,0,1,.176.932,2.516,2.516,0,0,1-.259,1.165,2.028,2.028,0,0,1-.708.8,3.422,3.422,0,0,1-1.006.435A4.8,4.8,0,0,1,46.809,17.167ZM53.155,6.33A1.035,1.035,0,0,1,52.126,5.3a.975.975,0,0,1,.3-.721,1,1,0,0,1,.725-.3.987.987,0,0,1,.716.3.975.975,0,0,1,.3.721.989.989,0,0,1-.3.725A.979.979,0,0,1,53.155,6.33ZM52.381,17V8.36h1.529V17ZM60.063,6.875,62.269,4.01l.809.589L61.109,6.875Zm.58,10.292a4.554,4.554,0,0,1-2.215-.536,3.9,3.9,0,0,1-1.56-1.569,4.819,4.819,0,0,1-.576-2.386,4.4,4.4,0,0,1,1.226-3.256,4.6,4.6,0,0,1,6.253,0,4.41,4.41,0,0,1,1.222,3.256,4.413,4.413,0,0,1-1.226,3.265A4.232,4.232,0,0,1,60.643,17.167ZM60.634,15.9a2.654,2.654,0,0,0,2.043-.888,3.326,3.326,0,0,0,.813-2.338,3.314,3.314,0,0,0-.813-2.329,2.654,2.654,0,0,0-2.043-.888,2.617,2.617,0,0,0-2.026.888,3.336,3.336,0,0,0-.8,2.329,3.348,3.348,0,0,0,.8,2.338A2.617,2.617,0,0,0,60.634,15.9ZM71.454,8.193a3.005,3.005,0,0,1,2.175.782,2.918,2.918,0,0,1,.813,2.206V17H72.921V11.524a2.043,2.043,0,0,0-.527-1.547,1.885,1.885,0,0,0-1.354-.5,2.09,2.09,0,0,0-1.538.593,2.407,2.407,0,0,0-.606,1.762V17H67.375V8.36H68.9V9.468A2.885,2.885,0,0,1,71.454,8.193Zm11,8.807V4.625h1.573V17Zm9.141-8.807a3.005,3.005,0,0,1,2.175.782,2.918,2.918,0,0,1,.813,2.206V17H93.057V11.524a2.043,2.043,0,0,0-.527-1.547,1.885,1.885,0,0,0-1.354-.5,2.09,2.09,0,0,0-1.538.593,2.407,2.407,0,0,0-.606,1.762V17H87.511V8.36h1.521V9.468A2.885,2.885,0,0,1,91.589,8.193Zm6.7-1.863A1.035,1.035,0,0,1,97.258,5.3a.975.975,0,0,1,.3-.721,1,1,0,0,1,.725-.3.987.987,0,0,1,.716.3.975.975,0,0,1,.3.721.989.989,0,0,1-.3.725A.979.979,0,0,1,98.287,6.33ZM97.513,17V8.36h1.529V17Zm8.209.158a4.161,4.161,0,0,1-3.094-1.239,4.421,4.421,0,0,1-1.222-3.243,4.43,4.43,0,0,1,1.217-3.243,4.5,4.5,0,0,1,5.6-.483,3.815,3.815,0,0,1,1.455,2.1l-1.424.229a2.63,2.63,0,0,0-.976-1.345,2.656,2.656,0,0,0-1.564-.475,2.554,2.554,0,0,0-2,.888,3.382,3.382,0,0,0-.787,2.329A3.365,3.365,0,0,0,103.714,15a2.56,2.56,0,0,0,2,.883,2.656,2.656,0,0,0,1.564-.475,2.63,2.63,0,0,0,.976-1.345l1.424.237a3.819,3.819,0,0,1-1.463,2.1A4.185,4.185,0,0,1,105.722,17.158Zm6.97-10.828A1.035,1.035,0,0,1,111.664,5.3a.975.975,0,0,1,.3-.721,1,1,0,0,1,.725-.3.987.987,0,0,1,.716.3.975.975,0,0,1,.3.721.989.989,0,0,1-.3.725A.979.979,0,0,1,112.692,6.33ZM111.918,17V8.36h1.529V17Zm6.618.167a2.94,2.94,0,0,1-1.894-.593A2.13,2.13,0,0,1,115.9,14.8a2.517,2.517,0,0,1,.237-1.129,1.991,1.991,0,0,1,.7-.787,4.218,4.218,0,0,1,1.015-.488,9.384,9.384,0,0,1,1.314-.312l1.4-.229q.765-.141.765-.8a1.51,1.51,0,0,0-.541-1.288,2.2,2.2,0,0,0-1.367-.409,2.243,2.243,0,0,0-1.354.4,1.655,1.655,0,0,0-.642,1.213l-1.371-.29a2.639,2.639,0,0,1,1.081-1.85,4.039,4.039,0,0,1,2.355-.62,4.777,4.777,0,0,1,1.252.154,3.4,3.4,0,0,1,1.046.483,2.168,2.168,0,0,1,.747.932,3.466,3.466,0,0,1,.268,1.419v3.568a1.46,1.46,0,0,0,.2.9.854.854,0,0,0,.681.233h.141V17h-.756a1.442,1.442,0,0,1-1.635-1.169h-.07A3.3,3.3,0,0,1,118.537,17.167Zm.352-1.23a2.305,2.305,0,0,0,1.854-.835,3.438,3.438,0,0,0,.7-2.285l-2.285.439a3.076,3.076,0,0,0-1.34.479,1.114,1.114,0,0,0-.435.945,1.1,1.1,0,0,0,.417.949A1.785,1.785,0,0,0,118.888,15.937ZM125.972,17V3.5h1.538V17ZM32.795,54.058h-5.08V58.1h4.43v1.424h-4.43V65H26.106V52.625h6.688ZM35.054,65V51.5h1.538V65Zm10.011-8.64h1.521V65H45.126l-.035-1.143a2.7,2.7,0,0,1-1.072.971,3.3,3.3,0,0,1-1.512.338,3.005,3.005,0,0,1-2.175-.782,2.918,2.918,0,0,1-.813-2.206V56.36h1.521v5.476a2.05,2.05,0,0,0,.532,1.547,1.882,1.882,0,0,0,1.358.51,2.067,2.067,0,0,0,1.534-.6,2.434,2.434,0,0,0,.6-1.767Zm5.4-2.03A1.035,1.035,0,0,1,49.433,53.3a.975.975,0,0,1,.3-.721,1,1,0,0,1,.725-.3.987.987,0,0,1,.716.3.975.975,0,0,1,.3.721.989.989,0,0,1-.3.725A.979.979,0,0,1,50.461,54.33ZM47.692,69.043V67.751a2.472,2.472,0,0,0,1.239-.246,1.348,1.348,0,0,0,.58-.844,7.105,7.105,0,0,0,.167-1.784V56.36h1.538v8.517a5.025,5.025,0,0,1-.8,3.226A3.413,3.413,0,0,1,47.692,69.043Zm10.266-3.876a4.554,4.554,0,0,1-2.215-.536,3.9,3.9,0,0,1-1.56-1.569,4.819,4.819,0,0,1-.576-2.386,4.4,4.4,0,0,1,1.226-3.256,4.6,4.6,0,0,1,6.253,0,4.956,4.956,0,0,1,0,6.521A4.232,4.232,0,0,1,57.958,65.167ZM57.949,63.9a2.654,2.654,0,0,0,2.043-.888,3.755,3.755,0,0,0,0-4.667,2.654,2.654,0,0,0-2.043-.888,2.617,2.617,0,0,0-2.026.888,3.788,3.788,0,0,0,0,4.667A2.617,2.617,0,0,0,57.949,63.9ZM78.076,52.625h1.564V65H77.979L71.309,54.989V65H69.762V52.625h1.644l6.671,9.967Zm12.489,7.884-.018.413H83.8a3.053,3.053,0,0,0,.826,2.21,2.713,2.713,0,0,0,1.969.769,2.59,2.59,0,0,0,1.433-.413,2.68,2.68,0,0,0,.984-1.143l1.371.29A3.9,3.9,0,0,1,88.9,64.49a4.028,4.028,0,0,1-2.294.677,4.174,4.174,0,0,1-3.111-1.2,5.127,5.127,0,0,1,0-6.565,4.122,4.122,0,0,1,3.063-1.2,3.9,3.9,0,0,1,2.9,1.107A4.376,4.376,0,0,1,90.565,60.509Zm-4-3.146a2.694,2.694,0,0,0-1.8.611,2.8,2.8,0,0,0-.91,1.78h5.177a2.567,2.567,0,0,0-.756-1.78A2.441,2.441,0,0,0,86.566,57.362ZM95.707,65a2.271,2.271,0,0,1-1.687-.62,2.344,2.344,0,0,1-.615-1.727v-5.08H91.638V56.36h.65a1.249,1.249,0,0,0,.954-.3,1.492,1.492,0,0,0,.277-1.015V53.478h1.415V56.36H96.92v1.213H94.934V62.5a1.31,1.31,0,0,0,.33.954,1.154,1.154,0,0,0,.866.338h.791V65Zm6.943.167a4.554,4.554,0,0,1-2.215-.536,3.9,3.9,0,0,1-1.56-1.569,4.819,4.819,0,0,1-.576-2.386,4.4,4.4,0,0,1,1.226-3.256,4.6,4.6,0,0,1,6.253,0,4.956,4.956,0,0,1,0,6.521A4.232,4.232,0,0,1,102.65,65.167Zm-.009-1.266a2.654,2.654,0,0,0,2.043-.888,3.755,3.755,0,0,0,0-4.667,2.654,2.654,0,0,0-2.043-.888,2.617,2.617,0,0,0-2.026.888,3.788,3.788,0,0,0,0,4.667A2.617,2.617,0,0,0,102.642,63.9Z" transform="translate(-1612 1554)" fill="#00223d"/>
    <path id="Trazado_29191" data-name="Trazado 29191" d="M14.089,4.625h1.424V17h-1.5V6.286L11.039,8.861V7.235ZM24.135,17.167a3.447,3.447,0,0,1-3.05-1.617A8.623,8.623,0,0,1,20.013,10.8a8.662,8.662,0,0,1,1.059-4.737,3.444,3.444,0,0,1,3.063-1.608,3.436,3.436,0,0,1,3.05,1.613A8.637,8.637,0,0,1,28.248,10.8a8.6,8.6,0,0,1-1.077,4.742A3.44,3.44,0,0,1,24.135,17.167Zm0-1.406a2.093,2.093,0,0,0,1.925-1.239,8.08,8.08,0,0,0,.668-3.718,7.851,7.851,0,0,0-.681-3.713,2.115,2.115,0,0,0-3.828,0,7.891,7.891,0,0,0-.677,3.718,8.122,8.122,0,0,0,.664,3.722A2.091,2.091,0,0,0,24.135,15.761Zm6.688,1.415a.987.987,0,0,1-.716-.3,1.022,1.022,0,0,1,.716-1.74.994.994,0,0,1,.721.3,1,1,0,0,1,0,1.437A1,1,0,0,1,30.823,17.176Zm7.98-.009a3.447,3.447,0,0,1-3.05-1.617A8.623,8.623,0,0,1,34.682,10.8a8.662,8.662,0,0,1,1.059-4.737,3.705,3.705,0,0,1,6.113,0A8.637,8.637,0,0,1,42.917,10.8a8.6,8.6,0,0,1-1.077,4.742A3.44,3.44,0,0,1,38.8,17.167Zm0-1.406a2.093,2.093,0,0,0,1.925-1.239A8.08,8.08,0,0,0,41.4,10.8a7.851,7.851,0,0,0-.681-3.713,2.115,2.115,0,0,0-3.828,0,7.891,7.891,0,0,0-.677,3.718,8.122,8.122,0,0,0,.664,3.722A2.091,2.091,0,0,0,38.8,15.761Zm10.134,1.406a3.447,3.447,0,0,1-3.05-1.617A8.623,8.623,0,0,1,44.815,10.8a8.662,8.662,0,0,1,1.059-4.737,3.705,3.705,0,0,1,6.113,0A8.637,8.637,0,0,1,53.051,10.8a8.6,8.6,0,0,1-1.077,4.742A3.44,3.44,0,0,1,48.938,17.167Zm0-1.406a2.093,2.093,0,0,0,1.925-1.239A8.08,8.08,0,0,0,51.53,10.8a7.851,7.851,0,0,0-.681-3.713,2.115,2.115,0,0,0-3.828,0,7.891,7.891,0,0,0-.677,3.718,8.122,8.122,0,0,0,.664,3.722A2.091,2.091,0,0,0,48.938,15.761Zm10.134,1.406a3.447,3.447,0,0,1-3.05-1.617A8.623,8.623,0,0,1,54.949,10.8a8.662,8.662,0,0,1,1.059-4.737,3.705,3.705,0,0,1,6.113,0A8.637,8.637,0,0,1,63.185,10.8a8.6,8.6,0,0,1-1.077,4.742A3.44,3.44,0,0,1,59.071,17.167Zm0-1.406A2.093,2.093,0,0,0,61,14.521a8.08,8.08,0,0,0,.668-3.718,7.851,7.851,0,0,0-.681-3.713,2.115,2.115,0,0,0-3.828,0,7.891,7.891,0,0,0-.677,3.718,8.122,8.122,0,0,0,.664,3.722A2.091,2.091,0,0,0,59.071,15.761Zm6.688,1.415a.987.987,0,0,1-.716-.3,1.022,1.022,0,0,1,.716-1.74.994.994,0,0,1,.721.3,1,1,0,0,1,0,1.437A1,1,0,0,1,65.76,17.176Zm7.98-.009a3.447,3.447,0,0,1-3.05-1.617A8.623,8.623,0,0,1,69.618,10.8a8.662,8.662,0,0,1,1.059-4.737,3.705,3.705,0,0,1,6.113,0A8.637,8.637,0,0,1,77.854,10.8a8.6,8.6,0,0,1-1.077,4.742A3.44,3.44,0,0,1,73.74,17.167Zm0-1.406a2.093,2.093,0,0,0,1.925-1.239,8.08,8.08,0,0,0,.668-3.718,7.851,7.851,0,0,0-.681-3.713,2.115,2.115,0,0,0-3.828,0,7.891,7.891,0,0,0-.677,3.718,8.122,8.122,0,0,0,.664,3.722A2.091,2.091,0,0,0,73.74,15.761Zm10.134,1.406a3.447,3.447,0,0,1-3.05-1.617A8.623,8.623,0,0,1,79.752,10.8a8.662,8.662,0,0,1,1.059-4.737,3.705,3.705,0,0,1,6.113,0A8.637,8.637,0,0,1,87.987,10.8a8.6,8.6,0,0,1-1.077,4.742A3.44,3.44,0,0,1,83.874,17.167Zm0-1.406A2.093,2.093,0,0,0,85.8,14.521a8.08,8.08,0,0,0,.668-3.718,7.851,7.851,0,0,0-.681-3.713,2.115,2.115,0,0,0-3.828,0,7.891,7.891,0,0,0-.677,3.718,8.122,8.122,0,0,0,.664,3.722A2.091,2.091,0,0,0,83.874,15.761Zm10.134,1.406a3.447,3.447,0,0,1-3.05-1.617A8.623,8.623,0,0,1,89.886,10.8a8.662,8.662,0,0,1,1.059-4.737,3.705,3.705,0,0,1,6.113,0A8.637,8.637,0,0,1,98.121,10.8a8.6,8.6,0,0,1-1.077,4.742A3.44,3.44,0,0,1,94.008,17.167Zm0-1.406a2.093,2.093,0,0,0,1.925-1.239A8.08,8.08,0,0,0,96.6,10.8a7.851,7.851,0,0,0-.681-3.713,2.115,2.115,0,0,0-3.828,0,7.891,7.891,0,0,0-.677,3.718,8.122,8.122,0,0,0,.664,3.722A2.091,2.091,0,0,0,94.008,15.761ZM5.774,60.948V59.691h6.3v1.257Zm12.973-8.323h1.424V65h-1.5V54.286L15.7,56.861V55.235ZM28.793,65.167a3.447,3.447,0,0,1-3.05-1.617A8.623,8.623,0,0,1,24.671,58.8a8.662,8.662,0,0,1,1.059-4.737,3.705,3.705,0,0,1,6.113,0A8.637,8.637,0,0,1,32.906,58.8a8.6,8.6,0,0,1-1.077,4.742A3.44,3.44,0,0,1,28.793,65.167Zm0-1.406a2.093,2.093,0,0,0,1.925-1.239,8.08,8.08,0,0,0,.668-3.718A7.851,7.851,0,0,0,30.7,55.09a2.115,2.115,0,0,0-3.828,0A7.891,7.891,0,0,0,26.2,58.8a8.122,8.122,0,0,0,.664,3.722A2.091,2.091,0,0,0,28.793,63.761Zm6.688,1.415a.987.987,0,0,1-.716-.3,1.022,1.022,0,0,1,.716-1.74.994.994,0,0,1,.721.3,1,1,0,0,1,0,1.437A1,1,0,0,1,35.481,65.176Zm7.98-.009a3.447,3.447,0,0,1-3.05-1.617A8.623,8.623,0,0,1,39.34,58.8,8.662,8.662,0,0,1,40.4,54.066a3.705,3.705,0,0,1,6.113,0A8.637,8.637,0,0,1,47.575,58.8,8.6,8.6,0,0,1,46.5,63.545,3.44,3.44,0,0,1,43.462,65.167Zm0-1.406a2.093,2.093,0,0,0,1.925-1.239,8.08,8.08,0,0,0,.668-3.718,7.851,7.851,0,0,0-.681-3.713,2.115,2.115,0,0,0-3.828,0,7.891,7.891,0,0,0-.677,3.718,8.122,8.122,0,0,0,.664,3.722A2.091,2.091,0,0,0,43.462,63.761ZM53.6,65.167a3.447,3.447,0,0,1-3.05-1.617A8.623,8.623,0,0,1,49.474,58.8a8.662,8.662,0,0,1,1.059-4.737,3.705,3.705,0,0,1,6.113,0A8.637,8.637,0,0,1,57.709,58.8a8.6,8.6,0,0,1-1.077,4.742A3.44,3.44,0,0,1,53.6,65.167Zm0-1.406a2.093,2.093,0,0,0,1.925-1.239,8.08,8.08,0,0,0,.668-3.718,7.851,7.851,0,0,0-.681-3.713,2.115,2.115,0,0,0-3.828,0A7.891,7.891,0,0,0,51,58.8a8.122,8.122,0,0,0,.664,3.722A2.091,2.091,0,0,0,53.6,63.761Zm10.134,1.406a3.447,3.447,0,0,1-3.05-1.617A8.623,8.623,0,0,1,59.607,58.8a8.662,8.662,0,0,1,1.059-4.737,3.705,3.705,0,0,1,6.113,0A8.637,8.637,0,0,1,67.843,58.8a8.6,8.6,0,0,1-1.077,4.742A3.44,3.44,0,0,1,63.729,65.167Zm0-1.406a2.093,2.093,0,0,0,1.925-1.239,8.08,8.08,0,0,0,.668-3.718,7.851,7.851,0,0,0-.681-3.713,2.115,2.115,0,0,0-3.828,0,7.891,7.891,0,0,0-.677,3.718,8.122,8.122,0,0,0,.664,3.722A2.091,2.091,0,0,0,63.729,63.761Zm6.688,1.415a.987.987,0,0,1-.716-.3,1.022,1.022,0,0,1,.716-1.74.994.994,0,0,1,.721.3,1,1,0,0,1,0,1.437A1,1,0,0,1,70.418,65.176Zm7.98-.009a3.447,3.447,0,0,1-3.05-1.617A8.623,8.623,0,0,1,74.276,58.8a8.662,8.662,0,0,1,1.059-4.737,3.705,3.705,0,0,1,6.113,0A8.637,8.637,0,0,1,82.512,58.8a8.6,8.6,0,0,1-1.077,4.742A3.44,3.44,0,0,1,78.4,65.167Zm0-1.406a2.093,2.093,0,0,0,1.925-1.239,8.08,8.08,0,0,0,.668-3.718,7.851,7.851,0,0,0-.681-3.713,2.115,2.115,0,0,0-3.828,0,7.891,7.891,0,0,0-.677,3.718,8.122,8.122,0,0,0,.664,3.722A2.091,2.091,0,0,0,78.4,63.761Zm10.134,1.406a3.447,3.447,0,0,1-3.05-1.617A8.623,8.623,0,0,1,84.41,58.8a8.662,8.662,0,0,1,1.059-4.737,3.705,3.705,0,0,1,6.113,0A8.637,8.637,0,0,1,92.646,58.8a8.6,8.6,0,0,1-1.077,4.742A3.44,3.44,0,0,1,88.532,65.167Zm0-1.406a2.093,2.093,0,0,0,1.925-1.239,8.08,8.08,0,0,0,.668-3.718,7.851,7.851,0,0,0-.681-3.713,2.115,2.115,0,0,0-3.828,0,7.891,7.891,0,0,0-.677,3.718,8.122,8.122,0,0,0,.664,3.722A2.091,2.091,0,0,0,88.532,63.761Zm10.134,1.406a3.447,3.447,0,0,1-3.05-1.617A8.623,8.623,0,0,1,94.544,58.8,8.662,8.662,0,0,1,95.6,54.066a3.705,3.705,0,0,1,6.113,0,8.637,8.637,0,0,1,1.063,4.733,8.6,8.6,0,0,1-1.077,4.742A3.44,3.44,0,0,1,98.666,65.167Zm0-1.406a2.093,2.093,0,0,0,1.925-1.239,8.08,8.08,0,0,0,.668-3.718,7.851,7.851,0,0,0-.681-3.713,2.115,2.115,0,0,0-3.828,0,7.891,7.891,0,0,0-.677,3.718,8.122,8.122,0,0,0,.664,3.722A2.091,2.091,0,0,0,98.666,63.761Z" transform="translate(-1437.5 1554)" fill="#00223d"/>
    <path id="Trazado_29192" data-name="Trazado 29192" d="M16.527,4.625h1.424V17h-1.5V6.286L13.478,8.861V7.235Zm7.857,12.551a.987.987,0,0,1-.716-.3,1.022,1.022,0,0,1,.716-1.74.994.994,0,0,1,.721.3,1,1,0,0,1,0,1.437A1,1,0,0,1,24.385,17.176ZM30.361,15.6h6.161V17h-8.35V15.849l4.957-5.124a5.872,5.872,0,0,0,1.116-1.468,2.928,2.928,0,0,0,.308-1.274,2.136,2.136,0,0,0-.624-1.639,2.548,2.548,0,0,0-3.309.053,2.741,2.741,0,0,0-.628,1.991V9.3L28.472,9.16V8.4a3.912,3.912,0,0,1,1.046-2.94A3.842,3.842,0,0,1,32.313,4.44,3.873,3.873,0,0,1,35,5.381a3.27,3.27,0,0,1,1.05,2.566,3.892,3.892,0,0,1-.417,1.789,7.689,7.689,0,0,1-1.34,1.78ZM42.5,17.167a3.447,3.447,0,0,1-3.05-1.617A8.623,8.623,0,0,1,38.377,10.8a8.662,8.662,0,0,1,1.059-4.737,3.705,3.705,0,0,1,6.113,0A8.637,8.637,0,0,1,46.612,10.8a8.6,8.6,0,0,1-1.077,4.742A3.44,3.44,0,0,1,42.5,17.167Zm0-1.406a2.093,2.093,0,0,0,1.925-1.239,8.08,8.08,0,0,0,.668-3.718,7.851,7.851,0,0,0-.681-3.713,2.115,2.115,0,0,0-3.828,0,7.891,7.891,0,0,0-.677,3.718,8.122,8.122,0,0,0,.664,3.722A2.091,2.091,0,0,0,42.5,15.761Zm10.134,1.406a3.447,3.447,0,0,1-3.05-1.617A8.623,8.623,0,0,1,48.511,10.8,8.662,8.662,0,0,1,49.57,6.066a3.705,3.705,0,0,1,6.113,0A8.637,8.637,0,0,1,56.746,10.8a8.6,8.6,0,0,1-1.077,4.742A3.44,3.44,0,0,1,52.633,17.167Zm0-1.406a2.093,2.093,0,0,0,1.925-1.239,8.08,8.08,0,0,0,.668-3.718,7.851,7.851,0,0,0-.681-3.713,2.115,2.115,0,0,0-3.828,0A7.891,7.891,0,0,0,50.04,10.8a8.122,8.122,0,0,0,.664,3.722A2.091,2.091,0,0,0,52.633,15.761Zm6.688,1.415a.987.987,0,0,1-.716-.3,1.022,1.022,0,0,1,.716-1.74.994.994,0,0,1,.721.3,1,1,0,0,1,0,1.437A1,1,0,0,1,59.321,17.176Zm7.98-.009a3.447,3.447,0,0,1-3.05-1.617A8.623,8.623,0,0,1,63.18,10.8a8.662,8.662,0,0,1,1.059-4.737,3.705,3.705,0,0,1,6.113,0A8.637,8.637,0,0,1,71.415,10.8a8.6,8.6,0,0,1-1.077,4.742A3.44,3.44,0,0,1,67.3,17.167Zm0-1.406a2.093,2.093,0,0,0,1.925-1.239,8.08,8.08,0,0,0,.668-3.718,7.851,7.851,0,0,0-.681-3.713,2.115,2.115,0,0,0-3.828,0,7.891,7.891,0,0,0-.677,3.718,8.122,8.122,0,0,0,.664,3.722A2.091,2.091,0,0,0,67.3,15.761Zm10.134,1.406a3.447,3.447,0,0,1-3.05-1.617A8.623,8.623,0,0,1,73.313,10.8a8.662,8.662,0,0,1,1.059-4.737,3.705,3.705,0,0,1,6.113,0A8.637,8.637,0,0,1,81.549,10.8a8.6,8.6,0,0,1-1.077,4.742A3.44,3.44,0,0,1,77.436,17.167Zm0-1.406a2.093,2.093,0,0,0,1.925-1.239,8.08,8.08,0,0,0,.668-3.718,7.851,7.851,0,0,0-.681-3.713,2.115,2.115,0,0,0-3.828,0,7.891,7.891,0,0,0-.677,3.718,8.122,8.122,0,0,0,.664,3.722A2.091,2.091,0,0,0,77.436,15.761Zm10.134,1.406a3.447,3.447,0,0,1-3.05-1.617A8.623,8.623,0,0,1,83.447,10.8a8.662,8.662,0,0,1,1.059-4.737,3.705,3.705,0,0,1,6.113,0A8.637,8.637,0,0,1,91.683,10.8a8.6,8.6,0,0,1-1.077,4.742A3.44,3.44,0,0,1,87.569,17.167Zm0-1.406a2.093,2.093,0,0,0,1.925-1.239,8.08,8.08,0,0,0,.668-3.718,7.851,7.851,0,0,0-.681-3.713,2.115,2.115,0,0,0-3.828,0,7.891,7.891,0,0,0-.677,3.718,8.122,8.122,0,0,0,.664,3.722A2.091,2.091,0,0,0,87.569,15.761Z" transform="translate(-1300.5 1602)" fill="#00223d"/>
    <path id="Trazado_29193" data-name="Trazado 29193" d="M17.211,12.878a4.176,4.176,0,0,1-.562,2.224,3.974,3.974,0,0,1-1.556,1.512,4.437,4.437,0,0,1-2.145.527,4.32,4.32,0,0,1-3.076-1.165,3.934,3.934,0,0,1-1.239-3A4.873,4.873,0,0,1,9.705,10l4.14-5.379h1.793L12.2,8.958a3.853,3.853,0,0,1,1.072-.149,3.933,3.933,0,0,1,1.9.475,3.8,3.8,0,0,1,1.45,1.419A4.242,4.242,0,0,1,17.211,12.878Zm-4.3,2.848a2.688,2.688,0,0,0,2.813-2.874A2.719,2.719,0,0,0,12.887,10a2.66,2.66,0,0,0-2.021.848,2.842,2.842,0,0,0-.782,2.07,2.739,2.739,0,0,0,.8,2.065A2.834,2.834,0,0,0,12.913,15.726Zm7.972,1.45a.987.987,0,0,1-.716-.3,1.022,1.022,0,0,1,.716-1.74.994.994,0,0,1,.721.3,1,1,0,0,1,0,1.437A1,1,0,0,1,20.885,17.176Zm7.69-8.139a4.8,4.8,0,0,1,3.375,1.042,3.778,3.778,0,0,1,1.116,2.9,4.107,4.107,0,0,1-1.147,3.01,4.026,4.026,0,0,1-3,1.165,4.769,4.769,0,0,1-1.551-.25,4.19,4.19,0,0,1-1.31-.721,3.3,3.3,0,0,1-.914-1.217A4,4,0,0,1,24.8,13.3a5.645,5.645,0,0,1,.044-.633l1.556-.132a6.186,6.186,0,0,0-.07.694,2.794,2.794,0,0,0,.224,1.151,1.968,1.968,0,0,0,.6.787,2.738,2.738,0,0,0,.813.426,2.968,2.968,0,0,0,.918.141,2.538,2.538,0,0,0,1.92-.756,2.69,2.69,0,0,0,.725-1.942,2.559,2.559,0,0,0-.751-1.951,3.368,3.368,0,0,0-2.377-.712H25.279l.765-5.73H32.53V6.058h-5.2l-.4,2.979ZM39,17.167a3.447,3.447,0,0,1-3.05-1.617A8.623,8.623,0,0,1,34.877,10.8a8.662,8.662,0,0,1,1.059-4.737,3.705,3.705,0,0,1,6.113,0A8.637,8.637,0,0,1,43.112,10.8a8.6,8.6,0,0,1-1.077,4.742A3.44,3.44,0,0,1,39,17.167Zm0-1.406a2.093,2.093,0,0,0,1.925-1.239,8.08,8.08,0,0,0,.668-3.718,7.851,7.851,0,0,0-.681-3.713,2.115,2.115,0,0,0-3.828,0,7.891,7.891,0,0,0-.677,3.718,8.122,8.122,0,0,0,.664,3.722A2.091,2.091,0,0,0,39,15.761Zm10.134,1.406a3.447,3.447,0,0,1-3.05-1.617A8.623,8.623,0,0,1,45.011,10.8,8.662,8.662,0,0,1,46.07,6.066a3.705,3.705,0,0,1,6.113,0A8.637,8.637,0,0,1,53.246,10.8a8.6,8.6,0,0,1-1.077,4.742A3.44,3.44,0,0,1,49.133,17.167Zm0-1.406a2.093,2.093,0,0,0,1.925-1.239,8.08,8.08,0,0,0,.668-3.718,7.851,7.851,0,0,0-.681-3.713,2.115,2.115,0,0,0-3.828,0A7.891,7.891,0,0,0,46.54,10.8a8.122,8.122,0,0,0,.664,3.722A2.091,2.091,0,0,0,49.133,15.761Zm6.688,1.415a.987.987,0,0,1-.716-.3,1.022,1.022,0,0,1,.716-1.74.994.994,0,0,1,.721.3,1,1,0,0,1,0,1.437A1,1,0,0,1,55.821,17.176Zm7.98-.009a3.447,3.447,0,0,1-3.05-1.617A8.623,8.623,0,0,1,59.68,10.8a8.662,8.662,0,0,1,1.059-4.737,3.705,3.705,0,0,1,6.113,0A8.637,8.637,0,0,1,67.915,10.8a8.6,8.6,0,0,1-1.077,4.742A3.44,3.44,0,0,1,63.8,17.167Zm0-1.406a2.093,2.093,0,0,0,1.925-1.239,8.08,8.08,0,0,0,.668-3.718,7.851,7.851,0,0,0-.681-3.713,2.115,2.115,0,0,0-3.828,0,7.891,7.891,0,0,0-.677,3.718,8.122,8.122,0,0,0,.664,3.722A2.091,2.091,0,0,0,63.8,15.761Zm10.134,1.406a3.447,3.447,0,0,1-3.05-1.617A8.623,8.623,0,0,1,69.813,10.8a8.662,8.662,0,0,1,1.059-4.737,3.705,3.705,0,0,1,6.113,0A8.637,8.637,0,0,1,78.049,10.8a8.6,8.6,0,0,1-1.077,4.742A3.44,3.44,0,0,1,73.936,17.167Zm0-1.406a2.093,2.093,0,0,0,1.925-1.239,8.08,8.08,0,0,0,.668-3.718,7.851,7.851,0,0,0-.681-3.713,2.115,2.115,0,0,0-3.828,0,7.891,7.891,0,0,0-.677,3.718,8.122,8.122,0,0,0,.664,3.722A2.091,2.091,0,0,0,73.936,15.761Zm10.134,1.406a3.447,3.447,0,0,1-3.05-1.617A8.623,8.623,0,0,1,79.947,10.8a8.662,8.662,0,0,1,1.059-4.737,3.705,3.705,0,0,1,6.113,0A8.637,8.637,0,0,1,88.183,10.8a8.6,8.6,0,0,1-1.077,4.742A3.44,3.44,0,0,1,84.069,17.167Zm0-1.406a2.093,2.093,0,0,0,1.925-1.239,8.08,8.08,0,0,0,.668-3.718,7.851,7.851,0,0,0-.681-3.713,2.115,2.115,0,0,0-3.828,0,7.891,7.891,0,0,0-.677,3.718,8.122,8.122,0,0,0,.664,3.722A2.091,2.091,0,0,0,84.069,15.761Z" transform="translate(-1168.5 1602)" fill="#00223d"/>
    <path id="Trazado_29194" data-name="Trazado 29194" d="M19.012,16.147a4.457,4.457,0,0,1-3,1.02,4.462,4.462,0,0,1-3-1.024,3.369,3.369,0,0,1-1.2-2.694,3.329,3.329,0,0,1,.624-2.021,3.577,3.577,0,0,1,1.7-1.248,3.056,3.056,0,0,1-1.217-1.059A2.694,2.694,0,0,1,12.464,7.6a2.861,2.861,0,0,1,1.011-2.254,3.72,3.72,0,0,1,2.54-.883,3.655,3.655,0,0,1,2.509.888A2.87,2.87,0,0,1,19.531,7.6a2.753,2.753,0,0,1-.439,1.525,2.974,2.974,0,0,1-1.2,1.059,3.647,3.647,0,0,1,1.688,1.252,3.31,3.31,0,0,1,.624,2.017A3.371,3.371,0,0,1,19.012,16.147Zm-3-6.469a2.094,2.094,0,0,0,1.5-.58,1.887,1.887,0,0,0,.611-1.424,1.826,1.826,0,0,0-.611-1.393,2.288,2.288,0,0,0-3.01,0,1.829,1.829,0,0,0-.606,1.4A1.887,1.887,0,0,0,14.508,9.1,2.105,2.105,0,0,0,16.015,9.679Zm0,6.082a2.756,2.756,0,0,0,1.9-.677,2.283,2.283,0,0,0,.76-1.793,2.237,2.237,0,0,0-.76-1.767,2.778,2.778,0,0,0-1.9-.668,2.807,2.807,0,0,0-1.916.668,2.231,2.231,0,0,0-.765,1.767,2.277,2.277,0,0,0,.765,1.793A2.785,2.785,0,0,0,16.015,15.761Zm7.937,1.415a.987.987,0,0,1-.716-.3,1.022,1.022,0,0,1,.716-1.74.994.994,0,0,1,.721.3,1,1,0,0,1,0,1.437A1,1,0,0,1,23.952,17.176ZM27.722,4.625h8.464V5.9L30.139,17H28.4L34.5,6.031H27.722ZM42.066,17.167a3.447,3.447,0,0,1-3.05-1.617A8.623,8.623,0,0,1,37.944,10.8,8.662,8.662,0,0,1,39,6.066a3.705,3.705,0,0,1,6.113,0A8.637,8.637,0,0,1,46.179,10.8,8.6,8.6,0,0,1,45.1,15.545,3.44,3.44,0,0,1,42.066,17.167Zm0-1.406a2.093,2.093,0,0,0,1.925-1.239,8.08,8.08,0,0,0,.668-3.718,7.851,7.851,0,0,0-.681-3.713,2.115,2.115,0,0,0-3.828,0,7.891,7.891,0,0,0-.677,3.718,8.122,8.122,0,0,0,.664,3.722A2.091,2.091,0,0,0,42.066,15.761ZM52.2,17.167a3.447,3.447,0,0,1-3.05-1.617A8.623,8.623,0,0,1,48.078,10.8a8.662,8.662,0,0,1,1.059-4.737,3.705,3.705,0,0,1,6.113,0A8.637,8.637,0,0,1,56.313,10.8a8.6,8.6,0,0,1-1.077,4.742A3.44,3.44,0,0,1,52.2,17.167Zm0-1.406a2.093,2.093,0,0,0,1.925-1.239,8.08,8.08,0,0,0,.668-3.718,7.851,7.851,0,0,0-.681-3.713,2.115,2.115,0,0,0-3.828,0,7.891,7.891,0,0,0-.677,3.718,8.122,8.122,0,0,0,.664,3.722A2.091,2.091,0,0,0,52.2,15.761Zm6.688,1.415a.987.987,0,0,1-.716-.3,1.022,1.022,0,0,1,.716-1.74.994.994,0,0,1,.721.3,1,1,0,0,1,0,1.437A1,1,0,0,1,58.888,17.176Zm7.98-.009a3.447,3.447,0,0,1-3.05-1.617A8.623,8.623,0,0,1,62.747,10.8a8.662,8.662,0,0,1,1.059-4.737,3.705,3.705,0,0,1,6.113,0A8.637,8.637,0,0,1,70.982,10.8a8.6,8.6,0,0,1-1.077,4.742A3.44,3.44,0,0,1,66.869,17.167Zm0-1.406a2.093,2.093,0,0,0,1.925-1.239,8.08,8.08,0,0,0,.668-3.718A7.851,7.851,0,0,0,68.78,7.09a2.115,2.115,0,0,0-3.828,0,7.891,7.891,0,0,0-.677,3.718,8.122,8.122,0,0,0,.664,3.722A2.091,2.091,0,0,0,66.869,15.761ZM77,17.167a3.447,3.447,0,0,1-3.05-1.617A8.623,8.623,0,0,1,72.88,10.8a8.662,8.662,0,0,1,1.059-4.737,3.705,3.705,0,0,1,6.113,0A8.637,8.637,0,0,1,81.116,10.8a8.6,8.6,0,0,1-1.077,4.742A3.44,3.44,0,0,1,77,17.167Zm0-1.406a2.093,2.093,0,0,0,1.925-1.239A8.08,8.08,0,0,0,79.6,10.8a7.851,7.851,0,0,0-.681-3.713,2.115,2.115,0,0,0-3.828,0A7.891,7.891,0,0,0,74.41,10.8a8.122,8.122,0,0,0,.664,3.722A2.091,2.091,0,0,0,77,15.761Z" transform="translate(-1046.5 1602)" fill="#00223d"/>
    <path id="Trazado_29195" data-name="Trazado 29195" d="M21.8,4.3a3.822,3.822,0,0,1,2.927,1.182A4.112,4.112,0,0,1,25.831,8.4a4.011,4.011,0,0,1-1.1,2.9A3.891,3.891,0,0,1,21.8,12.447H19.151V17H16.515V4.3Zm-.439,5.941a1.938,1.938,0,0,0,1.45-.5,1.888,1.888,0,0,0,.483-1.375A1.873,1.873,0,0,0,22.8,7.011a1.92,1.92,0,0,0-1.446-.505H19.151v3.735ZM35.9,12.351l-.026.606h-6.7a2.339,2.339,0,0,0,.721,1.652,2.3,2.3,0,0,0,1.591.571,2.221,2.221,0,0,0,1.191-.312,1.918,1.918,0,0,0,.76-.91l2.32.343a3.945,3.945,0,0,1-1.582,2.118,4.7,4.7,0,0,1-2.672.756,4.891,4.891,0,0,1-3.52-1.244,4.538,4.538,0,0,1-1.305-3.45,4.565,4.565,0,0,1,1.31-3.45A4.746,4.746,0,0,1,31.43,7.771a4.536,4.536,0,0,1,3.243,1.151A4.517,4.517,0,0,1,35.9,12.351ZM31.447,9.564a2,2,0,0,0-2.2,1.74H33.4a1.9,1.9,0,0,0-.624-1.292A1.978,1.978,0,0,0,31.447,9.564ZM40.254,9.4A2.933,2.933,0,0,1,41.44,8.312a3.62,3.62,0,0,1,1.767-.453v2.259a3.423,3.423,0,0,0-2.162.545,2.379,2.379,0,0,0-.668,1.934V17H37.828V7.965h2.426Zm5.73-2.786a1.421,1.421,0,0,1-1.037-.426,1.4,1.4,0,0,1-.431-1.033,1.382,1.382,0,0,1,.435-1.024A1.425,1.425,0,0,1,45.984,3.7a1.463,1.463,0,0,1,1.45,1.45,1.463,1.463,0,0,1-1.45,1.459ZM44.692,17V7.965h2.549V17Zm9.378.176a5.681,5.681,0,0,1-2.558-.554A4.138,4.138,0,0,1,49.759,15a4.846,4.846,0,0,1-.637-2.522,4.42,4.42,0,0,1,1.371-3.428,5.731,5.731,0,0,1,7.163,0,4.42,4.42,0,0,1,1.371,3.428,4.444,4.444,0,0,1-1.371,3.441A5.088,5.088,0,0,1,54.07,17.176Zm-.026-2.013a2.319,2.319,0,0,0,1.789-.738,2.764,2.764,0,0,0,.681-1.951,2.764,2.764,0,0,0-.681-1.951,2.319,2.319,0,0,0-1.789-.738,2.234,2.234,0,0,0-1.736.743,2.789,2.789,0,0,0-.672,1.947,2.789,2.789,0,0,0,.672,1.947A2.234,2.234,0,0,0,54.044,15.163ZM67.315,3.5h2.531V17h-2.4l-.062-1.178a2.58,2.58,0,0,1-1.147,1.024,3.861,3.861,0,0,1-1.692.365,4.394,4.394,0,0,1-1.687-.325,4.064,4.064,0,0,1-2.32-2.408A5.5,5.5,0,0,1,60.2,12.5a5.137,5.137,0,0,1,.6-2.518,4.1,4.1,0,0,1,1.578-1.639,4.345,4.345,0,0,1,2.175-.554,3.957,3.957,0,0,1,1.639.33,2.559,2.559,0,0,1,1.129.936ZM65.127,15.11a2.253,2.253,0,0,0,1.709-.721,2.638,2.638,0,0,0,.681-1.89,2.644,2.644,0,0,0-.686-1.894,2.251,2.251,0,0,0-1.705-.725,2.277,2.277,0,0,0-1.718.712,2.644,2.644,0,0,0-.681,1.907,2.631,2.631,0,0,0,.681,1.9A2.277,2.277,0,0,0,65.127,15.11Zm11.549,2.065a5.681,5.681,0,0,1-2.558-.554A4.138,4.138,0,0,1,72.365,15a4.846,4.846,0,0,1-.637-2.522A4.42,4.42,0,0,1,73.1,9.046a5.731,5.731,0,0,1,7.163,0,4.42,4.42,0,0,1,1.371,3.428,4.444,4.444,0,0,1-1.371,3.441A5.088,5.088,0,0,1,76.676,17.176Zm-.026-2.013a2.319,2.319,0,0,0,1.789-.738,2.764,2.764,0,0,0,.681-1.951,2.764,2.764,0,0,0-.681-1.951,2.319,2.319,0,0,0-1.789-.738,2.234,2.234,0,0,0-1.736.743,2.789,2.789,0,0,0-.672,1.947,2.789,2.789,0,0,0,.672,1.947A2.234,2.234,0,0,0,76.649,15.163Zm15.618,2.013a3.961,3.961,0,0,1-3.415-1.644,8.3,8.3,0,0,1-1.191-4.887,8.3,8.3,0,0,1,1.187-4.887,4.383,4.383,0,0,1,6.829,0,8.3,8.3,0,0,1,1.187,4.887,8.3,8.3,0,0,1-1.191,4.887A3.952,3.952,0,0,1,92.268,17.176Zm0-2.285a1.67,1.67,0,0,0,1.525-1.042,7.251,7.251,0,0,0,.541-3.2,7.2,7.2,0,0,0-.545-3.2A1.673,1.673,0,0,0,92.268,6.4q-2.074,0-2.074,4.245T92.268,14.891Z" transform="translate(-1441.5 1512)" fill="#00223d"/>
    <path id="Trazado_29196" data-name="Trazado 29196" d="M21.8,4.3a3.822,3.822,0,0,1,2.927,1.182A4.112,4.112,0,0,1,25.831,8.4a4.011,4.011,0,0,1-1.1,2.9A3.891,3.891,0,0,1,21.8,12.447H19.151V17H16.515V4.3Zm-.439,5.941a1.938,1.938,0,0,0,1.45-.5,1.888,1.888,0,0,0,.483-1.375A1.873,1.873,0,0,0,22.8,7.011a1.92,1.92,0,0,0-1.446-.505H19.151v3.735ZM35.9,12.351l-.026.606h-6.7a2.339,2.339,0,0,0,.721,1.652,2.3,2.3,0,0,0,1.591.571,2.221,2.221,0,0,0,1.191-.312,1.918,1.918,0,0,0,.76-.91l2.32.343a3.945,3.945,0,0,1-1.582,2.118,4.7,4.7,0,0,1-2.672.756,4.891,4.891,0,0,1-3.52-1.244,4.538,4.538,0,0,1-1.305-3.45,4.565,4.565,0,0,1,1.31-3.45A4.746,4.746,0,0,1,31.43,7.771a4.536,4.536,0,0,1,3.243,1.151A4.517,4.517,0,0,1,35.9,12.351ZM31.447,9.564a2,2,0,0,0-2.2,1.74H33.4a1.9,1.9,0,0,0-.624-1.292A1.978,1.978,0,0,0,31.447,9.564ZM40.254,9.4A2.933,2.933,0,0,1,41.44,8.312a3.62,3.62,0,0,1,1.767-.453v2.259a3.423,3.423,0,0,0-2.162.545,2.379,2.379,0,0,0-.668,1.934V17H37.828V7.965h2.426Zm5.73-2.786a1.421,1.421,0,0,1-1.037-.426,1.4,1.4,0,0,1-.431-1.033,1.382,1.382,0,0,1,.435-1.024A1.425,1.425,0,0,1,45.984,3.7a1.463,1.463,0,0,1,1.45,1.45,1.463,1.463,0,0,1-1.45,1.459ZM44.692,17V7.965h2.549V17Zm9.378.176a5.681,5.681,0,0,1-2.558-.554A4.138,4.138,0,0,1,49.759,15a4.846,4.846,0,0,1-.637-2.522,4.42,4.42,0,0,1,1.371-3.428,5.731,5.731,0,0,1,7.163,0,4.42,4.42,0,0,1,1.371,3.428,4.444,4.444,0,0,1-1.371,3.441A5.088,5.088,0,0,1,54.07,17.176Zm-.026-2.013a2.319,2.319,0,0,0,1.789-.738,2.764,2.764,0,0,0,.681-1.951,2.764,2.764,0,0,0-.681-1.951,2.319,2.319,0,0,0-1.789-.738,2.234,2.234,0,0,0-1.736.743,2.789,2.789,0,0,0-.672,1.947,2.789,2.789,0,0,0,.672,1.947A2.234,2.234,0,0,0,54.044,15.163ZM67.315,3.5h2.531V17h-2.4l-.062-1.178a2.58,2.58,0,0,1-1.147,1.024,3.861,3.861,0,0,1-1.692.365,4.394,4.394,0,0,1-1.687-.325,4.064,4.064,0,0,1-2.32-2.408A5.5,5.5,0,0,1,60.2,12.5a5.137,5.137,0,0,1,.6-2.518,4.1,4.1,0,0,1,1.578-1.639,4.345,4.345,0,0,1,2.175-.554,3.957,3.957,0,0,1,1.639.33,2.559,2.559,0,0,1,1.129.936ZM65.127,15.11a2.253,2.253,0,0,0,1.709-.721,2.638,2.638,0,0,0,.681-1.89,2.644,2.644,0,0,0-.686-1.894,2.251,2.251,0,0,0-1.705-.725,2.277,2.277,0,0,0-1.718.712,2.644,2.644,0,0,0-.681,1.907,2.631,2.631,0,0,0,.681,1.9A2.277,2.277,0,0,0,65.127,15.11Zm11.549,2.065a5.681,5.681,0,0,1-2.558-.554A4.138,4.138,0,0,1,72.365,15a4.846,4.846,0,0,1-.637-2.522A4.42,4.42,0,0,1,73.1,9.046a5.731,5.731,0,0,1,7.163,0,4.42,4.42,0,0,1,1.371,3.428,4.444,4.444,0,0,1-1.371,3.441A5.088,5.088,0,0,1,76.676,17.176Zm-.026-2.013a2.319,2.319,0,0,0,1.789-.738,2.764,2.764,0,0,0,.681-1.951,2.764,2.764,0,0,0-.681-1.951,2.319,2.319,0,0,0-1.789-.738,2.234,2.234,0,0,0-1.736.743,2.789,2.789,0,0,0-.672,1.947,2.789,2.789,0,0,0,.672,1.947A2.234,2.234,0,0,0,76.649,15.163ZM91.907,4.3h2.408V17H91.793V6.9L88.875,9.617v-2.6Z" transform="translate(-1305.5 1512)" fill="#00223d"/>
    <path id="Trazado_29197" data-name="Trazado 29197" d="M21.8,4.3a3.822,3.822,0,0,1,2.927,1.182A4.112,4.112,0,0,1,25.831,8.4a4.011,4.011,0,0,1-1.1,2.9A3.891,3.891,0,0,1,21.8,12.447H19.151V17H16.515V4.3Zm-.439,5.941a1.938,1.938,0,0,0,1.45-.5,1.888,1.888,0,0,0,.483-1.375A1.873,1.873,0,0,0,22.8,7.011a1.92,1.92,0,0,0-1.446-.505H19.151v3.735ZM35.9,12.351l-.026.606h-6.7a2.339,2.339,0,0,0,.721,1.652,2.3,2.3,0,0,0,1.591.571,2.221,2.221,0,0,0,1.191-.312,1.918,1.918,0,0,0,.76-.91l2.32.343a3.945,3.945,0,0,1-1.582,2.118,4.7,4.7,0,0,1-2.672.756,4.891,4.891,0,0,1-3.52-1.244,4.538,4.538,0,0,1-1.305-3.45,4.565,4.565,0,0,1,1.31-3.45A4.746,4.746,0,0,1,31.43,7.771a4.536,4.536,0,0,1,3.243,1.151A4.517,4.517,0,0,1,35.9,12.351ZM31.447,9.564a2,2,0,0,0-2.2,1.74H33.4a1.9,1.9,0,0,0-.624-1.292A1.978,1.978,0,0,0,31.447,9.564ZM40.254,9.4A2.933,2.933,0,0,1,41.44,8.312a3.62,3.62,0,0,1,1.767-.453v2.259a3.423,3.423,0,0,0-2.162.545,2.379,2.379,0,0,0-.668,1.934V17H37.828V7.965h2.426Zm5.73-2.786a1.421,1.421,0,0,1-1.037-.426,1.4,1.4,0,0,1-.431-1.033,1.382,1.382,0,0,1,.435-1.024A1.425,1.425,0,0,1,45.984,3.7a1.463,1.463,0,0,1,1.45,1.45,1.463,1.463,0,0,1-1.45,1.459ZM44.692,17V7.965h2.549V17Zm9.378.176a5.681,5.681,0,0,1-2.558-.554A4.138,4.138,0,0,1,49.759,15a4.846,4.846,0,0,1-.637-2.522,4.42,4.42,0,0,1,1.371-3.428,5.731,5.731,0,0,1,7.163,0,4.42,4.42,0,0,1,1.371,3.428,4.444,4.444,0,0,1-1.371,3.441A5.088,5.088,0,0,1,54.07,17.176Zm-.026-2.013a2.319,2.319,0,0,0,1.789-.738,2.764,2.764,0,0,0,.681-1.951,2.764,2.764,0,0,0-.681-1.951,2.319,2.319,0,0,0-1.789-.738,2.234,2.234,0,0,0-1.736.743,2.789,2.789,0,0,0-.672,1.947,2.789,2.789,0,0,0,.672,1.947A2.234,2.234,0,0,0,54.044,15.163ZM67.315,3.5h2.531V17h-2.4l-.062-1.178a2.58,2.58,0,0,1-1.147,1.024,3.861,3.861,0,0,1-1.692.365,4.394,4.394,0,0,1-1.687-.325,4.064,4.064,0,0,1-2.32-2.408A5.5,5.5,0,0,1,60.2,12.5a5.137,5.137,0,0,1,.6-2.518,4.1,4.1,0,0,1,1.578-1.639,4.345,4.345,0,0,1,2.175-.554,3.957,3.957,0,0,1,1.639.33,2.559,2.559,0,0,1,1.129.936ZM65.127,15.11a2.253,2.253,0,0,0,1.709-.721,2.638,2.638,0,0,0,.681-1.89,2.644,2.644,0,0,0-.686-1.894,2.251,2.251,0,0,0-1.705-.725,2.277,2.277,0,0,0-1.718.712,2.644,2.644,0,0,0-.681,1.907,2.631,2.631,0,0,0,.681,1.9A2.277,2.277,0,0,0,65.127,15.11Zm11.549,2.065a5.681,5.681,0,0,1-2.558-.554A4.138,4.138,0,0,1,72.365,15a4.846,4.846,0,0,1-.637-2.522A4.42,4.42,0,0,1,73.1,9.046a5.731,5.731,0,0,1,7.163,0,4.42,4.42,0,0,1,1.371,3.428,4.444,4.444,0,0,1-1.371,3.441A5.088,5.088,0,0,1,76.676,17.176Zm-.026-2.013a2.319,2.319,0,0,0,1.789-.738,2.764,2.764,0,0,0,.681-1.951,2.764,2.764,0,0,0-.681-1.951,2.319,2.319,0,0,0-1.789-.738,2.234,2.234,0,0,0-1.736.743,2.789,2.789,0,0,0-.672,1.947,2.789,2.789,0,0,0,.672,1.947A2.234,2.234,0,0,0,76.649,15.163ZM91.3,14.741h5.414V17H87.759V15.093l5.054-5.159a3.18,3.18,0,0,0,1.1-2.188,1.548,1.548,0,0,0-.453-1.178,1.782,1.782,0,0,0-1.279-.431q-1.8,0-1.8,2.048v.94L87.855,8.87V8.237a3.961,3.961,0,0,1,1.16-3.054,4.443,4.443,0,0,1,3.146-1.077,4.655,4.655,0,0,1,3.063.976,3.288,3.288,0,0,1,1.182,2.681,3.8,3.8,0,0,1-.4,1.74,7.274,7.274,0,0,1-1.27,1.7Z" transform="translate(-1176.5 1512)" fill="#00223d"/>
    <path id="Trazado_29198" data-name="Trazado 29198" d="M21.8,4.3a3.822,3.822,0,0,1,2.927,1.182A4.112,4.112,0,0,1,25.831,8.4a4.011,4.011,0,0,1-1.1,2.9A3.891,3.891,0,0,1,21.8,12.447H19.151V17H16.515V4.3Zm-.439,5.941a1.938,1.938,0,0,0,1.45-.5,1.888,1.888,0,0,0,.483-1.375A1.873,1.873,0,0,0,22.8,7.011a1.92,1.92,0,0,0-1.446-.505H19.151v3.735ZM35.9,12.351l-.026.606h-6.7a2.339,2.339,0,0,0,.721,1.652,2.3,2.3,0,0,0,1.591.571,2.221,2.221,0,0,0,1.191-.312,1.918,1.918,0,0,0,.76-.91l2.32.343a3.945,3.945,0,0,1-1.582,2.118,4.7,4.7,0,0,1-2.672.756,4.891,4.891,0,0,1-3.52-1.244,4.538,4.538,0,0,1-1.305-3.45,4.565,4.565,0,0,1,1.31-3.45A4.746,4.746,0,0,1,31.43,7.771a4.536,4.536,0,0,1,3.243,1.151A4.517,4.517,0,0,1,35.9,12.351ZM31.447,9.564a2,2,0,0,0-2.2,1.74H33.4a1.9,1.9,0,0,0-.624-1.292A1.978,1.978,0,0,0,31.447,9.564ZM40.254,9.4A2.933,2.933,0,0,1,41.44,8.312a3.62,3.62,0,0,1,1.767-.453v2.259a3.423,3.423,0,0,0-2.162.545,2.379,2.379,0,0,0-.668,1.934V17H37.828V7.965h2.426Zm5.73-2.786a1.421,1.421,0,0,1-1.037-.426,1.4,1.4,0,0,1-.431-1.033,1.382,1.382,0,0,1,.435-1.024A1.425,1.425,0,0,1,45.984,3.7a1.463,1.463,0,0,1,1.45,1.45,1.463,1.463,0,0,1-1.45,1.459ZM44.692,17V7.965h2.549V17Zm9.378.176a5.681,5.681,0,0,1-2.558-.554A4.138,4.138,0,0,1,49.759,15a4.846,4.846,0,0,1-.637-2.522,4.42,4.42,0,0,1,1.371-3.428,5.731,5.731,0,0,1,7.163,0,4.42,4.42,0,0,1,1.371,3.428,4.444,4.444,0,0,1-1.371,3.441A5.088,5.088,0,0,1,54.07,17.176Zm-.026-2.013a2.319,2.319,0,0,0,1.789-.738,2.764,2.764,0,0,0,.681-1.951,2.764,2.764,0,0,0-.681-1.951,2.319,2.319,0,0,0-1.789-.738,2.234,2.234,0,0,0-1.736.743,2.789,2.789,0,0,0-.672,1.947,2.789,2.789,0,0,0,.672,1.947A2.234,2.234,0,0,0,54.044,15.163ZM67.315,3.5h2.531V17h-2.4l-.062-1.178a2.58,2.58,0,0,1-1.147,1.024,3.861,3.861,0,0,1-1.692.365,4.394,4.394,0,0,1-1.687-.325,4.064,4.064,0,0,1-2.32-2.408A5.5,5.5,0,0,1,60.2,12.5a5.137,5.137,0,0,1,.6-2.518,4.1,4.1,0,0,1,1.578-1.639,4.345,4.345,0,0,1,2.175-.554,3.957,3.957,0,0,1,1.639.33,2.559,2.559,0,0,1,1.129.936ZM65.127,15.11a2.253,2.253,0,0,0,1.709-.721,2.638,2.638,0,0,0,.681-1.89,2.644,2.644,0,0,0-.686-1.894,2.251,2.251,0,0,0-1.705-.725,2.277,2.277,0,0,0-1.718.712,2.644,2.644,0,0,0-.681,1.907,2.631,2.631,0,0,0,.681,1.9A2.277,2.277,0,0,0,65.127,15.11Zm11.549,2.065a5.681,5.681,0,0,1-2.558-.554A4.138,4.138,0,0,1,72.365,15a4.846,4.846,0,0,1-.637-2.522A4.42,4.42,0,0,1,73.1,9.046a5.731,5.731,0,0,1,7.163,0,4.42,4.42,0,0,1,1.371,3.428,4.444,4.444,0,0,1-1.371,3.441A5.088,5.088,0,0,1,76.676,17.176Zm-.026-2.013a2.319,2.319,0,0,0,1.789-.738,2.764,2.764,0,0,0,.681-1.951,2.764,2.764,0,0,0-.681-1.951,2.319,2.319,0,0,0-1.789-.738,2.234,2.234,0,0,0-1.736.743,2.789,2.789,0,0,0-.672,1.947,2.789,2.789,0,0,0,.672,1.947A2.234,2.234,0,0,0,76.649,15.163Zm15.583,2.013a4.557,4.557,0,0,1-3.463-1.16,5.031,5.031,0,0,1-1.09-3.551l2.593-.114a9.181,9.181,0,0,0,.04.932A3.22,3.22,0,0,0,90.47,14a1.29,1.29,0,0,0,.334.541,1.517,1.517,0,0,0,.571.312,2.823,2.823,0,0,0,.857.114,2.059,2.059,0,0,0,1.5-.51,1.782,1.782,0,0,0,.523-1.336,1.8,1.8,0,0,0-.5-1.375,1.885,1.885,0,0,0-1.345-.47h-.492V9.31h.457a1.374,1.374,0,0,0,1.05-.448,1.6,1.6,0,0,0,.417-1.134,1.278,1.278,0,0,0-.457-1.055,1.858,1.858,0,0,0-1.2-.369,1.8,1.8,0,0,0-.686.119,1.279,1.279,0,0,0-.461.3,1.341,1.341,0,0,0-.272.466,2.448,2.448,0,0,0-.132.554,5.529,5.529,0,0,0-.031.615L88.04,8.237a4.066,4.066,0,0,1,1.09-3.054,4.156,4.156,0,0,1,3.023-1.059,4.322,4.322,0,0,1,2.9.971A3.042,3.042,0,0,1,96.2,7.508a2.746,2.746,0,0,1-.488,1.635,2.793,2.793,0,0,1-1.112.967,3.13,3.13,0,0,1,.809.36,3.315,3.315,0,0,1,.708.606,2.706,2.706,0,0,1,.523.923,3.713,3.713,0,0,1,.193,1.23,3.589,3.589,0,0,1-1.257,2.87A4.958,4.958,0,0,1,92.232,17.176Z" transform="translate(-1056.5 1512)" fill="#00223d"/>
    <path id="Trazado_29199" data-name="Trazado 29199" d="M0,0H702" transform="translate(-1641 1589.5)" fill="none" stroke="#707070" stroke-width="1"/>
    <path id="Trazado_29200" data-name="Trazado 29200" d="M0,0H702" transform="translate(-1641 1541.5)" fill="none" stroke="#707070" stroke-width="1"/>
    <path id="Trazado_28614" data-name="Trazado 28614" d="M-212,1833v152.333" transform="translate(-1104.5 -339)" fill="none" stroke="#707070" stroke-width="1"/>
    <path id="Trazado_28617" data-name="Trazado 28617" d="M-212,1833v152.333" transform="translate(-1237.5 -339)" fill="none" stroke="#707070" stroke-width="1"/>
    <path id="Trazado_28615" data-name="Trazado 28615" d="M-212,1833v152.333" transform="translate(-976.5 -339)" fill="none" stroke="#707070" stroke-width="1"/>
    <path id="Trazado_28616" data-name="Trazado 28616" d="M-212,1833v152.333" transform="translate(-847.5 -339)" fill="none" stroke="#707070" stroke-width="1"/>
    <path id="Trazado_29201" data-name="Trazado 29201" d="M0,0H349V87H0Z" transform="translate(-1464 1680)" fill="#fbfbfb"/>
    <path id="Trazado_29202" data-name="Trazado 29202" d="M10.316,4.625V6.058H7.143V17H5.579V6.058H2.4V4.625Zm2.593,12.542a2.94,2.94,0,0,1-1.894-.593,2.13,2.13,0,0,1-.743-1.771,2.517,2.517,0,0,1,.237-1.129,1.991,1.991,0,0,1,.7-.787,4.218,4.218,0,0,1,1.015-.488,9.384,9.384,0,0,1,1.314-.312l1.4-.229q.765-.141.765-.8a1.51,1.51,0,0,0-.541-1.288A2.2,2.2,0,0,0,13.8,9.362a2.243,2.243,0,0,0-1.354.4,1.655,1.655,0,0,0-.642,1.213l-1.371-.29a2.639,2.639,0,0,1,1.081-1.85,4.039,4.039,0,0,1,2.355-.62,4.777,4.777,0,0,1,1.252.154,3.4,3.4,0,0,1,1.046.483,2.168,2.168,0,0,1,.747.932A3.466,3.466,0,0,1,17.18,11.2v3.568a1.46,1.46,0,0,0,.2.9.854.854,0,0,0,.681.233H18.2V17h-.756a1.442,1.442,0,0,1-1.635-1.169h-.07A3.3,3.3,0,0,1,12.909,17.167Zm.352-1.23a2.305,2.305,0,0,0,1.854-.835,3.438,3.438,0,0,0,.7-2.285l-2.285.439a3.076,3.076,0,0,0-1.34.479,1.114,1.114,0,0,0-.435.945,1.1,1.1,0,0,0,.417.949A1.785,1.785,0,0,0,13.26,15.937Zm9.817,1.23a4.1,4.1,0,0,1-2.329-.624,2.581,2.581,0,0,1-1.134-1.775l1.327-.378a1.851,1.851,0,0,0,.708,1.2,2.3,2.3,0,0,0,1.419.426A2.832,2.832,0,0,0,23.9,15.9a1.331,1.331,0,0,0,.637-.426,1.189,1.189,0,0,0,.185-1.143,1.526,1.526,0,0,0-.141-.286.87.87,0,0,0-.246-.237,3.245,3.245,0,0,0-.3-.185,3.067,3.067,0,0,0-.391-.163q-.259-.092-.417-.141t-.483-.141q-.325-.092-.5-.145a9.372,9.372,0,0,1-.9-.316,3.932,3.932,0,0,1-.729-.417,1.679,1.679,0,0,1-.567-.681,2.3,2.3,0,0,1-.189-.967,2.234,2.234,0,0,1,.422-1.38,2.374,2.374,0,0,1,1.094-.813,4.374,4.374,0,0,1,1.534-.25,3.754,3.754,0,0,1,2.1.563,2.4,2.4,0,0,1,1.05,1.688l-1.248.316a1.655,1.655,0,0,0-.659-1.094,2.1,2.1,0,0,0-1.239-.365,2.139,2.139,0,0,0-1.16.3,1.019,1.019,0,0,0-.483.927.923.923,0,0,0,.127.479,1.521,1.521,0,0,0,.259.338,1.594,1.594,0,0,0,.475.259q.343.136.51.185t.633.163q.088.026.132.035.51.132.831.233a5.105,5.105,0,0,1,.747.316,2.484,2.484,0,0,1,.672.47,2.178,2.178,0,0,1,.422.668,2.358,2.358,0,0,1,.176.932A2.516,2.516,0,0,1,26,15.792a2.028,2.028,0,0,1-.708.8,3.422,3.422,0,0,1-1.006.435A4.8,4.8,0,0,1,23.078,17.167Zm7.567,0a2.94,2.94,0,0,1-1.894-.593,2.13,2.13,0,0,1-.743-1.771,2.517,2.517,0,0,1,.237-1.129,1.991,1.991,0,0,1,.7-.787,4.218,4.218,0,0,1,1.015-.488,9.384,9.384,0,0,1,1.314-.312l1.4-.229q.765-.141.765-.8A1.51,1.51,0,0,0,32.9,9.771a2.2,2.2,0,0,0-1.367-.409,2.243,2.243,0,0,0-1.354.4,1.655,1.655,0,0,0-.642,1.213l-1.371-.29a2.639,2.639,0,0,1,1.081-1.85,4.039,4.039,0,0,1,2.355-.62,4.777,4.777,0,0,1,1.252.154,3.4,3.4,0,0,1,1.046.483,2.168,2.168,0,0,1,.747.932,3.466,3.466,0,0,1,.268,1.419v3.568a1.46,1.46,0,0,0,.2.9.854.854,0,0,0,.681.233h.141V17H35.18a1.442,1.442,0,0,1-1.635-1.169h-.07A3.3,3.3,0,0,1,30.645,17.167ZM31,15.937a2.305,2.305,0,0,0,1.854-.835,3.438,3.438,0,0,0,.7-2.285l-2.285.439a3.076,3.076,0,0,0-1.34.479,1.114,1.114,0,0,0-.435.945,1.1,1.1,0,0,0,.417.949A1.785,1.785,0,0,0,31,15.937ZM49.137,3.5h1.521V17H49.19l-.035-1.679a3.179,3.179,0,0,1-1.23,1.362,3.429,3.429,0,0,1-1.828.5,3.926,3.926,0,0,1-2.852-1.217,4.16,4.16,0,0,1-.87-1.428,5.225,5.225,0,0,1-.321-1.854,4.543,4.543,0,0,1,1.173-3.243A3.788,3.788,0,0,1,46.1,8.193a3.443,3.443,0,0,1,1.806.488A3.2,3.2,0,0,1,49.137,10ZM46.413,15.866a2.587,2.587,0,0,0,2.008-.91,3.283,3.283,0,0,0,.813-2.272,3.277,3.277,0,0,0-.817-2.268,2.586,2.586,0,0,0-2-.914,2.644,2.644,0,0,0-2.021.883,3.25,3.25,0,0,0-.817,2.3,3.25,3.25,0,0,0,.817,2.3A2.644,2.644,0,0,0,46.413,15.866Zm14.9-3.357-.018.413h-6.75a3.053,3.053,0,0,0,.826,2.21,2.713,2.713,0,0,0,1.969.769,2.59,2.59,0,0,0,1.433-.413,2.68,2.68,0,0,0,.984-1.143l1.371.29a3.9,3.9,0,0,1-1.477,1.854,4.028,4.028,0,0,1-2.294.677,4.174,4.174,0,0,1-3.111-1.2,4.479,4.479,0,0,1-1.187-3.287A4.458,4.458,0,0,1,54.248,9.4a4.122,4.122,0,0,1,3.063-1.2,3.9,3.9,0,0,1,2.9,1.107A4.376,4.376,0,0,1,61.31,12.509Zm-4-3.146a2.694,2.694,0,0,0-1.8.611,2.8,2.8,0,0,0-.91,1.78h5.177a2.567,2.567,0,0,0-.756-1.78A2.441,2.441,0,0,0,57.311,9.362Zm14.7,7.8a4.554,4.554,0,0,1-2.215-.536,3.9,3.9,0,0,1-1.56-1.569,4.819,4.819,0,0,1-.576-2.386,4.4,4.4,0,0,1,1.226-3.256,4.6,4.6,0,0,1,6.253,0,4.41,4.41,0,0,1,1.222,3.256,4.413,4.413,0,0,1-1.226,3.265A4.232,4.232,0,0,1,72.006,17.167ZM72,15.9a2.654,2.654,0,0,0,2.043-.888,3.326,3.326,0,0,0,.813-2.338,3.314,3.314,0,0,0-.813-2.329A2.654,2.654,0,0,0,72,9.459a2.617,2.617,0,0,0-2.026.888,3.336,3.336,0,0,0-.8,2.329,3.348,3.348,0,0,0,.8,2.338A2.617,2.617,0,0,0,72,15.9ZM83.3,8.193a3.93,3.93,0,0,1,1.564.316,3.849,3.849,0,0,1,1.283.888,4.149,4.149,0,0,1,.866,1.424,5.25,5.25,0,0,1,.321,1.863,4.568,4.568,0,0,1-1.165,3.261,3.782,3.782,0,0,1-2.87,1.239,3.42,3.42,0,0,1-1.806-.492,3.226,3.226,0,0,1-1.235-1.327v5.985H78.739V8.36h1.468l.035,1.679a3.163,3.163,0,0,1,1.23-1.349A3.452,3.452,0,0,1,83.3,8.193ZM83,15.866a2.623,2.623,0,0,0,2-.875,3.253,3.253,0,0,0,.813-2.307,3.237,3.237,0,0,0-.813-2.3,2.726,2.726,0,0,0-4.03.04,3.24,3.24,0,0,0-.826,2.263,3.252,3.252,0,0,0,.826,2.272A2.636,2.636,0,0,0,83,15.866Zm10.371,1.3a4.554,4.554,0,0,1-2.215-.536,3.9,3.9,0,0,1-1.56-1.569,4.819,4.819,0,0,1-.576-2.386,4.4,4.4,0,0,1,1.226-3.256,4.6,4.6,0,0,1,6.253,0,4.41,4.41,0,0,1,1.222,3.256A4.413,4.413,0,0,1,96.5,15.941,4.232,4.232,0,0,1,93.373,17.167ZM93.364,15.9a2.654,2.654,0,0,0,2.043-.888,3.326,3.326,0,0,0,.813-2.338,3.314,3.314,0,0,0-.813-2.329,2.654,2.654,0,0,0-2.043-.888,2.617,2.617,0,0,0-2.026.888,3.336,3.336,0,0,0-.8,2.329,3.348,3.348,0,0,0,.8,2.338A2.617,2.617,0,0,0,93.364,15.9Zm8.227-6.021a2.612,2.612,0,0,1,1.072-1.16,3.229,3.229,0,0,1,1.661-.457V9.7a2.846,2.846,0,0,0-2.008.642,2.68,2.68,0,0,0-.69,2.048V17H100.1V8.36h1.485ZM109.369,17a2.271,2.271,0,0,1-1.687-.62,2.344,2.344,0,0,1-.615-1.727V9.573H105.3V8.36h.65a1.249,1.249,0,0,0,.954-.3,1.492,1.492,0,0,0,.277-1.015V5.478H108.6V8.36h1.986V9.573H108.6V14.5a1.31,1.31,0,0,0,.33.954,1.154,1.154,0,0,0,.866.338h.791V17Zm8.789-8.64h1.521V17h-1.459l-.035-1.143a2.7,2.7,0,0,1-1.072.971,3.3,3.3,0,0,1-1.512.338,3.005,3.005,0,0,1-2.175-.782,2.918,2.918,0,0,1-.813-2.206V8.36h1.521v5.476a2.05,2.05,0,0,0,.532,1.547,1.882,1.882,0,0,0,1.358.51,2.067,2.067,0,0,0,1.534-.6,2.434,2.434,0,0,0,.6-1.767Zm8.692-.167a3.005,3.005,0,0,1,2.175.782,2.918,2.918,0,0,1,.813,2.206V17h-1.521V11.524a2.043,2.043,0,0,0-.527-1.547,1.885,1.885,0,0,0-1.354-.5,2.09,2.09,0,0,0-1.538.593,2.407,2.407,0,0,0-.606,1.762V17h-1.521V8.36h1.521V9.468A2.885,2.885,0,0,1,126.85,8.193Zm6.7-1.863A1.035,1.035,0,0,1,132.519,5.3a.975.975,0,0,1,.3-.721,1,1,0,0,1,.725-.3.987.987,0,0,1,.716.3.975.975,0,0,1,.3.721.989.989,0,0,1-.3.725A.979.979,0,0,1,133.547,6.33ZM132.774,17V8.36H134.3V17Zm11-13.5H145.3V17h-1.468l-.035-1.679a3.179,3.179,0,0,1-1.23,1.362,3.429,3.429,0,0,1-1.828.5,3.926,3.926,0,0,1-2.852-1.217,4.16,4.16,0,0,1-.87-1.428,5.225,5.225,0,0,1-.321-1.854,4.543,4.543,0,0,1,1.173-3.243,3.788,3.788,0,0,1,2.87-1.248,3.443,3.443,0,0,1,1.806.488A3.2,3.2,0,0,1,143.778,10Zm-2.725,12.366a2.587,2.587,0,0,0,2.008-.91,3.283,3.283,0,0,0,.813-2.272,3.277,3.277,0,0,0-.817-2.268,2.586,2.586,0,0,0-2-.914,2.644,2.644,0,0,0-2.021.883,3.25,3.25,0,0,0-.817,2.3,3.25,3.25,0,0,0,.817,2.3A2.644,2.644,0,0,0,141.053,15.866Zm9.334,1.3a2.94,2.94,0,0,1-1.894-.593,2.13,2.13,0,0,1-.743-1.771,2.517,2.517,0,0,1,.237-1.129,1.991,1.991,0,0,1,.7-.787,4.218,4.218,0,0,1,1.015-.488,9.384,9.384,0,0,1,1.314-.312l1.4-.229q.765-.141.765-.8a1.51,1.51,0,0,0-.541-1.288,2.2,2.2,0,0,0-1.367-.409,2.243,2.243,0,0,0-1.354.4,1.655,1.655,0,0,0-.642,1.213l-1.371-.29a2.639,2.639,0,0,1,1.081-1.85,4.039,4.039,0,0,1,2.355-.62,4.777,4.777,0,0,1,1.252.154,3.4,3.4,0,0,1,1.046.483,2.168,2.168,0,0,1,.747.932,3.466,3.466,0,0,1,.268,1.419v3.568a1.46,1.46,0,0,0,.2.9.854.854,0,0,0,.681.233h.141V17h-.756a1.442,1.442,0,0,1-1.635-1.169h-.07A3.3,3.3,0,0,1,150.387,17.167Zm.352-1.23a2.305,2.305,0,0,0,1.854-.835,3.438,3.438,0,0,0,.7-2.285l-2.285.439a3.076,3.076,0,0,0-1.34.479,1.114,1.114,0,0,0-.435.945,1.1,1.1,0,0,0,.417.949A1.785,1.785,0,0,0,150.739,15.937ZM164.028,3.5h1.521V17h-1.468l-.035-1.679a3.179,3.179,0,0,1-1.23,1.362,3.429,3.429,0,0,1-1.828.5,3.926,3.926,0,0,1-2.852-1.217,4.16,4.16,0,0,1-.87-1.428,5.225,5.225,0,0,1-.321-1.854,4.543,4.543,0,0,1,1.173-3.243,3.788,3.788,0,0,1,2.87-1.248,3.443,3.443,0,0,1,1.806.488A3.2,3.2,0,0,1,164.028,10ZM161.3,15.866a2.587,2.587,0,0,0,2.008-.91,3.283,3.283,0,0,0,.813-2.272,3.277,3.277,0,0,0-.817-2.268,2.586,2.586,0,0,0-2-.914,2.644,2.644,0,0,0-2.021.883,3.25,3.25,0,0,0-.817,2.3,3.25,3.25,0,0,0,.817,2.3A2.644,2.644,0,0,0,161.3,15.866Z" transform="translate(-1441 1715.333)" fill="#00223d"/>
    <path id="Trazado_29203" data-name="Trazado 29203" d="M15.536,4.3h2.408V17H15.421V6.9L12.5,9.617v-2.6ZM26.654,17.176a5.082,5.082,0,0,1-3.318-1.063,3.494,3.494,0,0,1-1.305-2.856,3.559,3.559,0,0,1,.532-1.947A3.644,3.644,0,0,1,24.035,10a3.217,3.217,0,0,1-1.05-1.081A2.792,2.792,0,0,1,22.6,7.473a2.979,2.979,0,0,1,1.134-2.421,4.46,4.46,0,0,1,2.918-.927,4.387,4.387,0,0,1,2.878.927,2.983,2.983,0,0,1,1.129,2.421,2.845,2.845,0,0,1-.369,1.437A3.244,3.244,0,0,1,29.273,10a3.626,3.626,0,0,1,1.459,1.314,3.582,3.582,0,0,1,.527,1.947,3.649,3.649,0,0,1-.606,2.087A3.817,3.817,0,0,1,29,16.71,5.7,5.7,0,0,1,26.654,17.176Zm0-7.919a1.689,1.689,0,0,0,1.2-.475,1.537,1.537,0,0,0,.5-1.16,1.5,1.5,0,0,0-.5-1.143,1.806,1.806,0,0,0-2.421,0,1.506,1.506,0,0,0-.5,1.143,1.539,1.539,0,0,0,.5,1.165A1.7,1.7,0,0,0,26.654,9.257Zm0,5.651a2.122,2.122,0,0,0,1.485-.536,1.854,1.854,0,0,0,.589-1.441,1.8,1.8,0,0,0-.593-1.411,2.137,2.137,0,0,0-1.481-.532,2.161,2.161,0,0,0-1.5.532,1.8,1.8,0,0,0-.593,1.411,1.847,1.847,0,0,0,.593,1.441A2.15,2.15,0,0,0,26.654,14.908Zm9.07-4.86a2.841,2.841,0,0,1-2.092-.866,2.873,2.873,0,0,1-.861-2.1,2.859,2.859,0,0,1,.866-2.092,2.949,2.949,0,0,1,4.184,0,2.859,2.859,0,0,1,.866,2.092,2.877,2.877,0,0,1-.861,2.1A2.844,2.844,0,0,1,35.724,10.048Zm-.642,6.961L41.727,4.291h2.118L37.192,17.009Zm.642-8.648a1.254,1.254,0,0,0,1.283-1.283,1.221,1.221,0,0,0-.378-.9,1.289,1.289,0,0,0-1.811,0,1.216,1.216,0,0,0-.378.905A1.268,1.268,0,0,0,35.724,8.36Zm7.567,8.789a2.948,2.948,0,0,1-2.971-2.962,2.958,2.958,0,1,1,5.054,2.092A2.823,2.823,0,0,1,43.292,17.149Zm0-1.7a1.25,1.25,0,0,0,.905-.369,1.206,1.206,0,0,0,.378-.9A1.3,1.3,0,0,0,43.292,12.9a1.256,1.256,0,0,0-.918.369,1.234,1.234,0,0,0-.374.914,1.213,1.213,0,0,0,.374.9A1.256,1.256,0,0,0,43.292,15.453Z" transform="translate(-1227.5 1715.333)" fill="#00223d"/>
    <g id="Trazado_29204" data-name="Trazado 29204" transform="translate(-1450.5 1698)" fill="none">
      <path d="M0,0H324V56.667H0Z" stroke="none"/>
      <path d="M 1 1 L 1 55.666748046875 L 323 55.666748046875 L 323 1 L 1 1 M 0 0 L 324 0 L 324 56.666748046875 L 0 56.666748046875 L 0 0 Z" stroke="none" fill="#707070"/>
    </g>
    <path id="Trazado_28618" data-name="Trazado 28618" d="M-212,1833v56.667" transform="translate(-1042 -135)" fill="none" stroke="#707070" stroke-width="1"/>
  </g>
</svg>
