<?xml version="1.0" encoding="utf-8"?>
<!-- Generator: Adobe Illustrator 25.2.0, SVG Export Plug-In . SVG Version: 6.00 Build 0)  -->
<svg version="1.1" id="Layer_1" xmlns="http://www.w3.org/2000/svg" xmlns:xlink="http://www.w3.org/1999/xlink" x="0px" y="0px"
	 viewBox="0 0 256 40" style="enable-background:new 0 0 256 40;" xml:space="preserve">
<style type="text/css">
	.st0{fill:#616321;}
</style>
<g id="Grupo_1474" transform="translate(2185 7041)">
	<g>
		<g>
			<g id="Grupo_1452_9_">
				<circle id="Elipse_568_9_" class="st0" cx="-2183" cy="-7015" r="2"/>
				<circle id="Elipse_571_9_" class="st0" cx="-2171" cy="-7015" r="2"/>
				<circle id="Elipse_569_9_" class="st0" cx="-2183" cy="-7003" r="2"/>
				<circle id="Elipse_570_9_" class="st0" cx="-2171" cy="-7003" r="2"/>
			</g>
			<g id="Grupo_1454_9_" transform="translate(24)">
				<circle id="Elipse_568-2_9_" class="st0" cx="-2183" cy="-7015" r="2"/>
				<circle id="Elipse_571-2_9_" class="st0" cx="-2171" cy="-7015" r="2"/>
				<circle id="Elipse_569-2_9_" class="st0" cx="-2183" cy="-7003" r="2"/>
				<circle id="Elipse_570-2_9_" class="st0" cx="-2171" cy="-7003" r="2"/>
			</g>
			<g id="Grupo_1456_9_" transform="translate(48)">
				<circle id="Elipse_568-3_9_" class="st0" cx="-2183" cy="-7015" r="2"/>
				<circle id="Elipse_571-3_9_" class="st0" cx="-2171" cy="-7015" r="2"/>
				<circle id="Elipse_569-3_9_" class="st0" cx="-2183" cy="-7003" r="2"/>
				<circle id="Elipse_570-3_9_" class="st0" cx="-2171" cy="-7003" r="2"/>
			</g>
			<g id="Grupo_1458_9_" transform="translate(72)">
				<circle id="Elipse_568-4_9_" class="st0" cx="-2183" cy="-7015" r="2"/>
				<circle id="Elipse_571-4_9_" class="st0" cx="-2171" cy="-7015" r="2"/>
				<circle id="Elipse_569-4_9_" class="st0" cx="-2183" cy="-7003" r="2"/>
				<circle id="Elipse_570-4_9_" class="st0" cx="-2171" cy="-7003" r="2"/>
			</g>
			<g id="Grupo_1460_9_" transform="translate(96)">
				<circle id="Elipse_568-5_9_" class="st0" cx="-2183" cy="-7015" r="2"/>
				<circle id="Elipse_571-5_9_" class="st0" cx="-2171" cy="-7015" r="2"/>
				<circle id="Elipse_569-5_9_" class="st0" cx="-2183" cy="-7003" r="2"/>
				<circle id="Elipse_570-5_9_" class="st0" cx="-2171" cy="-7003" r="2"/>
			</g>
			<g id="Grupo_1462_9_" transform="translate(120)">
				<circle id="Elipse_568-6_9_" class="st0" cx="-2183" cy="-7015" r="2"/>
				<circle id="Elipse_571-6_9_" class="st0" cx="-2171" cy="-7015" r="2"/>
				<circle id="Elipse_569-6_9_" class="st0" cx="-2183" cy="-7003" r="2"/>
				<circle id="Elipse_570-6_9_" class="st0" cx="-2171" cy="-7003" r="2"/>
			</g>
			<g id="Grupo_1464_9_" transform="translate(144)">
				<circle id="Elipse_568-7_9_" class="st0" cx="-2183" cy="-7015" r="2"/>
				<circle id="Elipse_571-7_9_" class="st0" cx="-2171" cy="-7015" r="2"/>
				<circle id="Elipse_569-7_9_" class="st0" cx="-2183" cy="-7003" r="2"/>
				<circle id="Elipse_570-7_9_" class="st0" cx="-2171" cy="-7003" r="2"/>
			</g>
			<g id="Grupo_1466_9_" transform="translate(168)">
				<circle id="Elipse_568-8_9_" class="st0" cx="-2183" cy="-7015" r="2"/>
				<circle id="Elipse_571-8_9_" class="st0" cx="-2171" cy="-7015" r="2"/>
				<circle id="Elipse_569-8_9_" class="st0" cx="-2183" cy="-7003" r="2"/>
				<circle id="Elipse_570-8_9_" class="st0" cx="-2171" cy="-7003" r="2"/>
			</g>
			<g id="Grupo_1468_9_" transform="translate(192)">
				<circle id="Elipse_568-9_9_" class="st0" cx="-2183" cy="-7015" r="2"/>
				<circle id="Elipse_571-9_9_" class="st0" cx="-2171" cy="-7015" r="2"/>
				<circle id="Elipse_569-9_9_" class="st0" cx="-2183" cy="-7003" r="2"/>
				<circle id="Elipse_570-9_9_" class="st0" cx="-2171" cy="-7003" r="2"/>
			</g>
			<g id="Grupo_1470_9_" transform="translate(216)">
				<circle id="Elipse_568-10_9_" class="st0" cx="-2183" cy="-7015" r="2"/>
				<circle id="Elipse_571-10_9_" class="st0" cx="-2171" cy="-7015" r="2"/>
				<circle id="Elipse_569-10_9_" class="st0" cx="-2183" cy="-7003" r="2"/>
				<circle id="Elipse_570-10_9_" class="st0" cx="-2171" cy="-7003" r="2"/>
			</g>
			<g id="Grupo_1472_9_" transform="translate(240)">
				<circle id="Elipse_568-11_9_" class="st0" cx="-2183" cy="-7015" r="2"/>
				<circle id="Elipse_571-11_9_" class="st0" cx="-2171" cy="-7015" r="2"/>
				<circle id="Elipse_569-11_9_" class="st0" cx="-2183" cy="-7003" r="2"/>
				<circle id="Elipse_570-11_9_" class="st0" cx="-2171" cy="-7003" r="2"/>
			</g>
			<g id="Grupo_1453_9_" transform="translate(0 -24)">
				<circle id="Elipse_568-12_9_" class="st0" cx="-2183" cy="-7015" r="2"/>
				<circle id="Elipse_571-12_9_" class="st0" cx="-2171" cy="-7015" r="2"/>
				<circle id="Elipse_569-12_9_" class="st0" cx="-2183" cy="-7003" r="2"/>
				<circle id="Elipse_570-12_9_" class="st0" cx="-2171" cy="-7003" r="2"/>
			</g>
			<g id="Grupo_1455_9_" transform="translate(24 -24)">
				<circle id="Elipse_568-13_9_" class="st0" cx="-2183" cy="-7015" r="2"/>
				<circle id="Elipse_571-13_9_" class="st0" cx="-2171" cy="-7015" r="2"/>
				<circle id="Elipse_569-13_9_" class="st0" cx="-2183" cy="-7003" r="2"/>
				<circle id="Elipse_570-13_9_" class="st0" cx="-2171" cy="-7003" r="2"/>
			</g>
			<g id="Grupo_1457_9_" transform="translate(48 -24)">
				<circle id="Elipse_568-14_9_" class="st0" cx="-2183" cy="-7015" r="2"/>
				<circle id="Elipse_571-14_9_" class="st0" cx="-2171" cy="-7015" r="2"/>
				<circle id="Elipse_569-14_9_" class="st0" cx="-2183" cy="-7003" r="2"/>
				<circle id="Elipse_570-14_9_" class="st0" cx="-2171" cy="-7003" r="2"/>
			</g>
			<g id="Grupo_1459_9_" transform="translate(72 -24)">
				<circle id="Elipse_568-15_9_" class="st0" cx="-2183" cy="-7015" r="2"/>
				<circle id="Elipse_571-15_9_" class="st0" cx="-2171" cy="-7015" r="2"/>
				<circle id="Elipse_569-15_9_" class="st0" cx="-2183" cy="-7003" r="2"/>
				<circle id="Elipse_570-15_9_" class="st0" cx="-2171" cy="-7003" r="2"/>
			</g>
			<g id="Grupo_1461_9_" transform="translate(96 -24)">
				<circle id="Elipse_568-16_9_" class="st0" cx="-2183" cy="-7015" r="2"/>
				<circle id="Elipse_571-16_9_" class="st0" cx="-2171" cy="-7015" r="2"/>
				<circle id="Elipse_569-16_9_" class="st0" cx="-2183" cy="-7003" r="2"/>
				<circle id="Elipse_570-16_9_" class="st0" cx="-2171" cy="-7003" r="2"/>
			</g>
			<g id="Grupo_1463_9_" transform="translate(120 -24)">
				<circle id="Elipse_568-17_9_" class="st0" cx="-2183" cy="-7015" r="2"/>
				<circle id="Elipse_571-17_9_" class="st0" cx="-2171" cy="-7015" r="2"/>
				<circle id="Elipse_569-17_9_" class="st0" cx="-2183" cy="-7003" r="2"/>
				<circle id="Elipse_570-17_9_" class="st0" cx="-2171" cy="-7003" r="2"/>
			</g>
			<g id="Grupo_1465_9_" transform="translate(144 -24)">
				<circle id="Elipse_568-18_9_" class="st0" cx="-2183" cy="-7015" r="2"/>
				<circle id="Elipse_571-18_9_" class="st0" cx="-2171" cy="-7015" r="2"/>
				<circle id="Elipse_569-18_9_" class="st0" cx="-2183" cy="-7003" r="2"/>
				<circle id="Elipse_570-18_9_" class="st0" cx="-2171" cy="-7003" r="2"/>
			</g>
			<g id="Grupo_1467_9_" transform="translate(168 -24)">
				<circle id="Elipse_568-19_9_" class="st0" cx="-2183" cy="-7015" r="2"/>
				<circle id="Elipse_571-19_9_" class="st0" cx="-2171" cy="-7015" r="2"/>
				<circle id="Elipse_569-19_9_" class="st0" cx="-2183" cy="-7003" r="2"/>
				<circle id="Elipse_570-19_9_" class="st0" cx="-2171" cy="-7003" r="2"/>
			</g>
			<g id="Grupo_1469_9_" transform="translate(192 -24)">
				<circle id="Elipse_568-20_9_" class="st0" cx="-2183" cy="-7015" r="2"/>
				<circle id="Elipse_571-20_9_" class="st0" cx="-2171" cy="-7015" r="2"/>
				<circle id="Elipse_569-20_9_" class="st0" cx="-2183" cy="-7003" r="2"/>
				<circle id="Elipse_570-20_9_" class="st0" cx="-2171" cy="-7003" r="2"/>
			</g>
			<g id="Grupo_1471_9_" transform="translate(216 -24)">
				<circle id="Elipse_568-21_9_" class="st0" cx="-2183" cy="-7015" r="2"/>
				<circle id="Elipse_571-21_9_" class="st0" cx="-2171" cy="-7015" r="2"/>
				<circle id="Elipse_569-21_9_" class="st0" cx="-2183" cy="-7003" r="2"/>
				<circle id="Elipse_570-21_9_" class="st0" cx="-2171" cy="-7003" r="2"/>
			</g>
			<g id="Grupo_1473_9_" transform="translate(240 -24)">
				<circle id="Elipse_568-22_9_" class="st0" cx="-2183" cy="-7015" r="2"/>
				<circle id="Elipse_571-22_9_" class="st0" cx="-2171" cy="-7015" r="2"/>
				<circle id="Elipse_569-22_9_" class="st0" cx="-2183" cy="-7003" r="2"/>
				<circle id="Elipse_570-22_9_" class="st0" cx="-2171" cy="-7003" r="2"/>
			</g>
		</g>
	</g>
</g>
</svg>
