<svg id="Grupo_2879" data-name="Grupo 2879" xmlns="http://www.w3.org/2000/svg" width="112" height="111.998" viewBox="0 0 112 111.998">
  <path id="Trazado_6134" data-name="Trazado 6134" d="M1602.923,293.6a56,56,0,1,1,56.031-55.877A56,56,0,0,1,1602.923,293.6Zm-33.495-23.039c.405-.095.609-.137.81-.191,3.9-1.038,7.8-2.061,11.682-3.135a1.688,1.688,0,0,1,1.5.254c10.116,6.367,20.844,7.588,32.077,3.545,16.686-6.006,26.476-24.439,22.228-41.634-3.9-15.787-17.006-26.8-33.259-27.422-13.541-.519-24.374,5.073-31.574,16.5-7.812,12.4-7.61,25.252-.3,37.978a2.094,2.094,0,0,1,.2,1.406c-.611,2.483-1.3,4.947-1.96,7.419C1570.375,266.994,1569.924,268.7,1569.428,270.566Z" transform="translate(-1546.954 -181.607)" fill="#f9a825"/>
  <path id="Trazado_6135" data-name="Trazado 6135" d="M1607.578,309.147c.5-1.866.947-3.572,1.4-5.277.66-2.472,1.35-4.936,1.96-7.419a2.093,2.093,0,0,0-.2-1.406c-7.308-12.725-7.509-25.575.3-37.978,7.2-11.43,18.033-17.021,31.574-16.5,16.253.623,29.358,11.635,33.259,27.422,4.249,17.195-5.541,35.628-22.228,41.634-11.233,4.043-21.961,2.822-32.077-3.545a1.689,1.689,0,0,0-1.5-.254c-3.886,1.074-7.786,2.1-11.682,3.135C1608.187,309.01,1607.983,309.052,1607.578,309.147Zm32.4-48.341h-16.726v16.761h8.729a5.761,5.761,0,0,1-2.632,5.6,17.923,17.923,0,0,1-3.44,1.533,18.193,18.193,0,0,1-2.593.529v8c1.36-.214,2.651-.338,3.9-.626,6.421-1.479,13.019-5.733,12.78-15.719-.118-4.936-.021-9.877-.021-14.816Zm3.812-.031v16.779h8.722a6.017,6.017,0,0,1-2.239,5.358,10.793,10.793,0,0,1-5.665,2.143c-.72.065-.9.33-.881,1,.041,1.535.013,3.071.013,4.606v2.467a20.306,20.306,0,0,0,6.991-1.427c5.954-2.411,9.561-6.642,9.727-13.238.147-5.807.044-11.621.046-17.431,0-.079-.068-.158-.114-.258Z" transform="translate(-1585.104 -220.188)" fill="#fff"/>
  <path id="Trazado_6136" data-name="Trazado 6136" d="M1674.184,299.26v1.26c0,4.939-.1,9.88.021,14.816.238,9.985-6.36,14.24-12.781,15.719-1.252.289-2.543.413-3.9.626v-8a18.2,18.2,0,0,0,2.594-.529,17.919,17.919,0,0,0,3.44-1.533,5.761,5.761,0,0,0,2.632-5.6h-8.729V299.26Z" transform="translate(-1619.308 -258.642)" fill="#f9a825"/>
  <path id="Trazado_6137" data-name="Trazado 6137" d="M1716.826,299.171h16.6c.046.1.114.179.114.258,0,5.811.1,11.624-.046,17.431-.167,6.6-3.774,10.827-9.728,13.238a20.3,20.3,0,0,1-6.991,1.427v-2.467c0-1.535.028-3.072-.013-4.606-.018-.67.161-.935.881-1a10.794,10.794,0,0,0,5.665-2.143,6.017,6.017,0,0,0,2.239-5.358h-8.721Z" transform="translate(-1658.137 -258.583)" fill="#f9a825"/>
</svg>
